<svg width="23" height="24" viewBox="0 0 23 24" fill="none" xmlns="http://www.w3.org/2000/svg">
<path d="M1.99531 0.857812C1.26875 1.12031 0.729688 1.71094 0.542188 2.45156C0.514063 2.57812 0.495312 2.86875 0.509375 3.13125C0.523438 3.53906 0.542188 3.62344 0.696875 3.94687C0.982813 4.55156 1.4375 4.95469 2.06563 5.16094L2.375 5.26406V5.62969V6H1.91563C1.49375 6 1.44688 6.00937 1.35313 6.10781C1.27344 6.19219 1.25 6.27656 1.25 6.48281V6.75H0.875H0.5V7.125V7.5H0.875H1.25V7.77187C1.25 7.99687 1.26875 8.0625 1.35781 8.14687C1.46563 8.25 1.49375 8.25 2.90469 8.25H4.34375L4.53594 8.38594C4.63906 8.46094 4.78438 8.54062 4.86406 8.55469C4.98594 8.58281 5 8.60625 5 8.75625C5.00469 8.98594 5.14063 9.26719 5.33281 9.45469C5.65156 9.75937 5.57656 9.75 8.43594 9.75H11.0375L11.0938 9.89062C11.1594 10.05 11.5016 10.3828 11.6516 10.4297C11.7406 10.4578 11.75 10.4906 11.75 10.8562V11.25H7.6625C3.06406 11.25 3.36406 11.2312 3.03594 11.6016C2.73125 11.9484 2.75 11.6297 2.75 16.8844C2.75 21.4547 2.75469 21.6891 2.83906 21.8672C3.00313 22.2141 3.40156 22.5 3.73438 22.5H3.875V22.875V23.25H4.25H4.625V22.875V22.5H10.625H16.625V22.875V23.25H17H17.375V22.875V22.5H17.5156C17.8203 22.5 18.2844 22.1812 18.4063 21.8906L18.4625 21.75H19.1375C20.0375 21.75 20 21.7828 20 20.9062V20.25H20.7031C21.4859 20.25 21.6031 20.2219 21.8984 19.9641C22.2734 19.6312 22.25 20.025 22.25 14.625C22.25 9.225 22.2734 9.61875 21.8984 9.28594C21.5703 9 21.5844 9 19.5781 9H17.75V8.65781C17.75 8.26406 17.6563 8.02031 17.4172 7.79531C17.1875 7.57969 16.9625 7.5 16.5781 7.5H16.25V6.29062C16.25 5.08594 16.25 5.07656 16.1422 4.97812C16.0344 4.87969 16.0016 4.875 14.8297 4.875H13.625V5.25V5.625H14.5625H15.5V6V6.375H14.1031H12.7016L12.6031 6.48281C12.5141 6.58125 12.5 6.64219 12.5 7.04531V7.5H12.1625C11.75 7.5 11.5109 7.59844 11.2859 7.85156C11.0656 8.10469 11 8.29219 11 8.67187V9H8.5625C5.89063 9 5.90469 9 5.80625 8.72812C5.76406 8.60156 5.76875 8.59219 5.93281 8.53125C6.02656 8.49844 6.16719 8.42344 6.25156 8.3625L6.40156 8.25H7.85469C9.56563 8.25 9.5 8.26875 9.5 7.78125V7.5H9.875H10.25V7.125V6.75H9.875H9.5V6.47812C9.5 6.25312 9.48125 6.1875 9.39219 6.10312C9.29375 6.01406 9.23281 6 8.82969 6H8.375V5.62969V5.25937L8.62344 5.17969C9.29844 4.95937 9.76719 4.56094 10.0531 3.94687C10.2031 3.62812 10.2219 3.53437 10.2406 3.12656C10.25 2.86875 10.2359 2.57812 10.2078 2.46094C10.0438 1.80469 9.61719 1.27969 8.99375 0.974999C8.61406 0.782812 8.57188 0.773437 8.09844 0.759374C7.68125 0.745312 7.55 0.759374 7.29688 0.843749C6.54688 1.09219 5.98438 1.69687 5.79219 2.45156C5.76406 2.57812 5.74531 2.86875 5.75938 3.13125C5.77344 3.53906 5.79219 3.62344 5.94688 3.94687C6.23281 4.55156 6.6875 4.95469 7.31563 5.16094L7.625 5.26406V5.62969V6H7.01094C6.43438 6 6.39219 5.99531 6.24688 5.88281C5.7875 5.53125 4.91563 5.54062 4.45625 5.90156C4.34375 5.99062 4.27344 6 3.72969 6H3.125V5.62969V5.25937L3.37344 5.17969C4.04844 4.95937 4.51719 4.56094 4.80313 3.94687C4.95313 3.62812 4.97188 3.53437 4.99063 3.12656C5 2.86875 4.98594 2.57812 4.95781 2.46094C4.79375 1.80469 4.36719 1.27969 3.74375 0.970312C3.35469 0.778124 3.32656 0.773437 2.825 0.759374C2.375 0.749999 2.2625 0.764062 1.99531 0.857812ZM3.44375 1.66406C3.725 1.81875 3.95938 2.05781 4.11875 2.35312C4.20781 2.52187 4.22656 2.625 4.22656 3C4.22656 3.40312 4.2125 3.46875 4.09063 3.69375C3.93125 3.975 3.69219 4.21406 3.39688 4.36875C3.22813 4.45781 3.125 4.47656 2.75 4.47656C2.375 4.47656 2.27188 4.45781 2.10313 4.36875C1.80781 4.21406 1.56875 3.975 1.40938 3.69375C1.2875 3.46875 1.27344 3.40312 1.27344 3C1.27344 2.62969 1.29219 2.52187 1.38125 2.35781C1.69531 1.7625 2.16875 1.48594 2.82031 1.51406C3.12969 1.52812 3.24219 1.55156 3.44375 1.66406ZM8.69375 1.66406C8.975 1.81875 9.20938 2.05781 9.36875 2.35312C9.45781 2.52187 9.47656 2.625 9.47656 3C9.47656 3.40312 9.4625 3.46875 9.34063 3.69375C9.18125 3.975 8.94219 4.21406 8.64688 4.36875C8.47813 4.45781 8.375 4.47656 8 4.47656C7.625 4.47656 7.52188 4.45781 7.35313 4.36875C7.05781 4.21406 6.81875 3.975 6.65938 3.69375C6.5375 3.46875 6.52344 3.40312 6.52344 3C6.52344 2.62969 6.54219 2.52187 6.63125 2.35781C6.94531 1.7625 7.41875 1.48594 8.07031 1.51406C8.37969 1.52812 8.49219 1.55156 8.69375 1.66406ZM5.75469 6.48281C6.25156 6.81562 6.25156 7.43437 5.75469 7.76719C5.29531 8.07656 4.625 7.69687 4.625 7.125C4.625 6.71719 4.96719 6.375 5.375 6.375C5.525 6.375 5.64688 6.40781 5.75469 6.48281ZM3.89844 7.125V7.5H2.95156H2V7.125V6.75H2.95156H3.89844V7.125ZM8.75 7.125V7.5H7.79844H6.85156V7.125V6.75H7.79844H8.75V7.125ZM15.5 7.3125V7.5H14.375H13.25V7.3125V7.125H14.375H15.5V7.3125ZM12.5 9V9.75H12.2422C12.0266 9.75 11.9609 9.73125 11.8672 9.63281C11.7547 9.525 11.75 9.4875 11.75 9C11.75 8.5125 11.7547 8.475 11.8672 8.36719C11.9609 8.26875 12.0266 8.25 12.2422 8.25H12.5V9ZM15.5 9V9.75H14.375H13.25V9V8.25H14.375H15.5V9ZM16.8828 8.36719C16.9953 8.475 17 8.5125 17 9C17 9.4875 16.9953 9.525 16.8828 9.63281C16.7891 9.73125 16.7234 9.75 16.5078 9.75H16.25V9V8.25H16.5078C16.7234 8.25 16.7891 8.26875 16.8828 8.36719ZM21.2375 9.81562C21.3453 9.85781 21.4109 9.92812 21.4484 10.0312C21.5234 10.2469 21.5234 18.9984 21.4484 19.2141C21.3641 19.4484 21.2094 19.5 20.5625 19.5H20V18.8625C20 18.5156 19.9813 18.1922 19.9578 18.15C19.9344 18.1078 19.5969 17.9109 19.2078 17.7187L18.5 17.3719V14.7187C18.5 11.7422 18.5094 11.8547 18.1484 11.5359C17.8953 11.3156 17.7078 11.25 17.3281 11.25H17V10.8562C17 10.4672 17 10.4625 17.1406 10.4062C17.3 10.3406 17.6328 9.99844 17.6797 9.84844C17.7078 9.75 17.7125 9.75 19.3953 9.75C20.7313 9.75 21.1156 9.76406 21.2375 9.81562ZM16.25 10.875V11.25H14.375H12.5V10.875V10.5H14.375H16.25V10.875ZM17.6328 12.1172L17.75 12.2297V16.875V21.5203L17.6328 21.6328L17.5203 21.75H10.625H3.72969L3.61719 21.6328L3.5 21.5203V16.875V12.2297L3.61719 12.1172L3.72969 12H10.625H17.5203L17.6328 12.1172ZM18.8984 18.4078L19.25 18.5812V19.7906V21H18.875H18.5V19.6172C18.5 18.8578 18.5094 18.2344 18.5234 18.2344C18.5328 18.2344 18.7016 18.3141 18.8984 18.4078Z" fill="#404040"/>
<path d="M2.54376 2.50762C2.37033 3.02324 2.36564 3.04668 2.44064 3.16387C2.60939 3.41699 2.93751 3.40293 3.06876 3.13105C3.12033 3.02324 3.10626 2.94824 2.95158 2.48887C2.85314 2.20293 2.76408 1.96855 2.75001 1.96855C2.73595 1.96855 2.6422 2.2123 2.54376 2.50762Z" fill="#404040"/>
<path d="M7.3625 2.44676C7.70937 3.26707 7.86875 3.4452 8.12656 3.31864C8.19687 3.28582 8.28594 3.19676 8.31875 3.12645C8.44531 2.86864 8.26719 2.70926 7.44687 2.36239L7.29688 2.29676L7.3625 2.44676Z" fill="#404040"/>
<path d="M7.82659 12.7501C6.38284 12.9516 5.16877 13.8563 4.56877 15.1735C4.1094 16.1907 4.12346 17.5126 4.60159 18.5438C4.97659 19.3594 5.67502 20.086 6.46252 20.4891C8.03752 21.2907 9.97346 20.9813 11.2297 19.7298C12.111 18.8485 12.5516 17.5923 12.4063 16.3829C12.1625 14.3438 10.5735 12.8532 8.51565 12.7313C8.29534 12.7219 7.98596 12.7266 7.82659 12.7501ZM9.26096 13.5704L9.51877 13.6501L9.22346 13.8048C9.06409 13.8891 8.83909 14.0344 8.72659 14.1282C8.46877 14.3391 8.16877 14.7891 8.06565 15.1173C8.00471 15.3094 7.95315 15.3798 7.86409 15.4173C7.79846 15.4407 7.7094 15.4735 7.66721 15.4923C7.55471 15.5344 7.42815 15.1876 7.42815 14.8313C7.42346 14.4516 7.53596 14.0954 7.76565 13.7391L7.95784 13.4438L8.48284 13.4673C8.77815 13.4813 9.12034 13.5235 9.26096 13.5704ZM6.81877 14.0438C6.6219 14.6298 6.66877 15.3423 6.94534 15.8298C7.05315 16.0266 7.05315 16.036 6.97815 16.2188C6.93127 16.3219 6.86565 16.4063 6.82346 16.4063C6.71096 16.4063 6.35471 16.1626 6.18596 15.9657C5.99846 15.7548 5.87659 15.5251 5.77815 15.1923C5.65159 14.7704 5.67034 14.7048 5.97971 14.4001C6.2094 14.1751 6.78127 13.7813 6.87971 13.7813C6.89377 13.7813 6.86565 13.8985 6.81877 14.0438ZM10.7188 14.4329C10.9391 14.6532 11.375 15.2719 11.375 15.3657C11.375 15.3891 11.2578 15.3657 11.1125 15.3188C10.5313 15.1219 9.81877 15.1735 9.32659 15.4454C9.12971 15.5532 9.12034 15.5532 8.93752 15.4782C8.77346 15.4079 8.75002 15.3844 8.77346 15.286C8.83909 15.0235 9.2094 14.6157 9.5469 14.4376C9.73909 14.3344 10.1703 14.2079 10.3344 14.2079C10.461 14.2032 10.536 14.2501 10.7188 14.4329ZM5.62815 16.4298C5.83909 16.6876 6.28909 16.9876 6.61721 17.0907C6.83752 17.161 6.87502 17.1938 6.94065 17.3626C6.98284 17.4657 7.00159 17.5641 6.97815 17.5829C6.89377 17.6626 6.5469 17.7329 6.27502 17.7282C5.90471 17.7235 5.60002 17.6251 5.22971 17.386L4.93909 17.1985L4.96721 16.6735C4.98127 16.3829 5.02815 16.036 5.07034 15.8954L5.15002 15.6376L5.30471 15.9329C5.38909 16.0923 5.5344 16.3173 5.62815 16.4298ZM10.836 15.9938C11.0656 16.0501 11.3469 16.1907 11.5578 16.3548L11.7125 16.4719L11.6891 16.9923C11.675 17.2782 11.6328 17.6204 11.586 17.761L11.5063 18.0188L11.3516 17.7235C11.2672 17.5641 11.1219 17.3391 11.0281 17.2266C10.8172 16.9688 10.3672 16.6688 10.0391 16.5657C9.8469 16.5048 9.77659 16.4532 9.73909 16.3641C9.71565 16.2985 9.68284 16.2094 9.66409 16.1673C9.64065 16.1063 9.68284 16.0735 9.83752 16.0173C10.1938 15.886 10.3953 15.8813 10.836 15.9938ZM8.70315 16.1766C9.19534 16.4532 9.19534 17.2032 8.70315 17.4798C8.3469 17.6813 7.87346 17.5548 7.67659 17.2032C7.30627 16.5423 8.04221 15.8063 8.70315 16.1766ZM10.0438 17.3438C10.4469 17.5407 10.7985 18.0563 10.9156 18.6282C10.986 18.961 10.9391 19.0594 10.5313 19.3923C10.25 19.6266 9.86096 19.8751 9.78127 19.8751C9.76252 19.8751 9.78596 19.7579 9.83752 19.6173C10.0297 19.0407 9.97815 18.3048 9.71096 17.8266C9.60315 17.6298 9.60315 17.6204 9.67815 17.4376C9.72034 17.3344 9.77659 17.2501 9.80002 17.2501C9.82346 17.2501 9.93596 17.2923 10.0438 17.3438ZM7.73284 18.1876C7.94377 18.2673 7.94846 18.3376 7.77502 18.6141C7.53596 18.9891 7.19377 19.2282 6.69221 19.3782C6.26096 19.5048 6.19534 19.486 5.89534 19.1766C5.65627 18.9282 5.37971 18.5298 5.30002 18.3188C5.2719 18.2438 5.29065 18.2438 5.5344 18.3282C6.11096 18.5251 6.76252 18.4923 7.25002 18.2438C7.39065 18.1688 7.51721 18.1126 7.53127 18.1126C7.54534 18.1173 7.6344 18.1501 7.73284 18.1876ZM9.15784 18.3563C9.3219 18.811 9.20002 19.4766 8.8719 19.9548L8.71721 20.1798H8.20627C7.85471 20.1751 7.61096 20.1516 7.41877 20.0907L7.13752 20.0063L7.38127 19.8844C7.97659 19.5798 8.4219 19.0876 8.59534 18.5344C8.66096 18.3282 8.69846 18.2766 8.83909 18.2204C9.0594 18.1266 9.08284 18.136 9.15784 18.3563Z" fill="#404040"/>
<path d="M14.1359 13.6359L14 13.7719V14.625V15.4781L14.1359 15.6141L14.2719 15.75H15.5H16.7281L16.8641 15.6141L17 15.4781V14.625V13.7719L16.8641 13.6359L16.7281 13.5H15.5H14.2719L14.1359 13.6359ZM16.25 14.625V15H15.5H14.75V14.625V14.25H15.5H16.25V14.625Z" fill="#404040"/>
<path d="M14 16.875V17.25H15.5H17V16.875V16.5H15.5H14V16.875Z" fill="#404040"/>
<path d="M14 18.375V18.75H15.5H17V18.375V18H15.5H14V18.375Z" fill="#404040"/>
<path d="M14 19.875V20.25H15.5H17V19.875V19.5H15.5H14V19.875Z" fill="#404040"/>
<path d="M7.67657 1.54697C7.2547 1.63604 6.81876 2.00635 6.62657 2.43291C6.49532 2.73291 6.49532 3.26729 6.62657 3.57197C6.76251 3.87666 7.07189 4.19541 7.37657 4.34541C7.74689 4.52354 8.25314 4.52354 8.62345 4.34541C9.16251 4.07822 9.4672 3.59072 9.47189 2.99541C9.47189 2.55479 9.32657 2.21729 9.00314 1.92197C8.63751 1.58447 8.1547 1.44854 7.67657 1.54697ZM7.78439 2.48916C8.05626 2.62041 8.3047 2.76572 8.32814 2.8126C8.50157 3.14072 8.14064 3.50166 7.81251 3.32822C7.74689 3.29541 7.25001 2.35791 7.25001 2.26885C7.25001 2.23604 7.28282 2.2501 7.78439 2.48916Z" fill="#EC6B6B"/>
<path d="M8.10782 16.1298C7.75157 16.2329 7.52657 16.6548 7.625 17.0251C7.76094 17.5173 8.35625 17.7142 8.79219 17.4095C8.91875 17.3204 9.07344 17.0017 9.07813 16.8329C9.07813 16.6454 8.89532 16.322 8.73594 16.2235C8.54844 16.111 8.3 16.0688 8.10782 16.1298Z" fill="#EC6B6B"/>
<path d="M2 7.125V7.5H2.95156H3.89844V7.125V6.75H2.95156H2V7.125Z" fill="#C1C1C1"/>
<path d="M6.85156 7.125V7.5H7.80313H8.75V7.125V6.75H7.80313H6.85156V7.125Z" fill="#C1C1C1"/>
<path d="M14.75 14.625V15H15.5H16.25V14.625V14.25H15.5H14.75V14.625Z" fill="#C1C1C1"/>
<path d="M18.5 19.6172V21H18.875H19.25V19.8047V18.6094L18.875 18.4219L18.5 18.2344V19.6172Z" fill="#C1C1C1"/>
<path d="M5.19218 6.42203C5.1078 6.44547 4.96249 6.52984 4.87343 6.61891C4.5828 6.90953 4.5828 7.33609 4.87343 7.62672C5.37968 8.13766 6.23749 7.65953 6.07811 6.95641C6.03593 6.78297 5.79218 6.48766 5.66093 6.45016C5.45936 6.39859 5.33749 6.38922 5.19218 6.42203Z" fill="#4096EC"/>
<path d="M11.9843 8.31084C11.7921 8.40928 11.7453 8.55928 11.7593 9.05615C11.7781 9.62334 11.8343 9.70771 12.2375 9.74053L12.5 9.75928V9.00459V8.2499H12.3031C12.1906 8.2499 12.05 8.27803 11.9843 8.31084Z" fill="#4096EC"/>
<path d="M13.25 9V9.75H14.375H15.5V9V8.25H14.375H13.25V9Z" fill="#4096EC"/>
<path d="M16.25 8.9999V9.75928L16.5125 9.74053C16.9297 9.70303 16.9766 9.62803 16.9766 8.9999C16.9766 8.37178 16.9297 8.29678 16.5125 8.25928L16.25 8.24053V8.9999Z" fill="#4096EC"/>
<path d="M8.12653 13.4859C7.97184 13.5047 7.92966 13.5375 7.79372 13.7484C7.48434 14.2312 7.37653 14.7656 7.50309 15.2016C7.54528 15.3516 7.59684 15.4688 7.62028 15.4688C7.64372 15.4688 7.73278 15.4406 7.81716 15.4031C7.95309 15.3469 7.99059 15.2953 8.03747 15.1172C8.16872 14.6297 8.60466 14.1094 9.12966 13.8141L9.42028 13.65L9.22809 13.5984C9.04997 13.5469 8.37966 13.4484 8.32809 13.4625C8.31403 13.4672 8.22497 13.4766 8.12653 13.4859Z" fill="#4096EC"/>
<path d="M6.50934 14.0203C6.34528 14.1281 6.10621 14.3156 5.97496 14.4469L5.7359 14.6766L5.76403 14.9344C5.79215 15.2297 5.9984 15.6984 6.19996 15.9328C6.34528 16.1062 6.7109 16.3594 6.81403 16.3594C6.84684 16.3594 6.91246 16.2891 6.95465 16.2C7.02496 16.0453 7.02496 16.0312 6.9359 15.8812C6.66403 15.4219 6.59371 14.7609 6.75309 14.1609C6.79528 13.9969 6.8234 13.8562 6.81403 13.8469C6.80465 13.8375 6.66871 13.9172 6.50934 14.0203Z" fill="#4096EC"/>
<path d="M9.94532 14.3159C9.48595 14.4612 9.14376 14.7096 8.92813 15.0424C8.75938 15.3096 8.76407 15.3565 8.9422 15.4502C9.08282 15.5205 9.10157 15.5205 9.40626 15.3752C9.95001 15.1268 10.5406 15.0987 11.1313 15.2862C11.2156 15.3143 11.2953 15.3284 11.3094 15.319C11.3469 15.2768 10.9672 14.7424 10.7281 14.494C10.5219 14.283 10.4656 14.2502 10.3109 14.2549C10.2125 14.2549 10.0484 14.283 9.94532 14.3159Z" fill="#4096EC"/>
<path d="M5.09376 15.9329C5.01876 16.2095 4.96719 16.7673 4.99063 17.0017C5.00938 17.1798 5.03282 17.2173 5.25313 17.3579C5.71719 17.6626 6.15782 17.7657 6.59844 17.6767C6.96876 17.597 6.99219 17.5782 6.91719 17.372C6.86563 17.2314 6.82344 17.1939 6.62188 17.1282C6.08751 16.9548 5.56719 16.5142 5.29532 16.0079L5.15001 15.7314L5.09376 15.9329Z" fill="#4096EC"/>
<path d="M9.91249 16.0079C9.66405 16.0876 9.65937 16.097 9.75312 16.3126C9.80468 16.4392 9.86093 16.4813 10.0719 16.547C10.5922 16.7063 11.0469 17.1001 11.3609 17.6579L11.5062 17.9204L11.5578 17.7329C11.6422 17.4142 11.7078 16.8142 11.675 16.6267C11.6516 16.472 11.6094 16.4204 11.4031 16.2892C10.9297 15.9845 10.3344 15.8767 9.91249 16.0079Z" fill="#4096EC"/>
<path d="M9.70622 17.4656C9.6406 17.6203 9.64528 17.6437 9.72966 17.7796C9.97341 18.1781 10.0484 18.9281 9.9031 19.4953C9.86091 19.6593 9.83278 19.8046 9.84216 19.814C9.87966 19.8468 10.4422 19.4484 10.6765 19.2234L10.9203 18.989L10.8922 18.7265C10.864 18.4265 10.6578 17.9624 10.4562 17.7234C10.3109 17.5499 9.94528 17.2968 9.84216 17.2968C9.80466 17.2968 9.74372 17.3718 9.70622 17.4656Z" fill="#4096EC"/>
<path d="M7.41406 18.2017C6.97344 18.5017 6.13437 18.5673 5.52031 18.3611C5.41719 18.3236 5.32812 18.3095 5.32812 18.3283C5.32812 18.408 5.70781 18.933 5.92812 19.158C6.20469 19.4486 6.31719 19.4673 6.79531 19.308C7.16562 19.1861 7.50781 18.9376 7.70937 18.6376C7.89687 18.3611 7.89687 18.3048 7.71875 18.2111C7.55 18.1267 7.53125 18.122 7.41406 18.2017Z" fill="#4096EC"/>
<path d="M8.83434 18.2485C8.73121 18.286 8.68434 18.361 8.60465 18.5954C8.43121 19.1157 8.03278 19.5704 7.47496 19.8751L7.2359 20.0063L7.41871 20.0579C7.75153 20.147 8.29996 20.2079 8.50621 20.1751C8.68903 20.147 8.72653 20.1188 8.86246 19.9032C9.10153 19.5282 9.19528 19.2376 9.19528 18.8673C9.19059 18.5157 9.10621 18.1829 9.01715 18.1923C8.98434 18.197 8.90465 18.2204 8.83434 18.2485Z" fill="#4096EC"/>
<path d="M3.73439 12.0609C3.49064 12.1828 3.50001 12.0234 3.51407 16.9313L3.52345 21.5109L3.63126 21.6188L3.73907 21.7266H10.625H17.5109L17.6188 21.6188L17.7266 21.5109V16.875V12.2391L17.6188 12.1313L17.5109 12.0234L10.6813 12.0141C5.26251 12.0047 3.82814 12.0141 3.73439 12.0609ZM9.16251 12.7781C9.88439 12.9234 10.5781 13.2891 11.15 13.8234C11.7078 14.3484 12.1109 14.9953 12.3172 15.7125C12.4578 16.2047 12.4906 17.1047 12.3875 17.6297C12.0547 19.2609 10.7609 20.5547 9.1297 20.8875C8.6047 20.9906 7.7047 20.9578 7.21251 20.8172C6.49532 20.6109 5.84845 20.2078 5.32345 19.65C4.7797 19.0688 4.42345 18.3797 4.26876 17.6297C4.16564 17.1047 4.19845 16.2 4.33907 15.7266C4.79376 14.2031 5.96095 13.1156 7.50782 12.7734C7.90157 12.6844 8.72657 12.6891 9.16251 12.7781ZM16.8922 13.6031C17 13.7016 17 13.725 17 14.6203C17 15.8672 17.1547 15.75 15.5047 15.75C14.2484 15.75 14.2156 15.7453 14.1078 15.6469C14 15.5484 14 15.525 14 14.6297C14 13.3828 13.8453 13.5 15.4953 13.5C16.7516 13.5 16.7844 13.5047 16.8922 13.6031ZM17 16.875V17.25H15.5H14V16.875V16.5H15.5H17V16.875ZM17 18.375V18.75H15.5H14V18.375V18H15.5H17V18.375ZM17 19.875V20.25H15.5H14V19.875V19.5H15.5H17V19.875Z" fill="#ECECEC"/>
</svg>
