<svg width="24" height="22" viewBox="0 0 24 22" fill="none" xmlns="http://www.w3.org/2000/svg">
<path d="M11.0438 0.176464C10.9172 0.204589 10.5141 0.359277 10.1532 0.518652C9.78753 0.682714 9.06097 0.99209 8.53128 1.20303C7.2844 1.70459 6.41722 2.09365 6.44534 2.14053C6.4594 2.15928 6.40315 2.20146 6.32347 2.23896C6.09847 2.32803 5.41409 2.76865 5.08128 3.03115C4.53753 3.46709 4.10159 4.12803 3.97972 4.71396C3.90472 5.08428 3.9469 5.75928 4.06878 6.10146C4.2844 6.69678 4.83753 7.32959 5.56409 7.8124C6.09378 8.16396 7.26565 8.72646 8.54534 9.24209C9.1594 9.49053 9.91409 9.80928 10.2188 9.94521C10.5235 10.0858 10.8657 10.2218 10.9782 10.2499C11.2828 10.3202 11.8782 10.3062 12.2016 10.2218C13.3688 9.92178 14.5453 8.66084 15.0938 7.13271C15.1782 6.89834 15.2719 6.65928 15.3047 6.59365C15.4969 6.20928 15.5532 4.95771 15.4078 4.26396C15.15 3.04521 14.611 2.02334 13.786 1.20303C13.0735 0.490527 12.4547 0.181152 11.6766 0.148339C11.4516 0.138964 11.1703 0.148339 11.0438 0.176464ZM12.3985 1.22178C13.0078 1.52178 13.6594 2.22959 14.0625 3.03115C14.4422 3.78115 14.6203 4.48896 14.625 5.2249C14.6297 7.02021 13.4203 8.98428 12.0563 9.40615C11.5313 9.57021 11.2407 9.52334 10.4485 9.15303C10.2047 9.04053 9.50159 8.74521 8.88284 8.49209C6.80628 7.64834 5.92503 7.1749 5.35315 6.57959C4.6969 5.89053 4.56565 5.07959 5.00159 4.35771C5.48909 3.5374 6.35159 3.01709 8.88284 1.9999C9.3469 1.8124 10.0219 1.52646 10.3828 1.36709C10.7438 1.20771 11.0719 1.0624 11.1094 1.04834C11.1469 1.02959 11.3719 1.0249 11.6063 1.02959C11.9953 1.03896 12.061 1.05303 12.3985 1.22178Z" fill="#401515"/>
<path d="M18.4453 2.60922C17.9203 2.72641 17.5312 2.94203 17.1656 3.3311C16.4859 4.04828 16.35 5.1311 16.8187 6.05454C16.9875 6.39204 17.489 6.87016 17.864 7.05297C18.764 7.48891 19.8234 7.3061 20.5359 6.59829C21.0187 6.11547 21.2344 5.60454 21.2344 4.92954C21.2344 3.88891 20.6109 3.0311 19.5937 2.67953C19.3406 2.59047 18.7031 2.54828 18.4453 2.60922ZM19.4203 3.54672C19.7765 3.68266 20.0297 3.91703 20.2125 4.28266C20.339 4.54516 20.3625 4.6436 20.3625 4.92954C20.3625 5.75454 19.7156 6.4061 18.8906 6.4061C18.314 6.4061 17.8265 6.10141 17.5687 5.57641C17.4422 5.31391 17.4187 5.21547 17.4187 4.92954C17.4187 3.8936 18.4453 3.1811 19.4203 3.54672Z" fill="#401515"/>
<path d="M22.5609 5.19199C22.139 5.27168 22.1484 5.26699 20.8547 6.73418C20.0484 7.65293 19.95 7.82637 19.9781 8.27168C20.0203 8.9748 20.4797 9.42012 21.164 9.4248C21.6656 9.4248 21.8437 9.31699 22.4203 8.66074C22.6828 8.36074 23.0812 7.91543 23.3015 7.66699C23.9062 6.99199 23.9625 6.89355 23.9906 6.45293C24.0093 6.13418 23.9953 6.05449 23.9062 5.88105C23.6343 5.34668 23.114 5.08418 22.5609 5.19199ZM23.039 6.14824C23.2218 6.32637 23.189 6.45762 22.8656 6.8373C22.1531 7.6623 21.4078 8.49668 21.3468 8.52949C21.1218 8.66074 20.7703 8.4123 20.8312 8.16855C20.8593 8.05137 22.5375 6.10605 22.65 6.06387C22.7906 6.00762 22.9312 6.04043 23.039 6.14824Z" fill="#401515"/>
<path d="M16.7391 7.32496C16.2891 7.44684 15.9516 7.66246 15.6797 7.99996C15.5438 8.16871 14.9297 9.19059 14.3156 10.264L13.1953 12.2234L13.0875 11.9328C12.9469 11.5484 12.8344 11.4031 12.5719 11.2484C12.0328 10.9297 11.3578 11.1781 11.1141 11.7875C11.0203 12.0172 11.0766 12.4015 11.2875 12.9687C11.4094 13.2828 11.4563 13.4656 11.4188 13.475C11.3906 13.4797 10.6078 13.2312 9.67969 12.9172C8.11406 12.3922 7.95938 12.35 7.54688 12.3265C6.83438 12.2843 6.19219 12.5047 5.67188 12.9547C5.52656 13.0859 4.95938 13.7984 4.30313 14.675C3.68438 15.5047 3.12656 16.2218 3.07031 16.2734C2.87813 16.4375 0.932813 19.0765 0.801563 19.3437C0.69375 19.5687 0.679688 19.6625 0.679688 20.0703C0.679688 20.4781 0.698438 20.5718 0.801563 20.8015C1.23281 21.7203 2.31094 22.1281 3.21094 21.7156C3.62813 21.5281 3.74531 21.3968 4.61719 20.1922C4.66875 20.1172 4.75313 20 4.80469 19.925C4.85625 19.85 5.02031 19.6203 5.17031 19.414C5.81719 18.5187 6.25781 17.8859 6.25781 17.8484C6.25781 17.7547 7.46719 16.1234 7.58906 16.0484C7.87969 15.8797 8.04375 15.9218 9.68906 16.6297C10.5328 16.9906 11.2594 17.314 11.2969 17.3468C11.4188 17.4547 12.5016 17.8859 12.7875 17.9422L13.0688 18.0031L13.3125 18.6593C13.8563 20.1593 13.8563 20.15 14.0297 20.3281C14.2594 20.5625 14.4234 20.6281 14.7938 20.6328C15.0797 20.6328 15.1547 20.614 15.3563 20.4922C15.6656 20.3 15.8391 19.9859 15.8438 19.6156C15.8438 19.4047 15.7781 19.175 15.5156 18.4531C15.3375 17.9562 15.1875 17.5343 15.1875 17.5156C15.1875 17.4968 15.3328 17.3328 15.5063 17.1593C15.7875 16.8734 16.0359 16.4843 17.6719 13.7656C18.8906 11.7312 19.5563 10.5828 19.6313 10.3672C19.8516 9.73434 19.7625 8.91871 19.4063 8.35621C19.0828 7.84996 18.5672 7.47028 17.9953 7.32028C17.6766 7.23121 17.0672 7.2359 16.7391 7.32496ZM17.9203 8.21559C18.2156 8.31403 18.5766 8.64684 18.7313 8.9609C18.8859 9.27965 18.9281 9.71559 18.8297 10.0203C18.7547 10.2593 15.2672 16.1093 15.0094 16.4281C14.9203 16.5406 14.8313 16.6109 14.8078 16.5922C14.7656 16.5453 13.5938 13.3156 13.5938 13.2406C13.5938 13.1656 16.0641 8.85309 16.2281 8.64215C16.5984 8.1734 17.2828 7.99996 17.9203 8.21559ZM12.2203 11.9937C12.2438 12.0265 12.8859 13.7609 13.6406 15.8468L15.0188 19.639L14.9063 19.7281C14.8172 19.8031 14.7844 19.8078 14.7094 19.7562C14.6438 19.7093 14.2078 18.5703 13.2375 15.9031C12.1359 12.875 11.8688 12.0968 11.9063 12.0265C11.9625 11.9281 12.1547 11.9093 12.2203 11.9937ZM9.46875 13.7234C10.4109 14.0375 11.3109 14.3093 11.475 14.3281C11.6391 14.3515 11.7797 14.375 11.7891 14.3843C11.8313 14.4265 12.7453 16.9765 12.7219 16.9953C12.7125 17.0047 11.7281 16.5968 10.5328 16.0859C8.54531 15.2328 8.33906 15.1578 8.03906 15.1343C7.66406 15.1109 7.31719 15.2187 7.0125 15.4437C6.9 15.5281 6.15938 16.5218 4.97813 18.1765C3.35625 20.4406 3.08906 20.7875 2.91094 20.8859C2.475 21.125 1.91719 20.975 1.66406 20.5437C1.52344 20.3047 1.50469 19.8922 1.62188 19.6625C1.71563 19.4843 5.85938 13.9437 6.06563 13.7281C6.42656 13.339 6.84844 13.1609 7.38281 13.1562C7.73906 13.1562 7.84688 13.189 9.46875 13.7234Z" fill="#401515"/>
<path d="M21.7781 7.07187C21.2953 7.61562 20.8922 8.1125 20.8781 8.17344C20.8312 8.34687 20.9719 8.51562 21.1594 8.51562C21.3 8.51562 21.3656 8.46406 21.7125 8.07969C22.65 7.05312 23.1094 6.49531 23.1094 6.39219C23.1094 6.20937 22.9828 6.07812 22.8047 6.07812C22.6594 6.07812 22.5844 6.14844 21.7781 7.07187Z" fill="#EC9615"/>
<path d="M11.925 12.0498C11.8875 12.1483 14.6344 19.6764 14.7328 19.7373C14.7938 19.7748 14.8313 19.7702 14.8922 19.7092C14.9672 19.6342 14.8922 19.4092 13.5844 15.8186C12.2484 12.1389 12.1969 12.0077 12.075 11.9936C12 11.9842 11.9438 12.003 11.925 12.0498Z" fill="#EC9615"/>
<path d="M18.6469 3.50459C18.3281 3.55146 17.9672 3.76709 17.7563 4.02959C17.1844 4.75146 17.4188 5.80146 18.2391 6.21396C18.8484 6.51865 19.6031 6.35927 20.0156 5.83427C20.5969 5.10302 20.3625 4.04365 19.5375 3.6499C19.2094 3.49052 18.975 3.45302 18.6469 3.50459Z" fill="#6B406B"/>
<path d="M16.9219 8.21572C16.65 8.31416 16.3453 8.5251 16.2187 8.70322C16.1625 8.77822 15.5531 9.83291 14.864 11.0376L13.6078 13.236L14.2219 14.9142L14.8312 16.5923L14.9672 16.4329C15.1969 16.161 18.7453 10.2079 18.8015 10.0017C18.9328 9.51416 18.7594 8.90947 18.389 8.55322C18.0234 8.20166 17.3765 8.05166 16.9219 8.21572Z" fill="#6B406B"/>
<path d="M7.05 13.2032C6.77813 13.2595 6.46407 13.4142 6.24844 13.6017C6.14532 13.686 5.07188 15.0829 3.85313 16.7048C1.48126 19.8688 1.48126 19.8688 1.58907 20.2626C1.67813 20.586 1.80938 20.7454 2.09063 20.8767C2.40469 21.0173 2.68594 21.0032 2.95313 20.8251C3.07032 20.7454 3.68907 19.9204 4.97813 18.1157C6.29532 16.2735 6.88594 15.486 7.0125 15.397C7.33594 15.172 7.54688 15.1063 7.94532 15.1063L8.32032 15.1017L10.4906 16.0345C11.6859 16.5454 12.6656 16.9579 12.675 16.9485C12.6891 16.9345 12.1781 15.4954 11.8359 14.5813C11.7609 14.3892 11.7609 14.3892 11.4703 14.361C11.2828 14.3423 10.5797 14.1313 9.49219 13.7657C7.75782 13.1892 7.45313 13.1188 7.05 13.2032Z" fill="#6B406B"/>
<path d="M5.9719 2.23453C4.98753 2.50172 4.0594 2.94703 3.24846 3.54703C1.56096 4.79391 0.450026 6.59859 0.0890885 8.69391C-0.0234115 9.36422 -0.0327865 10.5173 0.075026 11.2205C0.253151 12.4345 0.754713 13.6627 1.49065 14.7033C1.79534 15.1345 2.73284 16.133 2.93909 16.2408C3.03284 16.2923 3.10784 16.1986 4.19534 14.7502C4.83284 13.897 5.47503 13.0908 5.62034 12.9548C6.13128 12.4861 6.82971 12.2377 7.5469 12.2798C7.90315 12.2986 8.13753 12.3642 9.65628 12.8658C10.5938 13.1798 11.3719 13.4283 11.3813 13.4142C11.3907 13.4048 11.3157 13.1517 11.2078 12.8517C11.1047 12.5517 11.0157 12.233 11.0157 12.1392C11.0157 11.5345 11.4703 11.0798 12.0703 11.0798C12.5672 11.0798 12.9422 11.3658 13.1157 11.8814L13.2 12.1392L14.3063 10.1986C14.9157 9.12984 15.4922 8.16422 15.5907 8.05641L15.7641 7.85016L15.6844 7.58766C15.6375 7.43766 15.5344 7.16578 15.4547 6.97359L15.3141 6.62672L15.1875 7.00641C14.7657 8.24391 13.9266 9.36422 13.0125 9.91734C12.3328 10.3252 11.5266 10.4517 10.8703 10.2502C10.6828 10.1939 10.4016 10.0861 10.2516 10.0111C10.1016 9.93141 9.3844 9.62672 8.65784 9.33141C7.18128 8.73141 6.11721 8.22516 5.55471 7.85953C5.03909 7.52203 4.37815 6.84234 4.18596 6.45328C3.78284 5.64703 3.79221 4.79391 4.20003 4.01109C4.50003 3.44391 5.01565 2.95641 5.85471 2.45016C6.2719 2.20172 6.37034 2.13609 6.32346 2.14547C6.31409 2.14547 6.15471 2.18766 5.9719 2.23453Z" fill="#ECC1C1"/>
<path d="M7.76255 16.0156C7.69224 16.0391 7.58912 16.0953 7.53755 16.1422C7.38755 16.2734 6.2813 17.8391 6.3188 17.8625C6.33755 17.8719 6.5813 17.9188 6.86724 17.9609C7.61255 18.0781 8.95787 18.0359 9.67974 17.8766C10.2188 17.7547 10.8329 17.5625 11.1047 17.4219L11.2594 17.3422L9.72193 16.6859C8.87349 16.3203 8.1188 16.0156 8.03912 16.0016C7.96412 15.9875 7.83755 15.9922 7.76255 16.0156Z" fill="#ECC1C1"/>
<path d="M11.2594 1.06719C11.1469 1.08594 10.8516 1.19844 10.5938 1.31562C10.3406 1.43281 9.53908 1.775 8.80783 2.07031C6.7172 2.92812 6.00002 3.3125 5.40939 3.90312C4.71095 4.59687 4.59377 5.49687 5.10939 6.24219C5.2922 6.50469 5.71877 6.89375 6.10783 7.14687C6.57658 7.44687 7.69689 7.97656 8.9297 8.46875C9.52502 8.70781 10.261 9.02187 10.5703 9.16719C11.1235 9.425 11.1422 9.42969 11.5594 9.42969C11.9578 9.42969 12.0047 9.42031 12.3469 9.25156C12.7594 9.04531 13.2328 8.62812 13.5938 8.14531C13.8938 7.74687 14.2547 7.01094 14.4188 6.47656C14.5406 6.0875 14.55 5.99375 14.55 5.25781C14.55 4.52656 14.5406 4.42812 14.4235 4.03906C14.2688 3.5375 13.9547 2.86719 13.6828 2.45937C13.2235 1.775 12.4641 1.19375 11.8688 1.06719C11.5922 1.01094 11.5453 1.01094 11.2594 1.06719Z" fill="#ECECC1"/>
</svg>
