<svg width="24" height="24" viewBox="0 0 24 24" fill="none" xmlns="http://www.w3.org/2000/svg">
<path d="M11.1797 0.778213C11.1047 0.787588 10.8375 0.8204 10.5937 0.848525C8.66716 1.06415 6.52497 1.97821 4.94528 3.2579C3.69841 4.2704 2.69997 5.5079 1.96872 6.96103C1.40622 8.06728 1.0406 9.2204 0.862472 10.4298C0.745285 11.2079 0.745285 12.8017 0.857785 13.547C1.17653 15.6095 1.99216 17.4845 3.26247 19.0548C3.65153 19.5376 4.46247 20.3532 4.94528 20.747C5.78435 21.4313 7.10622 22.1813 8.17966 22.5704C8.77966 22.7907 9.71716 23.0298 10.4297 23.1376C11.1984 23.2548 12.7875 23.2548 13.5468 23.1423C15.614 22.8235 17.5078 21.9938 19.1015 20.7048C19.5562 20.3345 20.3859 19.5001 20.7422 19.0548C21.7453 17.8032 22.5047 16.2798 22.8984 14.747C23.1515 13.7438 23.2218 13.1438 23.2218 12.0001C23.2218 10.172 22.889 8.71415 22.1062 7.10165C20.9906 4.81884 19.1859 3.00946 16.8984 1.89384C15.8343 1.37353 14.7281 1.03134 13.5937 0.867275C13.125 0.796963 11.475 0.736025 11.1797 0.778213ZM10.6547 2.22196C10.8422 2.29696 11.0437 2.53134 11.0859 2.71415C11.114 2.84071 10.8609 7.20009 10.8 7.67353C10.7672 7.94071 10.6031 8.12821 10.2468 8.30634C9.82029 8.52196 9.44997 8.78446 9.06091 9.15478C8.55466 9.63759 8.71404 9.65165 5.90622 8.92978C4.63122 8.60165 3.52497 8.30165 3.44528 8.25478C3.24372 8.14228 3.07966 7.80946 3.11247 7.56571C3.15466 7.23759 3.71247 6.33759 4.35935 5.56415C5.71872 3.93759 7.70622 2.72353 9.79685 2.25478C10.2843 2.14228 10.4578 2.13759 10.6547 2.22196ZM14.25 2.26884C16.5187 2.78915 18.5531 4.10634 19.9687 5.97665C20.3437 6.46884 20.7281 7.09228 20.8406 7.3829C20.9625 7.71103 20.8312 8.11884 20.5453 8.26415C20.475 8.30165 19.3687 8.60165 18.0937 8.92978C15.2859 9.65165 15.4453 9.63759 14.939 9.15478C14.55 8.78446 14.1797 8.52196 13.7531 8.30634C13.3968 8.12821 13.2328 7.94071 13.2 7.67353C13.139 7.20009 12.8859 2.84071 12.914 2.71415C12.9562 2.53603 13.1531 2.30165 13.3359 2.22196C13.5375 2.1329 13.6922 2.14228 14.25 2.26884ZM12.3468 8.34384C12.614 8.4704 12.7593 8.70478 12.7593 8.99071C12.7593 9.69384 12 10.0454 11.489 9.58134C11.2734 9.38915 11.1937 9.13603 11.2547 8.85478C11.3109 8.60634 11.3953 8.48915 11.6156 8.3579C11.8312 8.22665 12.0937 8.22196 12.3468 8.34384ZM5.3156 10.922C6.59528 11.4282 7.61247 11.8548 7.6781 11.9157C7.84216 12.0704 7.90779 12.2251 7.94529 12.5392C7.99216 12.9235 8.17966 13.5001 8.39529 13.9313C8.58279 14.3063 8.6156 14.4798 8.53122 14.7001C8.47029 14.8595 6.02341 18.7267 5.88747 18.8813C5.73747 19.0501 5.55935 19.1251 5.30622 19.1251C4.99685 19.1251 4.85153 19.022 4.3781 18.4548C2.90622 16.7063 2.10935 14.6345 2.02966 12.3517C2.00153 11.536 2.07185 10.6173 2.17966 10.411C2.32497 10.1251 2.60622 9.9704 2.90622 10.0079C2.99528 10.022 4.08278 10.4298 5.3156 10.922ZM21.5625 10.1204C21.9047 10.3688 21.9609 10.6548 21.9562 12.0938C21.9562 12.872 21.9328 13.1673 21.8484 13.6595C21.5297 15.4829 20.7937 17.0579 19.6218 18.4548C19.1484 19.022 19.0031 19.1251 18.6937 19.1251C18.4406 19.1251 18.2625 19.0501 18.1125 18.8813C17.9765 18.7313 15.5297 14.8548 15.4687 14.7001C15.3843 14.4798 15.4172 14.3063 15.6047 13.9313C15.8203 13.5001 16.0078 12.9235 16.0547 12.5392C16.0922 12.2251 16.1578 12.0704 16.3218 11.9157C16.4109 11.836 20.3297 10.2376 20.9531 10.0267C21.1172 9.9704 21.4218 10.0173 21.5625 10.1204ZM9.56247 10.4157C9.83435 10.6032 9.91404 10.7532 9.91404 11.0767C9.91404 11.4282 9.78747 11.6392 9.49685 11.7704C9.2531 11.8829 9.07497 11.8782 8.82654 11.7657C8.3906 11.5688 8.25466 10.9595 8.56404 10.5892C8.80779 10.2985 9.27185 10.2188 9.56247 10.4157ZM12.6937 10.4767C13.0453 10.636 13.3687 10.9595 13.5281 11.3157C13.6406 11.5548 13.6593 11.6673 13.664 12.0001C13.664 12.3563 13.65 12.4313 13.514 12.7079C13.3312 13.0782 13.0359 13.3642 12.6656 13.5376C12.4406 13.6407 12.3328 13.6642 12 13.6642C11.6625 13.6642 11.5593 13.6407 11.3203 13.5329C10.9547 13.3642 10.6359 13.0454 10.4718 12.6845C10.3593 12.4454 10.3406 12.3376 10.3406 12.0001C10.3359 11.6626 10.3593 11.5595 10.4672 11.3204C10.6875 10.847 11.1187 10.486 11.6109 10.3595C11.9015 10.2892 12.3937 10.3407 12.6937 10.4767ZM15.2672 10.4345C15.4828 10.5985 15.5765 10.7626 15.5953 11.0251C15.6187 11.3579 15.4781 11.6063 15.1875 11.7517C14.9343 11.8829 14.7562 11.8876 14.5031 11.7704C13.9218 11.5079 13.9218 10.6407 14.5078 10.3782C14.7 10.2845 15.1125 10.3173 15.2672 10.4345ZM10.6734 13.7626C10.8797 13.9173 10.9828 14.0907 11.0015 14.3298C11.0625 14.9438 10.4906 15.3517 9.92341 15.1032C9.34216 14.8454 9.3281 14.0063 9.89997 13.7157C10.1015 13.6126 10.5047 13.636 10.6734 13.7626ZM14.1328 13.7485C14.6812 14.0532 14.625 14.897 14.0437 15.1173C13.514 15.3188 12.9843 14.9767 12.9843 14.4282C12.9843 13.8095 13.5984 13.4485 14.1328 13.7485ZM12 16.0501C12.2953 16.0501 12.6984 16.036 12.8906 16.0126C13.1906 15.9845 13.2656 15.9892 13.3922 16.0642C13.575 16.1626 16.6172 19.8235 16.7203 20.0626C16.8093 20.2642 16.7765 20.522 16.6406 20.7376C16.4343 21.0798 15.0093 21.6095 13.6593 21.8485C12.7828 22.0079 11.2172 22.0079 10.3406 21.8485C9.39841 21.6845 8.54997 21.4173 7.77185 21.0517C7.55154 20.9438 7.42966 20.8548 7.35935 20.7376C7.22341 20.522 7.1906 20.2642 7.27966 20.0626C7.38279 19.8235 10.425 16.1626 10.6078 16.0642C10.7343 15.9892 10.8093 15.9845 11.1093 16.0126C11.3015 16.036 11.7047 16.0501 12 16.0501Z" fill="#6B96EC"/>
</svg>
