<svg width="11" height="10" viewBox="0 0 11 10" fill="none" xmlns="http://www.w3.org/2000/svg">
<path d="M10.4945 4.07822L6.69216 0.275923C6.51328 0.0991407 6.27192 0 6.02042 0C5.76893 0 5.52757 0.0991407 5.34868 0.275923C4.98113 0.643478 4.98113 1.25185 5.34868 1.6194L7.52867 3.79939H0.950696C0.431049 3.79939 0.00012207 4.23031 0.00012207 4.74996C0.00012207 5.26961 0.431049 5.70053 0.950696 5.70053H7.52867L5.34868 7.88052C4.98113 8.24807 4.98113 8.85644 5.34868 9.224C5.5388 9.41411 5.77961 9.50283 6.02042 9.50283C6.26123 9.50283 6.50205 9.41411 6.69216 9.224L10.4945 5.4217C10.862 5.05414 10.862 4.44578 10.4945 4.07822Z" fill="#33A137"/>
</svg>
