<svg width="11" height="10" viewBox="0 0 11 10" fill="none" xmlns="http://www.w3.org/2000/svg">
<path d="M0.508783 4.07701L4.30995 0.275841C4.48878 0.0991113 4.73007 0 4.98149 0C5.23291 0 5.4742 0.0991113 5.65303 0.275841C6.02047 0.643287 6.02047 1.25147 5.65303 1.61892L3.47369 3.79826H10.0497C10.5692 3.79826 11 4.22906 11 4.74855C11 5.26804 10.5692 5.69884 10.0497 5.69884H3.47369L5.65303 7.87818C6.02047 8.24563 6.02047 8.85382 5.65303 9.22126C5.46297 9.41132 5.22223 9.50002 4.98149 9.50002C4.74075 9.50002 4.50001 9.41132 4.30995 9.22126L0.508783 5.42009C0.141337 5.05264 0.141337 4.44446 0.508783 4.07701Z" fill="#979797"/>
</svg>
