<svg width="44" height="44" viewBox="0 0 44 44" fill="none" xmlns="http://www.w3.org/2000/svg">
<path d="M16.7836 0.206249L16.543 0.412498L16.5 2.44922L16.457 4.48594L15.6836 4.76094C15.2625 4.91562 14.6008 5.18203 14.2313 5.3625L13.5438 5.67188L12.1602 4.29688L10.7766 2.92188H10.3641H9.96016L6.53125 6.29062C4.64922 8.13828 3.06797 9.74531 3.01641 9.85703C2.96484 9.96875 2.92188 10.2266 2.92188 10.4156C2.92188 10.7594 2.96484 10.8195 4.29688 12.1602L5.67188 13.5437L5.3625 14.2312C5.18203 14.6008 4.91563 15.2539 4.76094 15.6836L4.48594 16.457L2.44922 16.5L0.4125 16.543L0.20625 16.7836L0 17.0242V22V26.9758L0.20625 27.2164L0.4125 27.457L2.44922 27.5L4.48594 27.543L4.76953 28.3422C5.24219 29.6656 5.44844 29.8977 6.14453 29.9062C6.47969 29.9148 6.53125 29.8719 9.16953 27.2078C10.6477 25.7125 11.9109 24.3719 11.9883 24.2258C12.1172 23.9852 12.1172 23.8562 12.0227 23.057C11.8852 21.8883 11.9625 20.5562 12.2375 19.482C13.5867 14.1711 19.4906 10.8195 24.8102 12.332C28.5141 13.3977 31.3414 16.6719 31.9172 20.5648C32.0891 21.6906 32.0891 22.3008 31.9258 23.4266C31.5992 25.618 30.5852 27.5945 28.9953 29.15C28.1359 29.9922 27.4914 30.4477 26.4258 30.9805C24.6984 31.8313 22.9281 32.1578 21.0375 31.9773C20.0148 31.8742 19.9117 31.8828 19.6969 32.0203C19.568 32.0977 18.2531 33.3695 16.775 34.8391L14.0938 37.5117V37.907C14.0938 38.1734 14.1539 38.3797 14.2656 38.5258C14.4289 38.732 15.2969 39.1445 16.0531 39.368L16.4141 39.4711V41.3102C16.4141 43.2781 16.4656 43.5875 16.8523 43.8625C17.0328 43.9828 17.5656 44 22.0172 44H26.9758L27.2164 43.7937L27.457 43.5875L27.5 41.5508L27.543 39.5141L28.3164 39.2391C28.7461 39.0844 29.3992 38.818 29.7688 38.6375L30.4563 38.3281L31.8398 39.7031L33.2234 41.0781H33.6531H34.0742L37.5719 37.5719C40.9578 34.1859 41.0781 34.057 41.0781 33.7477C41.0781 33.5672 41.0352 33.3352 40.9836 33.232C40.932 33.1289 40.3133 32.4586 39.6086 31.7539L38.3195 30.4562L38.6375 29.7773C38.8094 29.3992 39.0758 28.7375 39.2305 28.3164L39.5141 27.543L41.5508 27.5L43.5875 27.457L43.7938 27.2164L44 26.9758V22V17.0242L43.7938 16.7836L43.5875 16.543L41.5508 16.5L39.5141 16.457L39.2391 15.6836C39.0844 15.2539 38.818 14.6008 38.6375 14.2312L38.3281 13.5437L39.7031 12.1602L41.0781 10.7766V10.3555V9.94297L38.5773 7.39922C37.1938 5.99844 35.6383 4.41719 35.1055 3.88437L34.1344 2.92188H33.6789H33.2234L31.8398 4.29688L30.4563 5.67188L29.7688 5.3625C29.3992 5.18203 28.7461 4.91562 28.3164 4.76094L27.543 4.48594L27.5 2.44922L27.457 0.412498L27.2164 0.206249L26.9758 0H22H17.0242L16.7836 0.206249ZM25.6266 3.72969C25.6609 6.05859 25.5664 5.89531 27.1648 6.41094C27.8266 6.62578 28.7805 7.02109 29.3563 7.31328C30.4477 7.87188 30.7828 7.94062 31.1781 7.68281C31.307 7.60547 31.9258 7.02969 32.5531 6.41094L33.6961 5.29375L36.2398 7.8375L38.7836 10.3812L37.8984 11.2234C36.6266 12.4437 36.1797 13.0023 36.1797 13.3719C36.1797 13.5609 36.3602 14.0336 36.7039 14.7039C36.9875 15.2797 37.3914 16.2508 37.5977 16.8695C37.8039 17.4883 38.0617 18.0727 38.1562 18.1672C38.3195 18.3391 38.4484 18.3477 40.2188 18.3734L42.1094 18.3992V22V25.6008L40.2703 25.6266C37.95 25.6609 38.1047 25.5664 37.5891 27.1562C37.3828 27.7922 36.9789 28.7805 36.7039 29.3477C36.4203 29.9148 36.1711 30.4477 36.1453 30.5336C36.0422 30.8516 36.3688 31.307 37.5203 32.4844L38.7062 33.6961L36.1625 36.2398L33.6188 38.7836L32.7766 37.8984C31.5563 36.6266 30.9977 36.1797 30.6281 36.1797C30.4391 36.1797 29.9664 36.3602 29.2961 36.7039C28.7203 36.9875 27.7492 37.3914 27.1305 37.5977C26.5117 37.8039 25.9273 38.0617 25.8328 38.1562C25.6609 38.3195 25.6523 38.4484 25.6266 40.2188L25.6008 42.1094H22H18.3992L18.3734 40.2703C18.3391 38.0617 18.3391 38.0445 17.4195 37.7695C17.1016 37.675 16.8438 37.5805 16.8438 37.5547C16.8438 37.5289 17.6516 36.7039 18.6398 35.7156L20.4445 33.9195L22.1031 33.9023C23.9078 33.8938 24.5008 33.7992 25.9016 33.3352C29.8117 32.0375 32.8883 28.4195 33.7305 24.1313C33.9281 23.1344 33.9883 21.3383 33.868 20.3328C33.2148 15.1937 29.1328 11.0344 23.8906 10.175C22.7047 9.97734 20.6422 10.0547 19.4047 10.3469C17.1016 10.8797 15.0906 12.0055 13.432 13.6812C11.1117 16.0359 10.0117 18.7859 10.0633 22.1461L10.0891 23.4609L8.30156 25.3086C7.32188 26.3227 6.48828 27.1562 6.45391 27.1562C6.41953 27.1562 6.34219 26.9672 6.28203 26.7437C6.12734 26.1078 5.90391 25.807 5.52578 25.7039C5.34531 25.6523 4.45156 25.6094 3.54922 25.6094H1.89062V22.0086V18.3992L3.72969 18.3734C6.05 18.3391 5.89531 18.4336 6.41094 16.8438C6.61719 16.2078 7.02109 15.2195 7.31328 14.6523C7.87188 13.5523 7.94063 13.2172 7.68281 12.8219C7.60547 12.693 7.02969 12.0742 6.41094 11.4469L5.29375 10.3039L7.8375 7.76015L10.3813 5.2164L11.2234 6.10156C12.4438 7.37344 13.0023 7.82031 13.3719 7.82031C13.5609 7.82031 14.0336 7.63984 14.7039 7.29609C15.2797 7.0125 16.2508 6.60859 16.8695 6.40234C17.4883 6.19609 18.0727 5.93828 18.1672 5.84375C18.3391 5.68047 18.3477 5.55156 18.3734 3.78125L18.3992 1.89062H22H25.6008L25.6266 3.72969Z" fill="#333333"/>
<path d="M21.0379 14.4373C19.9809 14.6178 18.8637 15.0904 17.9184 15.7693C16.509 16.7748 15.452 18.4334 15.0738 20.1951C14.9363 20.8654 14.9191 22.3779 15.048 23.0654L15.134 23.5639L14.4293 24.3029C14.034 24.7154 11.0004 27.792 7.6918 31.1521C0.670707 38.2592 1.07461 37.7521 1.07461 39.4021C1.07461 40.3303 1.08321 40.3732 1.39258 41.0092C1.7793 41.7912 2.27774 42.2725 3.07696 42.6506C3.61836 42.9084 3.71289 42.9256 4.59805 42.9256C6.23946 42.9256 5.74961 43.3209 12.7965 36.36C16.1223 33.0685 19.2074 30.0435 19.6457 29.6224L20.4449 28.8662L21.0207 28.9693C21.3645 29.0295 22.0348 29.0553 22.6793 29.0295C23.6074 28.9951 23.8824 28.9435 24.5957 28.7029C26.0137 28.2303 27.2856 27.3279 28.1535 26.1849C28.6262 25.5662 29.2363 24.3287 29.434 23.5896C29.8379 22.0771 29.5973 19.4818 28.9957 18.8803C28.7379 18.6224 28.2652 18.5193 27.9988 18.6568C27.8871 18.7084 26.959 19.5849 25.9363 20.6076L24.0629 22.4639L23.2207 22.0514L22.3699 21.6303L21.9488 20.7795L21.5277 19.9287L23.3582 18.1154C24.3637 17.1185 25.2488 16.1904 25.3176 16.0529C25.4809 15.7349 25.4035 15.2795 25.1199 15.0045C24.6129 14.4974 22.4559 14.1967 21.0379 14.4373ZM21.1496 17.5826C20.3848 18.3217 19.6629 19.0951 19.534 19.3099C19.2504 19.7912 19.2676 19.8599 20.2215 21.699L20.9262 23.074L22.4129 23.8303C23.6418 24.449 23.9684 24.5779 24.2949 24.5779H24.6988L26.2371 23.0482L27.7754 21.5271L27.7324 22.1373C27.5606 24.3459 25.9793 26.2709 23.7793 26.967C23.066 27.1904 21.5191 27.1646 20.7285 26.9154L20.1012 26.7178L19.6973 26.9498C19.259 27.2076 17.7121 28.7115 10.4676 35.8959C5.64649 40.6826 5.31133 40.9834 4.73555 40.992C3.83321 41.0006 2.99961 40.167 3.00821 39.2646C3.0168 38.6974 3.32618 38.3623 9.73711 31.874C16.2856 25.2396 17.1621 24.3287 17.2395 24.0107C17.2652 23.9076 17.2137 23.581 17.1191 23.2803C16.3973 20.9599 17.334 18.4592 19.4223 17.1099C20.1785 16.6201 21.2871 16.2764 22.1637 16.2506L22.5418 16.242L21.1496 17.5826Z" fill="#333333"/>
</svg>
