<svg width="20" height="24" viewBox="0 0 20 24" fill="none" xmlns="http://www.w3.org/2000/svg">
<path d="M6.72954 0.112501C6.04516 0.370314 5.5436 0.904689 5.34204 1.58906C5.29048 1.75781 5.26704 2.02969 5.26704 2.37656V2.90625H3.68735C1.99048 2.90625 1.84985 2.92031 1.39985 3.15469C0.626413 3.54844 0.2186 4.28438 0.260788 5.2125C0.27485 5.59688 0.298288 5.69063 0.448288 6C0.677975 6.46875 1.01079 6.80156 1.47954 7.02188L1.84516 7.19531L1.85454 14.4375L1.8686 21.6797L1.99985 22.0453C2.33266 22.9922 3.07329 23.7 3.97798 23.9297C4.21704 23.9906 5.0186 24 9.99204 24C15.078 24 15.7624 23.9906 16.0202 23.925C16.7795 23.7281 17.4733 23.1609 17.8249 22.4484C18.1764 21.7266 18.1577 22.2 18.1577 14.2688C18.1577 7.54688 18.1624 7.16719 18.242 7.14375C18.5092 7.05469 18.8655 6.84375 19.0624 6.66094C20.3092 5.49375 19.7842 3.40781 18.1342 2.97656C17.9092 2.92031 17.5483 2.90625 16.2967 2.90625H14.7358V2.46563C14.7358 2.22656 14.7124 1.91719 14.6889 1.77656C14.5764 1.19531 14.1733 0.618751 13.667 0.309376C13.142 -0.00468607 13.2124 1.43051e-06 9.95923 0.00468893H7.02485L6.72954 0.112501ZM12.9499 1.25625C13.4092 1.50469 13.5592 1.8 13.5639 2.44688V2.90625H9.99673H6.42954L6.44829 2.37656C6.46235 1.90313 6.47641 1.83281 6.5936 1.65469C6.75298 1.40156 7.02016 1.22344 7.31548 1.17188C7.43735 1.15313 8.71235 1.13906 10.142 1.13906L12.7436 1.14844L12.9499 1.25625ZM17.9608 4.15313C18.617 4.425 18.7811 5.23594 18.2842 5.7375C18.1717 5.85 18.003 5.95781 17.8952 5.99063C17.6374 6.06563 2.38891 6.075 2.11235 5.99531C2.01391 5.97188 1.85923 5.88281 1.76548 5.79844C1.22641 5.325 1.35298 4.47188 2.00923 4.16719C2.18735 4.08281 2.5061 4.07813 9.99204 4.07813C16.9342 4.07813 17.8061 4.0875 17.9608 4.15313ZM16.9858 14.2594C16.9858 20.1656 16.9764 21.3375 16.9202 21.5203C16.6905 22.275 16.1795 22.7297 15.453 22.8328C15.2561 22.8609 13.0155 22.8703 9.76235 22.8656L4.39985 22.8516L4.13266 22.7438C3.65454 22.5516 3.26548 22.1203 3.07798 21.5813C3.00298 21.3703 2.9936 20.8266 2.98423 14.2828L2.96548 7.21875H9.97798H16.9858V14.2594Z" fill="#151515"/>
<path d="M6.40975 8.74714C6.08631 8.90652 6.10975 8.48464 6.10975 14.5925V20.1003L6.23163 20.2456C6.56444 20.644 7.18319 20.4425 7.25819 19.9081C7.27225 19.8003 7.28163 17.3159 7.27225 14.3909C7.25819 9.20183 7.25819 9.06589 7.16444 8.93464C7.00506 8.69558 6.67694 8.6112 6.40975 8.74714Z" fill="#151515"/>
<path d="M9.73502 8.74714C9.65065 8.78933 9.54752 8.87839 9.50065 8.9487C9.42096 9.06589 9.41627 9.3612 9.40221 14.3909C9.39284 17.3159 9.40221 19.8003 9.41627 19.9081C9.49127 20.4425 10.11 20.644 10.4428 20.2456L10.5647 20.1003V14.5925C10.5647 8.47058 10.5881 8.90183 10.2553 8.74245C10.0678 8.65339 9.92252 8.65339 9.73502 8.74714Z" fill="#151515"/>
<path d="M13.0489 8.75195C12.9551 8.79883 12.8473 8.90664 12.8004 9.00039C12.7254 9.15508 12.7207 9.49727 12.7301 14.6254C12.7442 19.6223 12.7489 20.0957 12.8239 20.1941C12.9504 20.377 13.0864 20.4473 13.3067 20.4473C13.5739 20.4473 13.7801 20.3066 13.8457 20.0723C13.8832 19.9504 13.8926 18.2254 13.8832 14.452L13.8692 9.00039L13.7286 8.86445C13.5457 8.68164 13.2739 8.63477 13.0489 8.75195Z" fill="#151515"/>
</svg>
