<svg width="33" height="33" viewBox="0 0 33 33" fill="none" xmlns="http://www.w3.org/2000/svg">
<path d="M1.06472 7.16718C0.574878 7.34765 0.110815 7.84394 0.0334717 8.27577C0.0141357 8.38534 0.00769043 11.55 0.0141357 15.3141L0.0334717 22.1525L0.226831 22.4683C0.349292 22.6617 0.542651 22.8551 0.736011 22.9775C1.05183 23.1709 1.06472 23.1709 2.07019 23.1902L3.0821 23.2096L3.12722 23.448C3.26902 24.2279 4.06179 25.2205 4.83523 25.5814C6.13718 26.2002 7.75496 25.8715 8.66374 24.8016C8.928 24.4922 9.25671 23.8605 9.34695 23.4738L9.41785 23.2031H10.1268C10.7907 23.2031 10.8423 23.1967 10.9905 23.042C11.1645 22.8744 11.1903 22.7133 11.0807 22.4683C10.9776 22.2428 10.7134 22.1719 10.0237 22.1719H9.43074L9.28894 21.7336C9.10203 21.1664 8.84421 20.7732 8.36082 20.3285C7.76785 19.7807 7.11687 19.5293 6.2532 19.5228C5.02214 19.5228 3.99734 20.1223 3.43015 21.1922C3.32058 21.392 3.19812 21.6949 3.15945 21.8689L3.0821 22.1719H2.22488C1.39343 22.1719 1.36765 22.1654 1.20652 22.0043C1.10339 21.9012 1.02605 21.7336 1.00027 21.5725C0.980933 21.4242 0.968042 18.4271 0.980933 14.9209C1.00027 8.0244 0.987378 8.35312 1.33542 8.19198C1.445 8.14042 5.78269 8.12108 15.876 8.12108C29.076 8.12108 30.2749 8.12753 30.4167 8.22421C30.5778 8.34023 30.7454 8.68183 30.7454 8.88808C30.7454 9.01698 30.6938 9.01698 27.4776 9.03632L24.2034 9.05565L23.9907 9.2039C23.5782 9.50038 23.5846 9.42948 23.604 12.6844L23.6233 15.6299L23.8038 15.9392C24.3516 16.8674 26.3819 17.6021 29.4241 17.976C29.9913 18.0469 30.8098 18.1242 31.2481 18.15L32.0409 18.1951L32.0216 19.9096C32.0022 21.4693 31.9893 21.6433 31.8798 21.8045C31.6735 22.1139 31.4737 22.1719 30.6616 22.1719H29.9204L29.843 21.8689C29.8044 21.6949 29.6819 21.392 29.5723 21.1922C29.0052 20.1223 27.9803 19.5228 26.7493 19.5228C25.8856 19.5293 25.2346 19.7807 24.6417 20.3285C24.1583 20.7732 23.9005 21.1664 23.7135 21.7336L23.5718 22.1719H18.1964C12.4923 22.1719 12.5309 22.1719 12.4149 22.4619C12.3311 22.681 12.3762 22.926 12.5245 23.0613L12.6727 23.2031H18.1319H23.5846L23.6555 23.4738C23.7458 23.8605 24.0745 24.4922 24.3387 24.8016C25.2475 25.8715 26.8653 26.2002 28.1673 25.5814C28.9407 25.2205 29.7335 24.2279 29.8753 23.448L29.9204 23.2096L30.8292 23.1902C31.6542 23.1709 31.7766 23.158 32.0538 23.0098C32.4147 22.8293 32.7112 22.5199 32.8788 22.1461C32.9884 21.9012 33.0012 21.6433 33.0012 18.4078V14.9338L32.3567 11.6402C32.0022 9.82909 31.6671 8.22421 31.6091 8.07597C31.4866 7.74081 30.9839 7.2703 30.6294 7.16718C30.2813 7.06405 1.35476 7.06405 1.06472 7.16718ZM31.4866 12.5812C31.9635 14.9789 31.9958 15.1723 32.0216 16.1391L32.0473 17.1639L31.3126 17.1187C29.5143 17.0092 27.5485 16.6933 26.4593 16.3389C25.6536 16.0746 24.8866 15.675 24.7448 15.443C24.6288 15.256 24.6223 15.0756 24.6223 12.6457V10.0547H27.7999H30.9839L31.4866 12.5812ZM7.18777 20.7668C7.91609 21.1471 8.39304 21.8947 8.39304 22.6682C8.39304 23.5318 7.95476 24.2473 7.20066 24.6211C6.71082 24.8596 6.2532 24.924 5.79558 24.8144C5.35085 24.7113 5.1446 24.6017 4.82234 24.3117C3.59128 23.1967 3.96511 21.2502 5.53132 20.6572C5.92449 20.5025 6.78816 20.5605 7.18777 20.7668ZM27.6839 20.7539C29.0825 21.4371 29.3403 23.2676 28.1802 24.3117C27.8579 24.6017 27.6516 24.7113 27.2069 24.8144C26.7493 24.924 26.2917 24.8596 25.8018 24.6211C25.0477 24.2473 24.6094 23.5318 24.6094 22.6682C24.6094 21.7594 25.254 20.915 26.1692 20.6185C26.2594 20.5863 26.5624 20.5734 26.846 20.5799C27.2391 20.5928 27.4389 20.6314 27.6839 20.7539Z" fill="#333333"/>
<path d="M2.64316 9.10722C2.51426 9.15234 2.35957 9.28124 2.27578 9.4037L2.12109 9.62929L2.14043 12.6393C2.15977 15.5461 2.16621 15.6557 2.28867 15.791C2.57871 16.1133 2.54648 16.1133 6.96152 16.1133C11.441 16.1133 11.3701 16.1197 11.6537 15.7588C11.7955 15.5783 11.7955 15.559 11.7955 12.6006V9.62284L11.6473 9.4037C11.5635 9.28124 11.4023 9.15234 11.2799 9.10722C10.9576 8.99765 2.96543 8.99765 2.64316 9.10722ZM6.4459 12.5684V15.082H4.80234H3.15879V12.5684V10.0547H4.80234H6.4459V12.5684ZM10.7643 12.5684V15.082H9.1207H7.47715V12.5684V10.0547H9.1207H10.7643V12.5684Z" fill="#333333"/>
<path d="M13.2967 9.09433C13.1871 9.12655 13.0195 9.24257 12.9293 9.35214L12.7617 9.55195V12.549C12.7617 15.1916 12.7746 15.5654 12.8648 15.7201C13.084 16.0939 12.8906 16.081 17.441 16.1004C21.9914 16.1197 22.0043 16.1197 22.2621 15.7717C22.391 15.5912 22.3975 15.5139 22.4168 12.7101C22.4297 10.7766 22.4168 9.75175 22.3652 9.59062C22.3266 9.44882 22.217 9.29413 22.0881 9.2039L21.8818 9.05566L17.6924 9.04277C15.2561 9.03632 13.4191 9.05566 13.2967 9.09433ZM17.0801 10.6348C17.0801 11.1697 17.093 11.2342 17.2412 11.376C17.4088 11.55 17.5699 11.5758 17.8084 11.4662C18.0404 11.3631 18.1113 11.1439 18.1113 10.5703V10.0547H19.7549H21.3984V12.5684V15.082H19.7613H18.1178L18.0984 14.0443C18.0791 13.0453 18.0727 13.0066 17.9244 12.8842C17.7246 12.723 17.4152 12.7295 17.2283 12.9035C17.0865 13.0389 17.0801 13.0775 17.0801 14.0637V15.082H15.4043H13.7285V12.5684V10.0547H15.4043H17.0801V10.6348Z" fill="#333333"/>
<path d="M23.751 18.0791C23.6479 18.1758 23.5898 18.3111 23.5898 18.4336C23.5898 18.5561 23.6479 18.6914 23.751 18.7881C23.8928 18.9363 23.9572 18.9492 24.5244 18.9492C25.0916 18.9492 25.1561 18.9363 25.2979 18.7881C25.401 18.6914 25.459 18.5561 25.459 18.4336C25.459 18.3111 25.401 18.1758 25.2979 18.0791C25.1561 17.9309 25.0916 17.918 24.5244 17.918C23.9572 17.918 23.8928 17.9309 23.751 18.0791Z" fill="#333333"/>
</svg>
