<svg width="24" height="24" viewBox="0 0 24 24" fill="none" xmlns="http://www.w3.org/2000/svg">
<g clip-path="url(#clip0_1150_6220)">
<path d="M5.40469 0.0750008C5.15156 0.168751 4.80469 0.473438 4.67813 0.721876C4.59844 0.871876 4.575 0.99844 4.575 1.3125L4.57031 1.71094L2.88281 1.73438L1.19531 1.75781L0.928125 1.88438C0.604688 2.03438 0.290625 2.33906 0.135938 2.64844L0.0234375 2.88281V12.8906V22.8984L0.15 23.1375C0.314063 23.4516 0.689063 23.7844 1.0125 23.9016C1.27031 24 1.28906 24 12 24C22.7109 24 22.7297 24 22.9875 23.9016C23.3109 23.7844 23.6859 23.4516 23.85 23.1375L23.9766 22.8984V12.8906V2.88281L23.8641 2.64844C23.7094 2.33906 23.3953 2.03438 23.0719 1.88438L22.8047 1.75781L21.1172 1.74375L19.4297 1.72969L19.4438 1.42969C19.4766 0.867189 19.2141 0.403126 18.7313 0.15469C18.5438 0.0562515 18.4031 0.0281258 18.0891 0.00937653C17.5828 -0.014061 17.2969 0.0703144 16.9922 0.337502C16.6594 0.628126 16.575 0.834377 16.5703 1.32188V1.73438H15.6234H14.6813L14.5313 1.86094C14.4 1.96875 14.3859 2.00156 14.4141 2.15156C14.4328 2.24531 14.4891 2.36719 14.5453 2.42344C14.6391 2.53125 14.6625 2.53125 15.6609 2.53125C16.2234 2.53125 16.6922 2.55 16.7063 2.56875C16.7203 2.59219 16.7625 2.86875 16.8094 3.19219C16.8984 3.87188 17.0063 4.12969 17.2922 4.34531C17.7844 4.725 18.5156 4.64531 18.8953 4.17188C19.0406 3.99375 19.125 3.67969 19.2281 2.97656L19.2891 2.55469L20.85 2.54063C22.5234 2.53125 22.6781 2.54531 22.9266 2.75156C23.2219 3 23.2031 2.52188 23.2031 10.3078V17.4328L21.7828 17.4469L20.3672 17.4609L20.0531 17.6156C19.6734 17.7984 19.4016 18.0938 19.2609 18.4641C19.1719 18.6891 19.1578 18.825 19.1531 19.4203L19.1484 20.1188L19.2797 20.2313C19.4531 20.3766 19.6594 20.3766 19.8047 20.2266C19.9172 20.1188 19.9219 20.0906 19.9219 19.4766C19.9219 18.7547 19.9781 18.5672 20.2594 18.3656C20.4094 18.2625 20.4469 18.2578 21.5391 18.2438L22.6641 18.2297L21.0234 19.875L19.3828 21.5156H10.4203C4.20469 21.5156 1.42031 21.5016 1.32656 21.4641C1.16719 21.4031 0.951563 21.2063 0.8625 21.0375C0.764063 20.85 0.764063 3.2625 0.8625 3.03281C0.942188 2.83594 1.17188 2.64375 1.39688 2.57813C1.60313 2.52188 4.66875 2.5125 4.70625 2.56875C4.72031 2.59219 4.7625 2.86875 4.80938 3.19219C4.89844 3.87188 5.00625 4.12969 5.29219 4.34531C5.91094 4.81875 6.85781 4.55156 7.07344 3.84844C7.10156 3.75 7.16719 3.34219 7.21875 2.94844C7.27031 2.55 7.33594 2.17969 7.35938 2.11875C7.38281 2.0625 7.42031 1.81875 7.43438 1.57969C7.47188 1.05469 7.39688 0.773439 7.14375 0.473438C6.86719 0.15469 6.57656 0.032814 6.04688 0.0140648C5.73281 0.00468826 5.54531 0.0234394 5.40469 0.0750008ZM6.41719 0.914064C6.67031 1.12969 6.675 1.22813 6.51563 2.44688C6.42656 3.10313 6.34219 3.58125 6.3 3.64688C6.15469 3.87188 5.84531 3.87188 5.7 3.64688C5.65781 3.58125 5.57344 3.10313 5.48438 2.43281C5.34844 1.41094 5.34375 1.3125 5.40938 1.15781C5.55469 0.801563 6.11719 0.665627 6.41719 0.914064ZM18.4172 0.914064C18.6703 1.12969 18.675 1.22813 18.5156 2.44688C18.4266 3.10313 18.3422 3.58125 18.3 3.64688C18.1547 3.87188 17.8453 3.87188 17.7 3.64688C17.6578 3.58125 17.5734 3.10313 17.4844 2.43281C17.3484 1.41094 17.3438 1.3125 17.4094 1.15781C17.5547 0.801563 18.1172 0.665627 18.4172 0.914064ZM23.0906 22.8C23.0297 22.9078 22.8938 23.0391 22.7906 23.1L22.6031 23.2031H12H1.39688L1.20938 23.1C0.942188 22.95 0.796875 22.6781 0.796875 22.3406C0.796875 22.0969 0.80625 22.0734 0.88125 22.1016C1.26094 22.2656 1.08281 22.2609 10.5 22.2656H19.7063L21.4453 20.5313L23.1797 18.7969L23.1938 20.7047L23.2031 22.6078L23.0906 22.8Z" fill="#151515"/>
<path d="M11.4047 0.0751204C11.1516 0.16887 10.8047 0.473558 10.6734 0.721996C10.5937 0.876683 10.575 0.99387 10.5703 1.322V1.7345H9.71249H8.84999L8.70937 1.87512C8.55468 2.0345 8.55468 2.17043 8.71406 2.39075L8.79843 2.50793L9.73124 2.522C10.2422 2.52668 10.6781 2.55012 10.6969 2.56887C10.7156 2.58762 10.7625 2.86418 10.8094 3.18762C10.8984 3.872 11.0062 4.12981 11.2922 4.34543C11.9109 4.81887 12.8578 4.55168 13.0734 3.84856C13.1016 3.75012 13.1672 3.34231 13.2187 2.94856C13.2703 2.55012 13.3359 2.17981 13.3594 2.11887C13.3828 2.06262 13.4203 1.81887 13.4344 1.57981C13.4719 1.05481 13.3969 0.773558 13.1437 0.473558C12.8672 0.154808 12.5766 0.0329332 12.0469 0.014183C11.7328 0.00480795 11.5453 0.0235581 11.4047 0.0751204ZM12.3656 0.890746C12.45 0.942308 12.5531 1.06418 12.5906 1.15793C12.6562 1.31262 12.6516 1.41106 12.5156 2.43293C12.4266 3.10325 12.3422 3.58137 12.3 3.647C12.1547 3.872 11.8453 3.872 11.7 3.647C11.6578 3.58137 11.5734 3.10325 11.4844 2.447C11.325 1.22825 11.3297 1.12981 11.5828 0.914183C11.7656 0.764183 12.1359 0.750121 12.3656 0.890746Z" fill="#151515"/>
<path d="M2.4 6.20137L2.29688 6.30918V13.0686C2.29688 19.7342 2.29688 19.8279 2.39062 19.9217C2.44219 19.9732 2.53125 20.0248 2.5875 20.0389C2.64844 20.0529 6.09375 20.0576 10.2469 20.0529C17.6016 20.0389 17.8031 20.0342 17.9016 19.9498C18.0375 19.8279 18.0375 19.4998 17.9016 19.3779C17.8031 19.2936 17.6063 19.2889 10.425 19.2748L3.04688 19.2654V13.0545V6.84356H12H20.9531V11.4326C20.9531 15.7311 20.9578 16.0264 21.0375 16.1201C21.1594 16.2748 21.4172 16.2982 21.5766 16.1717L21.7031 16.0732V11.1842V6.29512L21.5953 6.19668L21.4875 6.09356H11.9953H2.49844L2.4 6.20137Z" fill="#151515"/>
<path d="M4.80938 10.8046C4.73438 10.8702 4.6875 10.9687 4.6875 11.0437C4.6875 11.1233 4.93125 11.564 5.35781 12.253L6.02344 13.3358L6.04688 14.4233C6.07031 15.4733 6.075 15.5155 6.17344 15.6187C6.31406 15.7593 6.57656 15.7593 6.71719 15.6187C6.81563 15.5155 6.82031 15.4733 6.84375 14.4233L6.86719 13.3358L7.5375 12.253C7.95938 11.564 8.20313 11.1233 8.20313 11.0437C8.20313 10.753 7.75781 10.5749 7.56563 10.7858C7.51875 10.8374 7.25625 11.2405 6.98438 11.6812C6.7125 12.1218 6.46875 12.4827 6.44531 12.4827C6.41719 12.4827 6.17813 12.1218 5.90625 11.6812C5.63438 11.2405 5.37188 10.8374 5.325 10.7858C5.19844 10.6499 4.96875 10.6593 4.80938 10.8046Z" fill="#151515"/>
<path d="M8.78906 10.8047L8.67188 10.9172V13.1906V15.4641L8.78438 15.5953L8.89688 15.7266H10.1672C11.4 15.7266 11.4375 15.7219 11.5359 15.6281C11.6672 15.4922 11.6672 15.2109 11.5359 15.075C11.4422 14.9812 11.3813 14.9766 10.425 14.9625L9.41719 14.9484L9.43125 14.2828L9.44531 13.6172L9.90469 13.5938C10.3219 13.575 10.3781 13.5609 10.4578 13.4578C10.575 13.3172 10.5703 13.1203 10.4531 12.9703C10.3594 12.8531 10.3266 12.8484 9.9 12.8344L9.44531 12.8203V12.1406V11.4609L10.4672 11.4375C11.4141 11.4141 11.4984 11.4047 11.5594 11.325C11.6578 11.1891 11.6438 10.8937 11.5312 10.7812C11.4422 10.6922 11.3766 10.6875 10.1719 10.6875H8.90156L8.78906 10.8047Z" fill="#151515"/>
<path d="M13.7438 10.7951C13.6406 10.9076 12.2344 15.1545 12.2344 15.3607C12.2344 15.5388 12.3141 15.642 12.4875 15.7029C12.6047 15.7404 12.675 15.7404 12.7641 15.6982C12.9 15.6373 12.9563 15.5388 13.0734 15.1638L13.1625 14.8826H13.9922H14.8266L14.9391 15.2107C15.0656 15.5904 15.1734 15.717 15.3703 15.717C15.6 15.717 15.75 15.5904 15.75 15.3935C15.75 15.2342 14.4516 11.1279 14.3156 10.8701C14.2078 10.6592 13.9078 10.617 13.7438 10.7951ZM14.3016 13.2513C14.4516 13.7107 14.5781 14.0904 14.5781 14.0951C14.5781 14.1045 14.325 14.1092 14.0156 14.1092C13.6219 14.1092 13.4531 14.0951 13.4531 14.0529C13.4531 13.9545 13.9734 12.3654 14.0016 12.3888C14.0156 12.4029 14.1516 12.792 14.3016 13.2513Z" fill="#151515"/>
<path d="M16.4859 10.7813L16.3594 10.8798V13.1954C16.3594 15.3423 16.3641 15.511 16.4438 15.6095C16.5703 15.7688 16.8563 15.7595 16.9969 15.5907C17.1047 15.4688 17.1094 15.436 17.1094 14.7376V14.0157H17.2734C17.4281 14.0157 17.4609 14.0485 18.0656 14.8548C18.7313 15.7407 18.8203 15.811 19.0688 15.6938C19.2516 15.6048 19.3453 15.4126 19.2844 15.2438C19.2563 15.1735 19.0266 14.8407 18.7734 14.5079C18.5156 14.1751 18.3328 13.8985 18.3609 13.8891C18.5344 13.8282 18.8578 13.5563 19.0031 13.3454C19.4719 12.661 19.3781 11.6813 18.7875 11.1282C18.3984 10.7626 18.2344 10.7157 17.3672 10.697C16.6547 10.6829 16.6078 10.6876 16.4859 10.7813ZM17.8828 11.4891C18.2906 11.6016 18.5203 11.911 18.5203 12.347C18.5203 12.9563 18.1734 13.261 17.475 13.2657H17.1094V12.3516V11.4376H17.4047C17.5641 11.4376 17.7797 11.461 17.8828 11.4891Z" fill="#151515"/>
<path d="M16.3359 13.1952C16.3359 14.4093 16.3406 14.9109 16.3453 14.3109C16.3547 13.7155 16.3547 12.7218 16.3453 12.1077C16.3406 11.4937 16.3359 11.9812 16.3359 13.1952Z" fill="#404040"/>
<path d="M9.4453 12.1643V12.8205L9.8203 12.8252H10.1953L9.83436 12.8111L9.47343 12.7924L9.45468 12.1502L9.44061 11.508L9.4453 12.1643Z" fill="#404040"/>
<path d="M9.44061 14.2733C9.44061 14.6342 9.44999 14.7748 9.45468 14.5873C9.46405 14.3998 9.46405 14.1045 9.45468 13.9311C9.4453 13.7577 9.44061 13.9123 9.44061 14.2733Z" fill="#404040"/>
<path d="M17.1937 14.0486C17.25 14.058 17.3343 14.058 17.3812 14.0486C17.4234 14.0346 17.3765 14.0252 17.2734 14.0299C17.1703 14.0299 17.1328 14.0393 17.1937 14.0486Z" fill="#404040"/>
<path d="M21.0703 19.7906L19.5234 21.3516L21.0844 19.8047C21.9375 18.9562 22.6406 18.2531 22.6406 18.2484C22.6406 18.2156 22.5094 18.3422 21.0703 19.7906Z" fill="#404040"/>
<path d="M21.4219 20.6016L19.7063 22.3125H10.5234C1.77656 22.3078 1.32188 22.3031 1.09219 22.2234L0.84375 22.1391V22.3828C0.84375 22.6641 0.965625 22.8797 1.21406 23.0484L1.37344 23.1562H12H22.6266L22.7859 23.0484C22.8703 22.9922 22.9922 22.8703 23.0484 22.7859C23.1562 22.6266 23.1562 22.6219 23.1562 20.7609C23.1562 19.7297 23.1516 18.8906 23.1469 18.8906C23.1375 18.8906 22.3641 19.6594 21.4219 20.6016Z" fill="#EC406B"/>
<path d="M22.9266 10.3125C22.7906 10.4391 22.4672 10.7062 22.2141 10.9078L21.7547 11.2734V13.6453C21.75 15.975 21.75 16.0219 21.6516 16.1437C21.6 16.2094 21.5156 16.2656 21.4641 16.2656C21.3797 16.2656 21.375 16.3031 21.375 16.8281V17.3906H22.2891H23.2031V13.7344C23.2031 11.7234 23.1984 10.0781 23.1938 10.0781C23.1844 10.0828 23.0672 10.1859 22.9266 10.3125Z" fill="#EC6B6B"/>
<path d="M0.806238 18.4031C0.8203 21.2156 0.810925 21.1266 1.1953 21.3516L1.39218 21.4688H10.3875C17.325 21.4688 19.4016 21.4547 19.4437 21.4125C19.4812 21.375 19.5 21.1875 19.5 20.8734C19.5 20.4047 19.4953 20.3859 19.3875 20.3438C19.2234 20.2828 19.125 20.1141 19.125 19.8891V19.6875H18.5859C18.1312 19.6875 18.0469 19.6969 18.0469 19.7578C18.0469 19.8 17.9953 19.8844 17.9297 19.9453L17.8172 20.0625H10.1484H2.47968L2.36718 19.9453L2.24999 19.8328V17.9813V16.1297L2.09999 16.1063C2.01561 16.0922 1.7578 16.0594 1.52343 16.0313C1.29374 16.0031 1.03124 15.9703 0.946863 15.9516L0.792175 15.9281L0.806238 18.4031Z" fill="#EC6B6B"/>
<path d="M7.35939 2.18896C7.35939 2.2124 7.30783 2.5874 7.24689 3.02803C7.12501 3.9374 7.04533 4.13896 6.7172 4.3874C6.16408 4.80928 5.30626 4.63584 4.97345 4.03584C4.89845 3.89521 4.83751 3.65615 4.77658 3.22021C4.7297 2.87803 4.68751 2.59678 4.68751 2.5874C4.68751 2.58271 3.96564 2.57803 3.0797 2.57803C1.5047 2.57803 1.4672 2.57803 1.26564 2.68115C0.984389 2.82646 0.857826 3.02803 0.820326 3.38896C0.806264 3.54834 0.796889 6.43115 0.806264 9.79678L0.820326 15.914L1.17189 15.9655C1.36408 15.9983 1.68751 16.0358 1.88439 16.0546L2.25001 16.0874V11.203V6.31865L2.38595 6.18271L2.52189 6.04678H12H21.4781L21.6141 6.18271L21.75 6.31865V8.78896V11.2546L21.8813 11.1655C21.9516 11.114 22.275 10.8468 22.6078 10.5702L23.2031 10.0733V6.75928C23.1985 4.93584 23.1797 3.35146 23.161 3.23896C23.1094 2.97178 22.9875 2.8124 22.7344 2.68115C22.5328 2.57803 22.4953 2.57803 20.9203 2.57803C20.0344 2.57803 19.3125 2.58271 19.3125 2.5874C19.3125 2.59678 19.2703 2.87803 19.2235 3.22021C19.125 3.92803 19.0266 4.15303 18.7172 4.3874C18.3094 4.69678 17.6906 4.69678 17.2828 4.3874C16.9735 4.15303 16.875 3.92803 16.7766 3.22021C16.7297 2.87803 16.6875 2.59678 16.6875 2.5874C16.6875 2.58271 16.2328 2.57803 15.675 2.57803H14.6625L14.5266 2.44209C14.4516 2.36709 14.3906 2.26865 14.3906 2.23115C14.3906 2.16553 14.311 2.15615 13.875 2.15615C13.5938 2.15615 13.3594 2.17021 13.3594 2.18896C13.3594 2.2124 13.3078 2.5874 13.2469 3.02803C13.125 3.9374 13.0453 4.13896 12.7172 4.3874C12.3094 4.69678 11.6906 4.69678 11.2828 4.3874C10.9735 4.15303 10.875 3.92803 10.7766 3.22021C10.7297 2.87803 10.6875 2.59678 10.6875 2.5874C10.6875 2.58271 10.275 2.57803 9.76876 2.57803H8.85001L8.71408 2.44209C8.63908 2.36709 8.57814 2.26865 8.57814 2.23115C8.57814 2.16553 8.49376 2.15615 7.96876 2.15615C7.63595 2.15615 7.35939 2.17021 7.35939 2.18896Z" fill="#EC9696"/>
<path d="M21.3469 16.8511C21.3469 17.1605 21.3516 17.2824 21.3609 17.1183C21.3703 16.9589 21.3703 16.7058 21.3609 16.5558C21.3516 16.4105 21.3469 16.5417 21.3469 16.8511Z" fill="#EC9696"/>
<path d="M18.3188 19.6731C18.4782 19.6825 18.7313 19.6825 18.8813 19.6731C19.0266 19.6638 18.8953 19.6591 18.586 19.6591C18.2766 19.6591 18.1547 19.6638 18.3188 19.6731Z" fill="#EC9696"/>
<path d="M19.5187 20.8592C19.5187 21.131 19.5234 21.2388 19.5328 21.1029C19.5422 20.9717 19.5422 20.7467 19.5328 20.6107C19.5234 20.4795 19.5187 20.5873 19.5187 20.8592Z" fill="#EC9696"/>
<path d="M21.0469 19.7672L19.5234 21.3047L21.0609 19.7812C22.4859 18.3656 22.6125 18.2344 22.5797 18.2344C22.575 18.2344 21.8859 18.9234 21.0469 19.7672Z" fill="#ECC196"/>
<path d="M20.6016 12.1594C20.0531 12.5437 19.3078 12.9891 19.2656 12.9609C19.2375 12.9422 19.2234 12.9469 19.2281 12.9703C19.2422 13.0219 19.0922 13.2984 18.9516 13.4859C18.8859 13.5703 18.7359 13.7016 18.6094 13.7812L18.3797 13.9312L18.8531 14.5641C19.2469 15.0891 19.3313 15.225 19.3313 15.3609C19.3313 15.6797 18.9047 15.8766 18.6656 15.6656C18.6141 15.6234 18.3188 15.2437 18.0047 14.8219C17.4984 14.1469 17.4188 14.0625 17.2969 14.0625H17.1609L17.1469 14.7844C17.1328 15.4781 17.1281 15.5156 17.0203 15.6281C16.8656 15.7922 16.5891 15.7969 16.4297 15.6328C16.3172 15.525 16.3125 15.4922 16.3125 14.9812V14.4469L16.0922 14.5312C15.9656 14.5781 15.8109 14.6391 15.7406 14.6672L15.6141 14.7141L15.7031 14.9812C15.8297 15.3375 15.8203 15.4922 15.6797 15.6328C15.6 15.7172 15.5156 15.75 15.3844 15.75C15.1547 15.75 15.0375 15.6281 14.925 15.2672C14.8781 15.1219 14.8266 15 14.8031 15C14.7844 15 14.475 15.0797 14.1234 15.1828C13.7672 15.2812 13.3641 15.3891 13.2328 15.4219C13.0969 15.45 12.9844 15.4969 12.9844 15.5203C12.9844 15.5437 12.9422 15.6047 12.8906 15.6562C12.7875 15.7594 12.5391 15.7828 12.3563 15.6984C12.2672 15.6562 12.1313 15.6656 11.7328 15.7406C9.78281 16.1156 7.40156 16.2984 5.10938 16.2469C4.37344 16.2328 3.61875 16.2047 3.43594 16.1906L3.09375 16.1578V17.7141V19.2656H10.4719H17.8547L17.9484 19.3875C18.0047 19.4578 18.0469 19.5422 18.0469 19.575C18.0469 19.6266 18.1594 19.6406 18.5813 19.6406H19.1156L19.1344 19.1109C19.1531 18.4828 19.2422 18.2531 19.6172 17.8781C19.9313 17.5641 20.2547 17.4422 20.8688 17.4047L21.3281 17.3766V16.8422V16.3078L21.1875 16.2562C21.1078 16.2328 21.0188 16.1625 20.9859 16.1062C20.9438 16.0359 20.925 15.4594 20.9062 13.9828L20.8828 11.9625L20.6016 12.1594Z" fill="#ECECC1"/>
<path d="M9.90471 14.9393C10.1531 14.9486 10.5656 14.9486 10.8188 14.9393C11.0672 14.9346 10.861 14.9252 10.3594 14.9252C9.85783 14.9252 9.65158 14.9346 9.90471 14.9393Z" fill="#ECECC1"/>
<path d="M20.5313 18.2906C20.3484 18.3422 20.1328 18.525 20.0344 18.7125C19.9875 18.8016 19.9688 19.0172 19.9688 19.4391C19.9688 20.1141 19.9313 20.2406 19.6969 20.3391L19.5469 20.4094V20.8312V21.2578L21.0469 19.7578C21.8719 18.9328 22.5469 18.2531 22.5469 18.2484C22.5469 18.2109 20.6672 18.2484 20.5313 18.2906Z" fill="#ECECC1"/>
<path d="M6.2953 1.07361C6.11249 1.18611 5.97655 1.38298 5.91092 1.62204C5.86874 1.77673 5.87811 1.96423 5.95311 2.53611C6.00467 2.93454 6.06092 3.37048 6.07499 3.50173C6.1078 3.77361 6.13124 3.79236 6.24842 3.66579C6.34217 3.56267 6.6328 1.48142 6.59061 1.24236C6.54842 1.01267 6.46874 0.970481 6.2953 1.07361Z" fill="#C1ECEC"/>
<path d="M12.3 1.07361C12.1125 1.18611 11.9765 1.37829 11.9109 1.62204C11.8687 1.77673 11.8781 1.96423 11.9531 2.53611C12.0047 2.93454 12.0609 3.37048 12.075 3.50173C12.1078 3.77361 12.1312 3.79236 12.2484 3.66579C12.3047 3.60017 12.3656 3.27673 12.4734 2.47048C12.6187 1.37361 12.6234 1.22361 12.5062 1.06892C12.45 0.989231 12.4359 0.989231 12.3 1.07361Z" fill="#C1ECEC"/>
<path d="M18.2953 1.07361C18.1125 1.18611 17.9765 1.38298 17.9109 1.62204C17.8687 1.77673 17.8781 1.96423 17.9531 2.53611C18.0047 2.93454 18.0609 3.37048 18.075 3.50173C18.1078 3.77361 18.1312 3.79236 18.2484 3.66579C18.3422 3.56267 18.6328 1.48142 18.5906 1.24236C18.5484 1.01267 18.4687 0.970481 18.2953 1.07361Z" fill="#C1ECEC"/>
<path d="M5.7422 0.8625C5.55002 0.946875 5.43752 1.08281 5.40939 1.27031C5.38595 1.42031 5.63439 3.45469 5.69533 3.61406C5.72814 3.69844 5.91095 3.79688 6.03283 3.79688C6.1172 3.79688 6.1172 3.76406 5.95314 2.53594C5.87814 1.96406 5.86877 1.77656 5.91095 1.62187C5.97189 1.39219 6.1547 1.13906 6.30939 1.06875C6.46408 0.998437 6.45002 0.946875 6.25783 0.8625C6.06095 0.782812 5.92502 0.782812 5.7422 0.8625Z" fill="#ECECEC"/>
<path d="M11.7422 0.8625C11.55 0.946875 11.4375 1.08281 11.4094 1.27031C11.386 1.42031 11.6344 3.45469 11.6953 3.61406C11.7281 3.69844 11.911 3.79688 12.0328 3.79688C12.1172 3.79688 12.1172 3.76406 11.9531 2.53594C11.8781 1.96406 11.8688 1.77656 11.911 1.62187C11.9719 1.39219 12.1547 1.13906 12.3094 1.06875C12.4641 0.998437 12.45 0.946875 12.2578 0.8625C12.061 0.782812 11.925 0.782812 11.7422 0.8625Z" fill="#ECECEC"/>
<path d="M17.7422 0.8625C17.55 0.946875 17.4375 1.08281 17.4094 1.27031C17.386 1.42031 17.6344 3.45469 17.6953 3.61406C17.7281 3.69844 17.911 3.79688 18.0328 3.79688C18.1172 3.79688 18.1172 3.76406 17.9531 2.53594C17.8781 1.96406 17.8688 1.77656 17.911 1.62187C17.9719 1.39219 18.1547 1.13906 18.3094 1.06875C18.4641 0.998437 18.45 0.946875 18.2578 0.8625C18.061 0.782812 17.925 0.782812 17.7422 0.8625Z" fill="#ECECEC"/>
<path d="M3.09375 11.5267V16.1579L3.43594 16.1907C3.61875 16.2048 4.37344 16.2329 5.10938 16.247C7.40625 16.2985 9.68438 16.1251 11.7281 15.7454C12.225 15.6517 12.2719 15.6329 12.2344 15.5579C12.2063 15.511 12.1875 15.436 12.1875 15.3892C12.1828 15.2345 13.6172 10.8704 13.7016 10.7767C13.8938 10.5704 14.2547 10.636 14.3719 10.8938C14.4047 10.9735 14.7047 11.8642 15.0328 12.872L15.6328 14.7095L15.9609 14.5829L16.2891 14.4563L16.3125 12.661L16.3359 10.8657L16.4672 10.7532C16.5938 10.6454 16.6313 10.6407 17.2172 10.6407C17.9016 10.6407 18.2906 10.7157 18.5625 10.8938C19.1531 11.2829 19.4438 12.0048 19.2984 12.7126C19.2563 12.9188 19.2516 13.0173 19.2844 12.9985C19.5141 12.8673 20.3766 12.3142 20.6156 12.1501L20.9062 11.9438V9.41728V6.89072H12H3.09375V11.5267ZM5.30625 10.7298C5.36719 10.7813 5.64844 11.1938 5.925 11.6438C6.20156 12.0985 6.43594 12.4688 6.44531 12.4688C6.45469 12.4688 6.68906 12.0985 6.96563 11.6438C7.46719 10.8235 7.61719 10.6407 7.79063 10.6407C7.95 10.6407 8.14219 10.772 8.20312 10.922C8.28281 11.1095 8.28281 11.1142 7.47656 12.422L6.84375 13.4532V14.5079V15.5579L6.72188 15.6517C6.5625 15.7782 6.32813 15.7782 6.16875 15.6517L6.04688 15.5579V14.5032V13.4532L5.40938 12.4126C4.60313 11.1001 4.60781 11.1095 4.6875 10.922C4.79531 10.6642 5.1 10.5704 5.30625 10.7298ZM11.4797 10.711C11.6344 10.786 11.6719 10.8657 11.6719 11.0907C11.6719 11.2032 11.6344 11.2923 11.5547 11.3673C11.4422 11.4845 11.4422 11.4845 10.4531 11.4845H9.46875V12.1407V12.797H9.90469C10.3125 12.797 10.35 12.8063 10.4578 12.9188C10.6078 13.0782 10.6125 13.3642 10.4625 13.5095C10.3688 13.6032 10.2984 13.6173 9.91406 13.6313L9.46875 13.6501V14.2735V14.897L10.4578 14.9157L11.4469 14.9298L11.5594 15.061C11.7 15.2251 11.7047 15.4595 11.5734 15.6282L11.4797 15.7501H10.1766H8.87344L8.76094 15.6282L8.64844 15.5063L8.63438 13.261C8.62031 10.8329 8.625 10.786 8.87344 10.6876C8.92969 10.6642 9.51094 10.6454 10.1625 10.6454C11.1141 10.6407 11.3766 10.6548 11.4797 10.711Z" fill="#ECECEC"/>
<path d="M17.1562 12.3516V13.2188H17.5125C17.7422 13.2188 17.925 13.1906 18.0281 13.1437C18.3844 12.975 18.5672 12.5766 18.4734 12.1687C18.3609 11.6906 18.075 11.4891 17.4984 11.4844H17.1562V12.3516Z" fill="#ECECEC"/>
<path d="M13.7297 13.2516L13.4625 14.0625H13.9922H14.5219L14.3156 13.4156C14.2031 13.0641 14.086 12.6984 14.0531 12.6047L13.9922 12.4406L13.7297 13.2516Z" fill="#ECECEC"/>
<path d="M13.1062 15.1689C13.0594 15.3142 13.0312 15.4361 13.0406 15.4501C13.0641 15.4689 13.1672 15.4455 14.1234 15.1783C14.5031 15.0751 14.8125 14.972 14.8125 14.9486C14.8125 14.9251 14.4469 14.9064 14.0016 14.9064H13.1906L13.1062 15.1689Z" fill="#ECECEC"/>
</g>
<defs>
<clipPath id="clip0_1150_6220">
<rect width="24" height="24" fill="white"/>
</clipPath>
</defs>
</svg>
