<svg width="17" height="17" viewBox="0 0 17 17" fill="none" xmlns="http://www.w3.org/2000/svg">
<path d="M4.45281 0.59271C4.36317 0.639078 4.2828 0.71636 4.22406 0.809097C4.1406 0.945112 4.13442 0.982207 4.11896 1.34079L4.1035 1.7272H3.69546C2.99683 1.7272 2.47441 1.86012 1.96435 2.17234C1.30592 2.56802 0.836046 3.18009 0.59802 3.94054L0.511465 4.21566L0.502191 8.89891C0.496008 12.3549 0.502191 13.644 0.530012 13.814C0.613476 14.3612 0.900963 14.9423 1.29355 15.3627C1.69851 15.7955 2.13437 16.0675 2.70626 16.2468L2.98447 16.3334H8.39417H13.8039L14.0481 16.2623C14.3881 16.1634 14.6787 16.0366 14.9414 15.8666C15.2506 15.6688 15.7143 15.1865 15.8997 14.8774C16.0759 14.5775 16.2429 14.1293 16.2892 13.814C16.3171 13.644 16.3232 12.3549 16.3171 8.89891L16.3078 4.21566L16.2212 3.93745C15.8626 2.79368 14.9445 1.9745 13.7977 1.77357C13.6524 1.74884 13.3494 1.7272 13.1238 1.7272H12.7157L12.7003 1.34079C12.6848 0.982207 12.6786 0.945112 12.5952 0.809097C12.4653 0.598892 12.2891 0.512337 12.0233 0.527793C11.7915 0.540158 11.6523 0.614348 11.5287 0.793641C11.4607 0.892561 11.4545 0.938931 11.4452 1.31606L11.4329 1.7272H8.40962H5.38637L5.37401 1.31606C5.36474 0.938931 5.35855 0.892561 5.29054 0.793641C5.16689 0.614348 5.02779 0.540158 4.79594 0.527793C4.62593 0.518519 4.56719 0.530885 4.45281 0.59271ZM4.11278 3.58195C4.11278 4.30531 4.13751 4.43823 4.31062 4.61752C4.60119 4.92046 5.10198 4.85864 5.30909 4.49387C5.3771 4.3764 5.38019 4.33622 5.38019 3.68087V2.99461H8.40962H11.4391V3.68087C11.4391 4.33622 11.4421 4.3764 11.5101 4.49387C11.7173 4.85864 12.218 4.92046 12.5086 4.61752C12.6817 4.43823 12.7065 4.30531 12.7065 3.58195V2.99461H13.0867C13.8255 2.99461 14.3201 3.21409 14.6911 3.70869C14.9631 4.07346 15.0496 4.35167 15.0775 4.96065L15.096 5.37488H8.40962H1.72324L1.74178 4.96065C1.76033 4.5186 1.81597 4.24348 1.93344 4.01782C2.04164 3.80143 2.23638 3.55722 2.41568 3.40884C2.78972 3.10281 3.12048 2.99771 3.72019 2.99771L4.11278 2.99461V3.58195ZM15.0805 10.1107C15.0713 13.372 15.0651 13.5914 15.0125 13.7522C14.8487 14.2468 14.5179 14.661 14.113 14.8712C13.6802 15.0969 14.0883 15.0814 8.40962 15.0814C2.73099 15.0814 3.13903 15.0969 2.70626 14.8712C2.3013 14.661 1.97054 14.2468 1.8067 13.7522C1.75415 13.5914 1.74797 13.372 1.73869 10.1107L1.72942 6.64229H8.40962H15.0898L15.0805 10.1107Z" fill="#313131"/>
<path d="M3.8959 8.46929C3.58986 8.58985 3.43221 9.0288 3.58368 9.32866C3.66405 9.48322 3.83716 9.6316 3.9639 9.65633C4.01955 9.6656 4.41523 9.67178 4.84491 9.6656L5.62082 9.65633L5.74138 9.5605C5.89594 9.43994 5.99795 9.23592 5.99795 9.05353C5.99486 8.80623 5.82793 8.54657 5.61773 8.46929C5.50644 8.42601 4.00409 8.42601 3.8959 8.46929Z" fill="#313131"/>
<path d="M7.52825 8.47856C7.41078 8.53111 7.24694 8.70113 7.20676 8.81551C7.16039 8.93607 7.16348 9.18955 7.21294 9.31011C7.27167 9.44612 7.48806 9.63469 7.61171 9.65633C7.66735 9.6656 8.06303 9.67178 8.49272 9.6656L9.26862 9.65633L9.38918 9.5605C9.72613 9.29156 9.72613 8.81551 9.38918 8.54657L9.26862 8.45074L8.44635 8.44456C7.80028 8.43837 7.59935 8.44456 7.52825 8.47856Z" fill="#313131"/>
<path d="M11.1765 8.47856C11.0529 8.5342 10.9292 8.67022 10.8705 8.81242C10.7623 9.06899 10.8489 9.37812 11.0776 9.5605L11.1982 9.65633L11.9741 9.6656C12.4038 9.67178 12.7994 9.6656 12.8551 9.65633C12.9818 9.6316 13.1549 9.48013 13.2384 9.32247C13.3342 9.13391 13.3095 8.84951 13.1828 8.69495C12.9787 8.44456 13.0158 8.45074 12.0946 8.44456C11.4517 8.43837 11.2476 8.44456 11.1765 8.47856Z" fill="#313131"/>
<path d="M3.97898 12.0954C3.81205 12.1417 3.63276 12.2932 3.56784 12.4447C3.50601 12.59 3.5122 12.8373 3.5833 12.9764C3.66367 13.1309 3.83678 13.2793 3.96352 13.304C4.01916 13.3133 4.41484 13.3195 4.84453 13.3133L5.62043 13.304L5.74099 13.2082C5.89555 13.0876 5.99757 12.8836 5.99757 12.7012C5.99447 12.4539 5.83064 12.2005 5.61116 12.1108C5.47205 12.0521 4.17372 12.0397 3.97898 12.0954Z" fill="#313131"/>
<path d="M7.66242 12.0799C7.51403 12.1108 7.35638 12.219 7.26364 12.355C7.20182 12.4477 7.18945 12.5034 7.18945 12.7043C7.18945 12.9238 7.19564 12.9516 7.28528 13.0598C7.48621 13.3102 7.45221 13.304 8.36413 13.3133C9.12149 13.3226 9.1895 13.3195 9.29769 13.2607C9.44607 13.1866 9.53881 13.0876 9.60063 12.9423C9.72737 12.6301 9.56972 12.2375 9.26059 12.1108C9.15549 12.0644 7.85098 12.0397 7.66242 12.0799Z" fill="#313131"/>
<path d="M11.4239 12.0676C11.4084 12.0738 11.3404 12.0861 11.2755 12.0985C11.2106 12.1078 11.1116 12.1603 11.0467 12.216C10.7376 12.488 10.7531 12.9486 11.0776 13.2082L11.1982 13.3041H12.0576H12.9169L13.0375 13.2082C13.2632 13.029 13.359 12.6951 13.2539 12.4447C13.1859 12.2871 12.9849 12.1263 12.8026 12.0861C12.6604 12.0552 11.5042 12.0398 11.4239 12.0676Z" fill="#313131"/>
</svg>
