<svg width="14" height="14" viewBox="0 0 14 14" fill="none" xmlns="http://www.w3.org/2000/svg">
<path d="M3.07336 0.519531C2.77531 0.667188 2.26398 1.13203 1.76086 1.71172C1.27414 2.27227 0.727266 3.02969 0.530391 3.42344C0.431953 3.61758 0.431953 3.62578 0.445625 3.88281C0.459297 4.18906 0.563203 4.66484 0.716328 5.14062C1.49016 7.54687 3.57922 10.1637 6.11125 11.9C7.05188 12.5453 8.16203 13.0867 9.09719 13.3574C9.47727 13.4695 9.98313 13.5625 10.1964 13.5625C10.3659 13.5625 10.4179 13.5488 10.5847 13.4668C10.6886 13.4121 10.932 13.2645 11.1206 13.1359C12.1652 12.4332 13.2261 11.4406 13.4804 10.9266C13.6253 10.6367 13.5679 10.3059 13.3245 10.0352C13.0948 9.78086 11.6073 8.82383 10.8554 8.44648C10.0323 8.03633 9.73703 8.00352 9.37883 8.28789C9.30227 8.34805 9.08078 8.58594 8.88117 8.81562L8.52297 9.23672L8.32883 9.16836C7.59602 8.90859 6.66906 8.29883 6.11672 7.71367C5.56711 7.13125 5.06945 6.33828 4.83156 5.67109L4.7632 5.47695L5.15695 5.14062C5.78586 4.60742 5.89523 4.4543 5.88977 4.11523C5.88703 3.88008 5.82414 3.68867 5.59172 3.21016C5.23352 2.48281 4.2218 0.907812 3.96203 0.672656C3.69406 0.432031 3.3632 0.37461 3.07336 0.519531ZM3.65578 1.75C4.10422 2.40078 4.44602 2.9832 4.77414 3.64492L4.99016 4.07969L4.88078 4.17539C4.82062 4.22734 4.63469 4.38594 4.46789 4.52812C3.91281 4.9957 3.77062 5.19531 3.81437 5.43867C3.86086 5.6875 4.06594 6.23984 4.25187 6.61172C4.94641 8.00078 5.99914 9.05352 7.3882 9.74805C7.76008 9.93398 8.31242 10.1391 8.56125 10.1855C8.81555 10.232 9.00148 10.0926 9.54836 9.4418C9.73156 9.22305 9.89563 9.03984 9.91477 9.03164C9.96125 9.01523 10.8362 9.46094 11.312 9.74531C11.6866 9.9668 12.105 10.2402 12.4632 10.4945L12.6327 10.6148L12.4359 10.8363C11.8671 11.4652 10.3769 12.6602 10.1581 12.6602C10.046 12.6602 9.55656 12.5535 9.28312 12.4688C8.34797 12.1816 7.30344 11.643 6.35461 10.9621C5.66008 10.4645 4.82336 9.72891 4.27102 9.13555C2.89562 7.65625 1.98234 6.17695 1.52844 4.70586C1.44094 4.42422 1.33977 3.95938 1.33977 3.8418C1.33977 3.76797 1.48742 3.53281 1.81281 3.08984C2.17922 2.59492 2.73977 1.95781 3.13078 1.59688C3.32219 1.41914 3.38234 1.37539 3.40695 1.40273C3.42336 1.41914 3.53547 1.57773 3.65578 1.75Z" fill="black" fill-opacity="0.7"/>
</svg>
