<svg width="20" height="21" viewBox="0 0 20 21" fill="none" xmlns="http://www.w3.org/2000/svg">
<path d="M5.22303 3C5.86366 3.92969 6.35194 4.76172 6.82069 5.70703L7.12928 6.32812L6.97303 6.46484C6.8871 6.53906 6.62147 6.76562 6.38319 6.96875C5.59022 7.63672 5.3871 7.92188 5.4496 8.26953C5.516 8.625 5.80897 9.41406 6.0746 9.94531C7.06678 11.9297 8.57069 13.4336 10.5551 14.4258C11.0863 14.6914 11.8754 14.9844 12.2308 15.0508C12.5941 15.1172 12.8598 14.918 13.641 13.9883C13.9027 13.6758 14.1371 13.4141 14.1644 13.4023C14.2308 13.3789 15.4808 14.0156 16.1605 14.4219C16.6957 14.7383 17.2933 15.1289 17.8051 15.4922L18.0473 15.6641L17.766 15.9805C16.9535 16.8789 14.8246 18.5859 14.5121 18.5859C14.3519 18.5859 13.6527 18.4336 13.2621 18.3125C11.9262 17.9023 10.434 17.1328 9.0785 16.1602C8.08631 15.4492 6.891 14.3984 6.10194 13.5508C4.1371 11.4375 2.83241 9.32422 2.18397 7.22266C2.05897 6.82031 1.91444 6.15625 1.91444 5.98828C1.91444 5.88281 2.12538 5.54688 2.59022 4.91406C3.11366 4.20703 3.91444 3.29688 4.47303 2.78125C4.74647 2.52734 4.83241 2.46484 4.86756 2.50391C4.891 2.52734 5.05116 2.75391 5.22303 3Z" fill="white"/>
<path d="M5.22303 3C5.86366 3.92969 6.35194 4.76172 6.82069 5.70703L7.12928 6.32812L6.97303 6.46484C6.8871 6.53906 6.62147 6.76562 6.38319 6.96875C5.59022 7.63672 5.3871 7.92188 5.4496 8.26953C5.516 8.625 5.80897 9.41406 6.0746 9.94531C7.06678 11.9297 8.57069 13.4336 10.5551 14.4258C11.0863 14.6914 11.8754 14.9844 12.2308 15.0508C12.5941 15.1172 12.8598 14.918 13.641 13.9883C13.9027 13.6758 14.1371 13.4141 14.1644 13.4023C14.2308 13.3789 15.4808 14.0156 16.1605 14.4219C16.6957 14.7383 17.2933 15.1289 17.8051 15.4922L18.0473 15.6641L17.766 15.9805C16.9535 16.8789 14.8246 18.5859 14.5121 18.5859C14.3519 18.5859 13.6527 18.4336 13.2621 18.3125C11.9262 17.9023 10.434 17.1328 9.0785 16.1602C8.08631 15.4492 6.891 14.3984 6.10194 13.5508C4.1371 11.4375 2.83241 9.32422 2.18397 7.22266C2.05897 6.82031 1.91444 6.15625 1.91444 5.98828C1.91444 5.88281 2.12538 5.54688 2.59022 4.91406C3.11366 4.20703 3.91444 3.29688 4.47303 2.78125C4.74647 2.52734 4.83241 2.46484 4.86756 2.50391C4.891 2.52734 5.05116 2.75391 5.22303 3Z" fill="white"/>
<path d="M10.2812 1.82876C10.0898 1.94595 10 2.12173 10 2.37954C10 2.54361 10.0234 2.63345 10.0898 2.7272C10.2422 2.95767 10.3594 2.99673 10.9805 3.03579C11.9922 3.1022 12.8086 3.32095 13.6914 3.76236C14.3867 4.11001 14.8477 4.44986 15.4492 5.05142C16.0508 5.65298 16.3906 6.11392 16.7383 6.80923C17.1797 7.69595 17.3945 8.49673 17.4609 9.50845C17.5 10.1374 17.5391 10.2585 17.7734 10.4108C17.9453 10.528 18.2852 10.5358 18.4688 10.4225C18.6992 10.2819 18.75 10.1452 18.75 9.66079C18.75 7.94986 18.0469 6.06314 16.8984 4.68423C16.5703 4.29361 15.9141 3.6647 15.5391 3.37954C14.1641 2.34829 12.4375 1.75064 10.8398 1.75064C10.4805 1.75064 10.3906 1.76236 10.2812 1.82876Z" fill="white"/>
<path d="M10.2812 4.95376C10.0938 5.07095 10 5.24673 10 5.50064C10 5.91079 10.2109 6.10611 10.6992 6.14126C11.8359 6.23111 12.6445 6.59829 13.3398 7.34439C13.9375 7.98111 14.2578 8.71158 14.3359 9.63345C14.3828 10.1335 14.4336 10.2702 14.6484 10.4108C14.8203 10.528 15.1602 10.5358 15.3438 10.4225C15.5664 10.2858 15.625 10.1413 15.625 9.71548C15.625 8.82486 15.3242 7.87954 14.7773 7.04751C14.543 6.69204 13.8125 5.96548 13.4492 5.72329C12.6211 5.17642 11.6758 4.87564 10.7852 4.87564C10.4805 4.87564 10.3867 4.89126 10.2812 4.95376Z" fill="white"/>
</svg>
