<svg width="24" height="24" viewBox="0 0 24 24" fill="none" xmlns="http://www.w3.org/2000/svg">
<path d="M15.7125 3.24863C15.6562 3.28144 15.5812 3.35175 15.5437 3.39863C15.3609 3.6705 13.8281 6.57206 13.8281 6.65175C13.8281 6.83925 13.9453 6.98925 14.2453 7.18144C14.6391 7.43456 15.3937 8.17988 15.6562 8.57831C16.0547 9.17363 16.0078 9.183 17.7703 8.2455C19.6078 7.2705 19.5703 7.29394 19.6406 7.12988C19.7203 6.92831 19.6734 6.79238 19.3406 6.28144C18.6281 5.19863 17.6344 4.20956 16.5375 3.49706C16.1016 3.21113 15.8859 3.15019 15.7125 3.24863Z" fill="#151515"/>
<path d="M5.07655 14.5687C4.21873 15.0281 3.46873 15.4453 3.41248 15.5062C3.18748 15.7265 3.30936 16.0265 3.98436 16.9453C4.61248 17.7984 5.41873 18.5578 6.37498 19.1953C6.96092 19.5843 7.1203 19.6265 7.33592 19.439C7.46717 19.3265 9.08436 16.3687 9.12655 16.1624C9.17811 15.914 9.1078 15.8109 8.72811 15.5578C8.29686 15.2671 7.58905 14.5687 7.34061 14.1796C7.24217 14.0249 7.11561 13.8609 7.05936 13.8187C6.84842 13.6453 6.7078 13.6968 5.07655 14.5687Z" fill="#151515"/>
<path d="M10.8141 7.71111C10.1157 7.84236 9.42659 8.20329 8.8969 8.70954C7.60784 9.93767 7.40628 12.0236 8.43284 13.4861C10.0828 15.8345 13.6266 15.5439 14.8407 12.9611C15.0985 12.4127 15.1969 11.9627 15.1922 11.3439C15.1875 9.64236 14.0485 8.18923 12.3844 7.75798C11.9578 7.65017 11.2547 7.62673 10.8141 7.71111ZM12.0328 9.98923C12.3516 10.1111 12.6797 10.4205 12.8438 10.758C13.0125 11.1095 13.0078 11.6486 12.8297 12.0095C12.5907 12.5017 12.1453 12.797 11.5969 12.8345C10.9594 12.8767 10.4438 12.5814 10.1672 12.0236C9.5719 10.8095 10.7578 9.51579 12.0328 9.98923Z" fill="#ECC115"/>
<path d="M10.6875 0.595484C10.2141 0.628297 9.21094 0.787672 8.99531 0.867359C8.95781 0.876734 8.87812 0.900172 8.8125 0.909547C7.98281 1.06423 6.04687 1.92673 5.49844 2.3908C5.46562 2.41423 5.41875 2.43767 5.39062 2.43767C5.36719 2.43767 5.34375 2.45642 5.34375 2.47517C5.34375 2.49392 5.27344 2.55017 5.19375 2.60173C4.78594 2.83142 3.675 3.85799 3.17344 4.46267C2.8125 4.89392 2.21719 5.79861 1.92187 6.35642C1.45312 7.25174 1.11562 8.2033 0.91875 9.16424C0.764062 9.9283 0.75 10.0642 0.717187 11.0908C0.679687 12.4642 0.825 13.5236 1.21875 14.6955C1.32656 15.0049 1.42969 15.3236 1.45312 15.4033C1.5375 15.6611 2.18437 16.8892 2.4375 17.2736C3.2625 18.5017 4.33125 19.5845 5.50781 20.372C5.6625 20.4752 5.82187 20.5783 5.85937 20.5924C5.89687 20.6111 6.00469 20.672 6.09375 20.7236C7.06875 21.3142 8.46562 21.8205 9.65625 22.0127C9.74531 22.0267 9.82969 22.0455 9.84375 22.0549C9.98437 22.1392 12.0797 22.1767 12.75 22.1111L13.1016 22.0736L13.0875 21.7127C13.0594 21.0845 13.3266 20.5783 13.8797 20.208C14.2594 19.9549 14.5781 19.8658 15.0938 19.8705H15.5156L15.525 17.1377L15.5391 14.4049L15.6703 14.2174C15.9328 13.8377 15.8672 13.8517 19.1625 13.4439C20.8031 13.2424 22.1484 13.0736 22.1531 13.0642C22.2141 12.9986 22.2984 11.7517 22.2844 11.1564C22.2469 9.84861 22.0031 8.54549 21.6094 7.57049C21.5766 7.4908 21.5344 7.38767 21.5156 7.33611C21.3938 7.00799 20.8219 5.90642 20.6063 5.5783C20.4609 5.36267 20.3438 5.17517 20.3438 5.15174C20.3438 5.13299 20.325 5.10955 20.3063 5.10017C20.2875 5.0908 20.2172 5.01111 20.1563 4.92205C19.9219 4.58455 19.6453 4.27049 19.0688 3.69392C18.3375 2.96267 17.8688 2.60173 16.9406 2.0533C16.1859 1.61267 15.7031 1.39236 14.925 1.13455C13.5516 0.679859 12.0984 0.492359 10.6875 0.595484ZM16.4719 3.44549C17.4141 4.03611 18.3094 4.85642 18.975 5.74236C19.6781 6.67986 19.8047 6.98924 19.5844 7.23767C19.4906 7.3408 16.9594 8.72361 16.4156 8.96267C16.0969 9.1033 15.9516 9.03299 15.6281 8.56424C15.2859 8.07205 14.7984 7.58924 14.3063 7.24705C13.8938 6.95642 13.8281 6.87674 13.8281 6.67517C13.8281 6.5158 15.4313 3.50174 15.6141 3.31424C15.8156 3.11267 15.9891 3.1408 16.4719 3.44549ZM12.3844 7.72986C14.5453 8.28299 15.7547 10.5283 15.0188 12.6283C14.7141 13.5049 14.0063 14.297 13.1484 14.7283C12.5438 15.0377 11.7234 15.183 11.0813 15.0939C9.75469 14.9205 8.70469 14.1799 8.11406 12.9986C7.07344 10.9174 8.30156 8.29705 10.5844 7.73455C11.0859 7.61267 11.9109 7.60799 12.3844 7.72986ZM7.03125 13.7814C7.07812 13.8049 7.21875 13.9783 7.34062 14.1611C7.63594 14.6064 8.18437 15.1595 8.6625 15.4877C9.08437 15.783 9.14062 15.8533 9.14062 16.083C9.14062 16.2611 7.50937 19.3314 7.34531 19.4627C7.15312 19.6174 6.94219 19.5705 6.47812 19.2752C5.37187 18.5767 4.3875 17.6064 3.63281 16.472C3.15937 15.7595 3.17812 15.5627 3.73594 15.2674C3.90937 15.1736 4.63594 14.7939 5.34375 14.4189C6.64219 13.7299 6.81562 13.6642 7.03125 13.7814Z" fill="#404040"/>
<path d="M19.1578 16.1484C17.3953 16.3734 17.3578 16.3828 17.1469 16.7578C17.0438 16.9406 17.0438 16.9734 17.025 18.7828C17.011 19.9547 17.0203 20.625 17.0485 20.625C17.0766 20.625 17.2594 20.5078 17.4563 20.3672C17.6531 20.2266 17.8266 20.1094 17.8453 20.1094C17.9813 20.1094 19.3922 18.7922 19.7953 18.2812C19.9313 18.1125 20.0766 17.9297 20.1281 17.8734C20.175 17.8172 20.2406 17.7281 20.2688 17.6766C20.2969 17.6297 20.4188 17.4375 20.5406 17.2594C20.7563 16.9453 20.9156 16.6687 21.1453 16.2234C21.3235 15.8719 21.3375 15.8719 19.1578 16.1484Z" fill="#404040"/>
<path d="M22.125 13.0922C22.1109 13.1063 20.7844 13.2797 19.1719 13.4766C15.8672 13.8797 15.9328 13.861 15.6797 14.2735L15.5391 14.4985L15.525 17.2032L15.5109 19.9079L15.1031 19.9032C14.3953 19.8938 13.8187 20.1563 13.4437 20.6532C13.1906 20.986 13.1062 21.2719 13.1156 21.7594C13.1203 22.0969 13.1437 22.2094 13.2422 22.4063C13.6031 23.1141 14.4797 23.5313 15.3516 23.4047C16.0172 23.311 16.5609 22.9266 16.8375 22.3688L16.9922 22.0547L17.0016 19.5704C17.0109 18.2063 17.025 17.0157 17.0391 16.9313C17.0719 16.7579 17.2969 16.4813 17.4891 16.3829C17.6766 16.2844 21.0094 15.8766 21.1594 15.9329C21.3141 15.9938 21.6 16.2516 21.6844 16.411C21.7359 16.5141 21.75 16.7813 21.75 17.7094V18.8813L21.4594 18.8579C21.0984 18.8297 20.6109 18.9375 20.2875 19.111C20.0016 19.2657 19.6875 19.5985 19.5187 19.9266C19.4016 20.1516 19.3875 20.2313 19.3828 20.625C19.3828 21.0094 19.4016 21.1032 19.5047 21.3282C19.7719 21.886 20.3203 22.2938 20.9766 22.411C21.8437 22.5704 22.8234 22.0875 23.175 21.3329C23.2734 21.1172 23.2734 21.0985 23.2734 17.386V13.6547L23.1469 13.486C22.9312 13.2094 22.7484 13.1063 22.4297 13.0875C22.275 13.0782 22.1391 13.0782 22.125 13.0922Z" fill="#EC4040"/>
<path d="M11.0016 10.0034C10.5984 10.1487 10.2938 10.4487 10.1203 10.8752C10.0406 11.0768 10.0359 11.6346 10.1203 11.8737C10.2984 12.3893 10.8938 12.8112 11.4516 12.8159C12.0234 12.8206 12.5297 12.5206 12.7875 12.0284C12.8953 11.8221 12.9141 11.7331 12.9141 11.3674C12.9141 11.0206 12.8953 10.9127 12.8063 10.7487C12.6422 10.4346 12.4359 10.2331 12.1313 10.0784C11.8922 9.96118 11.7891 9.93774 11.5125 9.93774C11.3297 9.94243 11.1 9.97055 11.0016 10.0034Z" fill="#ECECEC"/>
</svg>
