<svg width="24" height="24" viewBox="0 0 24 24" fill="none" xmlns="http://www.w3.org/2000/svg">
<path d="M3.88368 2.05955C3.76647 2.0869 3.52423 2.18458 3.33669 2.27444C2.85612 2.51277 2.50057 2.87613 2.26224 3.37233C2.16456 3.5755 2.06689 3.83337 2.04345 3.94667C2.01219 4.09123 2.00047 6.14245 2.00047 10.6786C2.00047 17.9184 1.97702 17.3363 2.26224 17.5316C2.48495 17.6801 2.7897 17.6723 3.01631 17.5082C3.11008 17.4417 3.96182 16.7385 4.91124 15.9453L6.64208 14.5036H11.3697C14.6164 14.5036 16.1676 14.4919 16.3082 14.4606C16.4215 14.4372 16.6794 14.3395 16.8826 14.2418C17.3944 13.9957 17.746 13.6441 17.9922 13.1322C18.0898 12.9291 18.1875 12.6712 18.211 12.5579C18.2696 12.2688 18.2696 4.2358 18.211 3.94667C18.1875 3.83337 18.0898 3.5755 17.9922 3.37233C17.746 2.8605 17.3944 2.50886 16.8826 2.26272C16.6794 2.16504 16.4215 2.06736 16.3082 2.04392C15.9839 1.9775 4.16108 1.98922 3.88368 2.05955ZM16.1949 3.36061C16.4918 3.48173 16.7732 3.76304 16.8943 4.05998L16.9841 4.28659V8.25228V12.218L16.8943 12.4446C16.7732 12.7415 16.4918 13.0228 16.1949 13.1439L15.9683 13.2338L11.0415 13.2533L6.11463 13.2729L5.96225 13.3901C5.8802 13.4526 5.23553 13.984 4.52835 14.5739L3.25073 15.6406L3.25855 9.96358L3.27027 4.28659L3.36013 4.06388C3.52423 3.65755 3.8954 3.36842 4.34081 3.29028C4.43849 3.27465 7.0953 3.26293 10.2444 3.26684L15.9683 3.27075L16.1949 3.36061Z" fill="#016635"/>
<path d="M16.1949 3.36061C16.4918 3.48173 16.7732 3.76304 16.8943 4.05998L16.9841 4.28659V8.25228V12.218L16.8943 12.4446C16.7732 12.7415 16.4918 13.0228 16.1949 13.1439L15.9683 13.2338L11.0415 13.2533L6.11463 13.2729L5.96225 13.3901C5.8802 13.4526 5.23553 13.984 4.52835 14.5739L3.25073 15.6406L3.25855 9.96358L3.27027 4.28659L3.36013 4.06388C3.52423 3.65755 3.8954 3.36842 4.34081 3.29028C4.43849 3.27465 7.0953 3.26293 10.2444 3.26684L15.9683 3.27075L16.1949 3.36061Z" fill="#016635"/>
<path d="M6.03253 5.82992C5.84499 5.94713 5.75122 6.12295 5.75122 6.37691C5.75122 6.63087 5.84499 6.80669 6.03253 6.9239C6.15756 7.00204 6.23961 7.00204 10.1272 7.00204C14.0147 7.00204 14.0968 7.00204 14.2218 6.9239C14.4093 6.80669 14.5031 6.63087 14.5031 6.37691C14.5031 6.12295 14.4093 5.94713 14.2218 5.82992C14.0968 5.75178 14.0147 5.75178 10.1272 5.75178C6.23961 5.75178 6.15756 5.75178 6.03253 5.82992Z" fill="white"/>
<path d="M6.03253 8.3305C5.84499 8.44771 5.75122 8.62353 5.75122 8.87749C5.75122 9.13145 5.84499 9.30727 6.03253 9.42448C6.15756 9.49872 6.2357 9.50262 8.87689 9.50262C11.5181 9.50262 11.5962 9.49872 11.7212 9.42448C11.9088 9.30727 12.0026 9.13145 12.0026 8.87749C12.0026 8.62353 11.9088 8.44771 11.7212 8.3305C11.5962 8.25626 11.5181 8.25236 8.87689 8.25236C6.2357 8.25236 6.15756 8.25626 6.03253 8.3305Z" fill="white"/>
<path d="M19.1603 7.08022C18.9728 7.19743 18.879 7.37325 18.879 7.62721C18.879 8.01401 19.0861 8.22499 19.5198 8.27188C20.0668 8.33439 20.4614 8.6118 20.645 9.06111L20.7349 9.28772L20.7466 14.6521C20.7505 17.5981 20.7466 20.0127 20.7349 20.0127C20.7231 20.0127 20.3207 19.7001 19.8441 19.3172C19.3674 18.9343 18.8712 18.5436 18.7462 18.4459L18.5156 18.274L13.9014 18.2545L9.28711 18.2349L9.0605 18.1451C8.75575 18.0201 8.48225 17.7427 8.36894 17.4457C8.29862 17.266 8.27908 17.1058 8.25955 16.6838C8.24001 16.086 8.20094 15.9727 7.97042 15.8321C7.7946 15.7266 7.45859 15.7266 7.28277 15.8321C7.03663 15.9845 7.00146 16.0939 7.00146 16.7581C7.00146 17.4809 7.03663 17.6606 7.26324 18.1334C7.50939 18.6452 7.86102 18.9968 8.37285 19.243C8.57602 19.3406 8.83389 19.4383 8.94719 19.4618C9.08785 19.493 10.553 19.5047 13.5732 19.5047H17.9882L19.5002 20.712C20.3285 21.3723 21.0474 21.935 21.0943 21.9623C21.2506 22.0444 21.5788 22.017 21.7429 21.9076C22.0281 21.7122 22.0047 22.2592 22.0047 15.3671C22.0047 11.0576 21.9929 9.09237 21.9617 8.9478C21.9382 8.8345 21.8406 8.57663 21.7429 8.37346C21.4967 7.86164 21.1451 7.51 20.6333 7.26385C20.2152 7.06068 19.9691 7.00208 19.5706 7.00208C19.3596 7.00208 19.258 7.02161 19.1603 7.08022Z" fill="#016635"/>
<path d="M18.879 7.62721C18.879 8.01401 19.0861 8.22499 19.5198 8.27188C20.0668 8.33439 20.4614 8.6118 20.645 9.06111L20.7349 9.28772L20.7466 14.6521C20.7505 17.5981 20.7466 20.0127 20.7349 20.0127C20.7231 20.0127 20.3207 19.7001 19.8441 19.3172C19.3674 18.9343 18.8712 18.5436 18.7462 18.4459L18.5156 18.274L13.9014 18.2545L9.28711 18.2349L9.0605 18.1451C8.75575 18.0201 8.48225 17.7427 8.36894 17.4457C8.29862 17.266 8.27908 17.1058 8.25955 16.6838C8.24001 16.086 8.20094 15.9727 7.97042 15.8321H18.879V7.62721Z" fill="#016635"/>
</svg>
