<svg width="14" height="14" viewBox="0 0 14 14" fill="none" xmlns="http://www.w3.org/2000/svg">
<path d="M2.26556 1.20141C2.19719 1.21736 2.05588 1.27434 1.94648 1.32676C1.66615 1.46579 1.45875 1.67775 1.31972 1.9672C1.26274 2.08571 1.20577 2.23613 1.19209 2.30223C1.17386 2.38656 1.16702 3.5831 1.16702 6.22917C1.16702 10.4524 1.15335 10.1128 1.31972 10.2268C1.44963 10.3134 1.62741 10.3088 1.7596 10.2131C1.81429 10.1744 2.31115 9.76411 2.86497 9.30145L3.87463 8.46045H6.63238C8.52634 8.46045 9.43115 8.45361 9.5132 8.43537C9.5793 8.4217 9.72972 8.36472 9.84824 8.30774C10.1468 8.16416 10.3519 7.95904 10.4955 7.66047C10.5525 7.54196 10.6095 7.39153 10.6231 7.32544C10.6573 7.15678 10.6573 2.47089 10.6231 2.30223C10.6095 2.23613 10.5525 2.08571 10.4955 1.9672C10.3519 1.66863 10.1468 1.46351 9.84824 1.31992C9.72972 1.26295 9.5793 1.20597 9.5132 1.19229C9.32404 1.15355 2.42738 1.16038 2.26556 1.20141ZM9.44711 1.96036C9.62032 2.03101 9.78442 2.19511 9.85507 2.36832L9.90749 2.50051V4.81383V7.12715L9.85507 7.25934C9.78442 7.43256 9.62032 7.59665 9.44711 7.66731L9.31492 7.71973L6.44093 7.73112L3.56695 7.74252L3.47806 7.81089C3.4302 7.84736 3.05414 8.15732 2.64162 8.50147L1.89634 9.12367L1.9009 5.81209L1.90774 2.50051L1.96016 2.3706C2.05588 2.13357 2.2724 1.96492 2.53222 1.91934C2.5892 1.91022 4.13901 1.90338 5.97599 1.90566L9.31492 1.90794L9.44711 1.96036Z" fill="black" fill-opacity="0.7"/>
<path d="M3.51908 3.40078C3.40968 3.46915 3.35498 3.57171 3.35498 3.71986C3.35498 3.868 3.40968 3.97056 3.51908 4.03893C3.59201 4.08452 3.63987 4.08452 5.90761 4.08452C8.17535 4.08452 8.22321 4.08452 8.29614 4.03893C8.40554 3.97056 8.46024 3.868 8.46024 3.71986C8.46024 3.57171 8.40554 3.46915 8.29614 3.40078C8.22321 3.35519 8.17535 3.35519 5.90761 3.35519C3.63987 3.35519 3.59201 3.35519 3.51908 3.40078Z" fill="black" fill-opacity="0.7"/>
<path d="M3.51908 4.85945C3.40968 4.92782 3.35498 5.03039 3.35498 5.17853C3.35498 5.32667 3.40968 5.42923 3.51908 5.49761C3.59201 5.54091 3.63759 5.54319 5.17829 5.54319C6.71898 5.54319 6.76456 5.54091 6.83749 5.49761C6.94689 5.42923 7.00159 5.32667 7.00159 5.17853C7.00159 5.03039 6.94689 4.92782 6.83749 4.85945C6.76456 4.81615 6.71898 4.81387 5.17829 4.81387C3.63759 4.81387 3.59201 4.81615 3.51908 4.85945Z" fill="black" fill-opacity="0.7"/>
<path d="M11.1769 4.13012C11.0675 4.1985 11.0128 4.30106 11.0128 4.4492C11.0128 4.67484 11.1336 4.79791 11.3866 4.82526C11.7056 4.86172 11.9358 5.02354 12.043 5.28564L12.0954 5.41783L12.1022 8.54708C12.1045 10.2655 12.1022 11.6741 12.0954 11.6741C12.0885 11.6741 11.8538 11.4917 11.5757 11.2684C11.2977 11.045 11.0082 10.8171 10.9353 10.7601L10.8008 10.6598L8.10918 10.6484L5.41752 10.637L5.28533 10.5846C5.10756 10.5117 4.94802 10.3499 4.88192 10.1767C4.8409 10.0718 4.8295 9.97838 4.81811 9.73223C4.80671 9.38352 4.78392 9.31743 4.64945 9.23538C4.54689 9.17384 4.35089 9.17384 4.24833 9.23538C4.10474 9.32427 4.08423 9.38808 4.08423 9.77553C4.08423 10.1972 4.10474 10.302 4.23693 10.5778C4.38052 10.8764 4.58564 11.0815 4.8842 11.2251C5.00272 11.282 5.15314 11.339 5.21924 11.3527C5.30129 11.3709 6.15596 11.3778 7.91773 11.3778H10.4931L11.3752 12.082C11.8583 12.4672 12.2777 12.7954 12.3051 12.8113C12.3962 12.8592 12.5877 12.8432 12.6834 12.7794C12.8498 12.6655 12.8361 12.9846 12.8361 8.96416C12.8361 6.45028 12.8293 5.30388 12.811 5.21955C12.7974 5.15345 12.7404 5.00303 12.6834 4.88451C12.5398 4.58595 12.3347 4.38083 12.0361 4.23724C11.7923 4.11873 11.6487 4.08454 11.4162 4.08454C11.2931 4.08454 11.2339 4.09593 11.1769 4.13012Z" fill="black" fill-opacity="0.7"/>
</svg>
