<svg width="16" height="16" viewBox="0 0 16 16" fill="none" xmlns="http://www.w3.org/2000/svg">
<path d="M14.0356 1.32799C13.546 1.36705 12.5018 1.53372 12.2856 1.61185C11.9236 1.73945 11.1606 2.50768 10.4158 3.49726C9.36895 4.88789 8.45749 6.29153 7.61374 7.80976C7.10593 8.72643 6.22051 10.4947 5.87936 11.2837L5.81686 11.4243L5.7153 11.2577C5.10332 10.2394 4.56166 9.65091 3.95749 9.34362C3.61634 9.17174 3.31947 9.13007 3.05645 9.22122C2.75176 9.32799 2.2804 9.65351 2.12676 9.86966C2.0252 10.0129 1.97832 10.1952 2.00957 10.3306C2.04343 10.4764 2.22051 10.7316 2.51478 11.0493C3.10593 11.69 3.59291 12.3124 4.14759 13.1405C4.34291 13.4348 4.55384 13.729 4.61634 13.7941C4.7778 13.9686 4.92363 14.0025 5.55905 13.9999C6.23874 13.9973 6.55905 13.9348 6.72572 13.7707C6.85072 13.6431 7.04082 13.2316 7.65541 11.7655C7.99395 10.9556 8.64759 9.59101 9.04082 8.87747C9.12676 8.71862 9.23353 8.5233 9.2778 8.44518C9.69968 7.67434 10.4445 6.48424 11.0538 5.60403C12.1971 3.9608 13.0669 2.91393 14.1684 1.86705C14.4393 1.60924 14.4913 1.53112 14.4601 1.41393C14.4523 1.38789 14.4184 1.35403 14.3846 1.33841C14.3221 1.30976 14.2778 1.30976 14.0356 1.32799Z" fill="#19B65B"/>
</svg>
