<svg width="18" height="17" viewBox="0 0 18 17" fill="none" xmlns="http://www.w3.org/2000/svg">
<path d="M8.34656 0.665486C6.58224 0.785929 4.96765 1.3914 3.54513 2.46236C3.20984 2.71627 2.39278 3.53333 2.13888 3.86861C1.39995 4.84843 0.960492 5.84778 0.742393 7.02617C0.670778 7.40702 0.644737 8.52682 0.693565 8.91744C0.833539 10.0112 1.21114 11.0594 1.77104 11.922L1.97286 12.2312L1.9338 12.5535C1.75476 14.1095 1.36414 15.2716 0.804242 15.9129C0.687054 16.0463 0.664268 16.0984 0.664268 16.2091C0.664268 16.3491 0.742393 16.4532 0.879112 16.4956C1.04513 16.5444 2.65971 16.1798 3.54838 15.8934C4.17989 15.6883 4.91232 15.3921 5.30294 15.1837L5.59917 15.0275L5.85633 15.1219C6.79708 15.4702 7.94292 15.6687 8.9976 15.6687C13.2652 15.6687 16.8687 12.7488 17.3016 8.93697C17.3505 8.49101 17.3244 7.41354 17.2528 7.02617C17.0347 5.84452 16.5985 4.85169 15.8563 3.86861C15.6024 3.53333 14.7854 2.71627 14.4501 2.46236C13.0015 1.37187 11.426 0.789185 9.58029 0.662231C9.05945 0.626424 8.89018 0.626424 8.34656 0.665486ZM5.49174 7.1401C5.90515 7.29635 6.19812 7.72278 6.19812 8.17525C6.19812 8.80351 5.54383 9.35038 4.9351 9.22669C4.68445 9.17786 4.49239 9.07044 4.32312 8.8914C4.13432 8.68958 4.04318 8.48124 4.0269 8.21432C3.99435 7.75208 4.30359 7.28984 4.75932 7.12382C4.94487 7.05546 5.28667 7.06523 5.49174 7.1401ZM9.46961 7.17916C10.1304 7.52096 10.2834 8.38033 9.7756 8.90117C9.55099 9.13229 9.3101 9.23645 8.9976 9.23645C8.80229 9.23645 8.7144 9.21692 8.56466 9.14856C8.01127 8.89466 7.76062 8.25012 8.01453 7.71627C8.1545 7.42005 8.39539 7.2052 8.70463 7.10429C8.75021 7.08801 8.9032 7.0815 9.04643 7.08801C9.24825 7.09452 9.34266 7.11406 9.46961 7.17916ZM13.3303 7.16614C13.5712 7.28333 13.7372 7.44934 13.8544 7.68697C13.9488 7.87903 13.9618 7.93437 13.9618 8.16549C13.9585 8.48124 13.8902 8.66028 13.6721 8.8914C13.2294 9.36341 12.5458 9.36015 12.0933 8.88163C11.8329 8.6082 11.7352 8.22083 11.8361 7.87577C11.9305 7.55025 12.191 7.26054 12.4937 7.1401C12.7216 7.04895 13.1187 7.06197 13.3303 7.16614Z" fill="#016635"/>
</svg>
