<svg width="20" height="20" viewBox="0 0 20 20" fill="none" xmlns="http://www.w3.org/2000/svg">
<path d="M6.25065 4.16663H13.7507C14.2673 4.16663 14.7257 4.18329 15.134 4.24163C17.3257 4.48329 17.9173 5.51663 17.9173 8.33329V11.6666C17.9173 14.4833 17.3257 15.5166 15.134 15.7583C14.7257 15.8166 14.2673 15.8333 13.7507 15.8333H6.25065C5.73398 15.8333 5.27565 15.8166 4.86732 15.7583C2.67565 15.5166 2.08398 14.4833 2.08398 11.6666V8.33329C2.08398 5.51663 2.67565 4.48329 4.86732 4.24163C5.27565 4.18329 5.73398 4.16663 6.25065 4.16663Z" stroke="black" stroke-opacity="0.7" stroke-width="1.5" stroke-linecap="round" stroke-linejoin="round"/>
<path d="M3.75 1.66663H16.25" stroke="black" stroke-opacity="0.7" stroke-width="1.5" stroke-linecap="round" stroke-linejoin="round"/>
<path d="M4.16602 18.3334H16.666" stroke="black" stroke-opacity="0.7" stroke-width="1.5" stroke-linecap="round" stroke-linejoin="round"/>
</svg>
