<svg width="156" height="160" viewBox="0 0 156 160" fill="none" xmlns="http://www.w3.org/2000/svg">
<path d="M151.896 32.6055C153.837 32.6055 155.412 34.1805 155.412 36.1211C155.412 38.0617 153.837 39.6367 151.896 39.6367C149.956 39.6367 148.381 38.0617 148.381 36.1211C148.381 34.1805 149.956 32.6055 151.896 32.6055Z" fill="#3CBBB1"/>
<path d="M151.896 124.012C153.837 124.012 155.412 125.587 155.412 127.527C155.412 129.468 153.837 131.043 151.896 131.043C149.956 131.043 148.381 129.468 148.381 127.527C148.381 125.587 149.956 124.012 151.896 124.012Z" fill="#19B65B"/>
<path d="M134.318 145.105C138.203 145.105 141.35 148.252 141.35 152.137C141.35 156.021 138.203 159.168 134.318 159.168C130.434 159.168 127.287 156.021 127.287 152.137C127.287 148.252 130.434 145.105 134.318 145.105Z" fill="#3CBBB1"/>
<path d="M127.287 0.964844C129.228 0.964844 130.803 2.53984 130.803 4.48047C130.803 6.42109 129.228 7.99609 127.287 7.99609C125.346 7.99609 123.771 6.42109 123.771 4.48047C123.771 2.53984 125.346 0.964844 127.287 0.964844Z" fill="#19B65B"/>
<path d="M77.7412 134.364C106.866 134.364 130.476 110.753 130.476 81.6284C130.476 52.5035 106.866 28.8931 77.7412 28.8931C48.6163 28.8931 25.0059 52.5035 25.0059 81.6284C25.0059 110.753 48.6163 134.364 77.7412 134.364Z" fill="#19B65B"/>
<path d="M68.5806 81.7028L60.85 73.9723C58.9965 72.1188 55.9913 72.1188 54.1381 73.9723L47.8394 80.271C45.9858 82.1245 45.9858 85.1297 47.8394 86.9829L63.3958 102.539L65.081 103.559L72.259 103.273L106.002 69.2626L102.293 62.4967L94.7916 59.6091L93.6641 60.4519L72.4134 81.7025C71.3547 82.761 69.639 82.761 68.5806 81.7028Z" fill="#EAF6FF"/>
<path d="M107.644 64.8525L101.81 59.0186C99.9562 57.165 96.951 57.165 95.0978 59.0186L93.6645 60.4519C95.0405 60.3065 96.4675 60.759 97.5223 61.8135L100.536 64.8525C102.389 66.706 102.389 69.7112 100.536 71.5644L71.8214 100.365C69.5401 102.646 66.2922 103.37 63.3965 102.539L63.9774 103.12C67.3219 106.465 72.7441 106.465 76.0886 103.12L107.644 71.5647C109.497 69.7112 109.497 66.706 107.644 64.8525Z" fill="#C8EFFE"/>
<path d="M25.334 152.137C27.2746 152.137 28.8496 153.712 28.8496 155.652C28.8496 157.593 27.2746 159.168 25.334 159.168C23.393 159.168 21.8184 157.593 21.8184 155.652C21.8184 153.712 23.393 152.137 25.334 152.137Z" fill="#3CBBB1"/>
<path d="M19.0059 7.99609C25.2204 7.99609 30.2559 13.0316 30.2559 19.2461C30.2559 25.4606 25.2204 30.4961 19.0059 30.4961C12.7909 30.4961 7.75586 25.4606 7.75586 19.2461C7.75586 13.0316 12.7909 7.99609 19.0059 7.99609Z" fill="#3CBBB1"/>
<path d="M4.24023 36.1211C6.18086 36.1211 7.75586 37.6961 7.75586 39.6367C7.75586 41.5773 6.18086 43.1523 4.24023 43.1523C2.29926 43.1523 0.724609 41.5773 0.724609 39.6367C0.724609 37.6961 2.29926 36.1211 4.24023 36.1211Z" fill="#19B65B"/>
<path d="M4.24023 124.012C6.18086 124.012 7.75586 125.587 7.75586 127.527C7.75586 129.468 6.18086 131.043 4.24023 131.043C2.29926 131.043 0.724609 129.468 0.724609 127.527C0.724609 125.587 2.29926 124.012 4.24023 124.012Z" fill="#3CBBB1"/>
</svg>
