<svg width="18" height="17" viewBox="0 0 18 17" fill="none" xmlns="http://www.w3.org/2000/svg">
<path d="M12.353 0.26684C12.2586 0.312413 12.1447 0.397048 12.1024 0.455642C11.9233 0.690017 11.9233 0.699783 11.9233 2.04093C11.9233 2.89054 11.9364 3.32348 11.9624 3.40812C12.0145 3.58715 12.2 3.79223 12.3921 3.88012C12.5386 3.94848 12.6037 3.95825 12.991 3.95825C13.3394 3.95825 13.4207 3.96801 13.4207 4.00382C13.4207 4.02986 13.3621 4.39119 13.2905 4.80786C13.2189 5.22452 13.1636 5.56957 13.1733 5.57608C13.1799 5.58259 13.7625 5.22452 14.4657 4.78181L15.7482 3.97452L16.2528 3.95825C16.7313 3.94197 16.7638 3.93871 16.9136 3.85082C17.0959 3.7434 17.2358 3.56111 17.2912 3.3658C17.3205 3.26489 17.327 2.87752 17.3205 1.98885C17.3107 0.790929 17.3075 0.748611 17.2391 0.621658C17.2 0.550043 17.1219 0.445877 17.0601 0.387283C16.8387 0.175694 16.9266 0.182205 14.6154 0.182205H12.5223L12.353 0.26684ZM16.6597 0.81697L16.741 0.895095V2.05395C16.741 2.74731 16.728 3.23885 16.7085 3.27465C16.6564 3.37231 16.4904 3.40486 16.0249 3.40486H15.5822L14.7749 3.90942C14.3289 4.18937 13.9611 4.41072 13.9546 4.40421C13.9481 4.3977 13.9806 4.18286 14.0229 3.92244C14.0685 3.66528 14.1043 3.44392 14.1043 3.4309C14.1043 3.41788 13.7756 3.40486 13.3719 3.39835C12.6623 3.38858 12.6395 3.38533 12.5679 3.31371C12.493 3.2421 12.493 3.23885 12.4832 2.08325L12.4735 0.927648L12.5711 0.833246L12.6655 0.73559H14.6252H16.5815L16.6597 0.81697Z" fill="black"/>
<path d="M12.9976 1.53367V1.81036H14.6252H16.2528V1.53367V1.25698H14.6252H12.9976V1.53367Z" fill="black"/>
<path d="M12.9976 2.60789V2.88458H14.0881H15.1785V2.60789V2.3312H14.0881H12.9976V2.60789Z" fill="black"/>
<path d="M15.667 2.60789V2.88458H15.96H16.2529V2.60789V2.3312H15.96H15.667V2.60789Z" fill="black"/>
<path d="M8.34291 1.00052C5.76804 1.21211 3.45359 2.76159 2.27846 5.05977C2.05385 5.49597 1.82924 6.05912 1.72833 6.43998C1.68927 6.59948 1.64695 6.72644 1.63718 6.72644C1.62742 6.72644 1.52 6.55065 1.39304 6.33581C1.26935 6.12097 1.15541 5.94519 1.14239 5.94519C1.12286 5.94519 0.702939 6.18933 0.667132 6.22188C0.654111 6.23164 1.5558 7.75508 1.60463 7.81042C1.63067 7.83972 3.16713 6.92826 3.18992 6.86966C3.20294 6.83386 2.9881 6.44649 2.93276 6.41394C2.91648 6.40417 2.76023 6.47904 2.5877 6.58321C2.41518 6.68412 2.26218 6.77526 2.24916 6.78177C2.2101 6.80131 2.35007 6.33907 2.48679 5.9875C2.9002 4.93282 3.56752 3.98881 4.41713 3.25638C5.51088 2.31237 6.85854 1.72969 8.29083 1.57995C9.01674 1.50183 10.0682 1.58646 10.755 1.77852C10.8852 1.81433 11.0122 1.84362 11.0317 1.84362C11.0643 1.84362 11.2075 1.42696 11.2075 1.33256C11.2075 1.29349 10.5467 1.12748 10.1496 1.06563C9.55711 0.971227 8.95815 0.951695 8.34291 1.00052Z" fill="black"/>
<path d="M8.41805 2.89825C7.04761 3.12286 5.96037 4.10919 5.56974 5.48289C5.50464 5.71726 5.49813 5.81818 5.48836 7.09422C5.47209 8.59161 5.47209 8.59812 5.67391 8.88784C5.78784 9.05711 5.99617 9.2101 6.18823 9.27195C6.31193 9.31101 6.3217 9.32078 6.37378 9.51935C6.53654 10.1151 6.95972 10.701 7.46753 11.0298C7.74748 11.2088 7.73771 11.2153 6.65698 11.4106C6.12638 11.505 5.59904 11.619 5.48511 11.6613C4.948 11.8631 4.57365 12.2602 4.35229 12.869L4.2644 13.1131L3.77938 12.6281C3.38224 12.2277 3.29761 12.1268 3.29761 12.0486C3.29761 11.9705 3.39526 11.8566 3.87378 11.3748L4.45321 10.7954L3.44409 9.78627L2.43498 8.77716L1.74813 9.46401C1.01571 10.1964 0.875732 10.3787 0.758545 10.7596C0.608805 11.2348 0.644612 11.7003 0.859456 12.1593L0.989664 12.4393L3.00789 14.4608C4.31649 15.7693 5.08797 16.518 5.19865 16.5832C5.53393 16.7882 5.70972 16.8338 6.17847 16.8338C6.90763 16.8338 7.05737 16.7557 8.073 15.8312C8.46362 15.4731 8.79565 15.1639 8.81518 15.1378C8.83797 15.1053 8.79891 15.0434 8.65242 14.897L8.46037 14.7016H11.3315C12.9102 14.7016 14.2026 14.6984 14.2026 14.6919C14.2026 14.6105 13.4929 12.5988 13.418 12.4653C13.252 12.1723 12.9558 11.8989 12.6335 11.7394C12.3764 11.6124 12.2917 11.5929 11.3445 11.4204C10.5111 11.2674 10.3289 11.2251 10.3289 11.1828C10.3289 11.1535 10.4135 11.0753 10.5144 11.007C10.6153 10.9386 10.8041 10.7759 10.9311 10.6456L11.1654 10.4048H11.4877C11.6635 10.4048 11.8686 10.3885 11.9402 10.369C12.1095 10.3234 12.3927 10.0369 12.4415 9.86114C12.4643 9.77976 12.4773 9.09617 12.4773 7.87872C12.4773 5.83445 12.4675 5.70424 12.282 5.18992C11.8621 4.03107 10.8953 3.18797 9.69409 2.93081C9.37508 2.85919 8.74357 2.84617 8.41805 2.89825ZM9.80802 3.55255C10.3549 3.72833 10.7292 3.96596 11.1134 4.37612C11.4747 4.76023 11.7156 5.2062 11.8458 5.72052C11.8946 5.91909 11.9565 7.27976 11.9174 7.27976C11.9076 7.27976 11.8458 7.25698 11.7807 7.23094C11.67 7.18536 11.6635 7.17234 11.6635 7.03888V6.8989L11.2989 6.87937C10.8562 6.85659 10.5046 6.7687 10.1401 6.59617C9.78198 6.4269 9.61597 6.30646 9.28393 5.98745C9.13094 5.83771 8.99097 5.71726 8.97469 5.71726C8.95516 5.71726 8.87052 5.79213 8.78263 5.88328C8.35294 6.32599 7.80933 6.65476 7.28524 6.79148C7.13224 6.8338 6.86532 6.86961 6.64396 6.87937L6.25985 6.8989V7.0519C6.25985 7.17234 6.24683 7.21141 6.20451 7.22443C6.17196 7.23094 6.11987 7.25047 6.08406 7.26349C6.02547 7.28953 6.02547 7.26349 6.04175 6.59292C6.05802 5.78888 6.10034 5.57078 6.34123 5.0825C6.66349 4.42495 7.2006 3.93015 7.89722 3.63719C8.28459 3.47768 8.52873 3.43862 9.05933 3.45164C9.46623 3.4614 9.57039 3.47443 9.80802 3.55255ZM9.40438 6.84682C9.81779 7.13002 10.3549 7.34161 10.8432 7.41323L11.1101 7.45229V8.22052C11.1101 9.07338 11.0776 9.30125 10.918 9.6463L10.8204 9.85138H9.89266H8.96167V10.1281V10.4048H9.65177C10.4265 10.4048 10.4135 10.3983 10.0522 10.6164C9.62248 10.8735 9.08537 10.9712 8.6036 10.88C7.83862 10.7401 7.2006 10.1802 6.94019 9.4282C6.87183 9.23289 6.86532 9.145 6.85229 8.33445L6.83927 7.45555L7.1062 7.41323C7.46102 7.36114 7.91024 7.21141 8.21297 7.04865C8.45711 6.91518 8.85425 6.63849 8.92912 6.54734C8.96492 6.50502 8.98771 6.51153 9.09188 6.60919C9.15698 6.66778 9.29696 6.77521 9.40438 6.84682ZM6.25985 8.24656V8.65672L6.17847 8.58185C6.0092 8.42234 5.99617 8.1424 6.14917 7.93732C6.19474 7.88198 6.23706 7.83315 6.24683 7.83315C6.25334 7.83315 6.25985 8.0187 6.25985 8.24656ZM11.7904 7.91779C11.9597 8.13263 11.9467 8.41909 11.7611 8.59812L11.6635 8.69252V8.26284C11.6635 8.02195 11.6765 7.83315 11.6928 7.83315C11.7091 7.83315 11.7546 7.87221 11.7904 7.91779ZM11.9239 9.43146C11.9239 9.64305 11.9174 9.66909 11.8295 9.75698C11.7546 9.83185 11.7058 9.85138 11.5984 9.85138C11.4812 9.85138 11.4649 9.84487 11.4845 9.79279C11.5235 9.69513 11.5626 9.57794 11.5984 9.43471C11.6212 9.34357 11.6505 9.29799 11.6895 9.29799C11.7188 9.29474 11.7807 9.27521 11.8263 9.24917C11.8718 9.22312 11.9109 9.20359 11.9174 9.20034C11.9207 9.20034 11.9239 9.3045 11.9239 9.43146ZM3.5092 10.9256L3.37899 11.0558L2.77677 10.4536L2.17782 9.85138L2.30477 9.72117L2.43172 9.59096L3.03719 10.1932L3.6394 10.7954L3.5092 10.9256ZM2.8842 11.5636C2.85164 11.6157 2.80607 11.7003 2.78328 11.7492C2.72795 11.8761 2.73446 12.2407 2.79305 12.3839C2.85815 12.5369 4.9187 14.6137 5.10099 14.7082C5.3549 14.8384 5.70321 14.8188 5.94084 14.6561L6.05477 14.5779L6.65373 15.1769L7.24943 15.7759L7.12573 15.9028C6.73836 16.2999 6.12638 16.4009 5.62508 16.1535C5.41349 16.0493 5.24748 15.8898 3.42456 14.0604C1.18823 11.8175 1.27938 11.9315 1.25334 11.4041C1.23381 10.994 1.34123 10.7042 1.6342 10.395L1.74813 10.2746L2.35034 10.8735L2.9493 11.4725L2.8842 11.5636ZM8.97794 11.479C9.15698 11.479 9.39461 11.4595 9.50854 11.4334C9.61922 11.4106 9.71037 11.3943 9.71037 11.3943C9.71037 11.3976 9.54435 11.5636 9.34253 11.7654L8.97794 12.13L8.61011 11.7622L8.23901 11.3911L8.44735 11.4334C8.56128 11.4595 8.79891 11.479 8.97794 11.479ZM9.55737 12.3709L10.1498 11.7785L11.1589 11.9673C11.7156 12.0682 12.2234 12.1789 12.295 12.2081C12.5066 12.296 12.7279 12.4816 12.8647 12.6834C12.9558 12.8201 13.0535 13.0578 13.2032 13.5135L13.4148 14.1483H10.6609H7.90373L7.38289 13.6274C7.09643 13.341 6.84904 13.1066 6.83602 13.1066C6.81974 13.1066 6.58537 13.3084 6.31519 13.5558C5.58927 14.2134 5.58602 14.2134 5.47209 14.2134C5.38745 14.2134 5.31584 14.1613 5.04565 13.8911L4.72013 13.5721L4.84058 13.2173C5.03263 12.6606 5.29305 12.3481 5.69344 12.1984C5.78459 12.1626 6.28914 12.0552 6.81649 11.9575L7.77352 11.7817L8.36922 12.3709L8.96167 12.9601L9.55737 12.3709ZM7.42521 14.4835L8.01766 15.076L7.86141 15.2322L7.70841 15.3852L7.1062 14.783L6.50724 14.1808L6.65047 14.0343C6.7286 13.9529 6.80347 13.8878 6.81323 13.8878C6.823 13.8878 7.09643 14.1548 7.42521 14.4835Z" fill="black"/>
<path d="M9.40438 6.84682C9.81779 7.13002 10.3549 7.34161 10.8432 7.41323L11.1101 7.45229V8.22052C11.1101 9.07338 11.0776 9.30125 10.918 9.6463L10.8204 9.85138H9.89266H8.96167V10.1281V10.4048H9.65177C10.4265 10.4048 10.4135 10.3983 10.0522 10.6164C9.62248 10.8735 9.08537 10.9712 8.6036 10.88C7.83862 10.7401 7.2006 10.1802 6.94019 9.4282C6.87183 9.23289 6.86532 9.145 6.85229 8.33445L6.83927 7.45555L7.1062 7.41323C7.46102 7.36114 7.91024 7.21141 8.21297 7.04865C8.45711 6.91518 8.85425 6.63849 8.92912 6.54734C8.96492 6.50502 8.98771 6.51153 9.09188 6.60919C9.15698 6.66778 9.29696 6.77521 9.40438 6.84682Z" fill="white"/>
<path d="M9.55737 12.3709L10.1498 11.7785L11.1589 11.9673C11.7156 12.0682 12.2234 12.1789 12.295 12.2081C12.5066 12.296 12.7279 12.4816 12.8647 12.6834C12.9558 12.8201 13.0535 13.0578 13.2032 13.5135L13.4148 14.1483H10.6609H7.90373L7.38289 13.6274C7.09643 13.341 6.84904 13.1066 6.83602 13.1066C6.81974 13.1066 6.58537 13.3084 6.31519 13.5558C5.58927 14.2134 5.58602 14.2134 5.47209 14.2134C5.38745 14.2134 5.31584 14.1613 5.04565 13.8911L4.72013 13.5721L4.84058 13.2173C5.03263 12.6606 5.29305 12.3481 5.69344 12.1984C5.78459 12.1626 6.28914 12.0552 6.81649 11.9575L7.77352 11.7817L8.36922 12.3709L8.96167 12.9601L9.55737 12.3709Z" fill="black"/>
<path d="M2.8842 11.5636C2.85164 11.6157 2.80607 11.7003 2.78328 11.7492C2.72795 11.8761 2.73446 12.2407 2.79305 12.3839C2.85815 12.5369 4.9187 14.6137 5.10099 14.7082C5.3549 14.8384 5.70321 14.8188 5.94084 14.6561L6.05477 14.5779L6.65373 15.1769L7.24943 15.7759L7.12573 15.9028C6.73836 16.2999 6.12638 16.4009 5.62508 16.1535C5.41349 16.0493 5.24748 15.8898 3.42456 14.0604C1.18823 11.8175 1.27938 11.9315 1.25334 11.4041C1.23381 10.994 1.34123 10.7042 1.6342 10.395L1.74813 10.2746L2.35034 10.8735L2.9493 11.4725L2.8842 11.5636Z" fill="black"/>
<path d="M9.80802 3.55255C10.3549 3.72833 10.7292 3.96596 11.1134 4.37612C11.4747 4.76023 11.7156 5.2062 11.8458 5.72052C11.8946 5.91909 11.9565 7.27976 11.9174 7.27976C11.9076 7.27976 11.8458 7.25698 11.7807 7.23094C11.67 7.18536 11.6635 7.17234 11.6635 7.03888V6.8989L11.2989 6.87937C10.8562 6.85659 10.5046 6.7687 10.1401 6.59617C9.78198 6.4269 9.61597 6.30646 9.28393 5.98745C9.13094 5.83771 8.99097 5.71726 8.97469 5.71726C8.95516 5.71726 8.87052 5.79213 8.78263 5.88328C8.35294 6.32599 7.80933 6.65476 7.28524 6.79148C7.13224 6.8338 6.86532 6.86961 6.64396 6.87937L6.25985 6.8989V7.0519C6.25985 7.17234 6.24683 7.21141 6.20451 7.22443C6.17196 7.23094 6.11987 7.25047 6.08406 7.26349C6.02547 7.28953 6.02547 7.26349 6.04175 6.59292C6.05802 5.78888 6.10034 5.57078 6.34123 5.0825C6.66349 4.42495 7.2006 3.93015 7.89722 3.63719C8.28459 3.47768 8.52873 3.43862 9.05933 3.45164C9.46623 3.4614 9.57039 3.47443 9.80802 3.55255Z" fill="black"/>
<path d="M15.1232 5.94401C14.8661 6.37044 14.6577 6.73503 14.6577 6.75456C14.6577 6.78386 15.0744 7.05078 15.12 7.05078C15.1297 7.05078 15.2241 6.90755 15.325 6.73177C15.4292 6.55925 15.5334 6.38998 15.5529 6.35742C15.5855 6.30859 15.605 6.3444 15.6766 6.60156C16.0217 7.85807 16.0282 9.07878 15.6961 10.3353C15.4683 11.2012 15.1037 11.9238 14.4299 12.8548C14.381 12.9232 14.4006 12.9492 14.7196 13.1966L14.827 13.2812L14.9084 13.1868C15.0874 12.9688 15.5106 12.3014 15.6799 11.9661C16.0477 11.25 16.3081 10.446 16.4383 9.6224C16.5295 9.05273 16.5197 7.86133 16.422 7.30794C16.3602 6.9694 16.2495 6.49414 16.1681 6.22721C16.1551 6.18815 16.2625 6.23698 16.5034 6.38346C16.6955 6.50065 16.8713 6.59505 16.8908 6.59505C16.9266 6.59505 17.2131 6.14583 17.1903 6.12305C17.1773 6.11003 15.5985 5.16276 15.592 5.16276C15.5887 5.16276 15.3771 5.51432 15.1232 5.94401Z" fill="black"/>
</svg>
