<svg width="20" height="20" viewBox="0 0 20 20" fill="none" xmlns="http://www.w3.org/2000/svg">
<path d="M8.00065 16.6667H12.0007C15.334 16.6667 16.6673 15.3334 16.6673 12V8.00004C16.6673 4.66671 15.334 3.33337 12.0007 3.33337H8.00065C4.66732 3.33337 3.33398 4.66671 3.33398 8.00004V12C3.33398 15.3334 4.66732 16.6667 8.00065 16.6667Z" stroke="black" stroke-opacity="0.8" stroke-linecap="round" stroke-linejoin="round"/>
<path d="M8.75065 14.1667H11.2507C13.334 14.1667 14.1673 13.3334 14.1673 11.25V8.75004C14.1673 6.66671 13.334 5.83337 11.2507 5.83337H8.75065C6.66732 5.83337 5.83398 6.66671 5.83398 8.75004V11.25C5.83398 13.3334 6.66732 14.1667 8.75065 14.1667Z" stroke="black" stroke-opacity="0.8" stroke-linecap="round" stroke-linejoin="round"/>
<path d="M6.67578 3.33329V1.66663" stroke="black" stroke-opacity="0.8" stroke-linecap="round" stroke-linejoin="round"/>
<path d="M10 3.33329V1.66663" stroke="black" stroke-opacity="0.8" stroke-linecap="round" stroke-linejoin="round"/>
<path d="M13.334 3.33329V1.66663" stroke="black" stroke-opacity="0.8" stroke-linecap="round" stroke-linejoin="round"/>
<path d="M16.666 6.66663H18.3327" stroke="black" stroke-opacity="0.8" stroke-linecap="round" stroke-linejoin="round"/>
<path d="M16.666 10H18.3327" stroke="black" stroke-opacity="0.8" stroke-linecap="round" stroke-linejoin="round"/>
<path d="M16.666 13.3334H18.3327" stroke="black" stroke-opacity="0.8" stroke-linecap="round" stroke-linejoin="round"/>
<path d="M13.334 16.6666V18.3333" stroke="black" stroke-opacity="0.8" stroke-linecap="round" stroke-linejoin="round"/>
<path d="M10.0078 16.6666V18.3333" stroke="black" stroke-opacity="0.8" stroke-linecap="round" stroke-linejoin="round"/>
<path d="M6.67578 16.6666V18.3333" stroke="black" stroke-opacity="0.8" stroke-linecap="round" stroke-linejoin="round"/>
<path d="M1.66602 6.66663H3.33268" stroke="black" stroke-opacity="0.8" stroke-linecap="round" stroke-linejoin="round"/>
<path d="M1.66602 10H3.33268" stroke="black" stroke-opacity="0.8" stroke-linecap="round" stroke-linejoin="round"/>
<path d="M1.66602 13.3334H3.33268" stroke="black" stroke-opacity="0.8" stroke-linecap="round" stroke-linejoin="round"/>
<path d="M10.0009 8.08337L9.21758 9.45004C9.04258 9.75004 9.18424 10 9.53424 10H10.4676C10.8176 10 10.9592 10.25 10.7842 10.55L10.0009 11.9167" stroke="black" stroke-opacity="0.8" stroke-linecap="round" stroke-linejoin="round"/>
</svg>
