<svg width="32" height="32" viewBox="0 0 32 32" fill="none" xmlns="http://www.w3.org/2000/svg">
<g clip-path="url(#clip0_1_23)">
<path d="M13.9378 5.51111C13.5111 5.6 12.9511 5.74222 12.6933 5.82222C11.9378 6.06222 10.8444 6.59556 10.9067 6.69333C10.9422 6.74667 10.9156 6.75556 10.8533 6.72C10.6667 6.60444 9.02222 7.76 9.12 7.92889C9.15556 7.99111 9.13778 8 9.07556 7.96444C8.93334 7.87556 7.87556 8.93333 7.96445 9.07556C8 9.13778 7.99111 9.15556 7.92889 9.12C7.88445 9.09333 7.71556 9.21778 7.56445 9.41333C7.28 9.76889 7.21778 9.92 7.39556 9.81333C7.45778 9.77778 7.46667 9.78667 7.43111 9.85778C7.39556 9.91111 7.33334 9.93778 7.29778 9.91111C7.12 9.80444 6.18667 11.5733 5.84 12.6756C5.47556 13.8222 5.34222 14.7022 5.34222 16C5.34222 17.2978 5.47556 18.1778 5.84 19.3244C6.18667 20.4267 7.12 22.1956 7.29778 22.0889C7.33334 22.0622 7.39556 22.0889 7.43111 22.1422C7.46667 22.2133 7.45778 22.2222 7.39556 22.1867C7.21778 22.08 7.28 22.2311 7.56445 22.5867C7.71556 22.7822 7.88445 22.9067 7.92889 22.88C7.99111 22.8444 8 22.8622 7.96445 22.9244C7.87556 23.0667 8.93334 24.1244 9.07556 24.0356C9.13778 24 9.15556 24.0089 9.12889 24.0622C9.05778 24.1778 9.20889 24.3111 10.0356 24.88C10.6844 25.3244 10.6933 25.3244 10.9689 25.1911L11.2444 25.0578L11.04 25.2267L10.8267 25.3867L11.44 25.6711C12.9689 26.3733 14.2844 26.6578 16 26.6578C17.7156 26.6578 19.04 26.3733 20.4711 25.7067L21.1644 25.3867L20.96 25.2178L20.7556 25.0578L21.0311 25.1911C21.3067 25.3244 21.3156 25.3244 21.9644 24.88C22.7911 24.3111 22.9422 24.1778 22.8711 24.0622C22.8444 24.0089 22.8622 24 22.9244 24.0356C23.0667 24.1244 24.1244 23.0667 24.0356 22.9244C24 22.8622 24.0089 22.8444 24.0711 22.88C24.1156 22.9067 24.2844 22.7822 24.4356 22.5867C24.7556 22.1867 24.7733 22.1156 24.56 22.1867C24.4267 22.2311 24.4267 22.2222 24.5333 22.1511C24.6044 22.0978 24.6844 22.0711 24.72 22.0889C24.88 22.1956 25.8311 20.3822 26.16 19.3244C26.5244 18.1778 26.6578 17.2978 26.6578 16C26.6578 14.7022 26.5244 13.8222 26.16 12.6756C25.8311 11.6178 24.88 9.80444 24.72 9.91111C24.6844 9.92889 24.6044 9.90222 24.5333 9.84889C24.4267 9.77778 24.4267 9.76889 24.56 9.81333C24.7733 9.88444 24.7556 9.81333 24.4356 9.41333C24.2844 9.21778 24.1156 9.09333 24.0711 9.12C24.0089 9.15556 24 9.13778 24.0356 9.07556C24.1244 8.93333 23.0667 7.87556 22.9244 7.96444C22.8622 8 22.8444 7.99111 22.88 7.92889C22.9778 7.76 21.3333 6.60444 21.1467 6.72C21.0844 6.75556 21.0578 6.74667 21.0933 6.69333C21.1644 6.58667 20.0089 6.03556 19.1822 5.78667C17.6 5.30667 15.4489 5.2 13.9378 5.51111ZM16.8444 8.98667C17.8756 9.19111 18.7556 9.40444 18.8178 9.45778C18.88 9.51111 18.9422 9.65333 18.96 9.77778C18.9867 9.93778 19.0667 10.0089 19.2978 10.0711C20.9511 10.4711 21.9733 10.8 22.0533 10.9511C22.1156 11.0667 22.1067 11.3244 22.0089 11.7867C21.84 12.6133 21.8311 12.6222 21.5022 12.6222C21.3422 12.6222 21.2533 12.6578 21.2889 12.7111C21.3156 12.7556 21.3067 12.8 21.2622 12.8C21.2178 12.8 21.12 13.3333 21.04 13.9733C20.48 18.4267 19.8933 22.7556 19.8133 23.0311C19.76 23.2 19.6711 23.36 19.6089 23.3778C19.5556 23.3956 17.92 23.4133 15.9644 23.4311L12.4178 23.4578L12.2667 23.2622C12.1867 23.1556 12.0889 22.9867 12.0622 22.8889C12 22.7022 10.6667 12.56 10.6667 12.32C10.6667 12.1956 11.1289 12.1778 14.8711 12.1689C17.1733 12.16 18.9689 12.1333 18.8444 12.1156C17.9378 11.9467 10.9333 10.48 10.8089 10.4356C10.6667 10.3822 10.6489 10.3111 10.7111 9.83111C10.7467 9.52889 10.7822 9.18222 10.7911 9.04889C10.8 8.92444 10.8178 8.83556 10.8356 8.85333C10.8533 8.87111 10.9511 8.81778 11.04 8.73778C11.2 8.59556 11.28 8.59556 12.3822 8.75556C14.1867 9.00444 14.2756 9.00444 14.4444 8.73778C14.5511 8.57778 14.6489 8.53333 14.7822 8.56C14.8889 8.58667 15.8222 8.77333 16.8444 8.98667Z" fill="#C11515"/>
<path d="M12.9244 13.9022C12.8711 14.0356 13.5733 22.1956 13.6444 22.32C13.7333 22.4533 14.0444 22.4089 14.1067 22.2578C14.1689 22.0978 13.5111 14.2667 13.4044 13.9733C13.3333 13.7511 13.0044 13.7067 12.9244 13.9022Z" fill="#C11515"/>
<path d="M15.6978 13.92C15.6178 14.1244 15.6356 22.16 15.7156 22.2667C15.7511 22.3111 15.8667 22.3644 15.9644 22.3822C16.1067 22.4 16.1689 22.3467 16.2133 22.1778C16.2844 21.9022 16.2756 14.0889 16.2133 13.9111C16.1422 13.7333 15.7689 13.7422 15.6978 13.92Z" fill="#C11515"/>
<path d="M18.6667 13.8756C18.6667 13.92 18.6311 13.9467 18.5867 13.9111C18.5333 13.8844 18.48 14.0356 18.4533 14.24C18.3289 15.1378 17.7689 21.84 17.7956 22.0889C17.8133 22.3022 17.8667 22.3556 18.0356 22.3556C18.1778 22.3556 18.2578 22.2933 18.2844 22.1778C18.3733 21.7067 19.0311 14.0089 18.9867 13.9022C18.9333 13.76 18.6667 13.7333 18.6667 13.8756Z" fill="#C11515"/>
<path d="M0 16V32H16H32V16V-7.7486e-07H16H0V16ZM17.7867 5.36889C22.3467 6.18667 25.8311 9.67111 26.6222 14.2044C26.7911 15.1644 26.7911 16.8356 26.6222 17.7956C25.8311 22.3289 22.3378 25.8133 17.7867 26.6311C16.9156 26.7822 15.0844 26.7822 14.2133 26.6311C9.65333 25.8133 6.18667 22.3467 5.36889 17.7867C5.21778 16.9156 5.21778 15.0844 5.36889 14.2133C6.17778 9.67111 9.63556 6.19555 14.1778 5.37778C15.0044 5.22667 16.9511 5.21778 17.7867 5.36889Z" fill="#ECECEC"/>
<path d="M14.4356 8.85334L14.2667 9.08445L12.9511 8.89778C11.4222 8.68445 11.1644 8.66667 11.0489 8.81778C10.9156 8.98667 10.6489 10.24 10.7289 10.32C10.7733 10.3556 12.6756 10.7733 14.9778 11.2356C17.28 11.7067 19.28 12.1244 19.4222 12.1689C19.5911 12.2222 18.0089 12.2489 15.2267 12.2578C11.6356 12.2667 10.7556 12.2933 10.7556 12.3822C10.7556 12.5156 10.8089 12.9156 11.5556 18.7022C11.8578 20.9956 12.1422 22.9511 12.1867 23.04C12.24 23.1289 12.3733 23.2444 12.4978 23.2889C12.8089 23.4133 19.2533 23.4044 19.4667 23.2889C19.5644 23.2356 19.68 23.12 19.7244 23.0311C19.8044 22.8889 20.1689 20.2756 20.8 15.2C21.1644 12.3289 21.1289 12.5067 21.3778 12.5511C21.4933 12.5778 21.6356 12.5689 21.6889 12.5333C21.8222 12.4533 22.0711 11.3067 22.0089 11.0578C21.9556 10.8711 21.4311 10.6933 19.4667 10.1956C19.0311 10.08 18.9689 10.0356 18.88 9.76889L18.7733 9.46667L16.7911 9.04889C15.6978 8.81778 14.7556 8.63111 14.7022 8.63111C14.6578 8.62223 14.5333 8.72889 14.4356 8.85334ZM13.4133 13.8133C13.5022 13.9111 13.6178 15.1378 14.1867 21.5822C14.2222 22.0356 14.2133 22.2578 14.1333 22.3556C14 22.5156 13.7422 22.5244 13.6178 22.3822C13.4844 22.2044 12.7911 14.0533 12.8978 13.8578C12.9956 13.6622 13.2711 13.6356 13.4133 13.8133ZM16.2667 13.8578C16.4089 14.1333 16.3911 22.1422 16.24 22.3467C16.0533 22.6044 15.7156 22.4978 15.6267 22.1511C15.5289 21.7778 15.5733 13.9556 15.6711 13.7956C15.7867 13.6267 16.16 13.6711 16.2667 13.8578ZM19.0133 13.8133C19.0933 13.9111 19.0311 14.9244 18.7467 18.0978C18.5422 20.3911 18.3378 22.32 18.2933 22.3733C18.24 22.4356 18.1333 22.4889 18.0444 22.4889C17.6533 22.4889 17.6533 22.4356 18.0267 18.08C18.2489 15.5644 18.4356 13.8933 18.4978 13.8133C18.6311 13.6533 18.88 13.6533 19.0133 13.8133Z" fill="#ECECEC"/>
</g>
<defs>
<clipPath id="clip0_1_23">
<rect width="32" height="32" fill="white"/>
</clipPath>
</defs>
</svg>
