<svg width="20" height="24" viewBox="0 0 20 24" fill="none" xmlns="http://www.w3.org/2000/svg">
<path d="M2.36875 1.03594C2.05938 1.19062 1.87656 1.37344 1.69844 1.725L1.58594 1.94531L1.57188 11.6344L1.5625 21.3281H1.11719C0.526564 21.3281 0.531251 21.3187 0.531251 22.2187C0.531251 22.7625 0.545314 22.9219 0.606251 23.0062L0.676564 23.1094H8.33594H15.9953L16.0656 23.0062C16.1266 22.9219 16.1406 22.7625 16.1406 22.2187C16.1406 21.3187 16.1453 21.3281 15.55 21.3281H15.1094V18.2578V15.1875H15.3438C15.5453 15.1875 15.5781 15.2016 15.6016 15.2953C15.6156 15.3516 15.6297 16.1484 15.6344 17.0625L15.6484 18.7266L15.7984 19.0359C16.3797 20.2172 17.9031 20.5078 18.8547 19.6172C19.1313 19.3594 19.2906 19.1062 19.3938 18.7547C19.4594 18.5344 19.4688 18.1922 19.4688 16.3969C19.4688 15.0516 19.45 14.2594 19.4219 14.2031C19.3422 14.0578 19.2156 14.0109 19.0516 14.0672C18.9719 14.0953 18.8828 14.1562 18.8594 14.2031C18.8313 14.2594 18.8125 15.0984 18.8125 16.3547C18.8125 18.3141 18.8078 18.4312 18.7188 18.675C18.6109 18.9609 18.3109 19.2703 18.025 19.3922C17.9266 19.4344 17.7203 19.4672 17.5469 19.4672C17.0266 19.4719 16.6188 19.2094 16.3938 18.7266C16.2813 18.4969 16.2813 18.4734 16.2813 16.8281C16.2813 15.1922 16.2813 15.1547 16.1781 14.9531C16.0281 14.6578 15.7891 14.5312 15.3813 14.5312H15.0625V14.2734V14.0156H15.3813C15.5594 14.0156 15.7984 14.0484 15.9203 14.0906C16.2016 14.1844 16.525 14.475 16.6609 14.7516C16.7688 14.9719 16.7734 15.0047 16.7969 16.7344C16.825 18.6844 16.8156 18.6516 17.1391 18.8437C17.4859 19.0594 17.9031 18.9844 18.1469 18.6656L18.2734 18.5016L18.2875 14.7562L18.2969 11.0156H18.5547H18.8125V11.9109C18.8125 12.4125 18.8313 12.8391 18.8594 12.8906C18.8828 12.9375 18.9813 13.0031 19.0797 13.0359C19.2438 13.0875 19.2578 13.0828 19.3609 12.9656L19.4688 12.8391V9.80156C19.4688 7.44844 19.4547 6.75 19.4125 6.68906C19.3797 6.64687 18.8031 6.17812 18.1328 5.64844L16.9141 4.6875H16.0141H15.1094V3.375C15.1094 2.17969 15.1 2.04375 15.0156 1.81406C14.8844 1.46719 14.6453 1.20469 14.3031 1.03594L14.0172 0.890624H11.1766C9.61563 0.890624 8.3125 0.909374 8.28438 0.928124C8.15781 1.0125 8.12031 1.16719 8.19531 1.30781C8.23281 1.38281 8.29375 1.4625 8.32188 1.48594C8.35469 1.50469 9.63906 1.53281 11.1766 1.54687L13.9703 1.57031L14.1344 1.69687C14.4672 1.95 14.4578 1.84219 14.4438 5.48906L14.4297 8.75156L14.2938 8.925C14.2188 9.02344 14.0734 9.14531 13.9656 9.19219C13.7828 9.27656 13.5484 9.28125 8.35938 9.27656C2.61719 9.27656 2.73438 9.28125 2.49063 9.06094C2.43906 9.01406 2.35469 8.89219 2.30781 8.78906C2.22813 8.61094 2.21875 8.40469 2.21875 5.39531C2.21875 2.23125 2.21875 2.18437 2.31719 1.98281C2.38281 1.84687 2.48125 1.73906 2.6125 1.66406C2.80938 1.54687 2.82344 1.54687 3.95781 1.54687C5.24688 1.54687 5.30781 1.53281 5.37813 1.25156C5.41563 1.11094 5.40625 1.06406 5.33594 0.984374C5.25625 0.895312 5.19531 0.890624 3.95313 0.890624H2.65469L2.36875 1.03594ZM15.7188 5.57812V5.8125H15.3906H15.0625V5.57812V5.34375H15.3906H15.7188V5.57812ZM17.7344 6.19687L18.8125 7.04531V8.16562V9.28125H18.5547H18.2969V8.29687C18.2969 7.37344 18.2922 7.30781 18.2031 7.21875C18.1141 7.12969 18.0484 7.125 17.2422 7.125H16.375V6.23437V5.34375H16.5156C16.6281 5.34375 16.8766 5.51719 17.7344 6.19687ZM15.7188 7.03125C15.7188 7.5375 15.7281 7.60312 15.8172 7.69219C15.8922 7.76719 15.9578 7.78594 16.1219 7.77187L16.3281 7.75781V8.00625C16.3281 8.77031 16.6984 9.14062 17.4578 9.14062H17.6406L17.6313 13.7203C17.6172 17.7609 17.6078 18.3047 17.5469 18.3047C17.4859 18.3047 17.4719 18.0703 17.4531 16.5937C17.4297 14.9484 17.425 14.8734 17.3172 14.6109C17.1203 14.1094 16.6938 13.6828 16.1969 13.4812C16.0609 13.4297 15.8031 13.3875 15.5453 13.3687L15.1094 13.3453V9.90937V6.46875H15.4141H15.7188V7.03125ZM17.6406 8.1375V8.48437H17.3641C17.0125 8.48437 16.9375 8.4 16.9375 8.01562V7.75781L17.2891 7.77187L17.6406 7.79062V8.1375ZM8.33594 9.86719H14.0078L14.2328 9.76406L14.4531 9.66094V15.4922V21.3281L10.4922 21.3375C6.83594 21.3516 6.52656 21.3562 6.45625 21.4312C6.35313 21.5344 6.35313 21.7781 6.45625 21.8812C6.52656 21.9562 6.86875 21.9609 11.0078 21.975L15.4844 21.9844V22.2187V22.4531H8.33594H1.1875V22.2187V21.9844H2.99219C4.26719 21.9844 4.82969 21.9703 4.91406 21.9281C5.12969 21.8297 5.12969 21.4828 4.91406 21.3844C4.82969 21.3469 4.38906 21.3281 3.50781 21.3281H2.21875V15.4969V9.66094L2.44375 9.76406L2.66406 9.86719H8.33594ZM18.8125 10.1484V10.4062H18.5547H18.2969V10.1484V9.89062H18.5547H18.8125V10.1484Z" fill="#151515"/>
<path d="M7.65626 13.242C6.81251 13.4483 6.1047 14.0154 5.73439 14.7889C5.50939 15.2623 5.43439 15.5764 5.43439 16.0779C5.43439 16.8561 5.71095 17.5404 6.23595 18.0795C6.81251 18.6654 7.39845 18.9326 8.19532 18.9748C9.07189 19.017 9.78439 18.7404 10.3984 18.1217C10.9188 17.6014 11.1906 16.992 11.2469 16.242C11.3453 14.9061 10.3984 13.6029 9.08595 13.2654C8.65939 13.1576 8.05001 13.1483 7.65626 13.242ZM8.89845 13.8514C9.28751 13.9545 9.68126 14.1795 9.95782 14.4561C10.4219 14.9201 10.6188 15.4076 10.6188 16.0779C10.6188 16.7764 10.4031 17.2686 9.88282 17.7608C8.77189 18.8108 6.97657 18.4686 6.28282 17.0717L6.08595 16.6733V16.0826C6.08595 15.4967 6.08595 15.4873 6.25939 15.1264C6.74689 14.1045 7.83907 13.5795 8.89845 13.8514Z" fill="#151515"/>
<path d="M8.0453 14.3768C7.2953 15.183 6.85468 16.083 6.92499 16.6783C7.06561 17.8643 8.48593 18.3705 9.33905 17.5361C9.81249 17.0768 9.89218 16.4252 9.56405 15.7268C9.36249 15.3049 9.01561 14.7893 8.69686 14.4471C8.41093 14.1377 8.27968 14.1236 8.0453 14.3768ZM8.62655 15.3471C8.99218 15.8533 9.1328 16.1814 9.1328 16.5283C9.1328 16.7674 9.11405 16.8377 8.99686 16.9877C8.84686 17.1846 8.55155 17.3439 8.33593 17.3439C8.16718 17.3439 7.84843 17.2033 7.74061 17.0814C7.69374 17.0299 7.62343 16.908 7.58593 16.8049C7.4828 16.5705 7.5203 16.3221 7.72186 15.9096C7.87655 15.5861 8.27968 15.0002 8.3453 15.0002C8.36874 15.0002 8.4953 15.1549 8.62655 15.3471Z" fill="#151515"/>
<path d="M2.82813 14.5781C2.74375 14.6625 2.73438 14.7328 2.73438 15.4594C2.73438 16.3406 2.75781 16.4062 3.04844 16.4062C3.31563 16.4062 3.34375 16.3219 3.34375 15.4547C3.34375 14.7141 3.33906 14.6719 3.24063 14.5781C3.10938 14.4609 2.95 14.4563 2.82813 14.5781Z" fill="#151515"/>
<path d="M6.15155 0.988944C6.03905 1.10144 6.0578 1.27957 6.2078 1.42957C6.2828 1.50926 6.37655 1.52801 6.74686 1.53738C7.30936 1.56082 7.44998 1.50926 7.52498 1.26082C7.57186 1.10144 7.56717 1.06394 7.49217 0.984256C7.41717 0.899881 7.34686 0.890506 6.82655 0.890506C6.30623 0.890506 6.24061 0.899881 6.15155 0.988944Z" fill="#151515"/>
<path d="M3.98125 3.23906L3.85938 3.33281V5.39531C3.85938 7.39219 3.86406 7.45781 3.95313 7.54687C4.04688 7.64062 4.10781 7.64062 8.32656 7.64062C12.1234 7.64062 12.6156 7.63125 12.7094 7.56562L12.8125 7.49531V5.42344C12.8125 4.28437 12.7938 3.32812 12.775 3.3C12.6719 3.14531 12.5594 3.14062 8.32188 3.14062C4.12656 3.14062 4.10781 3.14062 3.98125 3.23906ZM12.2031 5.41406V7.03125H8.33594H4.46875V5.41406V3.79687H8.33594H12.2031V5.41406Z" fill="#151515"/>
<path d="M15.1094 5.57812V5.8125H15.4141H15.7188V5.57812V5.34375H15.4141H15.1094V5.57812Z" fill="#EC4015"/>
<path d="M5.07813 21.8109L5.00781 21.9609L3.12344 21.975L1.23438 21.9844V22.2187V22.4531H8.33594H15.4375V22.2187V21.9844H10.9703C6.7 21.9844 6.49375 21.9797 6.42344 21.9C6.37656 21.8531 6.34375 21.7781 6.34375 21.7359C6.34375 21.6656 6.27344 21.6562 5.74844 21.6562H5.14844L5.07813 21.8109Z" fill="#EC4015"/>
<path d="M16.375 6.21094V7.07812H17.2422C18.4234 7.07812 18.3438 6.98906 18.3438 8.27344V9.23438H18.5547H18.7656V8.14219V7.04531L17.6875 6.19687C16.9422 5.60625 16.5719 5.34375 16.4922 5.34375H16.375V6.21094Z" fill="#EC4040"/>
<path d="M2.26562 15.5203V21.3281H3.59219C4.91875 21.3281 4.92344 21.3281 5.02188 21.4359C5.07813 21.4969 5.125 21.5719 5.125 21.6C5.125 21.6422 5.29375 21.6562 5.73438 21.6562C6.24531 21.6562 6.34375 21.6469 6.34375 21.5859C6.34375 21.5484 6.38594 21.4734 6.4375 21.4219C6.53125 21.3281 6.59219 21.3281 10.4688 21.3281H14.4063V15.5203V9.70781L14.1859 9.81094L13.9609 9.91406H8.33594H2.71094L2.49063 9.81094L2.26562 9.70781V15.5203ZM8.94531 13.1953C10.2813 13.4766 11.2703 14.6766 11.275 16.0313C11.2797 16.8797 11.0078 17.5547 10.4219 18.1453C9.26406 19.3078 7.44063 19.3219 6.28281 18.1734C5.70156 17.5969 5.40625 16.8938 5.40625 16.0781C5.40625 15.1781 5.77656 14.3813 6.45625 13.8141C7.15 13.2375 8.06406 13.0125 8.94531 13.1953ZM3.33906 14.6531C3.37188 14.7234 3.39063 15.0516 3.39063 15.4875C3.39063 16.1438 3.38125 16.2188 3.29219 16.3313C3.16094 16.5 2.91719 16.5 2.78594 16.3313C2.69688 16.2188 2.6875 16.1438 2.6875 15.4875C2.6875 15.0469 2.70625 14.7234 2.73906 14.6531C2.84688 14.4141 3.23125 14.4188 3.33906 14.6531Z" fill="#EC4040"/>
<path d="M5.40626 1.30312C5.40626 1.52344 5.3172 1.5375 4.04689 1.55625C2.71095 1.57031 2.66876 1.57969 2.42033 1.90781L2.28908 2.07656L2.27501 5.26875C2.26564 7.02656 2.27501 8.53125 2.28908 8.61562C2.32189 8.80312 2.56564 9.08906 2.7672 9.16875C2.89376 9.225 3.89689 9.23438 8.35001 9.23438H13.7828L13.9891 9.12656C14.1156 9.05625 14.2328 8.94844 14.2985 8.83125L14.4063 8.64844V5.38594V2.12344L14.3031 1.96875C14.1625 1.7625 13.9938 1.64531 13.7688 1.59375C13.6703 1.57031 12.4 1.54687 10.9516 1.54687C8.12033 1.54687 8.22345 1.55625 8.14845 1.3125C8.12501 1.23281 8.07814 1.21875 7.85314 1.21875C7.60001 1.21875 7.58126 1.22812 7.51564 1.37344L7.44533 1.52344L6.86876 1.5375C6.25001 1.55156 6.12814 1.51875 6.08126 1.33594C6.05314 1.22344 6.03439 1.21875 5.7297 1.21875C5.44845 1.21875 5.40626 1.22812 5.40626 1.30312ZM12.7844 3.24375C12.85 3.3375 12.8594 3.62344 12.8594 5.41875V7.49531L12.7375 7.58906C12.611 7.6875 12.5922 7.6875 8.32658 7.6875H4.0422L3.9297 7.57031L3.81251 7.45781V5.39062C3.81251 3.38906 3.8172 3.32344 3.90626 3.23437C4.00001 3.14062 4.06095 3.14062 8.3547 3.14062H12.7141L12.7844 3.24375Z" fill="#ECEC40"/>
<path d="M8.12969 15.3186C7.80625 15.7592 7.58594 16.2467 7.58594 16.5233C7.58594 16.8233 7.74062 17.0717 8.0125 17.203C8.25625 17.3249 8.42969 17.3202 8.6875 17.1889C9.09062 16.9874 9.20312 16.5749 9.00156 16.0733C8.90312 15.8436 8.44375 15.1217 8.35937 15.0702C8.34062 15.0608 8.2375 15.1733 8.12969 15.3186Z" fill="#ECEC40"/>
<path d="M4.51562 5.39062V6.98438H8.33594H12.1563V5.39062V3.79687H8.33594H4.51562V5.39062Z" fill="#ECECEC"/>
<path d="M18.3438 10.1484V10.3594H18.5547H18.7656V10.1484V9.9375H18.5547H18.3438V10.1484Z" fill="#ECECEC"/>
<path d="M18.3438 14.7234C18.3438 18.7547 18.3578 18.5672 18.0531 18.8203C17.7531 19.0734 17.3359 19.0687 17.0266 18.8109C16.7594 18.5812 16.75 18.5297 16.75 16.8094C16.75 15.8531 16.7313 15.1453 16.6984 15C16.6328 14.7047 16.4172 14.4141 16.1266 14.2312C15.9344 14.1141 15.8406 14.0906 15.5031 14.0719L15.1094 14.0484V14.2687V14.4844H15.3813C15.6719 14.4844 15.9672 14.5969 16.1078 14.7562C16.3094 14.9766 16.3234 15.1359 16.3281 16.8516C16.3281 18.4734 16.3281 18.4969 16.4406 18.7312C16.6281 19.1344 17.1156 19.4531 17.5469 19.4531C17.95 19.4531 18.3906 19.1859 18.6156 18.8062L18.7422 18.5859L18.7656 16.3922L18.7891 14.1937L18.9016 14.1047C18.9625 14.0578 19.0375 14.0156 19.075 14.0156C19.1266 14.0156 19.1406 13.9172 19.1406 13.5469C19.1406 13.1531 19.1266 13.0781 19.0703 13.0781C19.0281 13.0781 18.9438 13.0266 18.8828 12.9609C18.7656 12.8484 18.7656 12.8391 18.7656 11.9531V11.0625H18.5547H18.3438V14.7234Z" fill="#ECECEC"/>
<path d="M7.70313 13.917C6.70938 14.2404 6.09531 15.0607 6.1 16.0779C6.1 17.7842 7.8625 18.8435 9.4 18.0654C9.75156 17.8873 10.1875 17.4326 10.3656 17.0576C10.4453 16.8888 10.5391 16.6029 10.5672 16.4154C10.75 15.3092 10.0094 14.1888 8.90313 13.8935C8.57031 13.8045 8.01719 13.8138 7.70313 13.917ZM8.6875 14.381C9.16094 14.8732 9.59688 15.581 9.74219 16.0967C10.0563 17.1842 9.12813 18.1873 8.02188 17.9576C7.27656 17.8029 6.74688 17.0013 6.90156 16.256C7.01406 15.7123 7.43125 14.981 7.95156 14.4232C8.275 14.0717 8.3875 14.067 8.6875 14.381Z" fill="#ECECEC"/>
</svg>
