<svg width="14" height="14" viewBox="0 0 14 14" fill="none" xmlns="http://www.w3.org/2000/svg">
<path d="M6.99995 9.52583C5.60579 9.52583 4.47412 8.39417 4.47412 7C4.47412 5.60583 5.60579 4.47417 6.99995 4.47417C8.39412 4.47417 9.52579 5.60583 9.52579 7C9.52579 8.39417 8.39412 9.52583 6.99995 9.52583ZM6.99995 5.34917C6.08995 5.34917 5.34912 6.09 5.34912 7C5.34912 7.91 6.08995 8.65083 6.99995 8.65083C7.90995 8.65083 8.65079 7.91 8.65079 7C8.65079 6.09 7.90995 5.34917 6.99995 5.34917Z" fill="black" fill-opacity="0.7"/>
<path d="M6.99988 12.2617C4.80655 12.2617 2.73572 10.9783 1.31238 8.75C0.694049 7.7875 0.694049 6.21833 1.31238 5.25C2.74155 3.02167 4.81238 1.73833 6.99988 1.73833C9.18738 1.73833 11.2582 3.02167 12.6815 5.25C13.2999 6.2125 13.2999 7.78167 12.6815 8.75C11.2582 10.9783 9.18738 12.2617 6.99988 12.2617ZM6.99988 2.61333C5.11572 2.61333 3.31322 3.745 2.05322 5.7225C1.61572 6.405 1.61572 7.595 2.05322 8.2775C3.31322 10.255 5.11572 11.3867 6.99988 11.3867C8.88405 11.3867 10.6865 10.255 11.9465 8.2775C12.384 7.595 12.384 6.405 11.9465 5.7225C10.6865 3.745 8.88405 2.61333 6.99988 2.61333Z" fill="black" fill-opacity="0.7"/>
</svg>
