<svg width="76" height="32" viewBox="0 0 76 32" fill="none" xmlns="http://www.w3.org/2000/svg">
<rect width="76" height="32" rx="16" fill="#19B65B" fill-opacity="0.08"/>
<path d="M14.9987 20.1667C15.9192 20.1667 16.6654 20.9129 16.6654 21.8333C16.6654 22.7538 15.9192 23.5 14.9987 23.5C14.0782 23.5 13.332 22.7538 13.332 21.8333C13.332 20.9129 14.0782 20.1667 14.9987 20.1667Z" fill="black" fill-opacity="0.15"/>
<path d="M24.9987 14.3333C25.9192 14.3333 26.6654 15.0795 26.6654 16C26.6654 16.9205 25.9192 17.6667 24.9987 17.6667C24.0782 17.6667 23.332 16.9205 23.332 16C23.332 15.0795 24.0782 14.3333 24.9987 14.3333Z" fill="black" fill-opacity="0.15"/>
<path d="M21.6654 10.1667C21.6654 9.24619 20.9192 8.5 19.9987 8.5C19.0782 8.5 18.332 9.24619 18.332 10.1667C18.332 11.0871 19.0782 11.8333 19.9987 11.8333C20.9192 11.8333 21.6654 11.0871 21.6654 10.1667Z" fill="black" fill-opacity="0.15"/>
<path d="M24.9987 14.3333C25.9192 14.3333 26.6654 15.0795 26.6654 16C26.6654 16.9205 25.9192 17.6667 24.9987 17.6667C24.0782 17.6667 23.332 16.9205 23.332 16C23.332 15.0795 24.0782 14.3333 24.9987 14.3333Z" fill="#19B65B"/>
<path d="M14.9987 20.1667C15.9192 20.1667 16.6654 20.9129 16.6654 21.8333C16.6654 22.7538 15.9192 23.5 14.9987 23.5C14.0782 23.5 13.332 22.7538 13.332 21.8333C13.332 20.9129 14.0782 20.1667 14.9987 20.1667Z" fill="#19B65B"/>
<path d="M19.9987 8.5C20.9192 8.5 21.6654 9.24619 21.6654 10.1667C21.6654 11.0871 20.9192 11.8333 19.9987 11.8333C19.0782 11.8333 18.332 11.0871 18.332 10.1667C18.332 9.24619 19.0782 8.5 19.9987 8.5Z" fill="#19B65B"/>
<path d="M13.332 10.1667L18.332 10.1667M18.332 10.1667C18.332 11.0871 19.0782 11.8333 19.9987 11.8333C20.9192 11.8333 21.6654 11.0871 21.6654 10.1667M18.332 10.1667C18.332 9.24619 19.0782 8.5 19.9987 8.5C20.9192 8.5 21.6654 9.24619 21.6654 10.1667M21.6654 10.1667L26.6654 10.1667M13.332 16H23.332M23.332 16C23.332 16.9205 24.0782 17.6667 24.9987 17.6667C25.9192 17.6667 26.6654 16.9205 26.6654 16C26.6654 15.0795 25.9192 14.3333 24.9987 14.3333C24.0782 14.3333 23.332 15.0795 23.332 16ZM16.6654 21.8333H26.6654M16.6654 21.8333C16.6654 20.9129 15.9192 20.1667 14.9987 20.1667C14.0782 20.1667 13.332 20.9129 13.332 21.8333C13.332 22.7538 14.0782 23.5 14.9987 23.5C15.9192 23.5 16.6654 22.7538 16.6654 21.8333Z" stroke="#19B65B" stroke-width="1.5" stroke-linecap="round" stroke-linejoin="round"/>
<path d="M39.9482 12.3906V19.5H38.7227V12.3906H39.9482ZM42.8486 15.501V16.4727H39.6357V15.501H42.8486ZM43.2539 12.3906V13.3672H39.6357V12.3906H43.2539ZM45.373 14.2168V19.5H44.1914V14.2168H45.373ZM44.1133 12.8301C44.1133 12.651 44.1719 12.5029 44.2891 12.3857C44.4095 12.2653 44.5755 12.2051 44.7871 12.2051C44.9954 12.2051 45.1598 12.2653 45.2803 12.3857C45.4007 12.5029 45.4609 12.651 45.4609 12.8301C45.4609 13.0059 45.4007 13.1523 45.2803 13.2695C45.1598 13.3867 44.9954 13.4453 44.7871 13.4453C44.5755 13.4453 44.4095 13.3867 44.2891 13.2695C44.1719 13.1523 44.1133 13.0059 44.1133 12.8301ZM47.9219 12V19.5H46.7402V12H47.9219ZM51.6328 14.2168V15.0762H48.6543V14.2168H51.6328ZM49.5137 12.9229H50.6904V18.04C50.6904 18.2028 50.7132 18.3281 50.7588 18.416C50.8076 18.5007 50.8743 18.5576 50.959 18.5869C51.0436 18.6162 51.1429 18.6309 51.2568 18.6309C51.3382 18.6309 51.4163 18.626 51.4912 18.6162C51.5661 18.6064 51.6263 18.5967 51.6719 18.5869L51.6768 19.4854C51.5791 19.5146 51.4652 19.5407 51.335 19.5635C51.208 19.5863 51.0615 19.5977 50.8955 19.5977C50.6253 19.5977 50.3861 19.5505 50.1777 19.4561C49.9694 19.3584 49.8066 19.2005 49.6895 18.9824C49.5723 18.7643 49.5137 18.4746 49.5137 18.1133V12.9229ZM54.8701 19.5977C54.4795 19.5977 54.1263 19.5342 53.8105 19.4072C53.498 19.277 53.2311 19.0964 53.0098 18.8652C52.7917 18.6341 52.624 18.3623 52.5068 18.0498C52.3896 17.7373 52.3311 17.4004 52.3311 17.0391V16.8438C52.3311 16.4303 52.3913 16.056 52.5117 15.7207C52.6322 15.3854 52.7998 15.099 53.0146 14.8613C53.2295 14.6204 53.4834 14.4365 53.7764 14.3096C54.0693 14.1826 54.3867 14.1191 54.7285 14.1191C55.1061 14.1191 55.4365 14.1826 55.7197 14.3096C56.0029 14.4365 56.2373 14.6156 56.4229 14.8467C56.6117 15.0745 56.7516 15.3464 56.8428 15.6621C56.9372 15.9779 56.9844 16.3262 56.9844 16.707V17.21H52.9023V16.3652H55.8223V16.2725C55.8158 16.0609 55.7734 15.8623 55.6953 15.6768C55.6204 15.4912 55.5049 15.3415 55.3486 15.2275C55.1924 15.1136 54.984 15.0566 54.7236 15.0566C54.5283 15.0566 54.3542 15.099 54.2012 15.1836C54.0514 15.265 53.9261 15.3838 53.8252 15.54C53.7243 15.6963 53.6462 15.8851 53.5908 16.1064C53.5387 16.3245 53.5127 16.5703 53.5127 16.8438V17.0391C53.5127 17.2702 53.5436 17.485 53.6055 17.6836C53.6706 17.8789 53.765 18.0498 53.8887 18.1963C54.0124 18.3428 54.1621 18.4583 54.3379 18.543C54.5137 18.6243 54.7139 18.665 54.9385 18.665C55.2217 18.665 55.474 18.6081 55.6953 18.4941C55.9167 18.3802 56.1087 18.2191 56.2715 18.0107L56.8916 18.6113C56.7777 18.7773 56.6296 18.9368 56.4473 19.0898C56.265 19.2396 56.042 19.3617 55.7783 19.4561C55.5179 19.5505 55.2152 19.5977 54.8701 19.5977ZM59.084 15.2227V19.5H57.9072V14.2168H59.0303L59.084 15.2227ZM60.7002 14.1826L60.6904 15.2764C60.6188 15.2633 60.5407 15.2536 60.4561 15.2471C60.3747 15.2406 60.2933 15.2373 60.2119 15.2373C60.0101 15.2373 59.8327 15.2666 59.6797 15.3252C59.5267 15.3805 59.3981 15.4619 59.2939 15.5693C59.193 15.6735 59.1149 15.8005 59.0596 15.9502C59.0042 16.0999 58.9717 16.2676 58.9619 16.4531L58.6934 16.4727C58.6934 16.1406 58.7259 15.833 58.791 15.5498C58.8561 15.2666 58.9538 15.0176 59.084 14.8027C59.2174 14.5879 59.3835 14.4202 59.582 14.2998C59.7839 14.1794 60.0166 14.1191 60.2803 14.1191C60.3519 14.1191 60.4284 14.1257 60.5098 14.1387C60.5944 14.1517 60.6579 14.1663 60.7002 14.1826ZM64.4014 18.0693C64.4014 17.9521 64.3721 17.8464 64.3135 17.752C64.2549 17.6543 64.1426 17.5664 63.9766 17.4883C63.8138 17.4102 63.5729 17.3385 63.2539 17.2734C62.974 17.2116 62.7168 17.1383 62.4824 17.0537C62.2513 16.9658 62.0527 16.86 61.8867 16.7363C61.7207 16.6126 61.5921 16.4661 61.501 16.2969C61.4098 16.1276 61.3643 15.9323 61.3643 15.7109C61.3643 15.4961 61.4115 15.2926 61.5059 15.1006C61.6003 14.9085 61.7354 14.7393 61.9111 14.5928C62.0869 14.4463 62.3001 14.3307 62.5508 14.2461C62.8047 14.1615 63.0879 14.1191 63.4004 14.1191C63.8431 14.1191 64.2223 14.194 64.5381 14.3438C64.8571 14.4902 65.1012 14.6904 65.2705 14.9443C65.4398 15.195 65.5244 15.4782 65.5244 15.7939H64.3477C64.3477 15.654 64.3118 15.5238 64.2402 15.4033C64.1719 15.2796 64.0677 15.1803 63.9277 15.1055C63.7878 15.0273 63.612 14.9883 63.4004 14.9883C63.1986 14.9883 63.0309 15.0208 62.8975 15.0859C62.7673 15.1478 62.6696 15.2292 62.6045 15.3301C62.5426 15.431 62.5117 15.5417 62.5117 15.6621C62.5117 15.75 62.528 15.8298 62.5605 15.9014C62.5964 15.9697 62.6549 16.0332 62.7363 16.0918C62.8177 16.1471 62.9284 16.1992 63.0684 16.248C63.2116 16.2969 63.3906 16.3441 63.6055 16.3896C64.0091 16.4743 64.3558 16.5833 64.6455 16.7168C64.9385 16.847 65.1631 17.0163 65.3193 17.2246C65.4756 17.4297 65.5537 17.6901 65.5537 18.0059C65.5537 18.2402 65.5033 18.4551 65.4023 18.6504C65.3047 18.8424 65.1615 19.0101 64.9727 19.1533C64.7839 19.2933 64.5576 19.4023 64.2939 19.4805C64.0335 19.5586 63.7406 19.5977 63.415 19.5977C62.9365 19.5977 62.5312 19.513 62.1992 19.3438C61.8672 19.1712 61.6149 18.9515 61.4424 18.6846C61.2731 18.4144 61.1885 18.1344 61.1885 17.8447H62.3262C62.3392 18.0628 62.3994 18.237 62.5068 18.3672C62.6175 18.4941 62.7542 18.5869 62.917 18.6455C63.083 18.7008 63.2539 18.7285 63.4297 18.7285C63.6413 18.7285 63.8187 18.7008 63.9619 18.6455C64.1051 18.5869 64.2142 18.5088 64.2891 18.4111C64.3639 18.3102 64.4014 18.1963 64.4014 18.0693Z" fill="#19B65B"/>
</svg>
