<svg width="16" height="18" viewBox="0 0 16 18" fill="none" xmlns="http://www.w3.org/2000/svg">
<path d="M12.9997 7.33333C13.9201 7.33333 14.6663 8.07953 14.6663 9C14.6663 9.92048 13.9201 10.6667 12.9997 10.6667C12.0792 10.6667 11.333 9.92048 11.333 9C11.333 8.07953 12.0792 7.33333 12.9997 7.33333Z" fill="white"/>
<path d="M2.99967 13.1667C3.92015 13.1667 4.66634 13.9129 4.66634 14.8333C4.66634 15.7538 3.92015 16.5 2.99967 16.5C2.0792 16.5 1.33301 15.7538 1.33301 14.8333C1.33301 13.9129 2.0792 13.1667 2.99967 13.1667Z" fill="white"/>
<path d="M7.99967 1.5C8.92015 1.5 9.66634 2.24619 9.66634 3.16667C9.66634 4.08714 8.92015 4.83333 7.99967 4.83333C7.0792 4.83333 6.33301 4.08714 6.33301 3.16667C6.33301 2.24619 7.0792 1.5 7.99967 1.5Z" fill="white"/>
<path d="M1.33301 3.16667L6.33301 3.16667M6.33301 3.16667C6.33301 4.08714 7.0792 4.83333 7.99967 4.83333C8.92015 4.83333 9.66634 4.08714 9.66634 3.16667M6.33301 3.16667C6.33301 2.24619 7.0792 1.5 7.99967 1.5C8.92015 1.5 9.66634 2.24619 9.66634 3.16667M9.66634 3.16667L14.6663 3.16667M1.33301 9H11.333M11.333 9C11.333 9.92047 12.0792 10.6667 12.9997 10.6667C13.9201 10.6667 14.6663 9.92047 14.6663 9C14.6663 8.07953 13.9201 7.33333 12.9997 7.33333C12.0792 7.33333 11.333 8.07953 11.333 9ZM4.66634 14.8333H14.6663M4.66634 14.8333C4.66634 13.9129 3.92015 13.1667 2.99967 13.1667C2.0792 13.1667 1.33301 13.9129 1.33301 14.8333C1.33301 15.7538 2.0792 16.5 2.99967 16.5C3.92015 16.5 4.66634 15.7538 4.66634 14.8333Z" stroke="black" stroke-opacity="0.8" stroke-width="1.5" stroke-linecap="round" stroke-linejoin="round"/>
</svg>
