<svg width="20" height="21" viewBox="0 0 20 21" fill="none" xmlns="http://www.w3.org/2000/svg">
<path d="M9.99984 18.5417C9.7415 18.5417 9.4915 18.5083 9.28317 18.4333C6.09984 17.3417 1.0415 13.4667 1.0415 7.74168C1.0415 4.82501 3.39984 2.45834 6.29984 2.45834C7.70817 2.45834 9.02484 3.00834 9.99984 3.99168C10.9748 3.00834 12.2915 2.45834 13.6998 2.45834C16.5998 2.45834 18.9582 4.83334 18.9582 7.74168C18.9582 13.475 13.8998 17.3417 10.7165 18.4333C10.5082 18.5083 10.2582 18.5417 9.99984 18.5417ZM6.29984 3.70834C4.0915 3.70834 2.2915 5.51668 2.2915 7.74168C2.2915 13.4333 7.7665 16.6 9.6915 17.2583C9.8415 17.3083 10.1665 17.3083 10.3165 17.2583C12.2332 16.6 17.7165 13.4417 17.7165 7.74168C17.7165 5.51668 15.9165 3.70834 13.7082 3.70834C12.4415 3.70834 11.2665 4.30001 10.5082 5.32501C10.2748 5.64168 9.7415 5.64168 9.50817 5.32501C8.73317 4.29168 7.5665 3.70834 6.29984 3.70834Z" fill="black" fill-opacity="0.7"/>
</svg>
