<svg width="24" height="24" viewBox="0 0 24 24" fill="none" xmlns="http://www.w3.org/2000/svg">
<path d="M18.2109 13.6361C18.1359 13.683 17.5922 14.208 17.0063 14.7939L15.9375 15.8674L17.2031 17.1377L18.4688 18.4033L19.1625 17.7002C19.9313 16.9174 20.0766 16.6924 20.1609 16.158C20.2172 15.7924 20.1656 15.4314 19.9969 15.0752C19.8563 14.7705 18.9797 13.6783 18.8203 13.6033C18.6422 13.5189 18.3703 13.5377 18.2109 13.6361Z" fill="#C11540"/>
<path d="M14.7797 17.0719C13.2328 18.6234 13.2469 18.5719 14.2406 19.3687C14.5594 19.6312 14.9531 19.9078 15.1125 19.9875C15.375 20.1187 15.4359 20.1328 15.8672 20.1328C16.6219 20.1281 16.7344 20.0672 17.6719 19.1437L18.4453 18.3797L17.2031 17.1328L15.9609 15.8906L14.7797 17.0719Z" fill="#EC1540"/>
<path d="M10.0312 0.703124C9.06092 0.801562 8.39999 1.09219 7.22811 1.93594C5.2453 3.35625 3.65624 4.91719 2.20311 6.86719C1.04999 8.40937 0.759362 9.075 0.717174 10.2797C0.684362 11.0484 0.745299 11.475 0.960924 12.0797C1.20936 12.7828 1.55155 13.3172 2.06249 13.8281C2.26874 14.0344 12.1312 21.9656 12.7453 22.4203C13.1484 22.7203 13.8 23.0297 14.2969 23.1656C14.639 23.2594 14.8078 23.2734 15.4922 23.2734C16.1812 23.2734 16.3453 23.2594 16.6875 23.1656C17.1656 23.0344 17.7375 22.7719 18.1453 22.5C18.4969 22.2656 22.0125 18.7922 22.364 18.3281C22.6547 17.9484 23.025 17.2031 23.1656 16.7109C23.2594 16.3828 23.2734 16.2328 23.2734 15.4922C23.2734 14.7516 23.2594 14.6016 23.1656 14.2734C23.039 13.8328 22.7625 13.2234 22.5422 12.9047C22.4109 12.7125 16.1719 4.90781 14.4375 2.76562C14.025 2.25937 13.7297 1.94062 13.4531 1.72031C12.9984 1.35469 12.2953 0.989062 11.7656 0.848437C11.4515 0.759374 10.6406 0.646874 10.4531 0.665624C10.4156 0.665624 10.2234 0.684374 10.0312 0.703124ZM8.30155 4.15312C8.84061 4.44375 9.07499 5.05781 8.87811 5.65312C8.8078 5.85469 8.63905 6.04687 7.48124 7.20937C6.75467 7.94062 6.0703 8.59687 5.95311 8.6625C5.7703 8.77031 5.69061 8.78906 5.36717 8.78906C5.04374 8.78906 4.96405 8.77031 4.77186 8.6625C4.18124 8.31562 3.9703 7.61719 4.26561 7.02656C4.37811 6.80625 6.67499 4.45781 6.99374 4.2375C7.41092 3.94687 7.86561 3.91875 8.30155 4.15312ZM12.8109 6.42187C13.1672 6.55312 13.4437 6.78281 13.8047 7.22344C14.114 7.60781 14.1937 7.80937 14.1375 8.04844C14.0953 8.20781 8.49842 13.8797 8.21717 14.0484C7.85155 14.2641 7.50467 14.1141 6.86249 13.4766C6.32811 12.9422 6.15467 12.1359 6.42186 11.4281C6.69374 10.7156 8.26405 8.84531 9.4453 7.82812C9.9328 7.41094 10.7531 6.79687 11.1187 6.57656C11.625 6.27187 12.2531 6.21094 12.8109 6.42187ZM15.525 9.47812C15.6 9.50625 15.9281 9.87187 16.3687 10.4203C17.4703 11.7937 17.4375 11.7422 17.4375 11.9812C17.4375 12.0984 17.4094 12.2484 17.3719 12.3187C17.2875 12.4734 12.4406 17.3109 12.2953 17.3859C12.239 17.4141 12.0984 17.4375 11.9812 17.4375C11.775 17.4375 11.7328 17.4094 10.6781 16.5703C10.0781 16.0922 9.54842 15.6375 9.49686 15.5578C9.39374 15.3891 9.38905 15.1031 9.48749 14.9203C9.52499 14.85 10.7437 13.6031 12.1969 12.15C15.1687 9.18281 15.0375 9.29062 15.525 9.47812ZM18.8344 13.6031C19.0312 13.7156 19.6734 14.4797 19.95 14.9391C20.25 15.4406 20.2781 16.1391 20.0156 16.7203C19.889 17.0016 19.7437 17.1609 18.4781 18.4219C17.6625 19.2375 16.9969 19.8656 16.8656 19.9359C16.3687 20.2219 15.7312 20.2687 15.1828 20.0672C14.9109 19.9641 13.7578 19.0875 13.6219 18.8812C13.5234 18.7219 13.4906 18.4641 13.5609 18.3141C13.6359 18.1406 18.1265 13.6453 18.3047 13.5656C18.5062 13.4766 18.614 13.4859 18.8344 13.6031ZM6.45467 14.7469C6.98905 15.1781 7.16249 15.3422 7.20936 15.4781C7.3828 15.9375 6.99374 16.3875 6.50155 16.2937C6.34217 16.2656 5.16092 15.3516 4.97342 15.1078C4.76249 14.8453 4.9078 14.3391 5.22655 14.1984C5.27811 14.175 5.41874 14.1656 5.54061 14.175C5.74686 14.1891 5.81717 14.2359 6.45467 14.7469ZM8.82655 16.7062C9.03749 16.7906 12.614 19.6594 12.7125 19.8187C12.7875 19.9406 12.8109 20.0719 12.8015 20.2875C12.7969 20.3437 12.7265 20.4656 12.6469 20.5547C12.4828 20.7328 12.2484 20.8031 12.0234 20.7469C11.8969 20.7141 8.44217 17.9766 8.1703 17.6906C8.04374 17.5594 8.01561 17.4984 8.01561 17.3203C8.01561 17.0203 8.12342 16.8375 8.3578 16.7297C8.59217 16.6266 8.62967 16.6219 8.82655 16.7062Z" fill="#404040"/>
<path d="M9.75 12.5484L8.32031 13.9922L9.76406 12.5625C11.1 11.2359 11.2266 11.1094 11.1891 11.1094C11.1844 11.1094 10.5375 11.7562 9.75 12.5484Z" fill="#6B4040"/>
<path d="M17.8594 19.0172L17.2266 19.6641L17.8734 19.0313C18.225 18.6844 18.5156 18.3938 18.5156 18.3891C18.5156 18.3516 18.4453 18.4219 17.8594 19.0172Z" fill="#6B4040"/>
<path d="M14.7656 17.0484L13.6172 18.2109L14.7797 17.0625C15.4172 16.4297 15.9375 15.9094 15.9375 15.9047C15.9375 15.8672 15.8344 15.975 14.7656 17.0484Z" fill="#C14040"/>
<path d="M17.7422 19.0875L17.0859 19.7578L17.7563 19.1016C18.1219 18.7406 18.4219 18.4406 18.4219 18.4359C18.4219 18.3984 18.3516 18.4687 17.7422 19.0875Z" fill="#C14040"/>
<path d="M11.5078 6.40766C11.0859 6.56235 10.1062 7.27016 9.1781 8.09516L8.63904 8.57328L9.89998 9.82953L11.1562 11.0858L9.71716 12.5389C8.92029 13.3358 9.55779 12.717 11.1234 11.1561C12.6937 9.59516 14.0062 8.25922 14.0484 8.18422C14.2265 7.84672 14.1187 7.58891 13.5562 6.97953C13.1297 6.52016 12.7922 6.36078 12.1875 6.34203C11.85 6.32797 11.6859 6.34672 11.5078 6.40766Z" fill="#EC9640"/>
<path d="M8.26872 9.01387C7.6406 9.6748 6.76872 10.8092 6.53435 11.2639C6.20153 11.9014 6.28591 12.7029 6.74528 13.3076C6.90466 13.5186 7.57028 14.0529 7.72028 14.0904C7.78122 14.1092 7.91247 14.1092 8.00622 14.0904C8.15622 14.067 8.37185 13.8701 9.6656 12.5764L11.1562 11.0857L9.9281 9.85762C9.24841 9.17793 8.68122 8.6248 8.66716 8.6248C8.64841 8.6248 8.47028 8.79824 8.26872 9.01387Z" fill="#ECC140"/>
<path d="M12.1641 12.1969L9.49219 14.8828L12.1781 12.2109C14.6719 9.72656 14.8781 9.51562 14.8453 9.51562C14.8406 9.51562 13.6312 10.725 12.1641 12.1969Z" fill="#6B6B6B"/>
<path d="M5.22657 14.1983C4.90782 14.3389 4.76251 14.8451 4.97345 15.1076C5.16095 15.3514 6.3422 16.2655 6.50157 16.2936C6.83907 16.3592 7.18595 16.1389 7.24688 15.8155C7.30782 15.492 7.2047 15.3514 6.4547 14.7467C5.8172 14.2358 5.74688 14.1889 5.54063 14.1748C5.41876 14.1655 5.27813 14.1748 5.22657 14.1983Z" fill="#6B6B6B"/>
<path d="M13.6172 16.0875L12.3516 17.3672L13.6313 16.1016C14.8172 14.925 14.9297 14.8125 14.8922 14.8125C14.8875 14.8125 14.3109 15.3891 13.6172 16.0875Z" fill="#6B6B6B"/>
<path d="M8.35781 16.7295C8.12344 16.8373 8.01562 17.0201 8.01562 17.3201C8.01562 17.4982 8.04375 17.5592 8.17031 17.6904C8.44219 17.9764 11.8969 20.7139 12.0234 20.7467C12.2484 20.8029 12.4828 20.7326 12.6469 20.5545C12.7266 20.4654 12.7969 20.3435 12.8016 20.2873C12.8109 20.0717 12.7875 19.9404 12.7125 19.8185C12.6141 19.6592 9.0375 16.7904 8.82656 16.706C8.62969 16.6217 8.59219 16.6264 8.35781 16.7295Z" fill="#6B6B6B"/>
<path d="M21.1687 2.76113L20.6625 3.27207L20.9578 3.63769C21.4734 4.28457 21.7734 5.07675 21.8297 5.90644C21.8625 6.408 21.9656 6.64707 22.214 6.78769C22.7109 7.06894 23.2969 6.70332 23.2969 6.11269C23.2969 4.89394 22.7109 3.39394 21.8765 2.47519L21.675 2.25019L21.1687 2.76113Z" fill="#156BC1"/>
<path d="M19.35 4.57967L18.8438 5.08592L18.9656 5.23592C19.1531 5.47499 19.275 5.80311 19.3172 6.17811C19.3828 6.76405 19.6406 7.01717 20.1188 6.97499C20.6859 6.91874 20.8922 6.42655 20.6953 5.57811C20.5969 5.17499 20.2969 4.57499 20.0531 4.29842L19.8516 4.07342L19.35 4.57967Z" fill="#156BC1"/>
<path d="M3.5625 17.1189C3.3375 17.2736 3.23438 17.4986 3.23438 17.8361C3.23438 18.4361 3.54844 19.2518 3.94687 19.7018L4.14844 19.9268L4.65469 19.4205L5.16094 18.9096L5.05781 18.7924C4.88906 18.6002 4.725 18.2018 4.68281 17.8549C4.60781 17.2596 4.39687 17.0158 3.95156 17.0158C3.7875 17.0158 3.67031 17.0486 3.5625 17.1189Z" fill="#156BC1"/>
<path d="M1.06405 17.2125C0.956237 17.2781 0.853112 17.3906 0.792174 17.5219C0.703112 17.7047 0.693737 17.775 0.721862 18.1453C0.810924 19.3875 1.21874 20.4328 1.96405 21.3281C2.24061 21.6609 2.2828 21.7031 2.32967 21.7031C2.35311 21.7031 2.58749 21.4828 2.85467 21.2156L3.34217 20.7281L3.13592 20.4797C2.54999 19.7812 2.22655 18.9891 2.1703 18.1172C2.14217 17.5922 2.03905 17.3531 1.78592 17.2125C1.55624 17.0812 1.29374 17.0812 1.06405 17.2125Z" fill="#156BC1"/>
<path d="M17.5922 0.656543C17.3578 0.708105 17.2031 0.834668 17.1047 1.04561C16.9922 1.29873 16.9922 1.42529 17.1094 1.66436C17.2406 1.93623 17.4562 2.04404 17.9531 2.08154C18.9187 2.15654 19.7109 2.47529 20.4187 3.07529L20.6531 3.27686L21.164 2.76592L21.6703 2.25967L21.5109 2.10967C20.9484 1.57529 20.0812 1.08311 19.3406 0.86748C18.7172 0.689355 17.8969 0.590918 17.5922 0.656543Z" fill="#1596EC"/>
<path d="M17.3672 3.20166C17.2875 3.23916 17.1656 3.3376 17.0953 3.41729C16.6969 3.89541 17.0578 4.59385 17.7094 4.59385C17.9813 4.59385 18.3141 4.71104 18.5953 4.90322L18.8484 5.07666L19.35 4.5751L19.8516 4.07354L19.6219 3.86729C19.1813 3.47354 18.5438 3.21572 17.8781 3.16885C17.6109 3.14541 17.4703 3.15479 17.3672 3.20166Z" fill="#1596EC"/>
<path d="M4.64063 19.4346L4.14844 19.9268L4.37813 20.1331C4.81406 20.5174 5.45156 20.7799 6.1125 20.8409C6.41719 20.869 6.4875 20.8596 6.675 20.7706C6.90938 20.6534 7.07813 20.3815 7.07813 20.1143C7.07813 19.7393 6.7125 19.4065 6.29531 19.4065C6.02344 19.4065 5.69531 19.294 5.40938 19.1065C5.26875 19.0128 5.15156 18.9378 5.14219 18.9378C5.1375 18.9378 4.90781 19.1628 4.64063 19.4346Z" fill="#1596EC"/>
<path d="M2.83126 21.2392L2.32501 21.7501L2.53126 21.9376C3.40314 22.7204 4.63126 23.2501 5.78439 23.3392C6.50157 23.3954 6.74532 23.3064 6.90939 22.9126C7.02189 22.6454 6.98439 22.4157 6.79689 22.2001C6.61407 21.9985 6.50626 21.961 5.88282 21.8954C4.96876 21.8017 4.29845 21.5251 3.60939 20.9485L3.3422 20.7282L2.83126 21.2392Z" fill="#1596EC"/>
<path d="M14.9766 9.4875C14.9016 9.525 14.25 10.1391 13.5375 10.8609L12.2344 12.1641L13.5609 13.4906L14.8828 14.8125L16.1344 13.5609C17.4375 12.2484 17.4844 12.1828 17.4141 11.8688C17.3766 11.6906 15.6609 9.55313 15.4969 9.47813C15.3328 9.40781 15.1547 9.40781 14.9766 9.4875Z" fill="#C1C1EC"/>
<path d="M10.8422 13.5562C9.66563 14.7422 9.47813 14.9531 9.45001 15.1031C9.38438 15.4547 9.48751 15.5719 10.6734 16.5187C11.3109 17.025 11.8172 17.3953 11.9016 17.414C12.1875 17.475 12.3844 17.325 13.6641 16.0359L14.8828 14.8125L13.5703 13.5C12.8484 12.7781 12.2484 12.1875 12.2344 12.1875C12.2203 12.1875 11.5922 12.8062 10.8422 13.5562Z" fill="#ECECEC"/>
</svg>
