<svg width="24" height="24" viewBox="0 0 24 24" fill="none" xmlns="http://www.w3.org/2000/svg">
<path d="M17.625 0.0653791C16.3453 0.332567 15.1641 1.11069 14.4656 2.14194L14.2313 2.48413H13.9969C13.4297 2.48882 12.7125 2.6435 12.0609 2.906C10.9078 3.37007 9.825 4.35444 9.24844 5.46069C8.82187 6.28569 8.62031 7.10132 8.61094 8.04819L8.60156 8.62475L7.64062 9.20132C7.0125 9.581 6.64687 9.82475 6.58594 9.92319C6.52969 9.99819 6.44531 10.2373 6.39844 10.4482L6.30937 10.8373L5.78906 10.8044C4.95 10.7529 4.81875 10.856 4.62187 11.7326L4.58906 11.8638L4.04062 11.8357C3.54375 11.8076 3.47812 11.8123 3.34219 11.9013C3.14062 12.0279 3.05156 12.1779 2.95781 12.5482L2.87344 12.8669L2.325 12.8482C1.97812 12.8388 1.70156 12.8529 1.56562 12.8904C1.31719 12.9607 0.970312 13.256 0.84375 13.4998C0.717187 13.7435 0.351562 15.9044 0.39375 16.1341C0.459375 16.4763 0.567187 16.5419 1.91719 16.9919C2.87812 17.3107 3.1875 17.3951 3.32812 17.3763C3.45 17.3623 4.59375 16.7013 7.17656 15.1498L10.8516 12.9466L11.0063 13.2748C11.0859 13.4576 11.1563 13.6216 11.1563 13.6451C11.1563 13.6685 10.8563 14.0904 10.4906 14.5873L9.82031 15.4873V15.8154C9.82031 15.9982 9.82969 16.2513 9.84375 16.3779L9.86719 16.6123L9.43594 16.7388C8.68594 16.9544 8.59687 17.0716 8.64375 17.7654L8.67187 18.2154L8.26406 18.3279C7.56562 18.5248 7.37812 18.731 7.42969 19.256C7.44375 19.4154 7.46719 19.6076 7.48125 19.6779C7.50937 19.8044 7.5 19.8091 7.11562 19.9169C6.9 19.9779 6.62812 20.0763 6.51094 20.1373C6.1125 20.3341 5.86406 20.7419 5.85937 21.1919C5.85937 21.4873 6.29062 23.4607 6.40312 23.681C6.44062 23.756 6.53906 23.8591 6.62344 23.906C6.81094 24.0232 7.04062 24.0232 8.41875 23.9294C9.18281 23.8732 9.4875 23.8357 9.60469 23.7748C9.72656 23.7138 10.3969 22.8466 12.4172 20.1326C14.5125 17.3248 15.0938 16.5748 15.1688 16.5841C15.2156 16.5935 15.5672 16.6123 15.9422 16.6263C16.4719 16.6451 16.7391 16.6357 17.1047 16.5748C20.3813 16.0263 22.4484 12.7919 21.5859 9.56225L21.4641 9.11694L21.5953 9.02788C21.8484 8.85444 22.575 8.081 22.7719 7.781C23.9016 6.056 23.8922 3.89507 22.7484 2.17007C22.4906 1.77632 21.8906 1.17163 21.4922 0.895067C21.0422 0.581004 20.4609 0.304442 19.9406 0.154442C19.5797 0.0513166 19.4109 0.0325666 18.7266 0.0185041C18.1781 0.00912914 17.8359 0.0231916 17.625 0.0653791ZM19.4438 0.918504C19.8375 0.998192 20.3859 1.2185 20.8031 1.46225C21.2063 1.69663 21.9656 2.48413 22.2094 2.91069C22.8938 4.13413 22.95 5.54975 22.3594 6.77319C22.125 7.256 21.9234 7.53725 21.5063 7.95444C21.1594 8.306 21.0797 8.35288 21.0281 8.22163C20.9391 7.98725 20.4984 7.42007 20.1 7.02632C19.7016 6.62788 19.6313 6.53882 19.5469 6.27632C19.2891 5.50757 18.8625 4.80913 18.3 4.2185C17.55 3.43569 16.7109 2.9435 15.6281 2.65757L15.225 2.54975L15.4547 2.2685C15.9984 1.61694 16.8563 1.11069 17.7328 0.918504C18.1406 0.829442 19.0031 0.829442 19.4438 0.918504ZM15.0047 3.35132C16.4297 3.59975 17.6953 4.481 18.3797 5.69038C18.5109 5.92475 18.5203 5.96225 18.4406 5.92944C18.1406 5.80288 17.55 5.62007 17.2266 5.54975C16.7156 5.44194 15.6281 5.44194 15.1172 5.54975C12.7547 6.056 11.0672 7.79507 10.6594 10.1435C10.6031 10.4623 10.5891 10.7388 10.6078 11.2498C10.6266 11.6248 10.6406 11.9716 10.65 12.0185C10.6594 12.0841 10.5984 12.1451 10.4297 12.2482C10.3031 12.3232 8.625 13.3263 6.7125 14.4748L3.225 16.5654L2.25937 16.2466C1.725 16.0685 1.27031 15.9091 1.24687 15.8904C1.20469 15.8482 1.48125 14.1091 1.57031 13.8982C1.67344 13.6451 1.79531 13.6169 2.475 13.6826C2.99062 13.7341 3.10312 13.7294 3.24375 13.6732C3.45937 13.5841 3.57656 13.406 3.67969 13.0076C3.72656 12.8248 3.77812 12.6654 3.79219 12.6466C3.80625 12.6279 4.03594 12.6373 4.30312 12.6654C4.66406 12.7029 4.81406 12.7029 4.91719 12.656C5.16094 12.5576 5.2875 12.3701 5.39062 11.9763C5.44219 11.7748 5.48906 11.6013 5.49844 11.5966C5.50312 11.5873 5.7375 11.606 6.00937 11.6341C6.79219 11.7138 6.92812 11.6154 7.125 10.8654L7.25156 10.3873L8.24531 9.79194C8.79375 9.46382 9.28594 9.15444 9.3375 9.10288C9.42656 9.01382 9.43594 8.9435 9.44062 8.12319C9.45 7.32632 9.46406 7.19975 9.57656 6.82007C9.74062 6.24819 10.1109 5.53569 10.4719 5.081C11.5547 3.731 13.3219 3.056 15.0047 3.35132ZM17.4141 6.3935C18.5953 6.73569 19.6594 7.52788 20.2453 8.50757C20.4375 8.82163 20.4516 8.80288 19.8516 8.99507C19.3172 9.16382 18.9469 9.22007 18.9188 9.131C18.7688 8.62007 18.4781 8.23569 18.075 8.02475C17.8594 7.91225 17.7844 7.89819 17.3672 7.89819C16.9453 7.89819 16.875 7.91225 16.6547 8.02944C16.1203 8.306 15.8391 8.74663 15.8063 9.35132C15.7922 9.656 15.8063 9.77788 15.8906 9.9935C16.0219 10.3451 16.3406 10.6966 16.6781 10.8607C16.9125 10.9732 17.0016 10.9919 17.3672 10.9919C17.7 10.9919 17.8359 10.9685 18.0094 10.8888C18.2953 10.7576 18.6281 10.4482 18.75 10.1951C18.8484 9.98882 18.9375 9.93725 19.1953 9.93725C19.3828 9.93725 20.1703 9.74038 20.4703 9.6185C20.6063 9.56225 20.7234 9.53413 20.7328 9.55288C20.7422 9.57163 20.7938 9.74507 20.8406 9.93725C20.9766 10.4763 20.9672 11.6904 20.8219 12.2341C20.4563 13.5794 19.5422 14.7138 18.3281 15.3279C17.4141 15.7873 16.3359 15.9513 15.3516 15.7732C14.8266 15.6794 14.7563 15.6841 14.6156 15.8294C14.5313 15.9185 9.62344 22.481 9.21562 23.0482C9.20625 23.0623 7.11562 23.2076 7.10156 23.1935C7.07344 23.1654 6.65625 21.2857 6.65625 21.1966C6.65625 20.981 6.83437 20.8638 7.41562 20.6857C8.22187 20.4326 8.39062 20.2404 8.29219 19.6498C8.21719 19.1763 8.19844 19.2044 8.7 19.0544C9.1875 18.9091 9.3375 18.8201 9.45 18.5951C9.525 18.4498 9.525 18.1263 9.44531 17.7373L9.4125 17.5966L9.87187 17.4607C10.6453 17.231 10.7672 17.0482 10.6641 16.2841C10.6266 16.031 10.6125 15.806 10.6313 15.7779C10.6453 15.7498 10.9734 15.3091 11.3531 14.7982C11.7328 14.2919 12.0563 13.8279 12.0703 13.7669C12.0891 13.6966 12.0188 13.4951 11.8594 13.1623C11.5031 12.4123 11.3813 11.8919 11.3719 11.0857C11.3672 10.1904 11.4938 9.64194 11.8828 8.85913C12.4078 7.81382 13.3734 6.95132 14.4844 6.53413C15.1125 6.29507 15.5203 6.23413 16.3125 6.25288C16.8703 6.26694 17.0672 6.29507 17.4141 6.3935ZM17.7 8.69975C17.8781 8.78413 18.0938 9.01382 18.0938 9.12163C18.0938 9.1685 18.0516 9.17788 17.9438 9.15913C17.5078 9.08413 16.875 8.87319 16.875 8.80288C16.875 8.73257 17.1656 8.62944 17.3578 8.62475C17.4609 8.62475 17.6109 8.65757 17.7 8.69975ZM17.0484 9.72632C17.2313 9.78725 17.5031 9.86225 17.6531 9.88569C17.7984 9.91382 17.9297 9.94663 17.9438 9.96069C17.9906 10.0029 17.7375 10.1669 17.5406 10.2185C17.1563 10.3169 16.7719 10.1107 16.6125 9.731C16.5422 9.55757 16.5469 9.55288 16.6266 9.581C16.6734 9.59975 16.8609 9.66538 17.0484 9.72632Z" fill="#151515"/>
<path d="M6.11719 12.9605C4.34063 14.0292 2.84532 14.948 2.80313 15.0042C2.60157 15.2433 2.80313 15.6371 3.10782 15.5996C3.20157 15.5902 4.53751 14.8167 6.52969 13.6214C9.07032 12.098 9.81563 11.6292 9.84844 11.5355C9.94688 11.2871 9.76407 11.0152 9.50626 11.0199C9.38907 11.0199 8.54532 11.5027 6.11719 12.9605Z" fill="#151515"/>
<path d="M13.4859 14.6812C13.3078 14.8452 8.29216 21.6046 8.23122 21.7593C8.13278 22.0218 8.43278 22.3218 8.70935 22.2281C8.8031 22.1999 9.49685 21.2999 11.475 18.6562C13.814 15.5109 14.1093 15.1031 14.1093 14.9531C14.1093 14.6202 13.7297 14.4562 13.4859 14.6812Z" fill="#151515"/>
<path d="M15.8437 3.75467C16.3875 4.10623 17.0109 4.7156 17.3391 5.22185L17.5781 5.59217L17.9437 5.71873C18.1406 5.78435 18.3469 5.85935 18.3937 5.88279C18.4781 5.92029 18.4781 5.90623 18.375 5.73748C17.8781 4.91248 17.1609 4.22342 16.3828 3.83435C16.1625 3.72185 15.5016 3.46873 15.4312 3.46873C15.4172 3.46873 15.6 3.59998 15.8437 3.75467Z" fill="#ECC115"/>
<path d="M13.2656 6.1124C11.3813 6.77803 10.0406 8.43271 9.80158 10.4062C9.76877 10.6499 9.74065 10.8983 9.73127 10.9546C9.7219 11.0155 9.73596 11.0624 9.7594 11.0624C9.78283 11.0624 9.8344 11.1374 9.8719 11.2265C9.92815 11.3718 9.92815 11.4093 9.8719 11.5546C9.81565 11.6858 9.81096 11.7749 9.84846 11.9858C9.88596 12.1921 9.88596 12.2577 9.8344 12.3046C9.80158 12.3374 8.25002 13.2749 6.3844 14.3905C4.42033 15.5671 3.01408 16.439 3.03752 16.4624C3.06096 16.4858 3.1219 16.5046 3.16877 16.5093C3.21565 16.5093 4.91721 15.5155 6.95158 14.2968L10.6406 12.0843L10.6078 11.8452C10.5422 11.4187 10.5703 10.364 10.6547 9.95615C10.9875 8.37178 11.8969 7.06396 13.2469 6.24365C13.7016 5.97178 13.7016 5.9624 13.2656 6.1124Z" fill="#ECC115"/>
<path d="M17.0156 8.74219L16.8984 8.80781L17.0812 8.88281C17.2781 8.96719 17.925 9.14062 18.0328 9.14062C18.1312 9.14062 17.9297 8.87344 17.7469 8.76094C17.5734 8.65312 17.1891 8.64375 17.0156 8.74219Z" fill="#ECC115"/>
<path d="M16.6453 9.73594C16.6734 9.81094 16.7297 9.90469 16.7719 9.95625C16.8797 10.0781 17.1984 10.2188 17.3625 10.2188C17.5266 10.2188 17.9297 10.0359 17.8734 9.98437C17.8547 9.96562 17.7 9.92344 17.5313 9.89062C17.3672 9.8625 17.0953 9.78281 16.9266 9.72187C16.7625 9.66094 16.6219 9.60937 16.6125 9.60937C16.6031 9.60937 16.6172 9.66562 16.6453 9.73594Z" fill="#ECC115"/>
<path d="M13.2656 3.41699C12.2766 3.63731 11.5781 4.02168 10.8375 4.74824C9.86719 5.70449 9.34688 7.12012 9.46875 8.48418C9.4875 8.72324 9.48281 8.93418 9.45938 9.01387C9.42188 9.11699 9.20625 9.26699 8.34844 9.77324L7.28438 10.4061L7.17656 10.8561C6.99375 11.6154 6.7875 11.7607 6.01875 11.6717C5.76563 11.6436 5.54531 11.6389 5.53125 11.6576C5.5125 11.6811 5.46094 11.8404 5.41875 12.0139C5.32031 12.4217 5.24531 12.5342 4.99219 12.6561C4.8 12.7498 4.75781 12.7498 4.34063 12.7076C4.09688 12.6795 3.87656 12.6561 3.84844 12.6561C3.825 12.6561 3.77344 12.8014 3.72656 12.9795C3.59531 13.5279 3.39844 13.7436 3.03281 13.7482C2.925 13.7529 2.60156 13.7342 2.31563 13.7154L1.8 13.6732L1.68281 13.8139C1.57969 13.9357 1.54219 14.0857 1.41563 14.8639C1.33125 15.3654 1.26562 15.7967 1.26562 15.8295C1.26562 15.8576 1.64531 16.0076 2.10938 16.1623L2.95781 16.4482L6.4125 14.3717L9.86719 12.2951L9.85313 12.0701C9.84375 11.9436 9.82031 11.8123 9.80156 11.7795C9.78281 11.7373 8.80781 12.2998 6.51563 13.6732C3.77813 15.3186 3.22969 15.6279 3.08438 15.6279C2.86406 15.6326 2.72813 15.5061 2.69063 15.2717C2.66719 15.1357 2.68594 15.0842 2.79375 14.9623C2.86875 14.8826 4.3875 13.9498 6.16406 12.8904C9.17344 11.0951 9.4125 10.9639 9.57656 10.9826C9.75 11.0061 9.75 11.0061 9.75 10.8373C9.75 10.5467 9.88125 9.82481 10.0078 9.43574C10.4109 8.16543 11.3953 7.00762 12.5766 6.41231C12.9188 6.24356 13.2094 6.13106 14.3813 5.71387C14.5969 5.63887 14.9531 5.54512 15.1734 5.50762C15.6656 5.42324 16.6828 5.41856 17.1563 5.50293C17.3484 5.54043 17.5172 5.55918 17.5266 5.54981C17.5359 5.54043 17.4516 5.39043 17.3391 5.21699C16.8938 4.52793 15.825 3.61856 15.2438 3.43574C14.8781 3.31856 13.7484 3.30918 13.2656 3.41699Z" fill="#ECEC15"/>
<path d="M17.6437 6.58567C18.4969 7.1013 19.2469 7.91692 19.6359 8.75598C19.7672 9.03255 19.7859 9.03723 20.1937 8.85911L20.3953 8.77005L20.2172 8.47942C19.9969 8.11848 19.3969 7.4763 19.0172 7.19036C18.6937 6.9513 18.1125 6.64192 17.7234 6.51067C17.3578 6.38411 17.339 6.39817 17.6437 6.58567Z" fill="#6B6B6B"/>
<path d="M20.3063 9.69361C20.1 9.77798 20.0203 9.83423 20.0391 9.88111C20.2078 10.3217 20.1844 11.6905 19.9922 12.3749C19.6313 13.6827 18.8016 14.7842 17.6344 15.5014C17.4281 15.6327 17.4 15.6608 17.5078 15.6327C17.7703 15.5717 18.2578 15.3655 18.6328 15.1452C19.1484 14.8499 19.9547 14.0436 20.2594 13.5233C20.6672 12.8202 20.8875 12.103 20.9391 11.3202C20.9813 10.6264 20.8078 9.55298 20.6578 9.56704C20.625 9.56704 20.4703 9.62798 20.3063 9.69361Z" fill="#6B6B6B"/>
<path d="M11.3578 11.0389C11.3578 11.142 11.3672 11.1795 11.3765 11.1186C11.3859 11.0623 11.3859 10.978 11.3765 10.9311C11.3625 10.8889 11.3531 10.9358 11.3578 11.0389Z" fill="#6B6B6B"/>
<path d="M17.2875 11.0481C17.3437 11.0575 17.4281 11.0575 17.475 11.0481C17.5172 11.0341 17.4703 11.0247 17.3672 11.0294C17.264 11.0294 17.2265 11.0388 17.2875 11.0481Z" fill="#6B6B6B"/>
<path d="M11.1328 19.528C9.72187 21.4218 8.53124 23.0108 8.48906 23.053C8.41874 23.1233 8.41874 23.1233 8.49843 23.0952C8.54531 23.0765 8.71874 23.0624 8.88281 23.0624H9.18281L11.7422 19.6312L14.3016 16.1952L14.1 16.1624C13.9875 16.1437 13.8562 16.1155 13.8 16.1062C13.7203 16.0827 13.3219 16.5937 11.1328 19.528Z" fill="#6B6B6B"/>
<path d="M15.7031 6.26719C14.7469 6.37031 13.7438 6.80156 13.0031 7.43906C12.3656 7.97813 11.7422 8.99531 11.5266 9.84375C11.4 10.35 11.3531 11.25 11.4375 11.7563C11.5125 12.2391 11.6906 12.7875 11.9109 13.2281C12.0141 13.4297 12.0938 13.6453 12.0938 13.7156C12.0938 13.8047 11.8734 14.1328 11.3625 14.8219L10.6313 15.8016L10.6922 16.3219C10.7484 16.8094 10.7484 16.8469 10.6594 17.0063C10.5375 17.2406 10.35 17.3531 9.87656 17.4844C9.41719 17.6109 9.43594 17.5875 9.52031 18.075C9.5625 18.3328 9.55781 18.3891 9.47813 18.5766C9.36094 18.8438 9.24844 18.9141 8.70938 19.0781C8.47031 19.1484 8.27344 19.2234 8.27344 19.2469C8.27813 19.2703 8.29688 19.4484 8.31563 19.6453C8.35781 20.0625 8.33906 20.1516 8.15156 20.3672C8.01094 20.5266 7.92188 20.5641 7.22813 20.7656C6.83438 20.8781 6.70312 20.9953 6.70312 21.2297C6.70312 21.3234 6.79688 21.7875 6.90469 22.2656L7.10625 23.1328L7.71094 23.1188C8.04844 23.1141 8.3625 23.1 8.41406 23.0859C8.47031 23.0719 9.52969 21.6891 11.1094 19.5703C12.8438 17.2359 13.7297 16.0828 13.7719 16.1016C13.8094 16.1156 13.9453 16.1391 14.0766 16.1531L14.3203 16.1813L14.4797 15.9609C14.6719 15.6891 14.8031 15.6375 15.1031 15.6984C15.9281 15.8766 16.9078 15.8484 17.3859 15.6281C17.7141 15.4781 18.1875 15.1453 18.5578 14.7938C19.2141 14.1703 19.7438 13.275 20.0016 12.3516C20.1234 11.9203 20.1328 11.8172 20.1328 11.0391C20.1328 10.1109 20.0719 9.76406 19.9313 9.82031C19.7953 9.87188 19.1719 9.98438 19.0031 9.98438C18.9047 9.98438 18.8438 10.0078 18.8438 10.0453C18.8438 10.1766 18.4969 10.6031 18.2672 10.7578C17.4281 11.3109 16.3688 11.0297 15.9281 10.1344C15.7922 9.8625 15.7734 9.77813 15.7734 9.44531C15.7734 9.13125 15.7969 9.02344 15.9047 8.78906C16.3781 7.77656 17.6297 7.52344 18.4594 8.27344C18.6422 8.43281 18.9375 8.93438 18.9375 9.07969C18.9375 9.11719 18.9891 9.14063 19.0688 9.14063C19.2797 9.14063 19.7344 9.0375 19.7344 8.99063C19.7344 8.96719 19.6688 8.81719 19.5891 8.65781C19.1297 7.74375 18.2016 6.81563 17.3766 6.44531C17.025 6.28594 16.275 6.20625 15.7031 6.26719ZM14.0531 14.7C14.2547 14.9297 14.2219 15 13.275 16.275C10.8703 19.5141 8.88281 22.1531 8.81719 22.2047C8.57813 22.3875 8.20313 22.1766 8.20313 21.8625C8.20313 21.7125 8.48438 21.3188 10.8281 18.1734C12.2766 16.2328 13.5047 14.625 13.5609 14.5922C13.7063 14.5078 13.9266 14.5547 14.0531 14.7Z" fill="#969696"/>
</svg>
