<svg width="20" height="20" viewBox="0 0 20 20" fill="none" xmlns="http://www.w3.org/2000/svg">
<g clip-path="url(#clip0_538_551)">
<path d="M2.18721 0.239079C1.48408 0.426579 0.878613 0.844547 0.780957 1.20783C0.691113 1.53986 0.921582 1.8758 1.23799 1.8758C1.42158 1.8758 1.53096 1.82111 1.74971 1.6297C1.9958 1.41095 2.29658 1.26642 2.6208 1.21564C2.96455 1.15705 10.238 1.15705 10.5817 1.21564C11.195 1.3133 11.6989 1.73517 11.9255 2.33673C12.0075 2.55548 12.0075 2.61408 12.0231 5.03205C12.031 6.45392 12.0192 7.63752 11.9997 7.8172C11.9294 8.3758 11.5856 8.91095 11.1403 9.15314C10.7419 9.36799 10.6638 9.3758 7.98408 9.3758H5.51533L5.32393 9.50861C5.21846 9.57892 4.66768 9.98517 4.09736 10.407L3.06611 11.1766L3.04658 10.4227C3.03486 9.9383 3.01143 9.63752 2.98018 9.58674C2.90986 9.46564 2.78096 9.39533 2.53877 9.33674C2.07393 9.23127 1.61299 8.88752 1.39033 8.48127C1.18721 8.10236 1.17158 7.93439 1.17158 5.7547V3.75861L1.07002 3.63752C0.878613 3.40705 0.47627 3.39533 0.269238 3.61798L0.175488 3.71955L0.16377 5.85236C0.152051 8.26642 0.155957 8.32502 0.433301 8.89142C0.702832 9.4422 1.12861 9.86408 1.68721 10.1297L2.02705 10.2938L2.03096 11.0594C2.03096 11.782 2.03486 11.8328 2.1208 11.9969C2.28096 12.3016 2.68721 12.4774 3.06221 12.407C3.15986 12.3875 3.60908 12.0789 4.54658 11.3875L5.89033 10.3914H6.42158H6.94893L6.96065 13.036L6.97236 15.6844L7.06611 15.9383C7.33565 16.6922 7.78877 17.2156 8.46065 17.5438C9.00752 17.8094 9.02705 17.8133 11.7146 17.8133H14.1091L15.4021 18.7742C16.113 19.3055 16.7536 19.7625 16.8239 19.7899C17.1677 19.9344 17.6481 19.786 17.8513 19.4695L17.9685 19.282V18.5008L17.9724 17.7156L18.3122 17.5516C18.8903 17.2742 19.2966 16.8719 19.57 16.3094C19.8474 15.7352 19.8435 15.7625 19.8435 12.6883C19.8435 9.61798 19.8435 9.64142 19.5739 9.08674C19.2966 8.52033 18.863 8.09064 18.2888 7.82502C17.7731 7.58674 17.7146 7.57892 15.2653 7.57892H13.0505L13.0388 4.95002L13.0271 2.32502L12.9138 1.99689C12.6091 1.12189 11.8864 0.457829 10.9997 0.235172C10.6989 0.160954 10.5583 0.157047 6.58565 0.160954C2.61299 0.160954 2.47236 0.16486 2.18721 0.239079ZM17.4646 8.64924C17.8122 8.72345 18.0153 8.83283 18.2888 9.09455C18.5661 9.35627 18.7341 9.68439 18.7888 10.0633C18.8396 10.4188 18.8396 14.9735 18.7888 15.3289C18.6833 16.036 18.1403 16.6141 17.4372 16.7586C17.3005 16.7899 17.1755 16.8445 17.0974 16.9149L16.9724 17.0242L16.9528 17.8133L16.9333 18.6024L15.82 17.7742C15.2067 17.3172 14.656 16.911 14.5896 16.8719C14.4802 16.8016 14.3435 16.7977 12.07 16.7977C10.6325 16.7977 9.56611 16.782 9.41377 16.7586C9.04658 16.7 8.72627 16.5281 8.46065 16.2547C8.20283 15.9813 8.06611 15.7117 8.01143 15.3524C7.98408 15.1961 7.96846 14.1922 7.96846 12.7469V10.3953L9.44502 10.3836C10.863 10.368 10.9255 10.3641 11.1716 10.2781C11.9138 10.0164 12.4763 9.52424 12.781 8.86408L12.9099 8.59455H15.0583C16.7536 8.59455 17.2614 8.60627 17.4646 8.64924Z" fill="black" fill-opacity="0.7"/>
<path d="M13.1833 9.89923C13.1208 9.92658 13.0387 9.98517 13.0036 10.0242C12.9684 10.0672 12.4254 11.1727 11.8004 12.4813C10.5778 15.0477 10.57 15.0672 10.7458 15.2899C10.8551 15.4305 11.0192 15.5086 11.1989 15.5086C11.4801 15.5086 11.5543 15.4227 11.8942 14.7156L12.2067 14.0633H13.3981L14.5895 14.0672L14.8864 14.7C15.1208 15.2039 15.2106 15.3524 15.3122 15.4227C15.6403 15.6453 16.1325 15.3953 16.1325 15.0086C16.1325 14.9188 15.7809 14.1453 15.0114 12.5281C14.3981 11.2352 13.8512 10.1219 13.8004 10.0516C13.7458 9.97345 13.652 9.91095 13.5622 9.88361C13.3786 9.83283 13.3278 9.83673 13.1833 9.89923ZM13.9254 12.6844L14.0973 13.0477H13.3981H12.6989L12.9645 12.4891C13.109 12.1844 13.2692 11.8563 13.32 11.7586L13.4098 11.5867L13.5817 11.9539C13.6793 12.157 13.8356 12.4891 13.9254 12.6844Z" fill="black" fill-opacity="0.7"/>
<path d="M6.31993 2.32892C6.12462 2.43439 6.09337 2.55548 6.09337 3.20392V3.78986H5.00353C4.40587 3.78986 3.8629 3.80158 3.79259 3.81329C3.62853 3.84845 3.49181 3.98517 3.43321 4.17267C3.39415 4.30939 3.39806 4.36017 3.45665 4.51251C3.57774 4.83673 3.49962 4.82111 5.47618 4.84454L7.23009 4.86408L6.9254 5.1922L6.62071 5.52033L6.45275 5.3797C6.2379 5.20001 6.06603 5.16486 5.87071 5.25861C5.64806 5.36798 5.53478 5.56329 5.55821 5.79376C5.56993 5.91486 5.60509 6.01251 5.65978 6.07111L5.74962 6.16486L5.53087 6.30548C5.41368 6.3797 5.13634 6.53986 4.91759 6.65704C4.56212 6.85236 4.30821 6.97345 3.62462 7.27814C3.37071 7.39142 3.26915 7.54376 3.27306 7.79767C3.27306 8.0047 3.33165 8.11017 3.4879 8.20392C3.70274 8.33673 3.89025 8.30548 4.48009 8.04767C5.10509 7.77033 5.64415 7.47736 6.21056 7.10626C6.58556 6.86017 6.62853 6.84454 6.69884 6.89533C7.2379 7.28595 8.76134 8.10626 9.22228 8.25861C9.53868 8.36017 9.82775 8.23126 9.9215 7.9422C10.0074 7.68829 9.89025 7.43048 9.63634 7.30939C9.5465 7.27033 9.26525 7.13751 9.01134 7.02033C8.60509 6.82501 7.76525 6.35236 7.56212 6.20001C7.4879 6.14533 7.49571 6.1297 7.74962 5.85626C7.89415 5.69611 8.12071 5.40314 8.25353 5.20392L8.49181 4.84454H8.93712C9.43712 4.84454 9.58946 4.79767 9.69884 4.61407C9.7965 4.45001 9.78868 4.14142 9.67931 4.0047C9.52306 3.80158 9.43321 3.78986 8.22618 3.78986H7.1129L7.10118 3.16095L7.08946 2.53204L6.94493 2.39923C6.81993 2.28595 6.76915 2.26642 6.6129 2.26642C6.50743 2.27032 6.37853 2.29376 6.31993 2.32892Z" fill="black" fill-opacity="0.7"/>
</g>
<defs>
<clipPath id="clip0_538_551">
<rect width="20" height="20" fill="white"/>
</clipPath>
</defs>
</svg>
