<svg width="54" height="54" viewBox="0 0 54 54" fill="none" xmlns="http://www.w3.org/2000/svg">
<path d="M7.06641 0.20039C5.0625 0.84375 3.52266 2.43633 3.01641 4.39805C2.86875 4.96758 2.84766 7.05586 2.84766 23.4984C2.84766 36.4922 2.8793 42.1348 2.96367 42.525C3.17461 43.5269 3.75469 44.5711 4.52461 45.341C5.15742 45.9633 5.87461 46.4062 11.7598 49.8023C16.4531 52.4918 18.4992 53.6203 19.0266 53.7785C19.8914 54.0422 21.3891 54.0738 22.2539 53.8418C24.1523 53.3355 25.6922 51.9117 26.3461 50.0555C26.5887 49.391 26.6203 49.0957 26.6625 47.3766L26.7047 45.457H31.1555C33.8555 45.457 35.8594 45.4148 36.2391 45.341C36.5766 45.2777 37.2621 45.0457 37.7473 44.8031C39.3082 44.0543 40.4156 42.6937 40.8691 40.9746C40.9957 40.4684 41.0273 39.6246 41.0273 36.4184C41.0273 32.7586 41.0168 32.4527 40.827 32.0836C40.5844 31.5984 40.3418 31.377 39.8355 31.166C38.9391 30.7969 37.7895 31.1766 37.3043 32.0098C37.2199 32.1574 37.1566 33.4441 37.125 36.123C37.0617 40.5 37.0828 40.384 36.2496 41.0695L35.8383 41.3965L31.2609 41.4281L26.6941 41.4598L26.6625 27.9809L26.6309 14.502L26.3988 13.8059C26.093 12.9305 25.4918 12.0023 24.8273 11.3801C24.2473 10.8527 23.857 10.6102 17.1387 6.75C14.5863 5.28399 12.4559 4.03946 12.3926 3.98672C12.3398 3.93399 17.5605 3.91289 24.0047 3.92344L35.7117 3.95508L36.1547 4.25039C36.3973 4.4086 36.7031 4.73555 36.8297 4.98867C37.0723 5.42109 37.0723 5.51602 37.125 9.75586C37.1566 12.7617 37.2199 14.1434 37.3043 14.291C37.3676 14.407 37.5574 14.6285 37.7262 14.7867C38.5594 15.5777 39.9516 15.4301 40.6793 14.4809L40.9746 14.1012L41.0063 9.63984C41.0379 4.68281 41.0063 4.33477 40.3734 3.12188C39.9199 2.26758 38.7281 1.06524 37.916 0.664455C36.5238 -0.0421867 37.6102 0 21.8953 0.0105476C8.56406 0.0105476 7.6043 0.0210953 7.06641 0.20039Z" fill="#C60001"/>
<path d="M42.8414 15.5144C42.2824 15.7992 41.8922 16.3477 41.8078 17.0016C41.6918 17.8242 41.8922 18.1828 43.1683 19.4801L44.3285 20.6613L37.009 20.693C28.9195 20.7246 29.3625 20.693 28.7613 21.3996C27.9386 22.3805 28.234 23.9203 29.3414 24.4582C29.8054 24.6797 29.8898 24.6797 37.0722 24.6797H44.3285L43.1683 25.8715C41.966 27.0949 41.7656 27.443 41.7656 28.2129C41.7656 28.6242 42.0925 29.3098 42.43 29.6262C42.8308 29.9953 43.6218 30.1746 44.2547 30.0375C44.7504 29.932 44.9191 29.7844 47.7562 26.9578C49.4015 25.3336 50.8359 23.8148 50.9519 23.6039C51.2156 23.0977 51.2156 22.3383 50.9414 21.7898C50.6566 21.1887 45.1195 15.6727 44.5922 15.4512C44.0437 15.2297 43.3793 15.2508 42.8414 15.5144Z" fill="#C60001"/>
</svg>
