<svg width="20" height="21" viewBox="0 0 20 21" fill="none" xmlns="http://www.w3.org/2000/svg">
<path d="M7.29175 7.79166V6.22916C7.29175 5.81476 7.45637 5.41733 7.74939 5.1243C8.04242 4.83128 8.43985 4.66666 8.85425 4.66666H16.3542C16.7686 4.66666 17.1661 4.83128 17.4591 5.1243C17.7521 5.41733 17.9167 5.81476 17.9167 6.22916V15.6042C17.9167 16.0186 17.7521 16.416 17.4591 16.709C17.1661 17.002 16.7686 17.1667 16.3542 17.1667H8.85425C8.43985 17.1667 8.04242 17.002 7.74939 16.709C7.45637 16.416 7.29175 16.0186 7.29175 15.6042V14.0417M4.79175 7.79166L1.66675 10.9167M1.66675 10.9167L4.79175 14.0417M1.66675 10.9167H12.3308" stroke="#FA610E" stroke-width="1.5" stroke-linecap="round" stroke-linejoin="round"/>
</svg>
