<svg width="33" height="33" viewBox="0 0 33 33" fill="none" xmlns="http://www.w3.org/2000/svg">
<path d="M9.93003 2.73904C9.50103 3.82804 9.07203 4.05904 8.57703 3.46504C8.34603 3.20104 7.88403 2.97004 7.52103 2.97004C6.99303 2.97004 6.89403 3.16804 6.99303 4.02604C7.09203 4.98304 6.99303 5.11504 6.26703 5.14804C4.78203 5.21404 4.61703 5.28004 4.61703 5.74204C4.61703 5.97304 4.84803 6.36904 5.11203 6.60004C5.83803 7.22704 5.70603 7.82104 4.78203 8.05204C4.25403 8.18404 3.95703 8.48104 3.95703 8.87704C3.95703 9.27304 4.25403 9.57004 4.78203 9.70204C5.70603 9.93304 5.83803 10.593 5.11203 11.22C4.35303 11.847 4.68303 12.342 5.97003 12.54C6.96003 12.672 7.09203 12.804 6.99303 13.629C6.86103 14.751 7.68603 15.147 8.57703 14.355C9.30303 13.695 9.89703 13.926 9.89703 14.883C9.89703 15.873 11.349 15.609 11.481 14.586C11.613 13.728 12.108 13.662 12.9 14.388C13.791 15.213 14.55 14.751 14.451 13.464C14.352 12.441 14.385 12.375 15.441 12.474C16.299 12.573 16.497 12.474 16.497 11.913C16.497 11.55 16.365 11.154 16.167 11.055C15.573 10.692 15.804 10.032 16.662 9.63604C17.124 9.43804 17.487 9.04204 17.487 8.74504C17.487 8.48104 17.124 8.18404 16.662 8.05204C15.771 7.82104 15.606 7.29304 16.2 6.69904C16.893 6.00604 16.398 5.11504 15.342 5.11504C14.451 5.11504 14.352 5.01604 14.451 4.19104C14.55 3.10204 13.758 2.67304 12.933 3.39904C12.273 3.99304 11.679 3.76204 11.514 2.80504C11.316 1.81504 10.293 1.78204 9.93003 2.73904ZM12.57 5.11504C15.771 6.76504 15.474 11.418 12.108 12.705C10.92 13.167 10.524 13.167 9.40203 12.804C7.71903 12.243 6.59703 10.626 6.59703 8.77804C6.59703 5.70904 9.86403 3.72904 12.57 5.11504Z" fill="#333333"/>
<path d="M9.30446 7.65604C8.74346 8.21704 8.80946 9.43804 9.43646 10.032C10.7565 11.385 13.0335 9.80104 12.2745 8.08504C11.9775 7.45804 11.6475 7.26004 10.7895 7.26004C10.1955 7.26004 9.53546 7.42504 9.30446 7.65604Z" fill="#333333"/>
<path d="M22.5692 11.385C22.3382 12.309 21.7442 12.441 21.1172 11.715C20.8862 11.451 20.4902 11.22 20.2592 11.22C19.7972 11.22 19.7312 11.385 19.6652 12.87C19.6322 13.596 19.5002 13.695 18.5762 13.596C17.6852 13.497 17.4872 13.596 17.4872 14.124C17.4872 14.487 17.7182 14.949 17.9822 15.18C18.5762 15.675 18.3452 16.104 17.2562 16.533C16.2992 16.896 16.3322 17.919 17.3222 18.117C18.2792 18.282 18.5102 18.876 17.9162 19.536C17.1902 20.361 17.6192 21.153 18.7082 21.054C19.5332 20.955 19.6322 21.054 19.6322 21.945C19.6322 23.001 20.5232 23.496 21.2162 22.803C21.8102 22.209 22.3382 22.374 22.5692 23.265C22.8332 24.321 23.6582 24.321 24.1532 23.265C24.5492 22.407 25.2092 22.176 25.5722 22.77C25.6712 22.935 26.0672 23.1 26.4302 23.1C26.9912 23.1 27.0902 22.902 26.9912 22.011C26.8922 20.988 26.9582 20.955 27.9812 21.054C29.2682 21.153 29.7302 20.394 28.9052 19.503C28.1792 18.711 28.2452 18.216 29.1362 18.084C30.1262 17.952 30.3902 16.5 29.4002 16.5C28.4432 16.5 28.2122 15.906 28.8722 15.18C29.6642 14.289 29.2682 13.464 28.1462 13.596C27.3212 13.695 27.1892 13.563 27.0572 12.573C26.8592 11.286 26.3642 10.956 25.7372 11.715C25.1102 12.441 24.4502 12.309 24.2192 11.385C24.0872 10.857 23.7902 10.56 23.3942 10.56C22.9982 10.56 22.7012 10.857 22.5692 11.385ZM25.7702 13.959C27.3872 15.048 27.9152 16.83 27.2222 18.711C25.9682 22.011 21.6122 22.407 19.7972 19.371C17.4872 15.609 22.0742 11.451 25.7702 13.959Z" fill="#333333"/>
<path d="M22.1733 15.906C21.9423 16.137 21.7773 16.797 21.7773 17.391C21.7773 18.249 21.9753 18.579 22.6023 18.876C24.3183 19.635 25.9023 17.358 24.5493 16.038C23.9553 15.411 22.7343 15.345 22.1733 15.906Z" fill="#333333"/>
<path d="M8.90856 17.886C8.90856 18.117 8.77656 18.546 8.57856 18.81C8.34756 19.206 8.18256 19.206 7.62156 18.678C6.73056 17.853 5.93856 18.216 5.93856 19.47C5.93856 20.361 5.83956 20.46 4.94856 20.46C3.69456 20.46 3.33156 21.252 4.15656 22.143C4.68456 22.704 4.68456 22.869 4.28856 23.1C4.02456 23.298 3.59556 23.43 3.36456 23.43C2.57256 23.43 3.06756 24.915 3.89256 25.014C4.75056 25.146 4.84956 25.806 4.12356 26.4C3.23256 27.126 3.66156 27.885 4.94856 27.885C6.03756 27.885 6.10356 27.918 6.00456 28.974C5.90556 29.832 6.00456 30.03 6.53256 30.03C6.89556 30.03 7.35756 29.799 7.58856 29.535C8.08356 28.941 8.51256 29.172 8.94156 30.261C9.27156 31.185 9.83256 31.152 10.3606 30.162C10.5586 29.832 10.7566 29.469 10.8226 29.403C10.8556 29.337 11.2516 29.436 11.6806 29.667C12.7696 30.261 13.3636 29.964 13.3636 28.842C13.3636 28.017 13.4956 27.885 14.3206 27.885C15.4426 27.885 15.7396 27.291 15.1456 26.202C14.9146 25.773 14.8156 25.377 14.8816 25.344C14.9476 25.278 15.3106 25.08 15.6406 24.882C16.6306 24.354 16.6636 23.793 15.7396 23.463C14.6506 23.034 14.4196 22.605 15.0136 22.11C15.2776 21.879 15.5086 21.417 15.5086 21.054C15.5086 20.526 15.3106 20.427 14.4526 20.526C13.3966 20.625 13.3636 20.559 13.4626 19.536C13.5616 18.249 12.8026 17.787 11.9116 18.612C11.1196 19.338 10.6246 19.272 10.4926 18.381C10.3936 17.589 8.90856 17.094 8.90856 17.886ZM10.9876 20.262C14.3536 21.681 14.7826 25.872 11.7796 27.753C8.77656 29.634 4.68456 26.598 5.60856 23.133C5.97156 21.813 6.96156 20.691 8.24856 20.163C9.37056 19.734 9.76656 19.734 10.9876 20.262Z" fill="#333333"/>
<path d="M8.31372 22.836C7.78572 23.364 7.81872 24.915 8.37972 25.377C8.64372 25.608 9.36972 25.74 9.96372 25.674C10.9207 25.575 11.0527 25.443 11.1517 24.486C11.2177 23.892 11.0857 23.166 10.8547 22.902C10.3927 22.341 8.84172 22.308 8.31372 22.836Z" fill="#333333"/>
</svg>
