<svg width="24" height="22" viewBox="0 0 24 22" fill="none" xmlns="http://www.w3.org/2000/svg">
<path d="M10.5234 0.851735C8.79375 1.06267 6.94687 1.72361 5.54531 2.63298C5.03906 2.96111 4.88906 3.10173 4.85156 3.27048C4.80937 3.46736 4.85625 3.57048 5.0625 3.71111C5.29219 3.87048 5.42812 3.85173 5.775 3.61736C5.91094 3.5283 6.0375 3.4533 6.05156 3.4533C6.09844 3.4533 7.22812 5.42205 7.20937 5.46423C7.2 5.48767 6.98437 5.66111 6.72656 5.8533C6.13594 6.28923 5.45156 6.98298 5.01094 7.57361L4.67344 8.03298L3.7125 7.47986C3.18281 7.17517 2.72812 6.9033 2.7 6.87517C2.65781 6.83298 2.72344 6.72048 3.25781 5.9658C3.44062 5.71267 3.45937 5.59548 3.34219 5.35642C3.19219 5.03298 2.82187 5.0283 2.55 5.34705C2.23594 5.70798 1.58906 6.73455 1.26562 7.38142C0.815625 8.27673 0.58125 8.91423 0.328125 9.92205C0.065625 10.9814 0.0234375 11.3752 0.0234375 12.7814C0.028125 14.1689 0.084375 14.6845 0.351562 15.7299C0.679687 17.0142 1.37344 18.6033 1.83281 19.1283C2.21719 19.5595 2.7 19.7986 3.28125 19.8455C4.5 19.9345 5.53125 18.9642 5.53125 17.7267C5.53125 17.333 5.44687 17.0705 5.09062 16.3439C4.64062 15.4252 4.40625 14.6799 4.28437 13.7705C3.77812 9.93611 6.3 6.2283 10.0781 5.25798C11.2594 4.9533 12.7406 4.9533 13.9219 5.25798C15.0797 5.5533 16.2562 6.18142 17.1422 6.97361C19.0641 8.68923 20.0156 11.1549 19.7297 13.672C19.6781 14.1267 19.6687 14.1455 19.5703 14.122C19.2937 14.0517 14.8875 12.3595 14.8547 12.308C14.8359 12.2799 14.8078 12.1674 14.7937 12.0642C14.7141 11.5861 14.2219 10.8455 13.7344 10.4799C13.1719 10.0533 12.6469 9.9033 11.8594 9.93142C11.3953 9.95017 11.2687 9.97361 10.9453 10.1002C9.82969 10.5408 9.13594 11.558 9.13125 12.758C9.12656 13.6017 9.38437 14.2486 9.96094 14.8205C10.5375 15.397 11.175 15.6595 12 15.6595C12.7828 15.6595 13.4062 15.4158 13.9922 14.8814L14.2969 14.6002L16.7953 15.008C18.1641 15.233 19.2937 15.4205 19.2984 15.4252C19.3219 15.4486 19.0687 16.0392 18.8344 16.5033C18.5531 17.0611 18.4687 17.3424 18.4687 17.7267C18.4687 18.3314 18.7125 18.8892 19.1437 19.2877C20.0297 20.0939 21.375 20.0283 22.1578 19.1424C22.6266 18.608 23.3203 17.0236 23.6484 15.7299C23.9203 14.6705 23.9719 14.1736 23.9719 12.758C23.9719 11.6002 23.9625 11.3752 23.8687 10.8595C23.3156 7.83142 21.8906 5.35642 19.6172 3.47673C17.8687 2.03298 15.7312 1.12361 13.4531 0.847047C12.7969 0.772047 11.1703 0.772047 10.5234 0.851735ZM11.5312 2.8908V4.05798L11.3812 4.08142C11.2969 4.09548 11.1 4.11892 10.9453 4.13298C10.1859 4.21267 9.15469 4.49861 8.40937 4.83611C8.20781 4.92986 8.02969 4.98611 8.01562 4.96736C7.95 4.89236 6.89062 3.03142 6.89062 2.98923C6.89062 2.86736 8.58281 2.20642 9.35156 2.02361C10.0453 1.86423 10.8797 1.73767 11.3344 1.72361L11.5312 1.71892V2.8908ZM13.1625 1.7658C14.0062 1.85955 14.7141 2.01423 15.5344 2.28611C16.125 2.48767 17.1094 2.92361 17.1094 2.98923C17.1094 3.03142 16.05 4.89236 15.9844 4.96736C15.9703 4.98611 15.7922 4.92986 15.5906 4.83611C14.8453 4.49861 13.8141 4.21267 13.0547 4.13298C12.9 4.11892 12.7031 4.09548 12.6234 4.08142L12.4687 4.05798V2.8908V1.71892H12.5859C12.6516 1.71892 12.9094 1.74236 13.1625 1.7658ZM18.2344 3.62673C19.2609 4.31111 20.4937 5.54861 21.1687 6.5658L21.3516 6.84236L21.2391 6.91736C21.1781 6.95955 20.7187 7.22673 20.2266 7.51267L19.3266 8.03298L18.9891 7.5783C18.5484 6.98298 17.8641 6.28923 17.2734 5.8533C17.0156 5.66111 16.8 5.48767 16.7906 5.46423C16.7719 5.41736 17.9016 3.4533 17.9437 3.4533C17.9625 3.4533 18.0937 3.53298 18.2344 3.62673ZM3.21094 8.23923C3.75469 8.54861 4.2 8.81111 4.20937 8.82048C4.21406 8.82517 4.14844 8.99861 4.05469 9.20017C3.69375 9.99236 3.39375 11.1174 3.3 12.0408L3.27656 12.3127H2.10469H0.932812L0.960937 11.9236C1.03594 10.9767 1.26562 9.93611 1.59844 9.01736C1.79531 8.46892 2.15156 7.67205 2.19844 7.67205C2.2125 7.67205 2.67187 7.92517 3.21094 8.23923ZM22.0406 8.12673C22.5797 9.28455 22.9359 10.6392 23.0391 11.9236L23.0672 12.3127H21.8953H20.7234L20.7 12.0408C20.6062 11.1174 20.3062 9.99236 19.9453 9.20017C19.8516 8.99861 19.7859 8.82517 19.7906 8.82048C19.8281 8.78298 21.7781 7.67205 21.8016 7.67205C21.8156 7.67205 21.9234 7.8783 22.0406 8.12673ZM12.5203 10.9252C12.8156 11.0142 13.0172 11.122 13.2516 11.3142C13.4297 11.4595 13.7344 11.8533 13.7344 11.9424C13.7344 11.9611 13.4016 11.8486 12.9984 11.6939C12.3984 11.4642 12.2016 11.408 11.9766 11.408C11.4844 11.4033 11.0156 11.6986 10.7812 12.158C10.6828 12.3455 10.6641 12.4486 10.6641 12.8049C10.6641 13.1845 10.6781 13.2502 10.8047 13.4799C10.9594 13.7611 11.2687 14.0236 11.5266 14.0939C11.6203 14.1174 11.9906 14.183 12.3516 14.2392C12.7125 14.2955 13.0266 14.3564 13.0453 14.3752C13.0687 14.3939 12.9609 14.4736 12.8109 14.5439C12.5578 14.6705 12.4969 14.6799 12 14.6799C11.5031 14.6799 11.4375 14.6705 11.1937 14.5486C10.7812 14.347 10.4812 14.047 10.2797 13.6345C10.1062 13.2924 10.1016 13.2595 10.1016 12.7814C10.1016 12.3267 10.1109 12.2658 10.2469 11.9799C10.4859 11.4783 10.9266 11.0986 11.4562 10.9299C11.7187 10.8455 12.2578 10.8455 12.5203 10.9252ZM14.1844 13.1189C15.3562 13.5642 16.3031 13.9345 16.2797 13.9392C16.2609 13.9439 15.2344 13.7845 14.0016 13.583C11.5219 13.1799 11.5922 13.2033 11.5453 12.8377C11.5219 12.6642 11.5359 12.6267 11.6859 12.4767C11.775 12.3877 11.8922 12.3127 11.9484 12.3127C12 12.3127 13.0078 12.6783 14.1844 13.1189ZM3.28125 13.3299C3.28594 13.5408 3.42656 14.4502 3.51094 14.8017C3.66094 15.4299 3.92344 16.133 4.24687 16.7845C4.41562 17.1174 4.56094 17.4783 4.57969 17.5908C4.64062 18.0455 4.3875 18.5283 3.96094 18.7674C3.76875 18.8752 3.67031 18.8986 3.42187 18.8939C2.84531 18.8892 2.55469 18.6361 2.10937 17.7502C1.5 16.5314 1.14844 15.3549 0.984375 13.9533C0.960937 13.7377 0.9375 13.4892 0.9375 13.4049V13.2502H2.10937C3.19219 13.2502 3.28125 13.2549 3.28125 13.3299ZM23.0437 13.6814C22.9359 15.0361 22.5469 16.433 21.9281 17.6799C21.6328 18.2705 21.5109 18.472 21.3516 18.608C20.9859 18.9314 20.4469 18.9924 20.0297 18.7627C19.6125 18.533 19.3594 18.0455 19.4203 17.5908C19.4391 17.4783 19.5844 17.1127 19.7484 16.7799C19.9125 16.447 20.1 16.0345 20.1609 15.8564L20.2734 15.5424L20.5078 15.5799C20.9578 15.6502 21.1406 15.6267 21.2625 15.4861C21.4172 15.3033 21.4172 15.0361 21.2578 14.8814C21.1969 14.8205 21.0234 14.7267 20.8781 14.6752C20.7328 14.6283 20.6016 14.558 20.5875 14.5252C20.5781 14.4924 20.5875 14.3142 20.6156 14.1267C20.6437 13.9392 20.6812 13.6674 20.6953 13.5174L20.7234 13.2502H21.9H23.0766L23.0437 13.6814Z" fill="#151515"/>
<path d="M3.58126 4.20763C3.32813 4.3342 3.28126 4.76545 3.49688 4.9342C3.76876 5.15451 4.12032 5.0842 4.24688 4.7842C4.31251 4.62482 4.31251 4.60138 4.20938 4.39513C4.10626 4.18888 4.0922 4.17951 3.89063 4.17013C3.77345 4.16545 3.63282 4.1842 3.58126 4.20763Z" fill="#151515"/>
<path d="M8.19845 6.44866C7.85627 6.79554 8.18439 7.39085 8.65314 7.26897C8.87814 7.21272 9.00939 7.0346 9.01877 6.78147C9.02814 6.36429 8.49845 6.14866 8.19845 6.44866Z" fill="#151515"/>
<path d="M15.1313 6.44856C15 6.56574 14.9766 6.61731 14.9813 6.78137C14.9906 7.02981 15.1219 7.21262 15.3422 7.26887C15.8156 7.39074 16.1484 6.80012 15.8016 6.44856C15.6094 6.26106 15.3422 6.25637 15.1313 6.44856Z" fill="#151515"/>
<path d="M4.72968 12.4485C4.43437 12.7485 4.63593 13.2642 5.05312 13.2642C5.30156 13.2642 5.46093 13.1563 5.53125 12.9454C5.64375 12.6032 5.42812 12.3126 5.0625 12.3126C4.90781 12.3126 4.8375 12.3407 4.72968 12.4485Z" fill="#151515"/>
<path d="M18.5953 12.4248C18.3375 12.6639 18.4078 13.0951 18.7266 13.2311C19.0875 13.3811 19.4062 13.1561 19.4062 12.7576C19.4062 12.3686 18.8859 12.1576 18.5953 12.4248Z" fill="#151515"/>
<path d="M8.94374 17.45C8.87343 17.4875 8.79374 17.5578 8.76561 17.6094C8.70468 17.7266 8.70468 19.5078 8.76561 19.6297C8.89218 19.8594 8.8828 19.8594 12 19.8594C15.1172 19.8594 15.1078 19.8594 15.2344 19.6297C15.2625 19.5734 15.2812 19.1609 15.2812 18.6172C15.2812 18.0734 15.2625 17.6609 15.2344 17.6047C15.1078 17.375 15.1172 17.375 11.9906 17.375C9.50624 17.3797 9.05155 17.3891 8.94374 17.45ZM14.3437 18.6172V18.9219H12H9.65624V18.6172V18.3125H12H14.3437V18.6172Z" fill="#151515"/>
<path d="M10.1156 20.3517C10.0453 20.3892 9.96562 20.4642 9.9375 20.5158C9.86718 20.6424 9.88125 20.947 9.96093 21.0595C10.0547 21.2002 10.2797 21.2799 10.4672 21.247C10.8516 21.1767 10.9828 20.6658 10.6875 20.3986C10.5656 20.2908 10.2703 20.2627 10.1156 20.3517Z" fill="#151515"/>
<path d="M11.4469 20.375C11.3484 20.4359 11.2828 20.5203 11.2687 20.6094C11.2125 20.8906 11.2641 21.0594 11.4469 21.1719C11.5875 21.2562 11.6859 21.2656 12.6703 21.2656C13.5328 21.2656 13.7672 21.2516 13.875 21.1953C14.0484 21.1062 14.1094 20.9937 14.1094 20.7734C14.1094 20.5531 14.0484 20.4406 13.875 20.3516C13.7672 20.2953 13.5328 20.2812 12.6703 20.2812C11.6859 20.2812 11.5875 20.2906 11.4469 20.375Z" fill="#151515"/>
<path d="M20.7141 13.5172C20.7141 13.6438 20.6859 13.911 20.6531 14.1172C20.6156 14.3235 20.5969 14.5063 20.6063 14.5203C20.6156 14.5391 20.7516 14.6 20.9063 14.6563C21.2766 14.7969 21.4406 14.9797 21.4078 15.2282C21.3609 15.5891 21.1313 15.711 20.6531 15.6313C20.4656 15.5985 20.325 15.5985 20.3016 15.6219C20.2781 15.6453 20.1984 15.8375 20.1141 16.0485C20.0344 16.2594 19.8609 16.6438 19.725 16.9063C19.4859 17.361 19.4766 17.3938 19.4766 17.7453C19.4766 18.0688 19.4906 18.1344 19.6172 18.3407C19.9969 18.9453 20.8734 19.0485 21.375 18.5469C21.5813 18.3407 22.1156 17.286 22.3828 16.5547C22.6969 15.711 22.9453 14.5813 23.0016 13.7282L23.0297 13.2969H21.8766H20.7188L20.7141 13.5172Z" fill="#EC4040"/>
<path d="M17.3906 4.44238C17.0953 4.95801 16.8468 5.39863 16.8375 5.42207C16.8281 5.44551 17.0297 5.61426 17.2828 5.80176C17.8453 6.21895 18.6234 6.99707 19.0312 7.55957L19.3359 7.98145L20.25 7.45176C20.7515 7.15645 21.1968 6.90332 21.2297 6.87988C21.2906 6.84238 21.2765 6.80488 21.164 6.63145C20.7047 5.93301 19.7625 4.8877 19.0734 4.31582C18.7218 4.02051 18.0093 3.5002 17.9578 3.5002C17.9437 3.5002 17.6859 3.92207 17.3906 4.44238Z" fill="#EC9640"/>
<path d="M20.9062 8.21562C20.4281 8.4875 19.9922 8.74531 19.9359 8.77812L19.8281 8.84375L19.95 9.11562C20.3109 9.90312 20.5781 10.8078 20.6719 11.5625C20.7 11.8062 20.7375 12.0781 20.7469 12.1578L20.7703 12.3125H21.9H23.025L22.9969 11.9C22.9266 11.0047 22.6875 9.90312 22.3828 9.05469C22.2047 8.55781 21.8344 7.72344 21.7969 7.71875C21.7828 7.71875 21.3844 7.94375 20.9062 8.21562Z" fill="#EC9640"/>
<path d="M11.8313 12.3596C11.6766 12.4205 11.5781 12.5939 11.5781 12.7955C11.5781 13.0439 11.6438 13.1471 11.85 13.2033C12.0703 13.2643 16.0781 13.9158 16.1297 13.8971C16.1672 13.883 12.1922 12.3736 12.0234 12.3361C11.9719 12.3268 11.8828 12.3361 11.8313 12.3596Z" fill="#6B6B6B"/>
<path d="M5.77501 3.66426C5.46095 3.8752 5.30626 3.90801 5.1047 3.8002C5.01564 3.75332 4.92658 3.71582 4.89845 3.71113C4.85158 3.71113 4.70626 3.81895 4.51408 4.00176C4.45314 4.0627 4.38283 4.10957 4.36408 4.10957C4.34064 4.10957 4.29845 4.14238 4.26564 4.17988C4.21408 4.24082 4.21408 4.27363 4.26564 4.36738C4.39689 4.61113 4.31251 4.93457 4.0922 5.05176C3.95158 5.12676 3.6797 5.12207 3.58595 5.04707C3.5297 5.0002 3.49689 5.0002 3.43595 5.05176C3.29533 5.15957 3.28126 5.20645 3.35626 5.28613C3.39845 5.33301 3.44064 5.4502 3.4547 5.54863C3.47345 5.69863 3.45001 5.76426 3.31408 5.96113C2.8547 6.6127 2.70939 6.83301 2.72345 6.85176C2.73283 6.86113 3.17814 7.11895 3.70783 7.42363L4.66876 7.98145L4.81876 7.76113C5.2547 7.10488 5.99064 6.34551 6.74064 5.7877C6.9797 5.60488 7.17189 5.44082 7.16251 5.42207C7.1297 5.32363 6.06564 3.5002 6.04689 3.5002C6.03283 3.5002 5.91095 3.5752 5.77501 3.66426Z" fill="#ECEC6B"/>
<path d="M0.984375 13.5171C0.984375 13.8546 1.14844 14.8999 1.28438 15.4343C1.6125 16.7374 2.25938 18.1718 2.69531 18.5749C3.40781 19.2358 4.54688 18.6921 4.54688 17.6936C4.54688 17.5296 4.48125 17.3468 4.24688 16.878C3.72188 15.814 3.44063 14.928 3.32813 13.9671C3.3 13.714 3.2625 13.4608 3.25313 13.3999L3.23438 13.2968H2.10938H0.984375V13.5171Z" fill="#15C1C1"/>
<path d="M1.98284 8.15469C1.45784 9.28906 1.09221 10.6859 1.00315 11.8766L0.970337 12.3125H2.10471H3.2344L3.25315 12.2047C3.26721 12.1484 3.28596 11.9703 3.30002 11.8062C3.36565 11.0703 3.66565 9.97812 4.01252 9.20469C4.10627 9.00312 4.1719 8.82969 4.16252 8.825C4.06877 8.75937 2.23596 7.71875 2.21252 7.71875C2.19377 7.72344 2.09065 7.91562 1.98284 8.15469Z" fill="#96ECC1"/>
<path d="M9.65625 18.6172V18.875H12H14.3438V18.6172V18.3594H12H9.65625V18.6172Z" fill="#96ECC1"/>
<path d="M11.7328 10.9108C11.3766 10.9577 10.9312 11.1827 10.6594 11.4545C9.74062 12.3733 10.0031 13.9295 11.175 14.492C11.7328 14.7592 12.3328 14.7545 12.8719 14.478L13.0406 14.3936L12.2766 14.2623C11.4 14.117 11.1469 14.0092 10.8891 13.6764C10.2047 12.7764 10.7906 11.4498 11.9109 11.3842C12.1922 11.3655 12.2766 11.3889 12.9328 11.6327C13.3219 11.7827 13.6547 11.8952 13.6641 11.8811C13.6734 11.8717 13.5984 11.7592 13.5 11.628C13.1016 11.103 12.4078 10.8217 11.7328 10.9108Z" fill="#ECECEC"/>
</svg>
