<svg width="18" height="18" viewBox="0 0 18 18" fill="none" xmlns="http://www.w3.org/2000/svg">
<path d="M11.9867 0.228714C11.8191 0.297092 11.8055 0.365471 11.6584 1.78091C11.5046 3.28524 11.508 3.2955 11.7234 3.40148C11.8123 3.44251 11.8704 3.44593 11.9627 3.422C12.2089 3.36046 12.2089 3.35362 12.3627 1.85954C12.4824 0.693688 12.4961 0.49539 12.4551 0.403079C12.3833 0.228714 12.1781 0.153497 11.9867 0.228714Z" fill="black" fill-opacity="0.7"/>
<path d="M6.68718 2.53638C6.42734 2.60817 6.24614 2.70732 6.07861 2.87827C5.95895 2.99451 5.82561 3.23726 5.41876 4.06464C5.14182 4.63218 4.51616 5.90061 4.03067 6.87842L3.15201 8.65627L2.29385 9.23748C1.66819 9.66143 1.38442 9.87341 1.24082 10.0307C0.522846 10.8136 0.47498 11.9555 1.11774 12.8581C1.39809 13.2479 1.79127 13.5385 2.24599 13.6855C2.46822 13.7573 2.59472 13.7778 2.88191 13.7812C3.2956 13.7847 3.51099 13.7402 3.8734 13.5727C4.11614 13.4633 4.12982 13.4599 4.17427 13.518C4.1982 13.5522 4.75207 14.3625 5.40166 15.3232C6.67351 17.2036 6.79659 17.3575 7.18635 17.5387C7.8633 17.8566 8.69068 17.5592 9.01548 16.8788C9.11462 16.6702 9.12146 16.6292 9.12146 16.2805C9.12146 15.9454 9.11121 15.8839 9.03257 15.7164C8.98129 15.6138 8.44793 14.8001 7.8462 13.9112C7.24447 13.0257 6.75898 12.2974 6.76582 12.2974C6.80001 12.2974 11.0463 11.9555 11.4805 11.9179C12.0412 11.8701 12.2224 11.8017 12.4891 11.5555C12.8584 11.2136 13.0361 10.7247 13.0361 10.0409C13.0361 9.17936 12.7968 8.2836 12.2806 7.21006C11.2822 5.12451 9.62405 3.33982 8.11288 2.71416C7.5932 2.49877 7.0701 2.43381 6.68718 2.53638ZM7.48038 3.25435C7.80176 3.33641 8.40349 3.65437 8.81376 3.95865C10.2634 5.03903 11.7438 7.2169 12.1643 8.88192C12.3558 9.6375 12.3558 10.229 12.1643 10.6529C12.0549 10.8922 11.9387 11.0153 11.7233 11.1247C11.5045 11.2341 11.3096 11.2341 10.9608 11.1179C8.91975 10.4341 6.42734 6.96047 6.27691 4.58774C6.24272 3.99284 6.34529 3.62018 6.60513 3.40478C6.84445 3.20307 7.10087 3.15862 7.48038 3.25435ZM5.94186 6.31088C6.58803 8.14684 8.05476 10.1401 9.50097 11.1418C9.7061 11.2854 9.74371 11.3265 9.69584 11.3435C9.66165 11.3572 9.30267 11.3914 8.89923 11.4222C8.4958 11.453 7.68893 11.5145 7.10429 11.5624C6.52307 11.6068 5.97604 11.6478 5.89741 11.6547L5.74698 11.6615L4.79993 10.2632L3.84947 8.86482L4.59821 7.3434C5.01191 6.50576 5.41192 5.68179 5.49056 5.51768L5.63073 5.2134L5.72304 5.58606C5.77433 5.78778 5.87348 6.116 5.94186 6.31088ZM4.22897 10.7042C4.67343 11.3606 5.04268 11.9077 5.04609 11.9248C5.04951 11.9384 4.7213 12.1778 4.31786 12.4513C3.45629 13.0359 3.30244 13.1009 2.83063 13.0769C2.58788 13.0633 2.50583 13.0428 2.28702 12.9368C1.61007 12.5983 1.23056 11.7846 1.44254 11.1042C1.58955 10.6324 1.73315 10.4888 2.65626 9.85631C3.26483 9.44262 3.34347 9.40159 3.37766 9.45288C3.40159 9.48365 3.78451 10.0478 4.22897 10.7042ZM7.12139 14.1129C7.77099 15.0736 8.33169 15.9147 8.36588 15.983C8.44451 16.1369 8.45135 16.4138 8.37614 16.5574C8.29066 16.7249 8.10946 16.8788 7.93167 16.9301C7.64107 17.0156 7.36755 16.9096 7.16241 16.6292C7.09062 16.5335 6.51282 15.6856 5.8769 14.7454C5.00165 13.4564 4.73155 13.0325 4.76574 13.012C4.79309 12.9983 5.01532 12.8479 5.25807 12.6804C5.6068 12.4376 5.72988 12.3726 5.82219 12.3692H5.94186L7.12139 14.1129Z" fill="black" fill-opacity="0.7"/>
<path d="M8.45421 5.80235C8.21146 5.83312 8.04052 5.88783 7.79435 6.01775C7.49349 6.17502 7.41143 6.41092 7.58238 6.61606C7.72256 6.78017 7.82854 6.78359 8.15334 6.63315C8.40292 6.52033 8.46788 6.50323 8.69353 6.50323C9.13116 6.50323 9.47305 6.71179 9.68844 7.10839C9.79443 7.30668 9.80469 7.34771 9.80469 7.61439C9.80469 7.99389 9.71237 8.19219 9.39441 8.51357C9.16876 8.7358 9.16534 8.74947 9.18244 8.88281C9.21663 9.13239 9.43886 9.27257 9.66109 9.19052C9.79443 9.13923 10.1192 8.82811 10.2491 8.62297C10.4235 8.35288 10.509 8.07936 10.5295 7.73405C10.6013 6.57161 9.62348 5.66218 8.45421 5.80235Z" fill="black" fill-opacity="0.7"/>
<path d="M15.7881 2.75594C15.6376 2.81748 13.3572 4.3389 13.2922 4.42096C13.1897 4.55088 13.2034 4.7526 13.3196 4.86884C13.3948 4.94747 13.4427 4.96457 13.576 4.96457C13.7264 4.96115 13.8017 4.92012 14.8991 4.19873C15.5385 3.7782 16.1026 3.39528 16.1539 3.34741C16.4377 3.08074 16.1471 2.61234 15.7881 2.75594Z" fill="black" fill-opacity="0.7"/>
<path d="M13.9932 6.52364C13.7847 6.6057 13.7163 6.90998 13.8667 7.08777C13.942 7.17666 14.0138 7.19376 15.33 7.42966C16.0891 7.56984 16.7763 7.68266 16.8583 7.68266C16.978 7.68266 17.0258 7.66215 17.1079 7.58351C17.2652 7.42282 17.231 7.13905 17.0395 7.03648C16.9916 7.00913 14.1505 6.48262 14.0958 6.48946C14.0856 6.48946 14.0411 6.50655 13.9932 6.52364Z" fill="black" fill-opacity="0.7"/>
</svg>
