<svg width="112" height="112" viewBox="0 0 112 112" fill="none" xmlns="http://www.w3.org/2000/svg">
<path d="M2.81764 0.875542C1.1819 1.26617 0.132096 3.14605 0.620377 4.85503C0.766862 5.44097 13.9749 18.771 53.5257 58.3218C97.3489 102.145 106.358 111.056 107.066 111.203C109.58 111.74 111.607 109.665 110.923 107.199C110.777 106.686 95.8352 91.5982 57.9202 53.6587C28.8675 24.6304 4.91725 0.875542 4.69753 0.875542C4.4778 0.875542 4.16042 0.826714 3.9651 0.777885C3.79421 0.729057 3.28151 0.777885 2.81764 0.875542Z" fill="#E74141"/>
<path d="M51.7783 4.0713C43.3799 5.04786 35.6406 8.7588 29.8057 14.6426L28.6094 15.8389L64.3516 51.5811L100.069 87.2988H101.339C102.047 87.2988 102.633 87.25 102.633 87.2012C102.633 87.1279 101.168 84.1494 99.3857 80.5361C93.1113 67.8897 92.4033 64.667 92.3789 48.8467C92.3789 43.4756 92.2568 38.0557 92.1348 36.8106C91.6221 31.9033 90.6211 28.5342 88.3506 23.9443C86.5195 20.2822 84.7129 17.7432 81.71 14.7158C73.9219 6.80567 62.667 2.80177 51.7783 4.0713Z" fill="#19B65B"/>
<path d="M19.8254 33.8801C19.3616 35.7111 19.1662 39.9104 19.1662 48.6506C19.1662 59.466 18.9709 61.9562 17.7258 66.8146C16.6516 71.0627 15.7483 73.3088 12.1838 80.4865C10.3772 84.1486 8.93675 87.1516 8.98558 87.2004C9.03441 87.2492 23.6584 87.2736 41.4563 87.2492L73.8537 87.176L46.9006 60.2228C22.8772 36.1994 19.9475 33.343 19.8254 33.8801Z" fill="#19B65B"/>
<path d="M38.0996 94.7422C39.418 99.7959 43.2266 104.264 48.1338 106.534C50.7949 107.755 52.626 108.146 55.7754 108.146C59.1689 108.146 60.8779 107.73 63.9541 106.241C68.3975 104.044 71.6689 100.235 73.207 95.499C73.5732 94.4492 73.8418 93.5459 73.8418 93.4971C73.8418 93.4482 65.7119 93.3994 55.7998 93.3994H37.7578L38.0996 94.7422Z" fill="#19B65B"/>
</svg>
