<svg width="20" height="21" viewBox="0 0 20 21" fill="none" xmlns="http://www.w3.org/2000/svg">
<path d="M14.1665 18H5.83317C2.49984 18 1.6665 17.1667 1.6665 13.8333V7.16667C1.6665 3.83333 2.49984 3 5.83317 3H14.1665C17.4998 3 18.3332 3.83333 18.3332 7.16667V13.8333C18.3332 17.1667 17.4998 18 14.1665 18Z" stroke="black" stroke-opacity="0.7" stroke-linecap="round" stroke-linejoin="round"/>
<path d="M11.6665 7.16667H15.8332" stroke="black" stroke-opacity="0.7" stroke-linecap="round" stroke-linejoin="round"/>
<path d="M12.5 10.5H15.8333" stroke="black" stroke-opacity="0.7" stroke-linecap="round" stroke-linejoin="round"/>
<path d="M14.1665 13.8333H15.8332" stroke="black" stroke-opacity="0.7" stroke-linecap="round" stroke-linejoin="round"/>
<path d="M7.08353 9.90833C7.91656 9.90833 8.59186 9.23302 8.59186 8.4C8.59186 7.56697 7.91656 6.89166 7.08353 6.89166C6.2505 6.89166 5.5752 7.56697 5.5752 8.4C5.5752 9.23302 6.2505 9.90833 7.08353 9.90833Z" stroke="black" stroke-opacity="0.7" stroke-linecap="round" stroke-linejoin="round"/>
<path d="M9.99984 14.1083C9.88317 12.9 8.92484 11.95 7.7165 11.8417C7.29984 11.8 6.87484 11.8 6.44984 11.8417C5.2415 11.9583 4.28317 12.9 4.1665 14.1083" stroke="black" stroke-opacity="0.7" stroke-linecap="round" stroke-linejoin="round"/>
</svg>
