<svg width="55" height="54" viewBox="0 0 55 54" fill="none" xmlns="http://www.w3.org/2000/svg">
<path d="M36.4963 5.73754C33.1318 6.3809 30.358 8.43754 28.8815 11.3801C25.5381 18.0352 29.8307 25.9348 37.2135 26.7047C40.7678 27.0844 44.3643 25.5973 46.5475 22.8551C47.4018 21.7899 48.2982 19.9969 48.5936 18.7735C49.9857 13.0465 46.5369 7.31957 40.8416 5.89574C39.7342 5.62153 37.5404 5.53715 36.4963 5.73754ZM35.199 10.8106C35.3467 10.895 36.1061 11.6016 36.8865 12.3821L38.2998 13.8059L39.8397 12.2977C41.0947 11.0637 41.4639 10.7579 41.8225 10.6629C43.0565 10.3254 44.1744 11.4434 43.8369 12.6774C43.742 13.036 43.4361 13.4051 42.2022 14.6602L40.694 16.2L42.1178 17.6133C42.8982 18.3938 43.626 19.1743 43.7104 19.3536C44.1111 20.0918 43.8158 21.136 43.1092 21.5579C42.719 21.7793 41.8963 21.811 41.5166 21.6211C41.3795 21.5473 40.599 20.8301 39.7869 20.0286L38.2998 18.5625L36.9393 19.9442C35.315 21.5684 35.0514 21.7477 34.3553 21.7477C33.4061 21.7477 32.7522 21.1043 32.7522 20.1551C32.7522 19.8809 32.8049 19.5329 32.8787 19.3957C32.9525 19.2586 33.6697 18.4782 34.4713 17.6661L35.9373 16.1789L34.5557 14.8184C32.9314 13.1942 32.7522 12.9305 32.7522 12.2344C32.7522 10.9477 34.0389 10.1989 35.199 10.8106Z" fill="#F44336"/>
<path d="M36.7812 12.3609C38.0996 13.7109 38.2578 13.8691 38.2578 13.7848C38.2578 13.7742 37.6039 13.1203 36.8129 12.3398L35.3574 10.916L36.7812 12.3609Z" fill="#EC6B6B"/>
<path d="M39.7344 12.4137L38.3105 13.8691L39.766 12.4453C41.1055 11.127 41.2637 10.9688 41.1793 10.9688C41.1687 10.9688 40.5148 11.6227 39.7344 12.4137Z" fill="#EC6B6B"/>
<path d="M42.0547 14.734L40.6309 16.1895L42.0863 14.7656C42.8773 13.9852 43.5312 13.3313 43.5312 13.3207C43.5312 13.2363 43.373 13.3945 42.0547 14.734Z" fill="#EC6B6B"/>
<path d="M34.5137 17.6344L33.0371 19.1426L34.5453 17.666C35.9375 16.2949 36.0957 16.1367 36.0113 16.1367C36.0008 16.1367 35.3258 16.8117 34.5137 17.6344Z" fill="#EC6B6B"/>
<path d="M42.0547 17.6344C43.373 18.9844 43.5312 19.1426 43.5312 19.0582C43.5312 19.0477 42.8773 18.3938 42.0863 17.6133L40.6309 16.1895L42.0547 17.6344Z" fill="#EC6B6B"/>
<path d="M36.834 19.9547L35.3574 21.4629L36.8656 19.9863C37.6883 19.1742 38.3633 18.4992 38.3633 18.4887C38.3633 18.4043 38.2051 18.5625 36.834 19.9547Z" fill="#EC6B6B"/>
<path d="M11.859 3.49106C11.5848 3.53325 11.1523 3.69145 10.9098 3.8391C10.6672 3.97621 9.57031 4.99926 8.46289 6.10668L6.45898 8.12114L12.1016 13.7637C17.3012 18.9633 17.7547 19.3852 17.8391 19.1743C17.9023 19.0372 18.5984 17.8348 19.3895 16.4954C20.9187 13.9219 21.2773 13.1204 21.2773 12.2239C21.2773 11.0426 21.3195 11.0954 17.6492 7.40395C15.2551 4.99926 14.1266 3.93403 13.7891 3.77582C13.2195 3.49106 12.5445 3.39614 11.859 3.49106Z" fill="#2EAB60"/>
<path d="M41.0629 33.4441C40.7254 33.5602 39.3437 34.3195 37.9832 35.1316C36.6332 35.9437 35.4309 36.6398 35.3043 36.682C35.125 36.7453 35.9055 37.568 40.7359 42.3984L46.3785 48.041L48.4352 45.9844C50.8187 43.6113 51.0297 43.2949 51.0297 42.1031C51.0402 40.7848 51.0086 40.7426 47.1379 36.893C43.3832 33.1699 43.457 33.2227 42.2547 33.2227C41.9383 33.2332 41.4109 33.3281 41.0629 33.4441Z" fill="#2EAB60"/>
<path d="M10.9943 3.64921C10.8256 3.73358 10.6357 3.86014 10.5725 3.92343C10.4881 4.0078 11.3107 3.62811 11.4584 3.5121C11.585 3.41718 11.2686 3.50155 10.9943 3.64921Z" fill="#15C16B"/>
<path d="M17.46 7.09805C19.8964 9.52383 20.8245 10.5152 21.0143 10.9055C21.162 11.2008 21.278 11.3695 21.278 11.2957C21.278 10.916 20.6557 10.2094 17.7026 7.2457C15.9307 5.45273 14.4014 3.95508 14.3171 3.90234C14.2327 3.86016 15.646 5.29453 17.46 7.09805Z" fill="#15C16B"/>
<path d="M7.66179 6.71841C4.7614 9.65044 4.47663 10.0196 4.09695 11.3907C3.80163 12.4559 3.79109 14.3227 4.0864 15.7149C5.46804 22.2223 12.0176 31.5774 20.7188 39.4559C27.0997 45.225 33.0692 48.9165 38.2055 50.2875C39.1548 50.5407 39.4395 50.5618 41.0532 50.5618C42.9938 50.5618 43.4579 50.4668 44.5759 49.8235C45.0294 49.5598 50.3977 44.3497 50.5981 43.97C50.6509 43.875 49.7333 44.7715 48.5626 45.9528L46.4426 48.1043L40.7684 42.4301L35.0942 36.7559L35.5688 36.5133C36.2544 36.1758 36.1489 36.1336 35.4423 36.4711C34.9571 36.6926 34.6723 36.7559 34.0923 36.7559C33.1958 36.7454 32.7844 36.5661 31.4555 35.5852C27.2368 32.4528 21.0036 26.1352 18.4723 22.4122C17.7868 21.3997 17.5969 20.7036 17.7657 19.8493C17.829 19.5434 17.8501 19.3219 17.8184 19.3536C17.7762 19.3852 15.2028 16.8645 12.0809 13.7426L6.40671 8.06841L8.43171 6.04341C9.54968 4.92544 10.4356 4.00786 10.404 4.00786C10.3829 4.00786 9.13835 5.2313 7.66179 6.71841Z" fill="#1ECD60"/>
<path d="M21.3096 12.1816C21.3096 12.5824 21.3307 12.7406 21.3518 12.5191C21.3729 12.3082 21.3729 11.9707 21.3518 11.7809C21.3307 11.6016 21.3096 11.7703 21.3096 12.1816Z" fill="#15C16B"/>
<path d="M20.8242 14.0801C20.7293 14.2805 20.666 14.4492 20.6977 14.4492C20.7715 14.4492 21.0879 13.8059 21.0457 13.7531C21.0141 13.732 20.9192 13.8797 20.8242 14.0801Z" fill="#15C16B"/>
<path d="M19.5377 16.316C18.9576 17.2863 18.3775 18.2566 18.2404 18.4781C18.1033 18.6996 18.0189 18.8789 18.0506 18.8789C18.1244 18.8789 20.6662 14.6391 20.6135 14.5969C20.6029 14.5758 20.1072 15.3563 19.5377 16.316Z" fill="#15C16B"/>
<path d="M43.5313 33.4441C43.8793 33.6023 44.8707 34.5199 47.1699 36.7875L50.334 39.9199L47.3281 36.8719C44.5016 34.0137 43.6051 33.2227 43.2254 33.2227C43.1305 33.2227 43.2676 33.3281 43.5313 33.4441Z" fill="#15C16B"/>
<path d="M40.1357 33.7078C39.7244 33.9293 39.7666 34.0031 40.1885 33.7922C40.5787 33.5918 40.6525 33.5391 40.5154 33.5391C40.4627 33.5496 40.2939 33.6234 40.1357 33.7078Z" fill="#15C16B"/>
<path d="M39.2387 34.2353C38.9855 34.3829 38.7852 34.52 38.7852 34.5517C38.7852 34.6149 39.4918 34.2036 39.6816 34.0454C39.8609 33.8872 39.6922 33.961 39.2387 34.2353Z" fill="#15C16B"/>
<path d="M8.40998 6.06445C7.28147 7.19297 6.37444 8.12109 6.40608 8.12109C6.43772 8.12109 7.38694 7.19297 8.51545 6.06445C9.64397 4.93594 10.551 4.00781 10.5194 4.00781C10.4877 4.00781 9.5385 4.93594 8.40998 6.06445Z" fill="#40C16B"/>
<path d="M17.5328 7.27734C19.273 9.01758 20.7179 10.4414 20.7495 10.4414C20.7812 10.4414 19.3785 9.01758 17.6382 7.27734C15.898 5.53711 14.4531 4.11328 14.4214 4.11328C14.3898 4.11328 15.7925 5.53711 17.5328 7.27734Z" fill="#40C16B"/>
<path d="M47.1699 36.8824C48.8996 38.6332 50.3445 40.0465 50.3762 40.0254C50.3973 39.9938 50.3973 39.9621 50.3762 39.941C50.3445 39.9305 48.8996 38.5172 47.1699 36.8086L44.0059 33.6973L47.1699 36.8824Z" fill="#40C16B"/>
<path d="M48.3301 46.1109L46.3262 48.1465L48.3617 46.1426C50.2391 44.2863 50.4395 44.0859 50.3551 44.0859C50.3445 44.0859 49.427 45.0035 48.3301 46.1109Z" fill="#40C16B"/>
<path d="M33.5853 10.8738C33.3111 11.0215 33.1107 11.2324 32.9736 11.5278C32.5412 12.4875 32.7732 12.941 34.6084 14.7656L36.0427 16.1789L34.524 17.7188C33.3111 18.9422 32.9736 19.343 32.8681 19.691C32.5201 20.8828 33.617 21.9797 34.8088 21.6317C35.1568 21.5262 35.5576 21.1887 36.781 19.9758L38.3103 18.4676L39.8396 19.9758C41.5588 21.6844 41.8857 21.8742 42.6978 21.6317C43.2463 21.4629 43.5838 21.136 43.7525 20.5875C44.0056 19.7438 43.8791 19.5223 42.1494 17.7715L40.5884 16.1789L42.0123 14.7656C42.7927 13.9852 43.531 13.1625 43.647 12.9516C44.2799 11.7281 43.2674 10.4414 41.8752 10.7051C41.5482 10.7578 41.2002 11.0531 39.8924 12.3504L38.2998 13.9113L36.8338 12.4453C36.0216 11.6332 35.2095 10.8949 35.0302 10.8106C34.5767 10.5996 34.0705 10.6207 33.5853 10.8738Z" fill="white"/>
</svg>
