<svg width="24" height="24" viewBox="0 0 24 24" fill="none" xmlns="http://www.w3.org/2000/svg">
<path d="M8.9953 1.2327C8.91093 1.28895 8.78905 1.41082 8.7328 1.4952C8.63437 1.64051 8.62499 1.70613 8.62499 2.24051C8.62499 2.77957 8.63437 2.8452 8.74218 3.02332C8.80312 3.13582 8.88749 3.23426 8.92968 3.25301C8.99062 3.27645 8.99999 3.7452 8.99999 7.36863C8.99999 10.7811 8.99062 11.4796 8.93437 11.5546C8.90155 11.6061 8.87812 11.7233 8.88749 11.8171C8.90155 11.9764 8.8828 11.9999 8.67655 12.1311C8.55468 12.2108 8.38593 12.3374 8.29687 12.4171C8.2078 12.4968 8.11405 12.5624 8.09062 12.5624C8.07187 12.5624 7.96405 12.6327 7.85624 12.7124C7.58437 12.928 7.6078 12.9139 7.20937 13.1952C7.01249 13.3358 6.83905 13.453 6.8203 13.453C6.80155 13.453 6.75937 13.4249 6.73124 13.3874C6.64687 13.2796 6.26249 13.0921 6.06562 13.0593C5.72343 13.003 5.46093 13.1202 4.6828 13.678C4.28437 13.9639 3.89062 14.2452 3.80624 14.3061C3.72187 14.3671 3.59062 14.4655 3.51562 14.5264C3.43593 14.5921 3.3328 14.6624 3.28124 14.6905C3.19687 14.7374 1.83749 15.7077 1.69687 15.8202C1.4953 15.9796 1.3078 16.1858 1.2328 16.3218C1.15312 16.4671 1.14843 16.6733 1.13437 19.2655C1.12499 21.1218 1.13437 22.1108 1.16718 22.2233C1.23749 22.453 1.55155 22.7999 1.76718 22.8889C1.95468 22.9593 2.41405 22.9968 3.77343 23.0436C4.23749 23.0577 4.69218 23.0811 4.78124 23.0858C5.21249 23.128 5.95312 23.1139 6.13593 23.0577C6.36562 22.9874 6.67499 22.7014 6.77812 22.4577C6.8203 22.3639 6.85312 22.1952 6.8578 22.078C6.86718 21.8764 6.81562 21.0046 6.77343 20.6014C6.76405 20.4983 6.74062 20.2546 6.73124 20.0624C6.71718 19.8702 6.6703 19.2796 6.62812 18.7546C6.59062 18.2296 6.56718 17.7749 6.58124 17.7421C6.59062 17.7093 6.82968 17.5264 7.11093 17.3296C7.99218 16.7155 8.12812 16.5843 8.22655 16.2514C8.31562 15.9468 8.31562 15.8296 8.2078 15.5296C8.12343 15.2811 8.12343 15.2811 8.22655 15.2155C8.2828 15.178 8.3578 15.1171 8.3953 15.0843C8.4328 15.0468 8.57812 14.9389 8.71874 14.8452L8.97655 14.6718L8.99062 15.8014L8.99999 16.9311L8.89218 17.0343C8.64374 17.2639 8.6203 17.3389 8.61562 17.9952C8.61562 18.5061 8.62968 18.6327 8.6953 18.7405C8.83124 18.9468 8.92968 19.0218 9.17343 19.1014C9.37499 19.1671 10.0828 19.1718 15.8672 19.1624L22.3359 19.1483L22.5328 19.0218C22.8328 18.8249 22.875 18.7077 22.875 18.0468C22.875 17.428 22.8187 17.2124 22.6172 17.053L22.5 16.9639V10.1202C22.5 4.03113 22.5094 3.27645 22.5703 3.25301C22.6125 3.23426 22.6969 3.13113 22.7625 3.01863C22.875 2.82176 22.8797 2.78895 22.8656 2.19363C22.8516 1.63582 22.8422 1.55613 22.7484 1.42488C22.5187 1.10145 23.025 1.12488 15.7359 1.12488H9.15468L8.9953 1.2327ZM22.125 2.24988V2.62488H15.75H9.37499V2.24988V1.87488H15.75H22.125V2.24988ZM21.75 10.1249V16.8749H15.75H9.74999V15.4733V14.0718L9.92812 13.9358C10.1906 13.7296 10.2047 13.7249 10.3547 13.8046L10.4953 13.8749L10.5094 14.8827C10.5234 15.8577 10.5281 15.8905 10.6312 15.9936L10.7391 16.1014H12.9375H15.1359L15.2437 15.9936L15.3516 15.8858L15.3656 13.7389L15.3797 11.5874L15.7406 11.5218L16.1016 11.4608L16.125 13.6733L16.1484 15.8858L16.2562 15.9936L16.3641 16.1014H18.5625H20.7609L20.8687 15.9936L20.9766 15.8858V10.1249V4.36395L20.8687 4.25613L20.7609 4.14832H18.5625H16.3641L16.2562 4.25613C16.1484 4.35926 16.1484 4.3827 16.125 5.71395C16.1016 7.06395 16.1016 7.06395 16.0031 7.03113C15.9328 7.00301 15.8953 6.93738 15.8719 6.79207C15.8297 6.5202 15.6984 6.23895 15.525 6.04207L15.3797 5.87801L15.3656 5.11395L15.3516 4.34988L15.2203 4.23738L15.0891 4.12488H12.9375H10.7859L10.6547 4.23738L10.5234 4.34988L10.5094 7.56551C10.5047 9.3327 10.4906 10.7811 10.4812 10.7811C10.4719 10.7811 10.3031 10.8561 10.1062 10.9452L9.74999 11.1046V7.24207V3.37488H15.75H21.75V10.1249ZM14.625 5.22176V5.56395L14.4047 5.59676C14.0672 5.63895 13.7156 5.86395 13.5281 6.15457C13.4391 6.28582 12.9 7.25145 12.3281 8.29676C11.7562 9.34207 11.2781 10.2046 11.2687 10.2139C11.2594 10.2233 11.25 9.02801 11.25 7.55613V4.87488H12.9375H14.625V5.22176ZM20.25 10.1249V15.3749H18.5625H16.875V13.3452V11.3108L17.3391 11.2311C17.8594 11.1421 18.1359 11.0014 18.3516 10.7155C18.6937 10.2655 18.6937 9.61863 18.3469 9.16395C18.2391 9.01863 17.7797 8.75145 17.475 8.65301C17.4281 8.63895 17.3906 8.5827 17.3906 8.53113C17.3906 8.3577 17.2125 7.92176 17.0437 7.6827L16.875 7.45301V6.16395V4.87488H18.5625H20.25V10.1249ZM14.9156 6.45457C15.0516 6.58113 15.1641 6.83895 15.2062 7.12488C15.225 7.21863 15.3 7.36863 15.3797 7.46238C15.4922 7.60301 15.5859 7.65926 15.8578 7.73895C16.275 7.86551 16.5562 8.11395 16.6359 8.43738C16.7578 8.92957 16.8 9.02801 16.9406 9.16863C17.0297 9.2577 17.1891 9.34207 17.3531 9.39363C17.5031 9.43582 17.6812 9.5202 17.7516 9.58113C17.8641 9.67957 17.8828 9.73113 17.8828 9.92801C17.8828 10.1249 17.8594 10.1905 17.7469 10.3077C17.6766 10.3827 17.5687 10.4577 17.5125 10.4718C17.3016 10.5233 12.1312 11.4421 12.1172 11.428C12.1125 11.4186 12.0234 11.2968 11.9156 11.1514L11.7234 10.8889L12.9187 8.71863C13.5703 7.52801 14.1328 6.5202 14.1656 6.47801C14.2641 6.36551 14.4984 6.28113 14.6484 6.30457C14.7234 6.31863 14.8453 6.38426 14.9156 6.45457ZM11.3391 11.5874L11.5781 11.9249L11.0766 12.4311C10.8 12.7077 10.5703 12.928 10.5656 12.9233C10.5141 12.8718 9.84374 11.9296 9.84374 11.9061C9.84374 11.8874 11.0062 11.2827 11.0953 11.2546C11.1 11.2499 11.2125 11.3999 11.3391 11.5874ZM14.625 13.5468V15.3749H12.9375H11.25V14.3296V13.2889L11.8312 12.703L12.4172 12.1171L13.4625 11.9249C14.0391 11.8171 14.5359 11.728 14.5687 11.7233C14.6109 11.7186 14.625 12.1124 14.625 13.5468ZM9.60937 12.8483C9.71718 13.003 9.78749 13.1483 9.76874 13.1671C9.65155 13.2655 7.72968 14.6296 7.67343 14.653C7.63593 14.6671 7.53749 14.5733 7.41093 14.3952L7.21405 14.1139L7.52812 13.8889C7.69687 13.7624 8.17968 13.4155 8.59687 13.1155C9.00937 12.8155 9.36562 12.5671 9.37968 12.5671C9.39374 12.5624 9.49687 12.6889 9.60937 12.8483ZM6.19687 13.9593C6.38905 14.1702 7.48593 15.7218 7.51874 15.8296C7.57968 16.0171 7.43905 16.1577 6.66562 16.7108C6.24843 17.0108 5.87343 17.3014 5.84062 17.3577C5.77968 17.4468 5.79374 17.7421 5.94843 19.7343C6.1453 22.228 6.1453 22.2749 5.87812 22.3405C5.81249 22.3593 4.94062 22.3358 3.94218 22.2936C2.34374 22.2233 2.11874 22.2046 2.01562 22.1296L1.89843 22.0452L1.88437 19.3686L1.87499 16.6921L1.97812 16.5796C2.10468 16.4436 5.53124 13.9827 5.75624 13.8702C5.93905 13.7718 6.04687 13.7952 6.19687 13.9593ZM22.125 17.9999V18.3749H15.75H9.37499V17.9999V17.6249H15.75H22.125V17.9999Z" fill="#154040"/>
<path d="M17.7328 5.73281C17.4797 5.99062 17.4375 6.05625 17.4375 6.20156C17.4375 6.40781 17.5828 6.5625 17.7844 6.5625C17.9859 6.5625 18.5625 5.98594 18.5625 5.78437C18.5625 5.58281 18.4078 5.4375 18.2016 5.4375C18.0563 5.4375 17.9906 5.47969 17.7328 5.73281Z" fill="#154040"/>
<path d="M19.1953 5.91562C19.05 5.99531 18 7.04062 17.925 7.18125C17.7937 7.42969 17.9625 7.6875 18.2531 7.6875C18.3703 7.6875 18.4968 7.58437 19.0406 7.04062C19.6359 6.44531 19.6875 6.37969 19.6875 6.225C19.6875 5.95312 19.425 5.78906 19.1953 5.91562Z" fill="#154040"/>
<path d="M4.46249 18.0044C4.31718 18.0607 2.72812 19.3451 2.67187 19.4529C2.61093 19.5654 2.53124 21.1357 2.5828 21.2669C2.6578 21.4685 2.76562 21.4826 3.81562 21.4498C4.35468 21.431 4.83749 21.3935 4.88437 21.3701C5.0578 21.2763 5.06718 21.1826 5.01562 20.0482C4.9453 18.4029 4.92187 18.2013 4.83749 18.0982C4.73437 17.981 4.59843 17.9482 4.46249 18.0044ZM4.26093 20.2826L4.26562 20.6716H4.0453C3.91874 20.6763 3.7078 20.6857 3.57187 20.6998L3.32812 20.7185L3.3328 20.2873C3.33749 19.8044 3.28124 19.8935 3.91405 19.3685L4.1953 19.1341L4.22812 19.5138C4.24218 19.7248 4.25624 20.0716 4.26093 20.2826Z" fill="#154040"/>
<path d="M9.75 7.21875C9.75 9.33281 9.75938 11.0625 9.77344 11.0625C9.78281 11.0625 9.95156 10.9828 10.1484 10.8891L10.5 10.7156V7.53281V4.35469L10.6172 4.24219L10.7297 4.125H12.9375H15.1453L15.2578 4.24219C15.3703 4.35469 15.375 4.37344 15.375 5.08594V5.82187L15.5344 6.01406C15.7359 6.26719 15.8297 6.45 15.8906 6.73125C15.9375 6.9375 15.9984 7.02656 16.0922 7.03125C16.1109 7.03125 16.125 6.43125 16.125 5.69531V4.35469L16.2422 4.24219L16.3547 4.125H18.5625H20.7703L20.8828 4.24219L21 4.35469V10.125V15.8953L20.8828 16.0078L20.7703 16.125H18.5625H16.3547L16.2422 16.0078L16.125 15.8953V13.6875C16.125 12.4781 16.1156 11.4844 16.1016 11.4844C16.0828 11.4844 15.7031 11.5594 15.4828 11.6062L15.375 11.625V13.7625V15.8953L15.2578 16.0078L15.1453 16.125H12.9375H10.7297L10.6172 16.0078C10.5 15.8953 10.5 15.8953 10.5 14.8922V13.8937L10.3359 13.8328C10.1859 13.7812 10.1625 13.7859 9.96563 13.9312L9.75469 14.0859L9.75 15.4781V16.875H15.75H21.75V10.125V3.375H15.75H9.75V7.21875Z" fill="#966B40"/>
<path d="M9.375 2.25V2.625H15.75H22.125V2.25V1.875H15.75H9.375V2.25Z" fill="#ECC16B"/>
<path d="M9.375 18V18.375H15.75H22.125V18V17.625H15.75H9.375V18Z" fill="#ECC16B"/>
<path d="M14.3203 6.41288C14.2125 6.4785 13.9078 6.99881 12.975 8.691L11.775 10.8848L11.9391 11.1191C12.0328 11.2457 12.1313 11.3629 12.1594 11.3723C12.1875 11.3816 13.4203 11.1754 14.9016 10.9082L17.5922 10.4207L17.7281 10.2707C17.8172 10.1676 17.8594 10.0738 17.8594 9.95663C17.8594 9.65663 17.7281 9.53475 17.25 9.39413C16.9735 9.31444 16.7578 9.08475 16.6875 8.8035C16.5703 8.316 16.5281 8.21756 16.3641 8.05819C16.2422 7.93163 16.1016 7.85663 15.8625 7.78631C15.6563 7.72538 15.4875 7.641 15.4125 7.56131C15.2719 7.416 15.1406 7.13475 15.1406 6.98475C15.1406 6.85819 14.9906 6.56288 14.8688 6.45506C14.7281 6.3285 14.4844 6.30975 14.3203 6.41288Z" fill="#96C1EC"/>
<path d="M5.78909 13.8846C5.55472 14.0158 1.97347 16.6127 1.95003 16.6643C1.93597 16.7018 1.9219 17.9111 1.91722 19.3596C1.90784 21.919 1.91253 21.994 2.00159 22.083C2.08597 22.1674 2.22659 22.1815 3.91878 22.2518C4.9219 22.294 5.79847 22.3174 5.86409 22.2986C6.09847 22.2377 6.09847 22.1955 5.92503 19.9877C5.75159 17.719 5.73753 17.3955 5.82659 17.2924C5.85472 17.2502 6.18753 17.0018 6.56253 16.7346C7.37347 16.158 7.50003 16.0455 7.50003 15.9143C7.50003 15.8065 6.31409 14.1143 6.11253 13.9315C5.98128 13.8143 5.92503 13.8096 5.78909 13.8846ZM4.85159 18.0705C4.91722 18.1315 4.96878 18.2299 4.96878 18.2908C4.96878 18.3518 5.00159 19.008 5.0344 19.7533C5.07659 20.5596 5.08597 21.1502 5.06253 21.2158C4.97815 21.4315 4.87034 21.4596 3.7969 21.4924C2.79378 21.5252 2.78909 21.5252 2.65315 21.4174L2.51722 21.3096L2.55003 20.419C2.57347 19.6502 2.59222 19.5049 2.66722 19.4065C2.71409 19.3408 3.12659 18.9893 3.58128 18.619C4.29378 18.0471 4.42972 17.9533 4.57503 17.9533C4.68753 17.9533 4.77659 17.9908 4.85159 18.0705Z" fill="#96C1EC"/>
<path d="M11.25 7.50961C11.25 8.95805 11.2594 10.1299 11.2688 10.1205C11.2781 10.1112 11.7891 9.19242 12.3984 8.08617C13.0078 6.97524 13.5609 6.00961 13.6313 5.9393C13.8 5.76117 14.1328 5.59711 14.4047 5.55492L14.625 5.52211V5.19867V4.87524H12.9375H11.25V7.50961Z" fill="#C1ECEC"/>
<path d="M16.875 6.14062V7.40625L17.0438 7.62656C17.2406 7.88437 17.3766 8.17969 17.4188 8.4375C17.4469 8.60625 17.4656 8.625 17.6906 8.69531C18.3516 8.90625 18.7031 9.41719 18.6422 10.0687C18.6141 10.4109 18.4875 10.6641 18.225 10.9078C18 11.1141 17.7516 11.2078 17.2172 11.3016L16.875 11.3578V13.3687V15.375H18.5391H20.2031V10.125V4.875H18.5391H16.875V6.14062ZM18.4922 5.50781C18.7031 5.71406 18.6563 5.87344 18.2672 6.26719C17.9813 6.54844 17.8969 6.60937 17.7703 6.60937C17.5594 6.60937 17.3906 6.43125 17.3906 6.20625C17.3906 6.05156 17.4281 5.99062 17.7094 5.70937C17.9906 5.42812 18.0516 5.39062 18.2063 5.39062C18.3281 5.39062 18.4125 5.42344 18.4922 5.50781ZM19.5891 5.93437C19.7016 6.02812 19.7344 6.09375 19.7344 6.225C19.7344 6.37969 19.6781 6.45 19.0641 7.06406C18.4875 7.64531 18.375 7.73437 18.2484 7.73437C18.0281 7.73437 17.8406 7.55625 17.8406 7.34062C17.8406 7.18125 17.8922 7.11562 18.4734 6.53437C19.2516 5.74687 19.3219 5.70937 19.5891 5.93437Z" fill="#C1ECEC"/>
<path d="M13.4672 11.9625L12.4219 12.1547L11.8359 12.7453L11.25 13.3359V14.3297V15.3281H12.9375H14.625V13.5469C14.625 12.15 14.6109 11.7656 14.5688 11.7703C14.5359 11.7703 14.0391 11.8594 13.4672 11.9625Z" fill="#C1ECEC"/>
<path d="M8.31095 13.3689L7.27032 14.1236L7.44376 14.372C7.53751 14.5079 7.64064 14.6157 7.66407 14.6064C7.70626 14.5923 9.18282 13.547 9.60001 13.2329L9.75001 13.1204L9.57657 12.8673C9.47814 12.7267 9.38907 12.6142 9.37501 12.6142C9.36095 12.6189 8.88282 12.9564 8.31095 13.3689Z" fill="#C1ECEC"/>
</svg>
