<svg width="24" height="24" viewBox="0 0 24 24" fill="none" xmlns="http://www.w3.org/2000/svg">
<path d="M10.5752 0.0533205C9.46427 0.198633 8.42365 0.475195 7.47208 0.873633L7.11115 1.02363L7.30802 1.2252C7.41583 1.33301 7.58927 1.57676 7.6924 1.76895C7.87052 2.10176 7.8799 2.13457 7.8799 2.54238C7.8799 3.02988 7.83302 3.00176 8.32521 2.78145C8.7424 2.59395 9.57677 2.34082 10.1065 2.2377C11.9721 1.88145 13.7533 2.07363 15.5252 2.83301L15.858 2.97363L15.8158 2.78145C15.7924 2.67363 15.783 2.49551 15.7971 2.38301C15.8393 2.0502 16.0971 1.50176 16.3268 1.24863C16.444 1.11738 16.533 1.00488 16.5236 0.995508C16.3924 0.883008 15.3424 0.508008 14.6768 0.33457C14.344 0.250195 13.8377 0.142383 13.5518 0.100195C12.8533 -0.00761701 11.2315 -0.035742 10.5752 0.0533205Z" fill="#404040"/>
<path d="M11.6299 9.51728C10.7159 9.74229 10.0643 10.5673 10.0596 11.4907C10.0549 12.2735 10.533 13.0095 11.2643 13.3563C11.5643 13.497 11.6112 13.5063 12.1221 13.5063C12.633 13.5063 12.6752 13.497 12.9705 13.3563C13.3127 13.1876 13.6877 12.8454 13.8705 12.536C14.2971 11.8048 14.2034 10.8017 13.6409 10.1595C13.1534 9.59697 12.3471 9.33916 11.6299 9.51728ZM12.094 9.73291C12.2534 9.78916 12.2487 9.89697 12.0752 10.2204C11.719 10.9048 10.758 11.8892 10.4487 11.8892C10.0737 11.8892 10.294 10.8954 10.7909 10.347C11.0205 10.0938 11.433 9.83135 11.7377 9.75166C11.8596 9.71885 11.9627 9.69072 11.9674 9.69072C11.9721 9.68604 12.0284 9.70479 12.094 9.73291Z" fill="#404040"/>
<path d="M19.4581 16.2579C18.7737 17.2938 17.7706 18.2642 16.6924 18.9392L16.2893 19.197L16.4252 19.2673C16.8143 19.4688 17.269 20.2001 17.3112 20.697C17.3252 20.8563 17.344 20.9829 17.3534 20.9829C17.3627 20.9829 17.5127 20.8938 17.6862 20.7907C18.7268 20.1532 19.7018 19.3188 20.4284 18.447C20.794 18.0017 21.3518 17.2423 21.3565 17.1813C21.3565 17.1626 21.2721 17.1392 21.1643 17.1251C20.9065 17.0923 20.4096 16.8298 20.1377 16.5907C20.0065 16.4735 19.8752 16.2954 19.8143 16.1548C19.7581 16.0282 19.7065 15.9204 19.6971 15.9204C19.6877 15.9204 19.5799 16.0751 19.4581 16.2579Z" fill="#404040"/>
<path d="M4.00803 16.1409C3.90491 16.4597 3.68928 16.7175 3.32366 16.9565C3.12678 17.0831 2.88303 17.2097 2.77522 17.2378C2.67209 17.2659 2.55491 17.2987 2.52209 17.3081C2.48459 17.3175 2.55022 17.4487 2.70491 17.6644C3.57678 18.8878 4.74866 19.9894 5.97678 20.7394C6.39866 20.9972 6.45022 20.9972 6.45022 20.7347C6.45022 20.5331 6.73616 19.9144 6.93303 19.694C7.02678 19.5815 7.20959 19.4409 7.33616 19.3753L7.57053 19.2628L7.12991 18.9909C6.51584 18.6112 6.12678 18.3065 5.61116 17.819C5.10022 17.3315 4.58928 16.7315 4.29397 16.2815C4.18616 16.1081 4.08772 15.9675 4.07834 15.9675C4.07366 15.9675 4.04084 16.0472 4.00803 16.1409Z" fill="#404040"/>
<path d="M10.8096 8.26572C9.01425 8.37353 7.09238 8.66885 5.25488 9.12822C4.39707 9.33916 3.45488 9.61572 3.32832 9.69541C3.30019 9.71416 3.26269 9.82197 3.24394 9.92978C3.22988 10.0423 3.19238 10.2767 3.16894 10.4595C3.0705 11.1157 3.13144 12.8501 3.258 13.0563C3.28144 13.0938 3.35175 13.0892 3.50175 13.0376C4.1205 12.8173 5.26425 12.6392 6.07519 12.6392C7.83769 12.6392 8.92988 13.1876 9.23457 14.2235C9.36582 14.6782 9.53925 17.1485 9.54863 18.6907L9.558 19.6563L10.1721 19.7923C10.7486 19.9188 10.8518 19.9282 11.8174 19.9282C12.9518 19.9235 13.3174 19.872 14.2455 19.572L14.7002 19.4267V18.6204C14.7002 17.4907 14.8736 14.9501 14.9861 14.3735C15.1736 13.4595 15.9471 12.8829 17.2643 12.6907C17.9908 12.5829 19.1486 12.6485 20.0393 12.8548C20.2268 12.897 20.3861 12.9204 20.3955 12.911C20.4049 12.9063 20.4377 12.7188 20.4705 12.4985C20.5736 11.786 20.5268 10.1876 20.3861 9.60635C20.3627 9.49385 20.0486 9.36728 19.2752 9.14697C17.7564 8.71103 15.9799 8.40635 14.2549 8.27978C13.6596 8.2376 11.4424 8.22822 10.8096 8.26572ZM12.8393 9.01572C13.683 9.25947 14.4096 10.0048 14.6252 10.8345C14.7189 11.1907 14.7189 11.8376 14.6299 12.1938C14.4143 13.0095 13.7439 13.7267 12.933 14.0079C12.4783 14.1626 11.7189 14.1626 11.2689 14.0079C10.4439 13.722 9.79238 13.0188 9.56738 12.1704C9.52988 12.0298 9.49707 11.7438 9.49707 11.5376C9.49707 9.78916 11.1705 8.52353 12.8393 9.01572Z" fill="#6B6B6B"/>
<path d="M11.7377 9.75166C11.433 9.83135 11.0205 10.0938 10.7908 10.347C10.2939 10.8954 10.0736 11.8892 10.4486 11.8892C10.758 11.8892 11.7189 10.9048 12.0752 10.2204C12.2486 9.89697 12.2533 9.78916 12.0939 9.73291C12.0283 9.70479 11.972 9.68604 11.9673 9.69072C11.9627 9.69072 11.8595 9.71885 11.7377 9.75166Z" fill="#6B6B6B"/>
<path d="M10.5283 12.8407C10.5283 12.8501 10.5986 12.9157 10.683 12.9954L10.833 13.1313L10.6971 12.9767C10.5658 12.836 10.5283 12.8032 10.5283 12.8407Z" fill="#6B6B6B"/>
<path d="M11.9955 13.5628C12.0658 13.5722 12.1783 13.5722 12.2533 13.5628C12.3237 13.5534 12.2627 13.544 12.1221 13.544C11.9815 13.544 11.9205 13.5534 11.9955 13.5628Z" fill="#6B6B6B"/>
<path d="M17.0393 0.830942C16.7533 0.873129 16.6408 0.938754 16.3924 1.19657C16.1721 1.42157 15.8908 1.97469 15.844 2.27938C15.8252 2.3825 15.8299 2.59813 15.8487 2.76688C15.8955 3.22157 16.0455 3.41375 16.7065 3.86844C17.7049 4.55282 18.4268 5.27938 19.069 6.24032C19.5893 7.02313 20.0533 8.10125 20.2549 8.9825C20.2971 9.17469 20.3533 9.38094 20.3768 9.44188C20.4002 9.49813 20.4518 9.8075 20.494 10.1216C20.5737 10.7356 20.5596 12.3341 20.4705 12.7091C20.4471 12.8122 20.3721 13.1263 20.3065 13.4122C20.2408 13.6934 20.0674 14.27 19.9268 14.6825C19.6783 15.4184 19.6268 15.6903 19.7065 15.8638C19.7299 15.9059 19.8096 16.0653 19.8799 16.22C20.0299 16.5247 20.2033 16.6747 20.7096 16.9325C21.3612 17.2606 21.9377 17.1856 22.3643 16.7075C22.7955 16.2247 23.3627 14.3638 23.5643 12.7559C23.644 12.1513 23.644 10.5575 23.5643 9.89657C23.2971 7.62782 22.5846 5.77625 21.2721 3.96688C20.7565 3.25438 19.5705 2.09188 18.8112 1.54344C17.9065 0.891879 17.5549 0.751254 17.0393 0.830942Z" fill="#406B96"/>
<path d="M5.96271 0.8919C5.42365 1.09346 3.92365 2.38252 3.09865 3.35752C1.3174 5.45752 0.243963 8.04971 0.0283385 10.7638C-0.112286 12.5122 0.276776 14.5935 1.0549 16.2622C1.36428 16.9278 1.66428 17.1997 2.19396 17.2981C2.66271 17.3872 3.62834 16.8622 3.87209 16.3841C4.14865 15.845 4.15334 15.6153 3.89553 15.0294C3.58615 14.3356 3.39865 13.7544 3.18303 12.8497C3.15021 12.695 3.10803 12.2216 3.08928 11.795C3.05646 10.8153 3.13615 10.1778 3.40334 9.28721C4.07365 7.03721 5.18928 5.36846 6.96584 3.94346C7.81896 3.25909 7.87053 3.17471 7.87521 2.5044C7.87521 2.23253 7.85178 2.14346 7.68771 1.8294C7.49084 1.43565 7.18146 1.0794 6.91896 0.943463C6.70334 0.830963 6.20178 0.802838 5.96271 0.8919ZM4.32678 3.13721C4.20021 3.43721 3.27678 4.8669 2.18459 6.44659C1.38771 7.6044 0.956463 8.57002 0.590838 10.0513C0.520526 10.3231 0.450213 10.2575 0.483026 9.95284C0.562713 9.18877 0.839276 8.18096 1.22834 7.25284C1.8049 5.8794 2.83615 4.3419 3.83928 3.3669C4.27053 2.94971 4.43459 2.87002 4.32678 3.13721Z" fill="#406B96"/>
<path d="M15.4362 19.1124C15.3377 19.1358 15.0612 19.2483 14.8268 19.3608C14.0487 19.7358 13.1674 19.9374 12.1221 19.9843C11.058 20.0264 10.369 19.9186 9.00492 19.4874C8.04398 19.1827 7.9221 19.1639 7.57992 19.2952C7.17679 19.4452 6.90492 19.703 6.6846 20.1389C6.28617 20.9311 6.37523 21.5546 6.95179 21.9952C7.30804 22.2671 9.07523 22.778 10.2705 22.9561C11.0346 23.0686 12.4268 23.0827 13.1768 22.9796C14.133 22.8483 14.9862 22.628 15.8252 22.2952C16.7534 21.9249 16.969 21.7796 17.1659 21.3764C17.2784 21.1468 17.2877 21.0811 17.269 20.7343C17.2549 20.4718 17.2174 20.2889 17.1518 20.1624C17.0018 19.8764 16.7018 19.4921 16.5237 19.3655C16.4346 19.3046 16.3409 19.2296 16.308 19.2061C16.2377 19.1452 15.8909 19.0608 15.7315 19.0655C15.6659 19.0702 15.5346 19.0889 15.4362 19.1124Z" fill="#406B96"/>
<path d="M3.89084 3.36741C2.18459 5.00334 0.712711 7.86741 0.525211 9.92053C0.497086 10.2112 0.501774 10.2065 0.637711 9.70022C0.815836 9.02522 1.05959 8.37834 1.35021 7.78772C1.67365 7.14553 1.83771 6.87834 2.46115 5.98772C3.35646 4.70334 4.38771 3.05803 4.32677 3.00178C4.31271 2.98772 4.11584 3.15178 3.89084 3.36741Z" fill="#9696C1"/>
<path d="M11.4799 9.00166C11.0299 9.11416 10.622 9.34854 10.2705 9.70479C9.72673 10.2579 9.45954 10.961 9.51579 11.7017C9.53923 12.0157 9.70329 12.6392 9.76423 12.6392C9.7736 12.6392 9.87673 12.5642 9.98923 12.4751C10.1908 12.311 10.1908 12.311 10.1299 12.1329C9.87673 11.4063 10.1205 10.5063 10.7064 9.97666C11.3017 9.4376 12.1924 9.28291 12.9283 9.60166L13.1533 9.69541L13.3361 9.53135C13.5424 9.34854 13.5377 9.33916 13.2142 9.1751C12.7689 8.9501 12.0049 8.8751 11.4799 9.00166Z" fill="#C1C1C1"/>
<path d="M13.922 10.0795L13.7299 10.2342L13.8517 10.3842L13.9736 10.5342L14.0861 10.417C14.147 10.3514 14.2361 10.2857 14.283 10.2717C14.3627 10.2436 14.3627 10.2342 14.2642 10.0842C14.208 9.99512 14.1517 9.9248 14.1377 9.9248C14.1236 9.9248 14.0299 9.99512 13.922 10.0795Z" fill="#C1C1C1"/>
<path d="M14.4095 11.2141C14.2314 11.3828 14.1845 11.4578 14.1845 11.575C14.1845 11.8047 14.058 12.25 13.9173 12.5078C13.7251 12.8547 13.3689 13.1828 12.9658 13.3797C12.6517 13.5297 12.572 13.5485 12.1783 13.5625L11.7423 13.5719L11.4986 13.7828L11.2595 13.9891L11.4658 14.05C11.7705 14.1344 12.4642 14.125 12.8017 14.0266C13.9314 13.6938 14.7142 12.6391 14.6955 11.4719C14.6908 11.3266 14.6767 11.1625 14.6626 11.1063C14.6298 11.0078 14.6205 11.0125 14.4095 11.2141Z" fill="#C1C1C1"/>
<path d="M10.4627 13.1405C10.3502 13.2437 10.2564 13.2952 10.2096 13.2765C10.1674 13.2624 10.2096 13.3233 10.3127 13.4124L10.4908 13.5718L10.6971 13.3983C10.8096 13.3046 10.9033 13.2155 10.8986 13.2015C10.8986 13.1874 10.8424 13.1312 10.7721 13.0796L10.6408 12.9765L10.4627 13.1405Z" fill="#C1C1C1"/>
</svg>
