<svg width="24" height="24" viewBox="0 0 24 24" fill="none" xmlns="http://www.w3.org/2000/svg">
<g clip-path="url(#clip0_1167_1937)">
<path d="M5.88281 1.1907C5.80781 1.22351 5.7 1.29851 5.64844 1.35945C5.55938 1.45788 5.55469 1.53757 5.54063 3.82507L5.52656 6.18288L3.02813 6.19695L0.534375 6.21101L0.342188 6.33757C-0.0046875 6.56726 -0.0046875 6.53445 0.009375 8.79382L0.0234375 10.7954L0.145313 10.8844C0.257813 10.9688 0.28125 10.9688 0.435938 10.9079C0.525 10.8657 0.623438 10.7954 0.651563 10.7438C0.684375 10.6782 0.703125 10.0313 0.703125 8.79382V6.93757H3.14063H5.57813V10.4485V13.9548L5.21719 13.9876C4.76719 14.0251 0.876563 14.0251 0.778125 13.9876C0.7125 13.9641 0.703125 13.8282 0.703125 12.9563C0.703125 11.8641 0.679688 11.7516 0.454688 11.6719C0.257813 11.6063 0.201563 11.611 0.09375 11.7188C0.0046875 11.8079 0 11.8735 0 13.0032C0 14.1563 0.0046875 14.1938 0.107813 14.3485C0.276563 14.6063 0.557813 14.7188 1.03594 14.7188H1.43906L1.4625 15.0704C1.5 15.6657 1.7625 15.8907 2.40938 15.8907H2.76094L2.775 17.4235L2.78906 18.961L2.91094 19.2188C3.15938 19.7438 3.64688 20.1282 4.20938 20.2454C4.34531 20.2735 4.69688 20.2969 4.99219 20.2969H5.52656L5.54063 21.4173C5.55469 22.5329 5.55469 22.5423 5.66719 22.6594C5.73281 22.7298 5.85938 22.8048 5.94844 22.8329C6.06094 22.8657 8.97656 22.8751 14.8828 22.8657C23.1656 22.8516 23.6531 22.8469 23.7703 22.7673C23.8359 22.7251 23.9156 22.6313 23.9438 22.5657C24.0234 22.3969 24.0234 1.6032 23.9438 1.43445C23.8219 1.16257 23.7516 1.14851 22.4672 1.13445C21.4734 1.12038 21.2672 1.12976 21.1453 1.1907C20.9625 1.28913 20.925 1.4157 21.0328 1.63132L21.1172 1.80476L22.2094 1.81882L23.2969 1.8282V12.0001V22.1719L14.7797 22.1626L6.25781 22.1485V12.0001V1.85163L13.1953 1.8282L20.1328 1.80476L20.2219 1.62663C20.325 1.41101 20.2734 1.24226 20.0813 1.17195C20.0063 1.14382 17.4375 1.12507 12.9938 1.12507C7.3125 1.12976 5.99531 1.13913 5.88281 1.1907ZM4.07813 14.9298V15.1876L3.13125 15.1782L2.17969 15.1641L2.16563 14.9157L2.15156 14.6719H3.1125H4.07813V14.9298ZM5.53125 17.1376V19.5563L4.90313 19.5376C4.30313 19.5235 4.27031 19.5141 4.05 19.3829C3.92344 19.3032 3.75938 19.1485 3.67969 19.036L3.53906 18.8344L3.525 17.3626L3.51094 15.8907H3.84844C4.49531 15.8907 4.78125 15.6235 4.78125 15.0282V14.7188H5.15625H5.53125V17.1376Z" fill="#151515"/>
<path d="M6.89064 2.53114C6.72189 2.69989 6.77345 2.96239 6.99377 3.07489C7.28908 3.22489 7.58439 2.92957 7.43439 2.63426C7.32189 2.41395 7.05939 2.36239 6.89064 2.53114Z" fill="#151515"/>
<path d="M22.1813 2.54572C22.05 2.68635 22.0453 2.91135 22.1719 3.02385C22.4766 3.29572 22.936 2.88322 22.6875 2.56447C22.5563 2.40041 22.3266 2.39104 22.1813 2.54572Z" fill="#151515"/>
<path d="M10.65 4.07809C10.5656 4.12966 10.4578 4.23747 10.4063 4.32184C10.3172 4.47184 10.3125 4.56559 10.3125 7.96872C10.3125 11.3718 10.3172 11.4656 10.4063 11.6156C10.4578 11.7 10.5656 11.8078 10.65 11.8593C10.8 11.9484 10.8938 11.9531 14.7563 11.9531C19.1063 11.9531 18.9422 11.9625 19.125 11.6625C19.2188 11.5125 19.2188 11.4375 19.2188 7.96872C19.2188 4.49997 19.2188 4.42497 19.125 4.27497C18.9422 3.97497 19.1063 3.98434 14.7563 3.98434C10.8938 3.98434 10.8 3.98903 10.65 4.07809ZM18.5625 7.96872V11.2968L14.7797 11.2875L10.9922 11.2734L10.9781 8.01559C10.9734 6.22497 10.9781 4.72966 10.9922 4.69684C11.0063 4.65466 11.8125 4.64059 14.7891 4.64059H18.5625V7.96872Z" fill="#151515"/>
<path d="M13.0828 6.16406C12.736 6.52031 12.6985 6.57656 12.7219 6.68906C12.7641 6.85312 12.9141 6.98438 13.0641 6.98438C13.2141 6.98438 13.9032 6.31875 13.9453 6.14062C13.9875 5.9625 13.8188 5.76562 13.6219 5.76562C13.4907 5.76562 13.411 5.82656 13.0828 6.16406Z" fill="#151515"/>
<path d="M14.025 7.18105C13.2422 7.96387 12.5812 8.65293 12.5578 8.71387C12.45 8.98574 12.7312 9.23887 13.0125 9.11699C13.0875 9.08418 13.7766 8.42793 14.5453 7.65449C15.7828 6.40293 15.9375 6.23418 15.9375 6.10293C15.9375 5.90605 15.7922 5.76543 15.6 5.76543C15.4641 5.76543 15.3 5.91543 14.025 7.18105Z" fill="#151515"/>
<path d="M7.74846 4.92241C7.45783 5.0396 7.12033 5.38647 7.04064 5.66303C6.82033 6.38491 7.19064 7.08803 7.90314 7.29428C8.84533 7.56616 9.71252 6.62397 9.39846 5.67241C9.30471 5.38647 9.02814 5.08647 8.74689 4.95053C8.46564 4.81928 8.04377 4.80522 7.74846 4.92241ZM8.53127 5.62085C8.59689 5.66772 8.68596 5.78022 8.73752 5.87866C8.81252 6.02866 8.81721 6.08491 8.77033 6.23022C8.58283 6.86772 7.64064 6.74585 7.64064 6.08022C7.64064 5.62553 8.15158 5.36303 8.53127 5.62085Z" fill="#151515"/>
<path d="M21 4.87084C20.6438 4.97866 20.2641 5.33022 20.1516 5.65366C20.0672 5.89741 20.0813 6.35678 20.175 6.57241C20.3766 7.03178 20.8266 7.33178 21.3281 7.32709C21.6985 7.32709 21.9094 7.24272 22.1906 6.98491C22.6125 6.59584 22.7063 5.98647 22.4203 5.47084C22.1485 4.98803 21.511 4.71616 21 4.87084ZM21.6422 5.60678C21.8813 5.75678 21.9797 6.12241 21.8485 6.37084C21.6516 6.73647 21.0235 6.74116 20.836 6.37553C20.5594 5.84584 21.1406 5.29272 21.6422 5.60678Z" fill="#151515"/>
<path d="M1.56563 7.50007C1.50938 7.51882 1.42031 7.59851 1.36406 7.66882C1.27031 7.78601 1.26562 7.84694 1.26562 8.58288V9.37507L1.40156 9.52507L1.5375 9.67976L3.07969 9.69382C4.5375 9.70319 4.62656 9.69851 4.76719 9.61413C4.96875 9.48757 5.01563 9.29538 5.01563 8.57819C5.01563 7.86101 4.96875 7.66882 4.76719 7.54694C4.62656 7.45788 4.52344 7.45319 3.14063 7.45788C2.32969 7.45788 1.61719 7.47663 1.56563 7.50007ZM4.3125 8.57819V9.00007H3.11719H1.92188V8.57819V8.15632H3.11719H4.3125V8.57819Z" fill="#151515"/>
<path d="M7.62655 9.04688C7.46717 9.17344 7.45311 9.4125 7.59842 9.54375C7.6828 9.61875 7.77186 9.63281 8.23592 9.63281C8.74686 9.63281 8.77967 9.62813 8.86405 9.52031C8.97655 9.37969 8.97655 9.22969 8.86405 9.08906C8.77967 8.98594 8.7328 8.97656 8.26405 8.9625C7.80467 8.94844 7.74374 8.95313 7.62655 9.04688Z" fill="#151515"/>
<path d="M20.7891 9.00937C20.6578 9.08437 20.625 9.14062 20.625 9.31406C20.625 9.41719 20.6625 9.49219 20.7469 9.55781C20.8547 9.64219 20.9391 9.65625 21.3141 9.65625C21.8063 9.65625 22.0031 9.59062 22.05 9.40312C22.0922 9.23906 22.0078 9.05156 21.8672 9C21.6984 8.93437 20.9063 8.94375 20.7891 9.00937Z" fill="#151515"/>
<path d="M7.62655 10.4063C7.46717 10.5328 7.45311 10.7719 7.59842 10.9031C7.6828 10.9781 7.77186 10.9922 8.23592 10.9922C8.74686 10.9922 8.77967 10.9875 8.86405 10.8797C8.97655 10.7391 8.97655 10.5891 8.86405 10.4484C8.77967 10.3453 8.7328 10.3359 8.26405 10.3219C7.80467 10.3078 7.74374 10.3125 7.62655 10.4063Z" fill="#151515"/>
<path d="M20.7891 10.3687C20.6578 10.4437 20.625 10.5 20.625 10.6734C20.625 10.7766 20.6625 10.8516 20.7469 10.9172C20.8547 11.0016 20.9391 11.0156 21.3141 11.0156C21.8063 11.0156 22.0031 10.95 22.05 10.7625C22.0922 10.5984 22.0078 10.4109 21.8672 10.3594C21.6984 10.2937 20.9063 10.3031 20.7891 10.3687Z" fill="#151515"/>
<path d="M1.60311 10.4676C1.39218 10.6879 1.52343 10.9785 1.85155 11.0441C2.12811 11.0957 2.47968 11.0394 2.59218 10.9316C2.72343 10.7957 2.71874 10.5566 2.5828 10.4441C2.49843 10.3785 2.3953 10.3598 2.09061 10.3598C1.74843 10.3598 1.69218 10.3738 1.60311 10.4676Z" fill="#151515"/>
<path d="M3.66565 10.4672C3.53909 10.6031 3.5344 10.7812 3.65159 10.9266C3.73128 11.0297 3.77815 11.0391 4.13909 11.0391C4.60784 11.0391 4.7344 10.9687 4.7344 10.7016C4.7344 10.4344 4.61253 10.3594 4.15784 10.3594C3.81096 10.3594 3.75471 10.3734 3.66565 10.4672Z" fill="#151515"/>
<path d="M1.59375 11.625C1.54219 11.6766 1.5 11.7797 1.5 11.8594C1.5 12.1172 1.63125 12.1875 2.1 12.1875C2.56875 12.1875 2.68594 12.1219 2.68594 11.8594C2.68594 11.5969 2.56875 11.5312 2.1 11.5312C1.74844 11.5312 1.67344 11.5453 1.59375 11.625Z" fill="#151515"/>
<path d="M3.65625 11.625C3.60469 11.6766 3.5625 11.7797 3.5625 11.8594C3.5625 12.1125 3.69375 12.1875 4.13906 12.1875C4.61719 12.1875 4.73438 12.1266 4.73438 11.8641C4.73438 11.5875 4.63594 11.5312 4.15781 11.5312C3.81094 11.5312 3.73594 11.5453 3.65625 11.625Z" fill="#151515"/>
<path d="M1.70623 12.7219C1.47186 12.825 1.42498 13.0875 1.60779 13.2562C1.70154 13.3453 1.77186 13.3594 2.09529 13.3594C2.39529 13.3594 2.49842 13.3406 2.58279 13.275C2.71873 13.1578 2.72342 12.9234 2.58748 12.7828C2.45623 12.6562 1.93123 12.6187 1.70623 12.7219Z" fill="#151515"/>
<path d="M3.81091 12.6891C3.56716 12.7406 3.48279 13.0828 3.67029 13.2563C3.76404 13.3453 3.83435 13.3594 4.16248 13.3594C4.60779 13.3594 4.73435 13.2844 4.73435 13.0172C4.73435 12.7734 4.6031 12.6844 4.2281 12.675C4.05466 12.6703 3.86716 12.675 3.81091 12.6891Z" fill="#151515"/>
<path d="M8.32031 13.1906C8.14219 13.2703 8.03906 13.3828 7.94531 13.6078C7.88438 13.7531 7.875 14.1656 7.875 16.5844V19.3922L7.98281 19.5937C8.05781 19.7344 8.15625 19.8328 8.29688 19.9078L8.49844 20.0156H12.4219C16.3031 20.0156 16.3406 20.0156 16.4438 19.9219C16.575 19.8 16.5797 19.5469 16.4625 19.4391C16.3828 19.3641 16.0406 19.3594 12.5016 19.3594C8.71875 19.3594 8.625 19.3594 8.57813 19.2703C8.55 19.2094 8.53125 18.2672 8.53125 16.5328C8.53125 14.3625 8.54063 13.875 8.59688 13.8328C8.64375 13.7953 10.3031 13.7859 14.8172 13.7906L20.9766 13.8047L20.9906 16.5422C21 18.7031 20.9906 19.2891 20.9438 19.3219C20.9109 19.3406 20.1188 19.3594 19.1859 19.3594C17.5453 19.3594 17.4797 19.3641 17.3906 19.4531C17.2547 19.5891 17.2688 19.8 17.4234 19.9219C17.5453 20.0156 17.5781 20.0203 19.3594 20.0062L21.1734 19.9922L21.3469 19.8562C21.6656 19.6125 21.6563 19.7203 21.6563 16.5328V13.6547L21.5484 13.4953C21.4922 13.4109 21.3703 13.2891 21.2859 13.2328L21.1266 13.125H14.7938C9.64219 13.1297 8.43281 13.1391 8.32031 13.1906Z" fill="#151515"/>
<path d="M9.74999 14.9062C9.62342 15.0328 9.6328 15.2156 9.77342 15.3516C9.88124 15.4641 9.91405 15.4688 10.4297 15.4688C10.9453 15.4688 10.9781 15.4641 11.0859 15.3516C11.1515 15.2906 11.2031 15.2062 11.2031 15.1641C11.2031 15.0703 11.114 14.8969 11.0437 14.85C11.0156 14.8312 10.7344 14.8125 10.4203 14.8125C9.90467 14.8125 9.83436 14.8219 9.74999 14.9062Z" fill="#151515"/>
<path d="M12.6562 14.9062C12.5203 15.0422 12.5344 15.2531 12.6844 15.3703C12.7922 15.4547 12.8766 15.4688 13.3359 15.4688C13.7719 15.4688 13.8797 15.4547 13.9594 15.3844C14.1094 15.2625 14.1328 15.0891 14.0156 14.9391C13.9172 14.8125 13.9078 14.8125 13.3312 14.8125C12.8109 14.8125 12.7406 14.8219 12.6562 14.9062Z" fill="#151515"/>
<path d="M15.5438 14.9156C15.4313 15.075 15.45 15.2578 15.5907 15.3703C15.6985 15.4547 15.7828 15.4688 16.2469 15.4688C16.8563 15.4688 16.9688 15.4172 16.9688 15.1266C16.9688 14.85 16.875 14.8125 16.2047 14.8125C15.6469 14.8125 15.6094 14.8172 15.5438 14.9156Z" fill="#151515"/>
<path d="M18.4547 14.8969C18.3469 15.0141 18.3562 15.2625 18.4687 15.375C18.5531 15.4594 18.6234 15.4688 19.1156 15.4688C19.6078 15.4688 19.6828 15.4594 19.7719 15.375C19.9031 15.2531 19.9078 15 19.7906 14.8922C19.7203 14.8266 19.5984 14.8125 19.1156 14.8125C18.6094 14.8125 18.5203 14.8219 18.4547 14.8969Z" fill="#151515"/>
<path d="M9.77342 16.3359C9.6328 16.4719 9.62342 16.6547 9.74999 16.7812C9.83436 16.8656 9.90467 16.875 10.4203 16.875C10.7344 16.875 11.0156 16.8562 11.0437 16.8375C11.114 16.7906 11.2031 16.6172 11.2031 16.5234C11.2031 16.4812 11.1515 16.3969 11.0859 16.3359C10.9781 16.2234 10.9453 16.2187 10.4297 16.2187C9.91405 16.2187 9.88124 16.2234 9.77342 16.3359Z" fill="#151515"/>
<path d="M12.6797 16.3359C12.5438 16.4672 12.5297 16.6219 12.6375 16.7719C12.7031 16.8703 12.7406 16.875 13.3125 16.875C13.9125 16.875 13.9172 16.875 14.0156 16.7484C14.1328 16.5984 14.1094 16.425 13.9594 16.2984C13.8797 16.2328 13.7719 16.2187 13.3266 16.2187C12.8203 16.2187 12.7875 16.2234 12.6797 16.3359Z" fill="#151515"/>
<path d="M15.5953 16.3125C15.45 16.4297 15.4266 16.6078 15.5438 16.7719C15.6094 16.8703 15.6469 16.875 16.2141 16.875C16.8797 16.875 16.9688 16.8375 16.9688 16.5656C16.9688 16.2797 16.8938 16.2422 16.2797 16.2281C15.7688 16.2141 15.7125 16.2188 15.5953 16.3125Z" fill="#151515"/>
<path d="M18.5391 16.275C18.4078 16.35 18.375 16.4062 18.375 16.575C18.375 16.8375 18.4734 16.875 19.1344 16.875C19.6406 16.875 19.7297 16.8656 19.7953 16.7906C19.9172 16.6547 19.8984 16.4297 19.7531 16.3172C19.6453 16.2328 19.5656 16.2187 19.1297 16.2187C18.8484 16.2187 18.5906 16.2469 18.5391 16.275Z" fill="#151515"/>
<path d="M9.75469 17.7937C9.69844 17.8641 9.65625 17.9531 9.65625 18C9.65625 18.0469 9.69844 18.1359 9.75469 18.2062C9.84844 18.3234 9.8625 18.3281 10.4109 18.3281C10.9453 18.3281 10.9781 18.3234 11.0859 18.2109C11.2266 18.0703 11.2313 17.9578 11.1047 17.7937C11.0109 17.6719 11.0016 17.6719 10.4297 17.6719C9.85781 17.6719 9.84844 17.6719 9.75469 17.7937Z" fill="#151515"/>
<path d="M12.6562 17.7656C12.5297 17.8922 12.5344 18.0984 12.6703 18.225C12.7687 18.3187 12.8297 18.3281 13.3219 18.3281C13.7812 18.3281 13.8797 18.3141 13.9734 18.2437C14.1047 18.1359 14.114 17.9016 13.9922 17.7656C13.9172 17.6812 13.8469 17.6719 13.3265 17.6719C12.8109 17.6719 12.7406 17.6812 12.6562 17.7656Z" fill="#151515"/>
<path d="M15.5625 17.7656C15.5109 17.8172 15.4688 17.9203 15.4688 18C15.4688 18.0797 15.5109 18.1828 15.5625 18.2344C15.6469 18.3187 15.7172 18.3281 16.2094 18.3281C16.8656 18.3281 16.9688 18.2859 16.9688 18.0047C16.9688 17.7094 16.8891 17.6719 16.2281 17.6719C15.7172 17.6719 15.6469 17.6812 15.5625 17.7656Z" fill="#151515"/>
<path d="M18.4781 17.7469C18.3422 17.8406 18.3375 18.1031 18.4687 18.2344C18.5531 18.3187 18.6234 18.3281 19.125 18.3281C19.6266 18.3281 19.6969 18.3187 19.7812 18.2344C19.8328 18.1828 19.875 18.0797 19.875 18C19.875 17.9203 19.8328 17.8172 19.7812 17.7656C19.6969 17.6812 19.6266 17.6719 19.1344 17.6719C18.7125 17.6719 18.5578 17.6906 18.4781 17.7469Z" fill="#151515"/>
<path d="M6.97497 20.9344C6.73591 21.061 6.74997 21.45 6.98903 21.5344C7.17185 21.6 7.34997 21.5344 7.43435 21.3704C7.52341 21.1922 7.46247 20.9954 7.28435 20.911C7.13903 20.8454 7.12966 20.8454 6.97497 20.9344Z" fill="#151515"/>
<path d="M22.3125 20.8927C22.0641 20.9818 21.9984 21.2818 22.1859 21.4599C22.5187 21.774 22.9734 21.3099 22.65 20.9958C22.5562 20.9021 22.4109 20.8599 22.3125 20.8927Z" fill="#151515"/>
<path d="M10.9922 4.69688C10.9781 4.72969 10.9734 6.225 10.9781 8.01563L10.9922 11.2734H14.7563H18.5156L14.7656 11.2641L11.0156 11.25V7.96875V4.6875L14.7797 4.67344L18.5391 4.66406L14.775 4.65C11.7984 4.64531 11.0063 4.65469 10.9922 4.69688Z" fill="#404040"/>
<path d="M13.0781 6.12656L12.7734 6.44531L13.0922 6.14062C13.3828 5.85937 13.4297 5.8125 13.3922 5.8125C13.3875 5.8125 13.2422 5.95312 13.0781 6.12656Z" fill="#404040"/>
<path d="M1.94061 8.57789C1.94061 8.82164 1.9453 8.92477 1.95468 8.79821C1.96405 8.67633 1.96405 8.47946 1.95468 8.35289C1.9453 8.23102 1.94061 8.33414 1.94061 8.57789Z" fill="#404040"/>
<path d="M11.7047 13.1111C13.3875 13.1205 16.1437 13.1205 17.8219 13.1111C19.5047 13.1064 18.1312 13.1018 14.7656 13.1018C11.4 13.1018 10.0265 13.1064 11.7047 13.1111Z" fill="#404040"/>
<path d="M2.17029 14.9294C2.17029 15.056 2.17966 15.1076 2.18904 15.0326C2.19841 14.9623 2.19841 14.8591 2.18904 14.7982C2.17966 14.7419 2.17029 14.7982 2.17029 14.9294Z" fill="#404040"/>
<path d="M10.1859 14.7986C10.3359 14.808 10.5656 14.808 10.7015 14.7986C10.8375 14.7893 10.7156 14.7846 10.4297 14.7846C10.1484 14.7846 10.0359 14.7893 10.1859 14.7986Z" fill="#404040"/>
<path d="M13.0687 14.7986C13.2 14.808 13.425 14.808 13.5609 14.7986C13.6922 14.7893 13.5844 14.7846 13.3125 14.7846C13.0406 14.7846 12.9328 14.7893 13.0687 14.7986Z" fill="#404040"/>
<path d="M15.975 14.7986C16.1062 14.808 16.3312 14.808 16.4672 14.7986C16.5984 14.7893 16.4906 14.7846 16.2187 14.7846C15.9469 14.7846 15.839 14.7893 15.975 14.7986Z" fill="#404040"/>
<path d="M18.8812 14.7986C19.0125 14.808 19.2375 14.808 19.3734 14.7986C19.5047 14.7893 19.3969 14.7846 19.125 14.7846C18.8531 14.7846 18.7453 14.7893 18.8812 14.7986Z" fill="#404040"/>
<path d="M10.5094 19.3455C11.5547 19.3549 13.2844 19.3549 14.3531 19.3455C15.4172 19.3408 14.5594 19.3361 12.4453 19.3361C10.3312 19.3361 9.45936 19.3408 10.5094 19.3455Z" fill="#404040"/>
<path d="M18.4359 19.3455C18.8906 19.3549 19.6406 19.3549 20.1 19.3455C20.5547 19.3408 20.1797 19.3361 19.2656 19.3361C18.3515 19.3361 17.9765 19.3408 18.4359 19.3455Z" fill="#404040"/>
<path d="M0.735938 6.97031C0.717188 6.98437 0.703125 7.8375 0.703125 8.85469C0.703125 10.8703 0.703125 10.875 0.445313 10.9406C0.332813 10.9687 0.328125 10.9875 0.328125 11.2969C0.328125 11.5828 0.3375 11.625 0.4125 11.625C0.459375 11.625 0.54375 11.6719 0.6 11.7328C0.698438 11.8359 0.703125 11.8875 0.7125 12.8906L0.726563 13.9453L2.92031 13.9594L5.10938 13.9688V10.4531V6.9375H2.93906C1.74375 6.9375 0.75 6.95156 0.735938 6.97031ZM4.74844 7.50469C4.97813 7.60781 5.01563 7.75312 5.01563 8.5875C5.01563 9.23437 5.00156 9.37031 4.93594 9.46875C4.77656 9.70312 4.80469 9.69844 3.14063 9.70312C1.39688 9.70312 1.41563 9.70781 1.28438 9.39375C1.19531 9.17812 1.19531 7.97812 1.28438 7.7625C1.41563 7.45312 1.40156 7.45312 3.10313 7.45312C4.10625 7.45312 4.67344 7.47187 4.74844 7.50469ZM2.52656 10.3828C2.75156 10.4953 2.78906 10.7625 2.60156 10.9453C2.49844 11.0531 2.45156 11.0625 2.1 11.0625C1.67813 11.0578 1.57969 11.0203 1.5 10.8094C1.43906 10.6453 1.51875 10.4578 1.6875 10.3734C1.84688 10.2937 2.3625 10.2984 2.52656 10.3828ZM4.56094 10.3687C4.80469 10.4953 4.85156 10.7578 4.66406 10.9453C4.56094 11.0531 4.51406 11.0625 4.14844 11.0625C3.81563 11.0625 3.73594 11.0484 3.65625 10.9687C3.45938 10.7719 3.51094 10.4625 3.76406 10.3594C3.91406 10.2984 4.44375 10.3031 4.56094 10.3687ZM2.60156 11.6016C2.67656 11.6719 2.71875 11.7703 2.71875 11.8594C2.71875 11.9484 2.67656 12.0469 2.60156 12.1172C2.49844 12.2203 2.45156 12.2344 2.11406 12.2344C1.79063 12.2344 1.725 12.2203 1.6125 12.1266C1.43906 11.9719 1.43906 11.7469 1.6125 11.5922C1.725 11.4984 1.79063 11.4844 2.11406 11.4844C2.45156 11.4844 2.49844 11.4984 2.60156 11.6016ZM4.69219 11.6203C4.80469 11.7609 4.80469 11.9578 4.69219 12.0984C4.6125 12.1969 4.55625 12.2109 4.2 12.2297C3.80625 12.2437 3.79688 12.2391 3.65625 12.1031C3.58125 12.0234 3.51563 11.9156 3.51563 11.8594C3.51563 11.8031 3.58125 11.6953 3.65625 11.6156C3.79688 11.4797 3.80625 11.475 4.2 11.4891C4.55625 11.5078 4.6125 11.5219 4.69219 11.6203ZM2.60156 12.7734C2.78906 12.9562 2.75156 13.2234 2.52656 13.3359C2.3625 13.4203 1.84688 13.425 1.6875 13.3453C1.51875 13.2609 1.43906 13.0734 1.5 12.9094C1.57969 12.6984 1.67813 12.6609 2.1 12.6562C2.45156 12.6562 2.49844 12.6656 2.60156 12.7734ZM4.66406 12.7734C4.85156 12.9609 4.80469 13.2234 4.56094 13.35C4.43906 13.4156 3.94219 13.425 3.77813 13.3594C3.51094 13.2609 3.45 12.9562 3.65625 12.75C3.73594 12.6703 3.81563 12.6562 4.14844 12.6562C4.51406 12.6562 4.56094 12.6656 4.66406 12.7734Z" fill="#406B6B"/>
<path d="M13.9453 7.22812L12.5391 8.64844L13.9594 7.24219C15.2766 5.93437 15.3984 5.8125 15.3609 5.8125C15.3563 5.8125 14.7188 6.45 13.9453 7.22812Z" fill="#96C1C1"/>
<path d="M22.6406 2.175C22.6406 2.38125 22.6641 2.48906 22.7109 2.53125C22.8 2.60625 22.8 2.85469 22.7109 2.98594C22.6453 3.075 22.6406 4.10156 22.6406 12C22.6406 19.8281 22.65 20.925 22.7109 21.0141C22.8 21.1453 22.8 21.3937 22.7109 21.4687C22.6641 21.5109 22.6406 21.6187 22.6406 21.825V22.125H22.9688H23.2969V12V1.875H22.9688H22.6406V2.175Z" fill="#6B96EC"/>
<path d="M20.2969 1.57031C20.2969 1.6125 20.2453 1.69687 20.1797 1.75781L20.0672 1.875H13.1719H6.28125V12V22.125H14.4609H22.6406V21.8484V21.5672L22.4766 21.5953C22.3406 21.6187 22.2938 21.6 22.1719 21.4781C22.0031 21.3094 21.9938 21.1547 22.1297 20.9766C22.2188 20.8687 22.2609 20.8547 22.4344 20.8687L22.6406 20.8828L22.6359 13.5469C22.6359 7.55625 22.6219 6.25312 22.575 6.43125C22.5188 6.6375 22.3313 6.93281 22.1719 7.06875C22.1344 7.10156 21.9984 7.18125 21.8672 7.24219C21.2156 7.56094 20.3953 7.22812 20.1328 6.54844C20.0344 6.28125 20.0531 5.775 20.175 5.52656C20.4844 4.88437 21.2766 4.61719 21.9141 4.94531C22.2375 5.10937 22.4344 5.33906 22.5516 5.68125L22.6359 5.92969L22.6406 4.52344V3.11719L22.4344 3.13125C22.2609 3.14531 22.2188 3.13125 22.1297 3.02344C21.9938 2.84531 22.0031 2.69062 22.1719 2.52187C22.2938 2.4 22.3406 2.38125 22.4766 2.40469L22.6406 2.43281V2.15156V1.875H21.9141C21.2016 1.875 21.1828 1.87031 21.0703 1.75781C21.0047 1.69687 20.9531 1.6125 20.9531 1.57031C20.9531 1.51406 20.8875 1.5 20.625 1.5C20.3625 1.5 20.2969 1.51406 20.2969 1.57031ZM7.38281 2.50781C7.53281 2.65312 7.54219 2.91094 7.40625 3.04687C7.18594 3.26719 6.75 3.07969 6.75 2.76562C6.75 2.57344 6.93281 2.39062 7.125 2.39062C7.21406 2.39062 7.3125 2.43281 7.38281 2.50781ZM18.9703 4.05937C19.0406 4.11094 19.1391 4.22812 19.1813 4.31719C19.2609 4.4625 19.2656 4.73437 19.2656 7.95937C19.2656 11.7891 19.275 11.6531 18.9797 11.8641L18.8203 11.9766L14.8406 11.9906C10.9453 12 10.8563 12 10.6688 11.9062C10.5609 11.8547 10.4344 11.7469 10.3828 11.6625C10.2938 11.5125 10.2891 11.4141 10.2891 7.96875C10.2891 4.53281 10.2938 4.425 10.3828 4.275C10.4297 4.19531 10.5563 4.08281 10.6641 4.03125C10.8469 3.9375 10.9266 3.9375 14.8453 3.94687C18.7969 3.96094 18.8391 3.96094 18.9703 4.05937ZM8.72813 4.9125C9.22031 5.12812 9.48281 5.53125 9.4875 6.07031C9.49219 6.81094 9.01875 7.30781 8.26875 7.35C7.89375 7.37344 7.64531 7.28906 7.36875 7.05937C6.85781 6.62344 6.7875 5.77031 7.22813 5.26875C7.63594 4.80937 8.19375 4.67344 8.72813 4.9125ZM8.88281 9.04687C9.00938 9.1875 9 9.45937 8.86406 9.56719C8.77031 9.64219 8.67188 9.65625 8.2125 9.65625C7.72031 9.65625 7.65938 9.64687 7.56094 9.55312C7.42031 9.42187 7.42031 9.20625 7.55625 9.06094C7.65 8.95781 7.69219 8.95312 8.22656 8.95312C8.74219 8.95312 8.80781 8.9625 8.88281 9.04687ZM21.9375 9C22.1391 9.10781 22.125 9.54375 21.9141 9.62812C21.8719 9.64219 21.5953 9.65625 21.3047 9.65625C20.8125 9.65625 20.7609 9.64687 20.6719 9.55312C20.55 9.42187 20.55 9.16875 20.6719 9.04687C20.7563 8.9625 20.8266 8.95312 21.3094 8.95312C21.6047 8.95312 21.8906 8.97187 21.9375 9ZM8.88281 10.4062C9.00938 10.5469 9 10.8187 8.86406 10.9266C8.77031 11.0016 8.67188 11.0156 8.2125 11.0156C7.72031 11.0156 7.65938 11.0062 7.56094 10.9125C7.42031 10.7812 7.42031 10.5656 7.55625 10.4203C7.65 10.3172 7.69219 10.3125 8.22656 10.3125C8.74219 10.3125 8.80781 10.3219 8.88281 10.4062ZM21.9375 10.3594C22.1391 10.4672 22.125 10.9031 21.9141 10.9875C21.8719 11.0016 21.5953 11.0156 21.3047 11.0156C20.8125 11.0156 20.7609 11.0062 20.6719 10.9125C20.55 10.7812 20.55 10.5281 20.6719 10.4062C20.7563 10.3219 20.8266 10.3125 21.3094 10.3125C21.6047 10.3125 21.8906 10.3312 21.9375 10.3594ZM21.2016 13.1437C21.4031 13.2234 21.6469 13.5094 21.6797 13.6969C21.6938 13.7812 21.7031 15.1312 21.6938 16.6922L21.6797 19.5328L21.5484 19.7016C21.2906 20.0437 21.3234 20.0391 19.3406 20.0531C17.4094 20.0672 17.4094 20.0672 17.2875 19.8C17.2406 19.6969 17.2078 19.6875 16.9172 19.6875C16.6219 19.6875 16.6031 19.6922 16.575 19.8047C16.5094 20.0719 16.6219 20.0672 12.3422 20.0531L8.41406 20.0391L8.24063 19.9312C8.14688 19.8703 8.02031 19.7437 7.95938 19.65L7.85156 19.4766L7.8375 16.6734C7.82813 14.8125 7.84219 13.8094 7.875 13.6875C7.93594 13.4625 8.10469 13.2562 8.30625 13.1578C8.44688 13.0875 9.05625 13.0781 14.7563 13.0781C19.9359 13.0781 21.075 13.0875 21.2016 13.1437ZM7.40625 20.9531C7.62656 21.1734 7.43906 21.6094 7.125 21.6094C6.93281 21.6094 6.75 21.4266 6.75 21.2344C6.75 20.9203 7.18594 20.7328 7.40625 20.9531Z" fill="#6BC1EC"/>
<path d="M14.4844 7.72031L13.1016 9.11719L14.4984 7.73437C15.7922 6.45 15.9141 6.32812 15.8766 6.32812C15.8719 6.32812 15.2438 6.95625 14.4844 7.72031Z" fill="#C1C1EC"/>
<path d="M8.5875 16.5562L8.60156 19.2891L12.5063 19.3125L16.4156 19.3359L16.5047 19.4484C16.5516 19.5094 16.5938 19.5844 16.5938 19.6219C16.5938 19.6734 16.6734 19.6875 16.9172 19.6875C17.2313 19.6875 17.2406 19.6828 17.2969 19.5469C17.3297 19.4672 17.3953 19.3828 17.4422 19.3594C17.4891 19.3312 18.2297 19.3125 19.2375 19.3125H20.9531V16.5703V13.8281H14.7656H8.57812L8.5875 16.5562ZM11.0953 14.8687C11.2359 15 11.2453 15.2766 11.1047 15.4031C11.0203 15.4781 10.9219 15.4922 10.4813 15.5062C9.90469 15.5203 9.76875 15.4781 9.66563 15.2672C9.59531 15.1172 9.62344 14.9859 9.76406 14.8594C9.84844 14.775 9.92813 14.7656 10.425 14.7656C10.9359 14.7656 10.9969 14.775 11.0953 14.8687ZM14.0016 14.8687C14.1375 14.9953 14.1422 15.2297 14.0203 15.3797C13.9359 15.4875 13.9031 15.4922 13.3359 15.4922H12.7406L12.6234 15.3562C12.5344 15.2484 12.5109 15.1875 12.5344 15.075C12.5859 14.8078 12.6938 14.7656 13.3266 14.7656C13.8422 14.7656 13.9031 14.775 14.0016 14.8687ZM16.8984 14.8828C17.1094 15.0937 17.0109 15.4219 16.7156 15.4969C16.65 15.5109 16.3828 15.5156 16.125 15.5062C15.6703 15.4922 15.6422 15.4875 15.5344 15.3609C15.3891 15.1922 15.3891 15.0281 15.5391 14.8828C15.6469 14.7703 15.6797 14.7656 16.2188 14.7656C16.7578 14.7656 16.7906 14.7703 16.8984 14.8828ZM19.8047 14.8828C19.9313 15.0047 19.9547 15.2109 19.8609 15.3328C19.7484 15.4781 19.5984 15.5156 19.125 15.5156C18.6516 15.5156 18.5016 15.4781 18.3891 15.3328C18.2953 15.2109 18.3188 15.0047 18.4453 14.8828C18.5531 14.7703 18.5859 14.7656 19.125 14.7656C19.6641 14.7656 19.6969 14.7703 19.8047 14.8828ZM11.1141 16.3078C11.2359 16.4578 11.2313 16.7062 11.1 16.8281C11.0109 16.9125 10.9359 16.9219 10.4484 16.9219C10.1438 16.9219 9.8625 16.9078 9.82031 16.8937C9.62344 16.8141 9.57188 16.4484 9.74063 16.2984C9.8625 16.1906 9.96563 16.1766 10.5188 16.1859C10.9875 16.1953 11.0297 16.2047 11.1141 16.3078ZM13.8703 16.2234C14.1234 16.3125 14.1938 16.6125 14.0063 16.8141C13.9125 16.9172 13.8703 16.9219 13.3359 16.9219C12.7031 16.9219 12.5906 16.8844 12.5391 16.6406C12.5016 16.4719 12.6047 16.2844 12.7641 16.2187C12.9141 16.1578 13.6922 16.1625 13.8703 16.2234ZM16.7766 16.2234C17.0297 16.3125 17.1 16.6125 16.9125 16.8141C16.8188 16.9172 16.7766 16.9219 16.2328 16.9219C15.6797 16.9219 15.6469 16.9172 15.5391 16.8047C15.4734 16.7437 15.4219 16.6406 15.4219 16.5844C15.4219 16.4437 15.5438 16.2703 15.675 16.2187C15.8203 16.1578 16.6031 16.1625 16.7766 16.2234ZM19.8094 16.3266C19.9547 16.4953 19.9547 16.6594 19.8047 16.8047C19.6969 16.9172 19.6641 16.9219 19.125 16.9219C18.5859 16.9219 18.5531 16.9172 18.4453 16.8047C18.2953 16.6594 18.2906 16.4531 18.4359 16.3266C18.5906 16.1812 18.6375 16.1766 19.1859 16.1859C19.6828 16.1953 19.6969 16.2 19.8094 16.3266ZM11.0813 17.7234C11.2547 17.8594 11.2547 18.1406 11.0813 18.2766C10.9734 18.3609 10.8891 18.375 10.425 18.375C9.9375 18.375 9.88594 18.3656 9.76875 18.2672C9.675 18.1875 9.64219 18.1125 9.64219 18C9.64219 17.8875 9.675 17.8125 9.76875 17.7328C9.88594 17.6344 9.9375 17.625 10.425 17.625C10.8891 17.625 10.9734 17.6391 11.0813 17.7234ZM13.9875 17.7234C14.1375 17.8406 14.1516 18.075 14.0203 18.2391C13.9359 18.3422 13.8938 18.3516 13.3828 18.3656C12.9469 18.3797 12.8156 18.3703 12.7266 18.3094C12.4875 18.1547 12.4641 17.9062 12.6656 17.7187C12.7547 17.6344 12.8297 17.625 13.3172 17.625C13.8 17.625 13.875 17.6344 13.9875 17.7234ZM16.8984 17.7422C17.0391 17.8781 17.0484 18.0891 16.9266 18.2391C16.8422 18.3422 16.7953 18.3516 16.3125 18.3656C15.7313 18.3844 15.5578 18.3422 15.4734 18.1594C15.3938 17.9812 15.4125 17.8641 15.5391 17.7422C15.6469 17.6297 15.6797 17.625 16.2188 17.625C16.7578 17.625 16.7906 17.6297 16.8984 17.7422ZM19.8047 17.7422C19.9922 17.925 19.9547 18.1922 19.7297 18.3047C19.5469 18.4031 18.7031 18.4031 18.5203 18.3047C18.2953 18.1922 18.2578 17.925 18.4453 17.7422C18.5531 17.6297 18.5859 17.625 19.125 17.625C19.6641 17.625 19.6969 17.6297 19.8047 17.7422Z" fill="#C1C1EC"/>
<path d="M2.20312 14.9297V15.1406H3.11719H4.03125V14.9297V14.7187H3.11719H2.20312V14.9297Z" fill="#C1C1EC"/>
<path d="M11.0156 7.96875V11.25H14.7656H18.5156V7.96875V4.6875H14.7656H11.0156V7.96875ZM13.8469 5.81719C13.9359 5.8875 13.9688 5.95781 13.9688 6.07969C13.9688 6.225 13.9219 6.29531 13.5984 6.62344C13.2656 6.96562 13.2094 7.00312 13.0547 7.00312C12.8391 7.00312 12.7031 6.85781 12.7031 6.6375C12.7031 6.51094 12.7641 6.42656 13.0969 6.10312C13.5234 5.68594 13.6266 5.64375 13.8469 5.81719ZM15.8672 5.83594C15.9984 5.9625 16.0125 6.08906 15.9188 6.27187C15.8813 6.34219 15.2203 7.02656 14.4516 7.79062C13.1484 9.08906 13.0359 9.1875 12.8859 9.1875C12.6609 9.1875 12.5156 9.04687 12.5156 8.82187C12.5156 8.65781 12.5859 8.57812 13.9828 7.18594C15.3094 5.85937 15.4594 5.71875 15.6 5.71875C15.7031 5.71875 15.7922 5.75625 15.8672 5.83594Z" fill="#C1ECEC"/>
<path d="M1.96875 8.57812V9H3.11719H4.26563V8.57812V8.15625H3.11719H1.96875V8.57812Z" fill="#C1ECEC"/>
</g>
<defs>
<clipPath id="clip0_1167_1937">
<rect width="24" height="24" fill="white"/>
</clipPath>
</defs>
</svg>
