<svg width="24" height="24" viewBox="0 0 24 24" fill="none" xmlns="http://www.w3.org/2000/svg">
<path d="M20.9531 0.0656264C20.6719 0.145314 20.6859 0.140626 17.9297 1.47656C16.6172 2.11406 15.2437 2.77969 14.8828 2.95313C13.8375 3.45469 13.6547 3.73594 13.7484 4.68281C13.7578 4.79531 13.5844 4.875 9.82029 6.44531L5.88279 8.09063L5.73748 7.16719C5.5781 6.15 5.49842 5.93438 5.19842 5.62969C4.96404 5.4 4.68748 5.25938 4.33123 5.20313C3.97498 5.14219 1.64998 5.14219 1.29373 5.20313C0.932791 5.25938 0.665604 5.39531 0.426541 5.63438C-2.13269e-05 6.07031 -0.0750213 6.49219 0.0890412 7.55156C0.140604 7.89844 0.271854 8.72813 0.374979 9.39844C0.482791 10.0688 0.618729 10.9547 0.684354 11.3625C0.810916 12.2016 0.914041 12.4828 1.19998 12.7688C1.3031 12.8672 1.49998 13.0078 1.6406 13.0734L1.89842 13.1953H3.58592H5.27342L5.53592 13.0734C6.03279 12.8391 6.36092 12.3656 6.40779 11.8219C6.41717 11.6672 6.38904 11.3156 6.33748 11.0016C6.28123 10.6406 6.26717 10.4578 6.29998 10.4719C6.37967 10.5047 8.79373 11.4563 11.9156 12.6844C13.4812 13.2984 14.7562 13.8047 14.7515 13.8094C14.7469 13.8141 12.7594 14.9531 10.3359 16.3359C7.91248 17.7234 5.9156 18.8625 5.90154 18.8719C5.88748 18.8766 5.81717 18.4922 5.74685 18.0094C5.60154 17.0484 5.51248 16.7766 5.22654 16.4625C5.13279 16.3547 4.93592 16.2094 4.7906 16.1391L4.52342 16.0078H2.81248H1.10154L0.834354 16.1391C0.543729 16.2844 0.290604 16.5328 0.135916 16.8375C-0.0562713 17.2125 -0.0375213 17.5781 0.276541 19.5703C0.431229 20.55 0.614041 21.7078 0.679666 22.1438C0.749979 22.5984 0.843729 23.0203 0.895291 23.1328C1.03592 23.4281 1.27029 23.6813 1.55154 23.8359L1.80467 23.9766H3.58592C5.3531 23.9766 5.36717 23.9766 5.56873 23.8688C6.05154 23.6109 6.3656 23.1563 6.40779 22.6453C6.42185 22.5 6.38904 22.1297 6.33748 21.8109C6.2531 21.2766 6.2531 21.2344 6.3281 21.2344C6.37029 21.2344 8.48435 21.4875 11.0203 21.7922C13.5562 22.1016 16.1719 22.4203 16.8281 22.4953C18.5015 22.6969 18.375 22.6734 18.375 22.8281C18.375 23.0391 18.5156 23.4188 18.6609 23.5922C18.7359 23.6859 18.9047 23.8125 19.0406 23.8781L19.2844 24H20.8078C22.2562 24 22.3406 23.9953 22.5328 23.9016C22.7859 23.7797 23.0765 23.4516 23.1469 23.2125C23.1844 23.0859 23.2031 22.5469 23.2031 21.5484V20.0719L23.0719 19.8281C22.9312 19.5563 22.6172 19.3031 22.3219 19.2188C22.2234 19.1906 21.5765 19.1719 20.8078 19.1719C19.214 19.1719 19.1015 19.1953 18.7453 19.5469C18.5859 19.7109 18.5015 19.8422 18.4594 19.9922L18.3984 20.2125L18.1875 20.1938C17.3109 20.1047 10.3312 19.2469 10.3031 19.2234C10.2844 19.2094 11.9437 18.2438 13.9828 17.0766C16.0265 15.9141 17.7 14.9672 17.7094 14.9766C17.7187 14.9859 17.6906 15.2297 17.6484 15.525C17.5594 16.125 17.5734 16.3875 17.7234 16.7297C17.8406 17.0109 18.1922 17.3531 18.5062 17.4984C18.7219 17.5969 18.7781 17.6016 20.414 17.6016C22.0453 17.6016 22.1109 17.5969 22.3219 17.4984C22.6219 17.3578 22.9453 17.0531 23.0859 16.7625C23.2453 16.4297 24.014 11.5594 23.9906 11.0156C23.9719 10.5938 23.8453 10.2984 23.5594 10.0219C23.114 9.59063 22.889 9.54844 21 9.57188L19.5234 9.58594L19.2656 9.70781C19.125 9.77344 18.9234 9.91406 18.8156 10.0172C18.5062 10.3172 18.4265 10.5469 18.2625 11.5781C18.1406 12.3563 18.1031 12.5016 18.0469 12.4688C18.0094 12.45 16.1437 11.7094 13.9031 10.8328C11.6625 9.95156 9.80154 9.21563 9.76404 9.19688C9.72185 9.16875 10.575 8.79375 12.2484 8.09531C13.65 7.50938 14.8172 7.03125 14.8359 7.03125C14.8547 7.03125 14.9531 7.125 15.0562 7.24219C15.3375 7.56094 15.5578 7.66406 15.9844 7.65938H16.3359L18.6797 6.525C19.9687 5.89688 21.0609 5.35313 21.1031 5.30625C21.15 5.26406 21.1969 5.16094 21.2156 5.08125C21.2531 4.89375 21.0281 4.64063 20.8265 4.64063C20.7515 4.64063 20.025 4.96406 19.1484 5.39063L17.6015 6.13594L16.9312 4.77188C16.5656 4.01719 16.2515 3.35625 16.2375 3.30469C16.214 3.21563 16.4484 3.09375 18.5719 2.06719C19.8703 1.43906 21.0234 0.895314 21.1406 0.857814C21.2719 0.815626 21.4734 0.796876 21.6844 0.810939C22.2937 0.843751 22.8 1.18125 23.0578 1.72969C23.2219 2.08125 23.2312 2.71875 23.0765 3.05625C22.95 3.32813 22.65 3.66094 22.3781 3.82031C22.125 3.97031 22.0594 4.08281 22.1015 4.30781C22.1437 4.52813 22.1953 4.58438 22.3828 4.62188C22.5047 4.64531 22.5984 4.61719 22.7906 4.51406C23.3062 4.2375 23.775 3.62813 23.9344 3.02344C24.0328 2.66719 24.0187 2.03438 23.9062 1.67813C23.6672 0.900001 22.95 0.229689 22.1719 0.0515639C21.8906 -0.0140611 21.2156 -0.00468607 20.9531 0.0656264ZM16.1719 4.97344C16.5469 5.74688 16.8562 6.40781 16.8656 6.44063C16.8844 6.525 16.0453 6.90469 15.9094 6.87188C15.8531 6.85781 15.764 6.80625 15.7125 6.76406C15.5859 6.65156 14.5312 4.44844 14.5312 4.28906C14.5312 4.07813 14.6156 3.98906 15.0375 3.77344C15.2625 3.66094 15.4547 3.56719 15.4687 3.56719C15.4828 3.5625 15.7969 4.19531 16.1719 4.97344ZM14.3765 5.88281C14.4703 6.075 14.5406 6.24375 14.5265 6.25313C14.5125 6.26719 13.125 6.84844 11.4375 7.55156C9.74998 8.25 8.32029 8.86875 8.26404 8.92031C8.13279 9.0375 8.12342 9.27656 8.2406 9.41719C8.29217 9.48281 9.93748 10.1484 13.0547 11.3719C16.6406 12.7781 17.8172 13.2563 17.8969 13.3453C17.9859 13.4438 18 13.5 17.9765 13.6359C17.9625 13.7297 17.9015 13.8516 17.8453 13.9031C17.789 13.9594 15.6797 15.1781 13.1625 16.6172C9.14998 18.9047 8.5781 19.2469 8.53592 19.3641C8.47967 19.5234 8.52185 19.6734 8.6531 19.7906C8.74685 19.8703 9.08435 19.9125 15.8437 20.7234C17.1469 20.8781 18.2578 21.0141 18.3187 21.0281C18.4172 21.0469 18.4219 21.0703 18.4219 21.4406C18.4219 21.6516 18.4125 21.8391 18.3984 21.8484C18.389 21.8625 15.6562 21.5438 12.3328 21.1406C7.79998 20.5875 6.25779 20.3859 6.17342 20.3297C6.03748 20.2406 5.96248 19.9359 6.04217 19.7953C6.0656 19.7438 8.29685 18.4453 11.0015 16.9031C13.7015 15.3609 15.9609 14.0484 16.0219 13.9828C16.1531 13.8375 16.1578 13.5938 16.0265 13.4719C15.975 13.425 13.7484 12.5297 11.0765 11.4797C8.40935 10.4344 6.18748 9.54375 6.1406 9.50625C6.00935 9.39375 5.97654 9.10313 6.07967 8.9625C6.1406 8.87813 7.1531 8.4375 10.125 7.19531C12.3047 6.28594 14.114 5.53594 14.1469 5.53594C14.1797 5.53125 14.2828 5.69063 14.3765 5.88281ZM4.50467 6.10781C4.59373 6.16406 4.70154 6.28594 4.74373 6.375C4.85154 6.6 5.63435 11.6344 5.59685 11.8547C5.55467 12.0563 5.26873 12.3516 5.06248 12.3891C4.9781 12.4078 4.29373 12.4219 3.54373 12.4219C2.21717 12.4219 2.17029 12.4172 1.96873 12.3141C1.85154 12.2578 1.72029 12.1453 1.67342 12.0563C1.60779 11.9484 1.47654 11.2031 1.1906 9.38438C0.974979 8.00156 0.796854 6.78281 0.796854 6.67969C0.796854 6.45 0.932791 6.22031 1.13435 6.09375C1.27967 6.00469 1.37342 6 2.81717 6C4.32654 6 4.34529 6 4.50467 6.10781ZM22.8656 10.5C23.0625 10.6219 23.2031 10.8563 23.2031 11.0672C23.2031 11.1609 23.025 12.3797 22.8094 13.7766C22.5234 15.6094 22.3922 16.3547 22.3265 16.4625C22.2797 16.5516 22.1484 16.6641 22.0312 16.725C21.8297 16.8234 21.7828 16.8281 20.414 16.8281C19.0453 16.8281 18.9984 16.8234 18.7969 16.7203C18.6375 16.6453 18.5578 16.5609 18.4734 16.3922L18.3656 16.1719L18.7734 13.5328C19.0453 11.7656 19.2047 10.8516 19.2609 10.7578C19.3031 10.6828 19.4109 10.5703 19.5 10.5141C19.6547 10.4063 19.6734 10.4063 21.1828 10.4063C22.6265 10.4063 22.7203 10.4109 22.8656 10.5ZM4.34529 16.8328C4.51404 16.8938 4.7156 17.0859 4.77654 17.2453C4.86092 17.4563 5.62967 22.5047 5.60154 22.65C5.58279 22.725 5.51717 22.8469 5.45154 22.9266C5.21717 23.2031 5.20779 23.2031 3.57185 23.2031C2.09998 23.2031 2.07185 23.2031 1.92185 23.1C1.60779 22.8844 1.62185 22.9359 1.19529 20.2078C0.974979 18.8063 0.796854 17.5828 0.796854 17.4891C0.796854 17.2406 0.937479 17.0109 1.17185 16.8891C1.36873 16.7859 1.40623 16.7813 2.79373 16.7813C3.68435 16.7813 4.26092 16.8 4.34529 16.8328ZM22.2937 20.1234L22.4062 20.2547V21.6141V22.9734L22.289 23.0859L22.1765 23.2031H20.8172H19.4578L19.3265 23.0906L19.1953 22.9781L19.1812 21.675C19.1719 20.7516 19.1859 20.3344 19.2234 20.2406C19.3312 19.9781 19.3969 19.9688 20.85 19.9828L22.1812 19.9922L22.2937 20.1234Z" fill="#404040"/>
<path d="M18.1406 3.65156C17.6672 3.88594 17.55 4.01719 17.6063 4.24219C17.6391 4.37812 17.8313 4.54688 17.9531 4.54688C18.0938 4.54688 18.9281 4.12969 19.0031 4.02187C19.1109 3.86719 19.0969 3.67031 18.9609 3.53906C18.8016 3.375 18.6516 3.39375 18.1406 3.65156Z" fill="#404040"/>
<path d="M10.1719 7.21387C8.02029 8.10918 6.21091 8.8873 6.15466 8.94355C6.01404 9.0748 6.01404 9.29043 6.15466 9.43574C6.22029 9.51074 6.68435 9.71699 7.52341 10.0451C8.68123 10.4998 10.889 11.367 12.539 12.0139C12.9 12.1545 13.4484 12.3701 13.7578 12.492C15.7828 13.2795 15.9844 13.3686 16.0781 13.4857C16.2 13.6451 16.1953 13.842 16.0687 13.9873C16.0078 14.0529 13.7765 15.3514 11.1094 16.8748C8.44216 18.3982 6.20623 19.692 6.14998 19.7482C6.06091 19.8326 6.04216 19.8842 6.06091 20.0295C6.08904 20.2451 6.15466 20.3295 6.31873 20.3623C6.38904 20.3764 9.07029 20.7045 12.2812 21.0936C15.4922 21.4779 18.1734 21.8061 18.2484 21.8201L18.375 21.8389V21.4545V21.0701L13.5844 20.4889C10.8047 20.1561 8.73748 19.8842 8.66716 19.8467C8.52185 19.7764 8.48435 19.6967 8.48435 19.467C8.48435 19.3592 8.51716 19.2748 8.59216 19.2092C8.64841 19.1576 10.739 17.9482 13.2375 16.5232C15.7359 15.0936 17.8125 13.8982 17.8453 13.8607C17.9578 13.7482 17.9765 13.4436 17.8734 13.3498C17.8265 13.3076 17.4328 13.1342 16.9922 12.9607C16.5562 12.7873 15.614 12.4217 14.9062 12.1404C12.5625 11.217 9.9281 10.1857 9.11716 9.87168C8.13748 9.4873 7.99216 9.35605 8.16091 8.98105C8.22654 8.84512 8.18904 8.86387 10.6172 7.85137C11.6484 7.4248 12.7453 6.96543 13.0547 6.83887C13.364 6.70762 13.7953 6.52949 14.0156 6.43574C14.2359 6.34668 14.4328 6.25293 14.4515 6.23418C14.4984 6.19199 14.2031 5.57793 14.1328 5.58262C14.1094 5.58262 12.3234 6.31855 10.1719 7.21387Z" fill="#C16B6B"/>
<path d="M21.0938 0.904584C21.0047 0.937396 19.8703 1.48115 18.5813 2.10458L16.2281 3.24365L16.9031 4.62646C17.2735 5.39052 17.5781 6.01865 17.5781 6.02802C17.5781 6.09365 17.8688 5.96708 19.2141 5.31552C20.5453 4.67333 20.7469 4.58896 20.8875 4.61708C20.9766 4.63115 21.075 4.6874 21.1078 4.73427C21.136 4.78583 21.1828 4.82802 21.2016 4.82802C21.225 4.82802 21.4313 4.73896 21.661 4.63115C22.0594 4.44833 22.0828 4.42958 22.0547 4.3124C22.0125 4.11083 22.1063 3.95146 22.3735 3.78271C22.8985 3.44521 23.1563 2.98115 23.1563 2.37646C23.1563 1.96396 23.0156 1.62646 22.7203 1.32177C22.411 0.998333 22.1297 0.876459 21.6563 0.857709C21.4031 0.848334 21.1969 0.867084 21.0938 0.904584ZM19.0219 3.54365C19.1438 3.68427 19.1531 3.87177 19.05 4.02646C18.9375 4.18583 18.0563 4.60771 17.9063 4.57021C17.625 4.4999 17.4891 4.19052 17.6297 3.93271C17.6578 3.88115 17.8922 3.73115 18.1547 3.60458C18.6891 3.34208 18.8344 3.33271 19.0219 3.54365Z" fill="#C1ECEC"/>
<path d="M22.3782 21.5857C22.3782 22.256 22.3875 22.5232 22.3922 22.181C22.4016 21.8389 22.4016 21.2904 22.3922 20.9623C22.3875 20.6342 22.3782 20.9154 22.3782 21.5857Z" fill="#C1ECEC"/>
<path d="M15.0375 3.825C14.6203 4.03594 14.5359 4.13437 14.5734 4.36875C14.5781 4.41562 14.8359 4.96875 15.1406 5.59687C15.6844 6.71719 15.7687 6.84375 15.9703 6.84375C16.0734 6.84375 16.8281 6.4875 16.8281 6.44062C16.8281 6.39844 15.5156 3.68906 15.4781 3.64687C15.4594 3.63281 15.2625 3.7125 15.0375 3.825Z" fill="#ECECEC"/>
<path d="M1.29847 6.06563C0.979724 6.18281 0.834412 6.38906 0.839099 6.72188C0.839099 6.825 1.01722 8.04375 1.23285 9.43125C1.6641 12.1641 1.65472 12.1406 1.98754 12.3C2.12347 12.3656 2.35316 12.375 3.58129 12.375C5.14222 12.375 5.23597 12.3609 5.42816 12.1172C5.48441 12.0469 5.54066 11.9203 5.55941 11.8359C5.6016 11.6063 4.80472 6.53906 4.69691 6.35625C4.65004 6.27656 4.54222 6.17344 4.45316 6.11719C4.29847 6.02813 4.20004 6.02344 2.88285 6.01406C1.78597 6.00469 1.4391 6.01406 1.29847 6.06563Z" fill="#ECECEC"/>
<path d="M19.5937 10.5094C19.4766 10.5703 19.35 10.6828 19.3031 10.7625C19.2 10.9406 18.4031 15.975 18.4406 16.2094C18.4734 16.4156 18.6234 16.6125 18.8156 16.7062C18.9516 16.7719 19.1812 16.7812 20.4094 16.7812C21.7406 16.7812 21.8625 16.7766 22.0266 16.6922C22.125 16.6406 22.2422 16.5422 22.2891 16.4719C22.35 16.3734 22.4766 15.675 22.7625 13.8281C22.9781 12.45 23.1562 11.2266 23.1562 11.1094C23.1562 10.8281 23.0203 10.6125 22.7672 10.5C22.5891 10.4156 22.4484 10.4062 21.1875 10.4062C19.8422 10.4062 19.7953 10.4109 19.5937 10.5094Z" fill="#ECECEC"/>
<path d="M1.23752 16.8748C1.18595 16.8936 1.07814 16.9873 0.993767 17.0811C0.853142 17.2452 0.82033 17.353 0.843767 17.6248C0.862517 17.8873 1.59845 22.5795 1.64533 22.7155C1.71095 22.9264 1.93127 23.1139 2.16564 23.1608C2.46564 23.217 4.73439 23.2123 5.01095 23.1514C5.26877 23.0952 5.50314 22.8842 5.55939 22.6545C5.58283 22.5748 5.43283 21.492 5.18439 19.8983C4.75314 17.0952 4.76252 17.142 4.45314 16.9311C4.29845 16.828 4.2797 16.828 2.8172 16.8327C2.00158 16.8327 1.29377 16.8514 1.23752 16.8748Z" fill="#ECECEC"/>
<path d="M19.425 20.0717C19.2375 20.1608 19.2188 20.292 19.2188 21.6327V22.917L19.3313 23.0483L19.4438 23.1795L20.6109 23.1936C21.9 23.2123 22.1344 23.1936 22.2703 23.0577C22.3547 22.9733 22.3594 22.8889 22.3594 21.5905V20.2077L22.2375 20.1139C22.1156 20.0202 22.0594 20.0155 20.8172 20.0202C20.0297 20.0202 19.4859 20.0389 19.425 20.0717Z" fill="#ECECEC"/>
</svg>
