<svg width="20" height="20" viewBox="0 0 20 20" fill="none" xmlns="http://www.w3.org/2000/svg">
<path d="M7.99805 2.88167C7.18424 2.92399 6.42578 2.96631 6.31836 2.97607C5.77799 3.03141 5.14323 3.29834 4.6875 3.66292C4.0918 4.13818 3.67513 4.85107 3.54167 5.61605C3.49935 5.85042 3.33984 9.05029 3.33984 9.67204C3.33984 10.5119 3.55143 11.1987 4.03646 11.9116C4.26432 12.2502 7.71159 15.7039 8.06315 15.9513C8.75 16.4266 9.50521 16.6675 10.3255 16.6675C11.1491 16.6675 11.8978 16.4299 12.5879 15.9513C12.9264 15.7137 16.2565 12.3836 16.4941 12.0451C17.4544 10.6681 17.4544 8.8973 16.4941 7.52035C16.2565 7.1818 12.8288 3.75407 12.4902 3.51644C12.0117 3.18441 11.4388 2.94027 10.9017 2.84912C10.5306 2.78402 9.81771 2.79053 7.99805 2.88167ZM10.9277 3.95589C11.2142 4.03076 11.5755 4.20003 11.8164 4.37581C12.0605 4.5516 15.5339 8.03141 15.6706 8.23649C15.8203 8.45785 15.9245 8.6792 16.0254 8.98519C16.11 9.2391 16.1165 9.3042 16.1165 9.76644C16.1198 10.1701 16.1068 10.3133 16.0579 10.4826C15.9701 10.7886 15.8008 11.1401 15.6283 11.3875C15.5371 11.5177 14.7852 12.2957 13.7956 13.2853C12.526 14.5516 12.054 15.0041 11.8685 15.1278C10.8952 15.769 9.67448 15.7528 8.7207 15.0854C8.43424 14.8869 5.13346 11.5828 4.92839 11.2899C4.57682 10.7983 4.41406 10.2677 4.41406 9.64274C4.41732 8.87451 4.58008 5.87972 4.62891 5.68115C4.7819 5.08219 5.22135 4.52881 5.75195 4.27165C5.90495 4.19678 6.11654 4.11214 6.2207 4.0861C6.38672 4.04378 7.82552 3.9624 10.0326 3.868C10.3125 3.85498 10.6836 3.89079 10.9277 3.95589Z" fill="#333333"/>
<path d="M8.04362 5.77812C7.91992 5.80742 7.67578 5.89531 7.50651 5.97994C7.25586 6.10364 7.15169 6.17851 6.93359 6.39336C6.49414 6.83281 6.27279 7.37643 6.26953 8.01119C6.26953 9.03007 6.96615 9.93828 7.95247 10.1922C8.23893 10.2638 8.75977 10.2801 9.01042 10.2247C9.86328 10.0294 10.4948 9.42721 10.7292 8.58737C10.8105 8.29765 10.8171 7.76705 10.7422 7.45455C10.5729 6.72539 9.98047 6.08737 9.24805 5.83997C8.91927 5.72929 8.39518 5.70325 8.04362 5.77812ZM9.01042 6.91093C9.25781 7.02161 9.49219 7.24622 9.60612 7.47734C9.72656 7.72148 9.75586 8.1121 9.67448 8.3595C9.45638 9.00729 8.74675 9.35234 8.11523 9.11471C7.85482 9.01705 7.57813 8.75338 7.45443 8.48971C7.37305 8.31067 7.36003 8.24557 7.36003 7.99166C7.36003 7.66289 7.42188 7.48385 7.61719 7.24296C7.95573 6.82955 8.53516 6.68958 9.01042 6.91093Z" fill="#333333"/>
<path d="M13.5278 9.93249C13.4301 9.97155 10.5493 12.8361 10.4809 12.9631C10.406 13.1063 10.4223 13.3765 10.5135 13.5132C10.6534 13.7183 10.9497 13.7964 11.1938 13.6923C11.2524 13.6662 11.9262 13.0152 12.753 12.1883C13.99 10.9449 14.2114 10.7072 14.2439 10.59C14.3709 10.1604 13.9477 9.76973 13.5278 9.93249Z" fill="#333333"/>
</svg>
