<svg width="20" height="20" viewBox="0 0 20 20" fill="none" xmlns="http://www.w3.org/2000/svg">
<path d="M9.0013 1.70626C7.53828 1.86902 5.99381 2.51355 4.80123 3.45105C4.46888 3.71147 3.77158 4.40157 3.49462 4.74662C2.73216 5.68738 2.16846 6.82345 1.88172 7.98881C1.69599 8.74402 1.66992 8.99467 1.66992 9.98425C1.66992 10.9413 1.68947 11.1464 1.83936 11.8234C2.42261 14.4699 4.35158 16.7486 6.85728 17.7447C7.90648 18.1613 8.8286 18.3339 9.99511 18.3339C11.3701 18.3339 12.5529 18.0604 13.7227 17.4745C14.609 17.0285 15.2867 16.5305 15.9905 15.8078C17.2711 14.4895 18.0629 12.8456 18.2877 11.0422C18.3529 10.5116 18.3529 9.48946 18.2877 8.95886C18.102 7.47123 17.4894 6.00639 16.5542 4.81498C16.2805 4.46668 15.3975 3.60405 15.0424 3.33712C13.8628 2.45496 12.478 1.89506 11.0378 1.71603C10.5914 1.66069 9.44444 1.65418 9.0013 1.70626ZM10.94 2.7935C13.563 3.12228 15.883 4.96472 16.8149 7.46147C17.32 8.81238 17.4047 10.3846 17.0495 11.7779C16.3978 14.3234 14.4298 16.3221 11.8915 17.0188C10.6859 17.3475 9.30433 17.3475 8.09873 17.0188C5.58651 16.3287 3.62821 14.3593 2.95699 11.8495C2.64744 10.6874 2.64744 9.31368 2.95699 8.15157C3.29912 6.87553 3.98664 5.70366 4.93157 4.7922C6.55099 3.22644 8.70153 2.51355 10.94 2.7935Z" fill="#313131"/>
<path d="M9.71377 4.85714C9.52804 4.97107 9.49545 5.05571 9.4759 5.48539L9.45961 5.87276L9.2804 5.9281C8.53423 6.15922 7.91188 6.81677 7.71637 7.57849C7.6284 7.92029 7.6284 8.43461 7.71637 8.77641C7.87603 9.40792 8.33547 9.98084 8.9122 10.2673C9.23804 10.4301 9.49545 10.4952 10.0201 10.5472C10.2547 10.57 10.4078 10.6058 10.5349 10.6644C10.7695 10.7719 11.0497 11.0518 11.1638 11.2927C11.242 11.462 11.2517 11.5205 11.2517 11.8233C11.2517 12.126 11.242 12.1846 11.1638 12.3539C11.0497 12.5948 10.7695 12.8747 10.5284 12.9886C10.3589 13.0668 10.3003 13.0765 9.99725 13.0765C9.69422 13.0765 9.63557 13.0668 9.46613 12.9886C9.22827 12.878 8.94479 12.5948 8.83726 12.3636C8.79164 12.266 8.74277 12.0674 8.72322 11.9112C8.66456 11.4685 8.51468 11.3024 8.17255 11.3024C7.96075 11.3024 7.81412 11.3806 7.71637 11.5368C7.6284 11.6833 7.6284 12.0804 7.71637 12.4222C7.91188 13.1872 8.47232 13.7829 9.24782 14.0564L9.45961 14.1312L9.4759 14.5186C9.48894 14.8148 9.50523 14.9222 9.55085 14.9906C9.74309 15.2868 10.2514 15.2868 10.4436 14.9906C10.4893 14.9222 10.5056 14.8148 10.5186 14.5153L10.5349 14.128L10.7141 14.0726C11.457 13.8415 12.0859 13.1807 12.2781 12.4222C12.3661 12.0804 12.3661 11.5661 12.2781 11.2243C12.1185 10.5928 11.659 10.0199 11.0823 9.73344C10.7565 9.57068 10.499 9.50558 9.97444 9.45349C9.73983 9.43071 9.58669 9.3949 9.45961 9.3363C9.22501 9.22888 8.94479 8.94893 8.83074 8.70805C8.75254 8.53878 8.74277 8.48018 8.74277 8.17745C8.74277 7.87472 8.75254 7.81612 8.83074 7.64685C8.94479 7.40597 9.22501 7.12602 9.46613 7.01209C9.63557 6.93396 9.69422 6.9242 9.99725 6.9242C10.3003 6.9242 10.3589 6.93396 10.5284 7.01209C10.7662 7.12276 11.0497 7.40597 11.1572 7.63709C11.2029 7.73474 11.2517 7.93331 11.2713 8.08956C11.3136 8.40206 11.3788 8.53878 11.5352 8.63318C11.6818 8.72107 11.9621 8.72107 12.1087 8.63318C12.2846 8.52576 12.3433 8.39555 12.3433 8.09281C12.3433 7.13904 11.6493 6.21782 10.7141 5.9281L10.5349 5.87276L10.5186 5.48539C10.5056 5.18591 10.4893 5.07849 10.4436 5.01013C10.3492 4.86365 10.1993 4.79203 9.99725 4.79203C9.87669 4.79203 9.78219 4.81157 9.71377 4.85714Z" fill="#313131"/>
</svg>
