<svg width="24" height="22" viewBox="0 0 24 22" fill="none" xmlns="http://www.w3.org/2000/svg">
<path d="M11.1094 2.76875L5.27812 4.93437L4.99687 4.82187C4.75312 4.72344 4.65937 4.70937 4.27031 4.72812C3.89531 4.74219 3.77812 4.77031 3.5625 4.87812C3.12187 5.09844 2.74219 5.54844 2.625 5.98437C2.59687 6.10156 2.59219 6.10156 1.91719 6.125C1.275 6.14844 1.22812 6.15781 0.960937 6.29844C0.61875 6.47656 0.332812 6.76719 0.154687 7.10937L0.0234375 7.36719L0.009375 12.2516L0 17.1406H0.351562H0.703125V12.3922C0.703125 7.89219 0.707812 7.63906 0.792187 7.46094C0.9 7.22187 1.09687 7.025 1.33594 6.91719C1.51406 6.83281 1.93594 6.82812 12 6.82812C22.0641 6.82812 22.4859 6.83281 22.6641 6.91719C22.7672 6.96406 22.9125 7.0625 22.9875 7.1375C23.2734 7.42344 23.2969 7.53125 23.2969 8.78281V9.92187H23.4047C23.4609 9.92187 23.6203 9.93594 23.7562 9.95469L24.0047 9.98281L23.9906 8.675L23.9766 7.36719L23.8406 7.10469C23.6766 6.77187 23.3531 6.45312 23.0156 6.27969C22.7766 6.15781 22.7109 6.14844 22.1156 6.13437L21.4687 6.11562V5.9C21.4687 5.46875 21.15 5.01406 20.7187 4.81719C20.5125 4.72344 20.4281 4.71875 16.8844 4.71875C13.7859 4.71875 13.2375 4.72812 13.0969 4.78906C12.6609 4.96719 12.3422 5.39844 12.2953 5.86719L12.2672 6.125H9.18281H6.09375L6.06562 5.99375C6.04687 5.92344 5.99531 5.79219 5.94844 5.69844L5.86406 5.525L6.17812 5.40781C11.2266 3.55156 17.2359 1.32031 17.2687 1.29219C17.3297 1.24062 17.0953 0.617185 17.0109 0.60781C16.9734 0.60781 14.3203 1.57812 11.1094 2.76875ZM4.85156 5.54375C5.025 5.63281 5.34375 5.98437 5.34375 6.08281C5.34375 6.10625 4.91719 6.125 4.33594 6.125H3.32344L3.39375 5.99375C3.49219 5.80625 3.70312 5.60937 3.91406 5.50625C4.15781 5.39375 4.59375 5.40781 4.85156 5.54375ZM14.4375 5.77344V6.125H13.7109C13.0125 6.125 12.9844 6.12031 12.9844 6.03125C12.9844 5.84844 13.1203 5.60937 13.275 5.51562C13.4062 5.43594 13.5094 5.42187 13.9359 5.42187H14.4375V5.77344ZM16.5469 5.77344V6.125H15.8203H15.0937V5.77344V5.42187H15.8203H16.5469V5.77344ZM18.6562 5.77344V6.125H17.9297H17.2031V5.77344V5.42187H17.9297H18.6562V5.77344ZM20.5594 5.57656C20.6812 5.68906 20.7328 5.77812 20.7516 5.92812L20.7797 6.125H20.0437H19.3125V5.77344V5.42187H19.8516H20.3906L20.5594 5.57656Z" fill="#151515"/>
<path d="M15.3938 8.04707C14.8406 8.12676 14.3203 8.52519 14.0813 9.04551L13.9453 9.33613V13.7658V18.1955L14.0719 18.4627C14.2453 18.833 14.5313 19.1283 14.8969 19.3111C15.2016 19.4564 15.225 19.4611 15.9188 19.4752L16.6266 19.4893L16.6547 19.2408C16.7109 18.8049 16.7672 18.8424 16.0453 18.8189C15.5016 18.8049 15.3703 18.7861 15.2109 18.7018C14.9906 18.5846 14.8125 18.4018 14.6906 18.1721C14.6063 18.0174 14.6016 17.8018 14.5875 13.9486C14.5734 11.1689 14.5875 9.80488 14.6203 9.61738C14.6859 9.27519 14.8594 9.01738 15.1359 8.85332L15.3516 8.72676L16.9828 8.71269L18.6094 8.69863V8.35176V8.00019L17.1234 8.00488C16.3031 8.00957 15.525 8.02832 15.3938 8.04707Z" fill="#151515"/>
<path d="M19.3453 8.03301C19.3266 8.04707 19.3125 8.20644 19.3125 8.38457V8.70332H19.9031C20.2359 8.70332 20.5828 8.72676 20.6906 8.75957C20.9437 8.83457 21.2906 9.18144 21.3656 9.43457C21.45 9.72988 21.4406 17.8439 21.3562 18.0924C21.2578 18.3596 21.0703 18.5752 20.8266 18.6924C20.6062 18.8049 20.5734 18.8049 18.9984 18.8189L17.3906 18.833V19.1611V19.4893L19.1156 19.4752L20.8359 19.4611L21.1031 19.3299C21.6234 19.0768 21.9844 18.5799 22.0781 18.0033C22.1437 17.6049 22.1391 9.83301 22.0734 9.47207C21.9328 8.71269 21.3609 8.15957 20.5922 8.04707C20.2312 7.99551 19.3922 7.98613 19.3453 8.03301Z" fill="#151515"/>
<path d="M2.9953 9.09223C2.40468 9.33598 2.03905 9.79067 1.92655 10.4188C1.78593 11.1829 2.20312 11.9563 2.94374 12.3032L3.21093 12.4297L7.28905 12.4438C11.2547 12.4532 11.3719 12.4532 11.6719 12.3594C12.9516 11.9704 13.3125 10.3485 12.3234 9.43442C12.0094 9.14379 11.6484 8.98442 11.2969 8.98442H11.0625V9.31254C11.0625 9.63598 11.0625 9.64067 11.1844 9.64067C11.5406 9.64067 11.9297 9.88442 12.0937 10.2032C12.3797 10.761 12.1641 11.375 11.5781 11.6844C11.4234 11.7688 11.2359 11.7735 8.42812 11.7875L5.43749 11.8016V11.1172V10.4375H5.10937H4.78593L4.77187 11.1032L4.7578 11.7735L4.21874 11.7875C3.92343 11.7969 3.57187 11.7782 3.43593 11.75C2.58749 11.5672 2.28749 10.5266 2.91093 9.93598C3.23905 9.6266 3.06562 9.64067 6.86718 9.64067H10.3125V9.31254V8.98442H6.78749H3.2578L2.9953 9.09223Z" fill="#151515"/>
<path d="M23.475 10.6578L23.2969 10.6766V15.2797C23.2969 19.6484 23.2922 19.8922 23.2078 20.075C23.1 20.3047 22.7953 20.5766 22.5515 20.6469C22.2937 20.7266 1.70624 20.7266 1.44843 20.6469C1.20468 20.5766 0.899988 20.3047 0.792175 20.075C0.717175 19.9062 0.703113 19.7516 0.703113 18.8609V17.8437H0.599988C0.53905 17.8437 0.379675 17.8297 0.243738 17.8109L-0.00469971 17.7828L0.00936279 18.9734L0.0234253 20.1641L0.1828 20.4594C0.374988 20.8109 0.665613 21.0922 1.02186 21.2562L1.28905 21.3828H12H22.7109L23.0203 21.2328C23.3906 21.05 23.6765 20.7547 23.85 20.3844L23.9765 20.1172L23.9906 15.3687L24 10.625L23.8265 10.6344C23.7281 10.6391 23.5687 10.6484 23.475 10.6578Z" fill="#151515"/>
<path d="M3.70779 13.9813C3.07029 14.15 2.44216 14.6563 2.17029 15.2188C1.96873 15.6453 1.91248 15.8844 1.91248 16.3438C1.91248 16.5641 1.93591 16.8359 1.96873 16.9531C2.25935 18.0266 3.23435 18.7812 4.33591 18.7812C5.00623 18.7812 5.57341 18.5469 6.04685 18.0781C7.0406 17.0938 7.04529 15.5797 6.05154 14.6094C5.55466 14.1219 5.02029 13.9063 4.33591 13.9109C4.12966 13.9109 3.84841 13.9438 3.70779 13.9813ZM4.98748 14.7078C5.33435 14.8344 5.75154 15.2188 5.92966 15.5797C6.05623 15.8281 6.07029 15.8938 6.07029 16.3203C6.07029 16.7328 6.05623 16.8219 5.94373 17.0563C5.59685 17.7969 4.82341 18.2141 4.05935 18.0734C2.63904 17.8203 2.0906 16.1188 3.1031 15.1109C3.62341 14.5953 4.29841 14.45 4.98748 14.7078Z" fill="#151515"/>
<path d="M9.79684 13.9765C9.20621 14.1452 8.58746 14.6374 8.30152 15.1671C7.93121 15.8702 7.91715 16.7656 8.2734 17.4687C8.42809 17.7781 8.88277 18.2515 9.20621 18.4484C9.89996 18.8656 10.8 18.8937 11.5734 18.5187C11.9484 18.3359 12.464 17.8109 12.6421 17.4218C12.9656 16.7327 12.975 15.9874 12.6703 15.3124C12.4875 14.914 12.4828 14.9093 12.1781 15.1249L11.9109 15.3171L12.0281 15.5702C12.7265 17.0984 11.2078 18.6171 9.67965 17.9187C9.20152 17.7031 8.8359 17.2202 8.71871 16.6577C8.47965 15.4952 9.58121 14.3796 10.7437 14.6093C10.9031 14.6374 11.1375 14.7171 11.2593 14.7781L11.4796 14.8906L11.6718 14.6093L11.864 14.3281L11.7093 14.2343C11.625 14.1827 11.4375 14.0937 11.2968 14.0421C10.9546 13.9062 10.1671 13.8734 9.79684 13.9765Z" fill="#151515"/>
<path d="M18.6094 8.53437V8.69844L17.0062 8.7125C15.4641 8.72656 15.3891 8.73125 15.2109 8.82969C15.1078 8.88125 14.9672 8.98906 14.8969 9.06406C14.6109 9.36406 14.625 9.14844 14.625 13.7609V17.975L14.7562 18.2234C14.85 18.4062 14.9484 18.5141 15.1172 18.6172C15.3375 18.7531 15.3609 18.7578 16.0172 18.7719L16.6875 18.7859V18.9734V19.1562H17.0156H17.3437V18.9687V18.7812H18.9609C20.3203 18.7812 20.6109 18.7672 20.7562 18.7062C20.9766 18.6172 21.1687 18.4344 21.2953 18.1953C21.3984 18.0078 21.3984 18.0031 21.4125 13.9062C21.4219 10.9906 21.4125 9.73437 21.375 9.56094C21.3047 9.2375 21.1078 8.975 20.8266 8.83906C20.6297 8.74531 20.5172 8.72656 19.9594 8.7125L19.3125 8.69375V8.53437V8.375H18.9609H18.6094V8.53437ZM19.4437 10.6578L19.4297 11.0234L18.0141 11.0375L16.5937 11.0469V10.6719V10.2969H18.0234H19.4578L19.4437 10.6578ZM20.3906 12.2187V12.5937H18.0234H15.6562V12.2187V11.8437H18.0234H20.3906V12.2187ZM20.3906 13.7656V14.1406H18.0234H15.6562V13.7656V13.3906H18.0234H20.3906V13.7656ZM20.3906 15.3125V15.6875H18.0234H15.6562V15.3125V14.9375H18.0234H20.3906V15.3125ZM19.4531 16.8594V17.2344H18.0234H16.5937V16.8594V16.4844H18.0234H19.4531V16.8594Z" fill="#6B6B6B"/>
<path d="M3.76874 14.6937C3.29062 14.8625 2.89687 15.2516 2.71406 15.725C2.58281 16.0766 2.60156 16.7234 2.75624 17.0609C2.90156 17.3891 3.27656 17.7594 3.62343 17.9187C3.87656 18.0406 3.96562 18.0547 4.35937 18.0547C4.75781 18.0547 4.83281 18.0406 5.08124 17.9187C5.45156 17.7359 5.73749 17.4406 5.92031 17.0562C6.05156 16.7797 6.07031 16.6953 6.06562 16.3437C6.06562 15.6312 5.73749 15.0922 5.11874 14.7875C4.85156 14.6562 4.74843 14.6328 4.40624 14.6187C4.11562 14.6094 3.94218 14.6328 3.76874 14.6937Z" fill="#6B6B6B"/>
<path d="M9.89531 14.6844C9.6 14.7922 9.37969 14.9375 9.15 15.1906C8.82656 15.5375 8.74688 15.7672 8.74219 16.3203C8.74219 16.7563 8.75156 16.8125 8.89219 17.0984C9.075 17.4688 9.37031 17.7547 9.74063 17.9281C9.97031 18.0359 10.0688 18.0547 10.4531 18.0547C10.8375 18.0547 10.9359 18.0359 11.1563 17.9328C11.5406 17.75 11.8313 17.4688 12.0094 17.1031C12.15 16.8172 12.1641 16.7563 12.1641 16.3438C12.1641 15.95 12.15 15.8656 12.0281 15.6078L11.8922 15.3125L12.0188 15.2141L12.1406 15.1156L12.0469 14.9844C11.9906 14.9094 11.8828 14.8016 11.8031 14.7453C11.6859 14.6609 11.6531 14.6516 11.6203 14.7078C11.4938 14.9188 11.5031 14.9141 11.2172 14.7734C10.9922 14.6609 10.875 14.6375 10.5234 14.6234C10.2234 14.6141 10.0406 14.6281 9.89531 14.6844ZM10.9594 15.4016C11.325 15.5891 11.5688 16.0625 11.5125 16.4797C11.4844 16.6813 11.2828 17.0938 11.2125 17.0938C11.1938 17.0938 11.0625 16.9766 10.9219 16.8359C10.725 16.6344 10.6781 16.5688 10.725 16.5219C10.8141 16.4328 10.7906 16.2453 10.6781 16.1234C10.5703 16.0109 10.4109 15.9828 10.2703 16.0578C10.2047 16.0953 10.1391 16.0578 9.9375 15.8516C9.7875 15.6969 9.70313 15.5797 9.72656 15.5469C9.74531 15.5141 9.87188 15.4391 10.0031 15.3734C10.2938 15.2375 10.6547 15.2469 10.9594 15.4016Z" fill="#6B6B6B"/>
<path d="M19.4156 10.6342L19.4063 10.9998L17.9906 11.0139L16.5703 11.0232L17.9906 11.0373C19.1438 11.0467 19.4156 11.0326 19.4344 10.9857C19.4484 10.9482 19.4484 10.7748 19.4391 10.5967L19.425 10.2732L19.4156 10.6342Z" fill="#969696"/>
<path d="M20.3438 12.1953V12.5469L17.9906 12.5609L15.6328 12.5703L18.0141 12.5844L20.3906 12.5938V12.2187C20.3906 12.0125 20.3813 11.8437 20.3672 11.8437C20.3531 11.8437 20.3438 12.0031 20.3438 12.1953Z" fill="#969696"/>
<path d="M20.3578 13.7656C20.3578 13.9859 20.3672 14.075 20.3765 13.9625C20.3859 13.8547 20.3859 13.6765 20.3765 13.564C20.3672 13.4562 20.3578 13.5453 20.3578 13.7656Z" fill="#969696"/>
<path d="M20.3578 15.3125C20.3578 15.5328 20.3672 15.6219 20.3765 15.5094C20.3859 15.4015 20.3859 15.2234 20.3765 15.1109C20.3672 15.0031 20.3578 15.0922 20.3578 15.3125Z" fill="#969696"/>
<path d="M19.4203 16.8594C19.4203 17.0797 19.4297 17.1687 19.439 17.0562C19.4484 16.9484 19.4484 16.7703 19.439 16.6578C19.4297 16.55 19.4203 16.639 19.4203 16.8594Z" fill="#969696"/>
<path d="M1.33594 6.95469C1.14844 7.05313 0.946875 7.24531 0.853125 7.41406C0.782813 7.54063 0.773438 7.99531 0.75 12.3359L0.726563 17.1172L0.529688 17.1313L0.328125 17.1453V17.4688V17.7922L0.525 17.8063L0.726563 17.8203L0.75 18.5234L0.773438 19.2266L0.99375 19.3766C1.11563 19.4563 1.32188 19.5453 1.45313 19.5734C1.60313 19.6063 2.44219 19.625 3.72656 19.625H5.76563V19.4375V19.2453L6.10781 19.2594L6.44531 19.2734L6.45938 19.4469L6.47344 19.625H6.825H7.17188V19.4375V19.25H8.10938H9.04688V19.4375V19.625H15.6797C20.2734 19.625 22.3828 19.6109 22.5469 19.5734C22.6781 19.5453 22.8844 19.4563 23.0063 19.3766L23.2266 19.2266L23.25 14.9375L23.2734 10.6484L23.475 10.6344L23.6719 10.6203V10.2969V9.97344L23.475 9.95938L23.2734 9.94531L23.25 8.75C23.2266 7.45156 23.2172 7.40938 22.9359 7.15156C22.6172 6.85156 23.5594 6.875 11.9906 6.875C2.50313 6.87969 1.4625 6.88438 1.33594 6.95469ZM5.29688 7.88281V8.23438H4.92188H4.54688V7.91563C4.54688 7.7375 4.56094 7.57813 4.57969 7.56406C4.59375 7.54531 4.7625 7.53125 4.95469 7.53125H5.29688V7.88281ZM6.70313 7.88281V8.23438H6.35156H6V7.88281V7.53125H6.35156H6.70313V7.88281ZM10.2188 7.88281V8.23438H8.8125H7.40625V7.88281V7.53125H8.8125H10.2188V7.88281ZM18.6563 8.16406V8.32813H18.9844H19.3125V8.15938V7.99063L20.0766 8.00938C20.7797 8.02344 20.8547 8.03281 21.0938 8.14531C21.4781 8.32813 21.7688 8.60938 21.9469 8.975L22.1016 9.28906L22.1156 13.625C22.125 16.6953 22.1156 18.0313 22.0781 18.2047C21.9609 18.7391 21.4922 19.2406 20.9203 19.4328C20.6438 19.5266 20.5266 19.5313 18.9844 19.5313H17.3438V19.3672V19.2031H17.0156H16.6875V19.3719V19.5406L15.9469 19.5266C15.225 19.5078 15.2016 19.5031 14.8969 19.3531C14.5125 19.1656 14.1609 18.7953 14.0063 18.4156L13.8984 18.1484L13.8844 13.9297C13.8703 9.51875 13.875 9.35 14.0719 8.96563C14.2734 8.57656 14.7516 8.17813 15.1875 8.04219C15.2531 8.02344 16.0594 8.00469 16.9828 8.00469L18.6563 8V8.16406ZM10.3594 9.10156V9.26563H10.6875H11.0156V9.09688V8.92344L11.3344 8.94688C12.1688 9.00781 12.8484 9.70156 12.9234 10.5688C12.9891 11.3563 12.5063 12.1063 11.7469 12.3875C11.5172 12.4719 11.3203 12.4766 7.38281 12.4766H3.25781L2.98594 12.3688C2.62969 12.2234 2.21719 11.8391 2.03906 11.4828C1.90781 11.2344 1.89844 11.1688 1.89844 10.7188C1.89844 10.3063 1.91719 10.1891 2.00625 9.99688C2.21719 9.53281 2.59219 9.18594 3.06094 9.02656C3.28594 8.94688 3.5625 8.94219 6.83438 8.9375H10.3594V9.10156ZM4.9125 13.9297C5.3625 14.0375 5.75156 14.2578 6.09844 14.6047C7.10625 15.6172 7.05938 17.2344 6 18.1859C5.02031 19.0625 3.53438 19.0297 2.61094 18.1109C1.60313 17.1125 1.62656 15.4813 2.65781 14.525C3.2625 13.9672 4.11094 13.7422 4.9125 13.9297ZM11.2734 13.9953C11.4281 14.0516 11.6344 14.15 11.7328 14.2156L11.9109 14.3328L11.8125 14.4688L11.7188 14.6047L11.9531 14.8438L12.1922 15.0781L12.3188 14.9797L12.4453 14.8813L12.5484 15.0125C12.7125 15.2188 12.8906 15.7578 12.9234 16.1375C13.0172 17.2438 12.3703 18.2609 11.3109 18.6734C11.0297 18.7859 10.9266 18.8 10.4531 18.7953C10.0172 18.7953 9.85781 18.7766 9.6375 18.6969C8.69063 18.35 8.04844 17.5063 7.98281 16.5219C7.89844 15.3172 8.6625 14.2531 9.84375 13.9297C10.2 13.8313 10.9031 13.8641 11.2734 13.9953Z" fill="#96ECC1"/>
<path d="M4.59375 7.88281V8.23438H4.94531H5.30156L5.2875 7.89219L5.27344 7.55469L4.93594 7.54062L4.59375 7.52656V7.88281Z" fill="#ECECEC"/>
<path d="M6 7.88281V8.23438H6.35156H6.70313V7.88281V7.53125H6.35156H6V7.88281Z" fill="#ECECEC"/>
<path d="M7.40625 7.88281V8.23438H8.8125H10.2188V7.88281V7.53125H8.8125H7.40625V7.88281Z" fill="#ECECEC"/>
<path d="M16.6266 10.3297C16.6078 10.3437 16.5938 10.5031 16.5938 10.6812V11H18H19.4063V10.6484V10.2969H18.0328C17.2734 10.2969 16.6406 10.3109 16.6266 10.3297Z" fill="#ECECEC"/>
<path d="M9.46875 10.7187V11.0469H9.82031H10.1719V10.7187V10.3906H9.82031H9.46875V10.7187Z" fill="#ECECEC"/>
<path d="M10.875 10.7187V11.0469H11.2266H11.5781V10.7187V10.3906H11.2266H10.875V10.7187Z" fill="#ECECEC"/>
<path d="M15.6562 12.2187V12.5469H18H20.3438V12.2187V11.8906H18H15.6562V12.2187Z" fill="#ECECEC"/>
<path d="M15.6562 13.7656V14.0938H18H20.3438V13.7656V13.4375H18H15.6562V13.7656Z" fill="#ECECEC"/>
<path d="M15.6562 15.3125V15.6406H18H20.3438V15.3125V14.9844H18H15.6562V15.3125Z" fill="#ECECEC"/>
<path d="M10.0031 15.4013C9.89528 15.4482 9.79216 15.5138 9.77341 15.5466C9.74997 15.5841 9.82497 15.692 9.96559 15.8326C10.1859 16.0529 10.2 16.0623 10.3453 16.006C10.4672 15.9591 10.5093 15.9638 10.6125 16.0341C10.7765 16.1373 10.8375 16.306 10.7765 16.4701C10.7343 16.5826 10.7531 16.6154 10.9547 16.8216C11.0765 16.9435 11.1984 17.042 11.2218 17.0326C11.25 17.0232 11.3156 16.9248 11.3765 16.8123C11.639 16.3154 11.414 15.631 10.8984 15.4013C10.6547 15.2888 10.2515 15.2888 10.0031 15.4013Z" fill="#ECECEC"/>
<path d="M16.5938 16.8594V17.1875H18H19.4063V16.8594V16.5312H18H16.5938V16.8594Z" fill="#ECECEC"/>
<path d="M5.76562 19.625V19.9531H6.08906H6.40781L6.44063 19.7047C6.49219 19.2687 6.51094 19.2969 6.11719 19.2969H5.76562V19.625Z" fill="#ECECEC"/>
<path d="M7.17188 19.625V19.9531H8.10938H9.04688V19.625V19.2969H8.10938H7.17188V19.625Z" fill="#ECECEC"/>
</svg>
