<svg width="20" height="20" viewBox="0 0 20 20" fill="none" xmlns="http://www.w3.org/2000/svg">
<path d="M7.22157 1.66675L1.66602 5.00008V11.6667C1.66602 16.1112 4.99935 18.3334 7.77713 18.3334C8.71324 18.3334 9.71185 18.082 10.6243 17.5779L15.0014 15.0549C16.7264 14.2744 18.3327 12.5279 18.3327 9.44452V2.2223L17.2216 1.66675L12.7771 4.44453V11.6667C12.7771 12.7779 12.5688 13.6792 12.232 14.4084C10.8417 14.2299 8.33268 13.2994 8.33268 9.44314V2.22369L7.22157 1.66675ZM7.22157 2.88897V9.44452C7.22157 13.1542 9.54518 14.9306 11.6056 15.4147C10.482 16.7966 8.81046 17.2223 7.77782 17.2223C6.11115 17.2223 2.77782 16.1112 2.77782 11.6667V5.55564L7.22157 2.88897ZM17.2216 2.91675V9.44452C17.2216 13.2292 14.8035 14.1945 13.3993 14.3973C13.7091 13.6056 13.8882 12.6959 13.8882 11.6667V5.00008L17.2216 2.91675Z" fill="#313131"/>
</svg>
