<svg width="24" height="24" viewBox="0 0 24 24" fill="none" xmlns="http://www.w3.org/2000/svg">
<path fill-rule="evenodd" clip-rule="evenodd" d="M9.94757 3.40866C8.50603 3.51586 7.14582 4.02224 6.00368 4.87238C4.35515 6.09953 3.29063 7.93657 3.03559 9.99907C2.98754 10.402 2.98754 11.3704 3.03929 11.7733C3.46066 15.1775 6.10347 17.8573 9.47815 18.2971C9.98084 18.36 10.8975 18.3711 11.3521 18.3156C12.7419 18.1419 14.0578 17.5949 15.126 16.741C15.2628 16.6301 15.3884 16.5229 15.4032 16.5008C15.418 16.4749 16.501 17.532 18.1311 19.1584C18.8287 19.856 19.4673 20.4891 19.9586 20.9708C20.2313 20.9801 20.797 20.8093 20.8777 20.0523C20.4428 19.6017 19.8439 18.9894 19.0551 18.1973C16.4604 15.5841 16.3753 15.4954 16.4308 15.4215C16.9483 14.6859 17.3548 13.9208 17.5766 13.2444C18.1052 11.6513 18.0793 9.89558 17.5027 8.30619C16.745 6.21042 15.0114 4.51754 12.8787 3.79307C11.9657 3.48259 10.8753 3.33844 9.94757 3.40866ZM15.6102 7.52259C14.5901 5.94799 12.9083 4.93891 10.9862 4.7504C10.1952 4.67278 9.40422 4.76519 8.58366 5.03132C6.73184 5.63381 5.25703 7.09382 4.64715 8.93086C4.3995 9.67011 4.35145 9.99538 4.35145 10.8862C4.35145 11.5737 4.36254 11.7326 4.43277 12.069C4.96873 14.5455 6.80946 16.3862 9.28225 16.9147C9.81081 17.0293 10.9936 17.0404 11.5554 16.9332C12.3649 16.7817 13.1966 16.4453 13.873 15.9907C16.6969 14.0871 17.462 10.3761 15.6102 7.52259Z" fill="#333333" fill-opacity="0.8"/>
<path d="M9.83784 5.54509C9.80827 5.55249 9.65673 5.57836 9.50518 5.60054C8.88052 5.70034 7.84187 6.1254 7.59422 6.37675C7.28743 6.69093 7.39832 7.27124 7.79382 7.43388C8.03038 7.53367 8.21519 7.50041 8.66613 7.28233C8.8953 7.17144 9.24644 7.03468 9.44974 6.97924C9.7861 6.89053 9.8785 6.87944 10.4662 6.87944C11.0502 6.87944 11.15 6.89053 11.4716 6.97554C11.9188 7.09752 12.3661 7.30451 12.7801 7.58542C13.0905 7.79241 13.109 7.7998 13.3493 7.7998C13.5637 7.7998 13.6117 7.78502 13.7337 7.69261C14.0035 7.48932 14.0811 7.12339 13.9222 6.8166C13.7965 6.58004 12.8688 6.02191 12.2256 5.80383C11.6416 5.60793 11.3459 5.55988 10.5956 5.54509C10.2112 5.5377 9.86741 5.5377 9.83784 5.54509Z" fill="#333333" fill-opacity="0.8"/>
</svg>
