<svg width="20" height="20" viewBox="0 0 20 20" fill="none" xmlns="http://www.w3.org/2000/svg">
<path d="M2.89844 5.08203C2.79688 5.13281 2.68359 5.23438 2.625 5.32422C2.53125 5.46875 2.51953 5.51953 2.51953 5.84375C2.51953 6.1875 2.52344 6.21094 2.64063 6.35547C2.70313 6.4375 2.83594 6.54297 2.92969 6.58984L3.10156 6.67969H8.30078C11.9688 6.67969 13.543 6.66797 13.6523 6.63672C14.2461 6.47266 14.3711 5.55078 13.8555 5.14062L13.7031 5.01953L8.38672 5.00781L3.06641 5L2.89844 5.08203Z" fill="black" fill-opacity="0.7"/>
<path d="M14.666 8.37109C14.4434 8.46094 14.377 8.51953 14.2676 8.70313L14.1582 8.88672L14.1387 11.3203L14.1192 13.75L13.5723 13.1992C13.2715 12.8984 12.959 12.6172 12.8809 12.5742C12.6856 12.4727 12.3106 12.4727 12.1153 12.5742C11.9238 12.6719 11.8184 12.793 11.7129 13.0234C11.6113 13.2578 11.6309 13.5273 11.7637 13.7539C11.8145 13.8359 12.4551 14.5078 13.1934 15.2461C14.6192 16.6758 14.6192 16.6797 14.9981 16.6797C15.377 16.6797 15.377 16.6758 16.8028 15.2461C17.541 14.5078 18.1817 13.8359 18.2324 13.7539C18.4746 13.3398 18.3145 12.7969 17.8809 12.5742C17.6856 12.4727 17.3106 12.4727 17.1153 12.5742C17.0371 12.6172 16.7246 12.8984 16.4238 13.1992L15.877 13.75L15.8574 11.3164L15.8379 8.87891L15.7207 8.69141C15.5684 8.44531 15.3731 8.34375 15.0371 8.33203C14.8965 8.32813 14.7324 8.34375 14.666 8.37109Z" fill="black" fill-opacity="0.7"/>
<path d="M3.04688 9.18761C2.69141 9.28917 2.5 9.57042 2.5 9.98839C2.50391 10.4454 2.69922 10.7228 3.08594 10.8204C3.21094 10.8517 4.40234 10.8595 7.19141 10.8517L11.1211 10.84L11.3086 10.7228C11.5703 10.5587 11.6602 10.3751 11.6602 10.0001C11.6602 9.62511 11.5703 9.44152 11.3086 9.27746L11.1211 9.16027L7.15234 9.15246C4.59375 9.14855 3.13672 9.16027 3.04688 9.18761Z" fill="black" fill-opacity="0.7"/>
<path d="M2.92969 13.4062C2.83594 13.457 2.70312 13.5625 2.64062 13.6445C2.52344 13.7891 2.51953 13.8125 2.51953 14.1562C2.51953 14.4844 2.53125 14.5312 2.625 14.6758C2.6875 14.7695 2.79688 14.8672 2.89844 14.918C3.07031 15 3.09766 15 5.83594 15C8.47266 15 8.60156 14.9961 8.74219 14.9258C9.03516 14.7734 9.17969 14.5195 9.17969 14.1523C9.17578 13.7578 8.96875 13.4531 8.64062 13.3594C8.54688 13.3359 7.53516 13.3203 5.80078 13.3203H3.10156L2.92969 13.4062Z" fill="black" fill-opacity="0.7"/>
</svg>
