<svg width="24" height="24" viewBox="0 0 24 24" fill="none" xmlns="http://www.w3.org/2000/svg">
<g clip-path="url(#clip0_1178_1649)">
<path d="M10.4766 0.070312C8.70938 0.31875 7.18594 0.853125 5.75625 1.71562C5.17031 2.07187 4.54688 2.52187 4.54688 2.59687C4.54688 2.625 4.65938 2.77031 4.79531 2.91562L5.04844 3.17812L5.44219 2.89687C7.03125 1.7625 8.92969 1.04531 10.9172 0.839062C11.6672 0.764062 13.0828 0.80625 13.8047 0.932812C15.3984 1.21406 16.8234 1.76719 18.0938 2.59687C18.8156 3.07031 18.8297 3.07031 19.3406 2.56875C19.7203 2.20312 19.7344 2.19375 19.7344 2.325C19.7344 2.59687 19.5 6.34219 19.4813 6.36094C19.4625 6.37969 15.8109 6.60937 15.4922 6.60937H15.3094L15.6328 6.28125C15.9234 5.99062 15.9609 5.93437 15.9609 5.77031C15.9609 5.67187 15.9328 5.55937 15.9 5.52187C15.8109 5.40937 14.9203 4.9875 14.4469 4.82812C13.4719 4.5 12.3656 4.36406 11.4141 4.44844C10.1578 4.56094 9.06094 4.90781 8.05313 5.51719L7.78125 5.67656L7.89844 5.85C7.96406 5.94375 8.01563 6.04219 8.01563 6.06094C8.01563 6.08437 8.05781 6.16406 8.11406 6.23906L8.2125 6.375L8.40469 6.25781C9.1125 5.82187 10.0922 5.45625 10.8891 5.32031C11.4188 5.23125 12.4828 5.22187 12.9656 5.29688C13.5563 5.39062 13.9922 5.51719 14.7375 5.80781L14.8734 5.86406L14.3766 6.37031C13.9031 6.84844 13.875 6.88594 13.875 7.06875C13.875 7.22344 13.9031 7.27969 14.0203 7.37812C14.1 7.44375 14.1797 7.5 14.1938 7.5C14.3813 7.5 17.3859 7.30312 17.4375 7.28906C17.475 7.27969 18.0656 7.2375 18.75 7.19531C20.0578 7.11562 20.175 7.09219 20.2266 6.87656C20.2406 6.82031 20.2922 6.11719 20.3484 5.32031C20.4 4.51875 20.4844 3.27656 20.5313 2.55469C20.5781 1.83281 20.6203 1.19531 20.6203 1.13437C20.625 0.95625 20.3859 0.75 20.175 0.75C20.0109 0.75 19.9547 0.796875 19.3594 1.38281L18.7172 2.02031L18.3 1.75781C17.0719 0.984375 15.5203 0.403125 13.95 0.135937C13.2047 0.00468731 11.1938 -0.0328126 10.4766 0.070312Z" fill="#151515"/>
<path d="M0.871875 3.4826C0.782813 3.57166 0.75 3.65604 0.75 3.77791C0.75 3.94197 0.796875 4.00291 1.3875 4.59822L2.025 5.24041L1.6875 5.8076C0.895313 7.15291 0.407813 8.48885 0.140625 10.0826C0.0140625 10.8326 -0.0375 12.3607 0.0421875 13.1482C0.1875 14.592 0.595313 16.0123 1.2375 17.3201C1.58438 18.0185 2.31094 19.2092 2.44219 19.2935C2.50312 19.331 2.64844 19.2326 2.89219 18.9888L3.09375 18.792L2.91094 18.5482C2.04375 17.3951 1.32656 15.7263 1.0125 14.156C0.773438 12.9607 0.735937 11.5357 0.914062 10.3592C1.14844 8.77947 1.77656 7.12947 2.63906 5.82635C3.06562 5.17947 3.06562 5.15135 2.56875 4.65447C2.35781 4.44353 2.19375 4.26072 2.20781 4.25135C2.24531 4.22322 6.31875 4.47635 6.35156 4.50916C6.38438 4.54197 6.60469 7.9451 6.60938 8.45604V8.68572L6.2625 8.35291C5.72344 7.8326 5.56875 7.87947 5.18438 8.68104C4.28906 10.542 4.18594 12.7357 4.89844 14.6482C5.05781 15.0795 5.45625 15.8763 5.59688 16.0498L5.70469 16.1904L5.84063 16.092C5.91563 16.0404 6.01875 15.9842 6.07031 15.9654C6.12188 15.9513 6.21094 15.8998 6.27188 15.8529L6.37969 15.7685L6.18281 15.4451C5.57813 14.456 5.25 13.2467 5.25 11.9998C5.25 11.0717 5.39531 10.2982 5.72813 9.45916L5.87344 9.08885L6.39844 9.60916C6.73125 9.9326 6.96094 10.1248 7.02188 10.1248C7.18594 10.1248 7.35 10.0404 7.42969 9.91854C7.5 9.81072 7.5 9.69822 7.43438 8.49822C7.39219 7.78104 7.33594 7.00291 7.3125 6.77322C7.28438 6.53885 7.23281 5.82635 7.19531 5.18416C7.15313 4.54197 7.10156 3.98416 7.07813 3.93729C6.97969 3.75447 6.90469 3.74041 5.54531 3.65135C4.8 3.60447 3.77344 3.53416 3.25781 3.49666C2.74219 3.45916 2.02031 3.41228 1.65469 3.39353L0.99375 3.36072L0.871875 3.4826Z" fill="#151515"/>
<path d="M21.1969 4.91225L20.9109 5.17944L21.3047 5.76069C23.0672 8.39038 23.6203 11.6154 22.8469 14.7654C22.5844 15.8341 21.9938 17.1701 21.3703 18.1169C20.9109 18.8107 20.9156 18.8248 21.4219 19.3357C21.7406 19.6591 21.7969 19.7341 21.7172 19.7341C21.4172 19.7341 17.6484 19.4904 17.625 19.4716C17.5969 19.4435 17.3531 15.3607 17.3766 15.3326C17.3859 15.3185 17.5359 15.4498 17.7094 15.6232C18.0703 15.9841 18.2391 16.0451 18.4266 15.8951C18.675 15.7029 19.1156 14.6998 19.3313 13.8513C19.5141 13.1248 19.5609 12.6326 19.5375 11.7232C19.5094 10.8138 19.3922 10.1435 19.1203 9.40287C18.9422 8.92475 18.6188 8.24975 18.5672 8.24975C18.4969 8.24975 17.9203 8.52162 17.8922 8.56381C17.8781 8.58725 17.9578 8.79819 18.0703 9.02787C18.3047 9.506 18.5109 10.1107 18.6375 10.6873C18.7078 11.0013 18.7266 11.2779 18.7266 11.9998C18.7219 12.8201 18.7078 12.9701 18.6 13.4294C18.5344 13.7107 18.3984 14.1513 18.3047 14.4044L18.1266 14.8591L17.6203 14.3669C17.1469 13.9029 17.1047 13.8748 16.9219 13.8748C16.6641 13.8748 16.5 14.0341 16.5 14.2826C16.5 14.6623 16.6406 16.9638 16.6875 17.3201C16.7156 17.5263 16.7672 18.206 16.8047 18.8294C16.8375 19.4529 16.8891 20.006 16.9172 20.0576C16.95 20.1091 17.0063 20.1748 17.0531 20.1982C17.0953 20.2216 17.7469 20.2732 18.4922 20.3154C19.2422 20.3576 19.8938 20.4044 19.9453 20.4185C20.1609 20.4701 22.8938 20.6154 22.9922 20.5779C23.2125 20.4935 23.3109 20.2216 23.1984 20.0013C23.1703 19.9451 22.8844 19.631 22.5609 19.3076L21.975 18.7169L22.2563 18.2529C23.1094 16.8326 23.625 15.3888 23.8922 13.6544C24.0047 12.9138 24.0047 11.0435 23.8922 10.3123C23.6531 8.7935 23.2219 7.481 22.5328 6.21069C22.2844 5.756 21.6562 4.78569 21.5484 4.69662C21.4969 4.65444 21.4266 4.69194 21.1969 4.91225Z" fill="#151515"/>
<path d="M2.94377 6.9C2.62971 7.44844 2.62502 7.38281 3.00002 7.57031C3.17815 7.65937 3.33283 7.73438 3.3469 7.73438C3.36565 7.73438 3.75002 7.05 3.75002 7.0125C3.75002 6.99375 3.1594 6.60938 3.12658 6.60938C3.1219 6.60938 3.03752 6.74062 2.94377 6.9Z" fill="#151515"/>
<path d="M10.8984 7.28906C10.7953 7.3875 10.7812 7.44375 10.7812 7.77187V8.1375L10.4719 8.26875L10.1625 8.39531L9.91874 8.16562C9.6328 7.89375 9.47811 7.84219 9.26249 7.94531C9.04686 8.04844 7.9453 9.17812 7.9078 9.3375C7.86093 9.51562 7.93593 9.67031 8.18436 9.9375L8.39999 10.1719L8.27343 10.4766L8.14218 10.7812H7.78124C7.49061 10.7812 7.39218 10.8 7.3078 10.8703C7.1953 10.9594 7.1953 10.9734 7.18124 11.9437L7.16718 12.9281L7.28436 13.0594C7.38749 13.1812 7.42968 13.1953 7.78124 13.2187L8.16093 13.2422L8.2828 13.5422L8.39999 13.8375L8.18905 14.0578C7.94999 14.3016 7.87499 14.4562 7.9078 14.6344C7.92186 14.7094 8.17499 15 8.59686 15.4172C9.2203 16.0312 9.27655 16.0781 9.44061 16.0781C9.59061 16.0781 9.65624 16.0406 9.87655 15.8297L10.1391 15.5766L10.4578 15.6984L10.7812 15.8203V16.1812C10.7812 16.4953 10.7953 16.5609 10.8937 16.6734L11.0062 16.8047H12H12.9937L13.1062 16.6734C13.2047 16.5562 13.2187 16.4953 13.2187 16.1672C13.2187 15.9047 13.2375 15.7969 13.2797 15.7969C13.3078 15.7969 13.4437 15.7453 13.5703 15.6844L13.8047 15.5766L14.0766 15.8297C14.3156 16.0453 14.3719 16.0781 14.5453 16.0781C14.7328 16.0781 14.7609 16.0547 15.4078 15.4078C16.064 14.7562 16.0781 14.7328 16.0781 14.5359C16.0781 14.3578 16.05 14.3062 15.825 14.0719L15.5765 13.8047L15.6844 13.5703C15.7453 13.4391 15.7969 13.3125 15.7969 13.2844C15.7969 13.2469 15.9375 13.2234 16.1953 13.2141C16.5328 13.2 16.6078 13.1812 16.6969 13.0875C16.8 12.9844 16.8047 12.9469 16.8187 12.0281L16.8328 11.0766L16.7109 10.9312C16.5937 10.7906 16.5703 10.7859 16.214 10.7719L15.839 10.7578L15.7078 10.4531L15.5765 10.1484L15.8297 9.88125C16.0406 9.66094 16.0781 9.59062 16.0781 9.44062C16.0781 9.27656 16.0312 9.21562 15.4125 8.59687C14.9812 8.16094 14.7047 7.91719 14.6203 7.89844C14.4562 7.86094 14.3297 7.92656 14.0578 8.18906L13.8375 8.4L13.5422 8.28281L13.2422 8.16094L13.2187 7.78125C13.1953 7.43437 13.1812 7.3875 13.064 7.28437C12.9328 7.17188 12.9187 7.17188 11.9719 7.17188C11.0156 7.17188 11.0109 7.17188 10.8984 7.28906ZM12.4219 8.2875C12.4219 8.69531 12.4828 8.77969 12.8719 8.90625C13.0453 8.9625 13.3312 9.07969 13.5047 9.16875C13.6828 9.25781 13.8797 9.32812 13.9406 9.32812C14.0109 9.32812 14.1515 9.24375 14.3109 9.09844L14.564 8.86406L14.8266 9.13125C14.9719 9.28125 15.0937 9.42187 15.0937 9.45C15.0937 9.47344 15 9.59062 14.8828 9.70312C14.6156 9.96562 14.6156 10.0594 14.8547 10.5609C14.9578 10.7719 15.0656 11.0437 15.0984 11.1703C15.1734 11.4844 15.3094 11.5781 15.6844 11.5781H15.9844V12V12.4219H15.6656C15.4828 12.4219 15.314 12.4453 15.2672 12.4781C15.225 12.5109 15.1265 12.7266 15.0422 12.9609C14.9625 13.1906 14.8453 13.4672 14.7844 13.575C14.6109 13.8703 14.6344 14.025 14.8922 14.3016L15.1125 14.5359L14.8219 14.8266L14.5312 15.1172L14.3062 14.8922C14.0297 14.6203 13.9078 14.6109 13.4672 14.8312C13.2937 14.9203 13.0265 15.0281 12.8719 15.0703C12.4781 15.1875 12.4219 15.2578 12.4219 15.6562V15.9844H12H11.5781V15.6844C11.5781 15.2953 11.489 15.1875 11.0391 15.0469C10.8609 14.9906 10.6031 14.8828 10.4719 14.8078C10.1156 14.6062 9.96561 14.625 9.69374 14.8922L9.46874 15.1172L9.17811 14.8266L8.88749 14.5359L9.1078 14.3016C9.37968 14.0156 9.38436 13.9125 9.16874 13.5C9.07968 13.3312 8.97186 13.0687 8.92499 12.9141C8.79843 12.4922 8.72343 12.4266 8.32499 12.4125L7.99218 12.3984L7.97811 11.9859L7.96405 11.5781H8.2828C8.69999 11.5781 8.77968 11.5219 8.90624 11.1234C8.96249 10.9453 9.07968 10.6641 9.16874 10.4859C9.38436 10.0594 9.37499 9.97969 9.09374 9.68906L8.86405 9.44531L9.14999 9.15469L9.44061 8.86406L9.68436 9.09375C9.84374 9.24375 9.97499 9.32812 10.0453 9.32812C10.1109 9.32812 10.3266 9.24375 10.5281 9.14531C10.7344 9.04687 11.0203 8.92969 11.1656 8.8875C11.5125 8.78906 11.5781 8.69531 11.5781 8.2875V7.96875H12H12.4219V8.2875Z" fill="#151515"/>
<path d="M11.7 10.0406C11.0766 10.1203 10.5094 10.5422 10.2141 11.1328C10.0594 11.4469 10.0547 11.4797 10.0547 12C10.0547 12.4969 10.0641 12.5625 10.1859 12.8063C10.6313 13.711 11.625 14.161 12.5438 13.8844C13.3734 13.6313 13.9031 12.9703 13.9547 12.1266C13.9969 11.475 13.8094 10.9969 13.3359 10.5516C12.8953 10.1344 12.3375 9.96096 11.7 10.0406ZM12.5063 10.95C13.3828 11.386 13.3734 12.5766 12.4922 13.0453C12.2016 13.2 11.7656 13.186 11.4469 13.0125C11.0438 12.7875 10.8328 12.4313 10.8328 11.9766C10.8281 11.1375 11.7469 10.5703 12.5063 10.95Z" fill="#151515"/>
<path d="M2.23126 8.44208C1.80939 9.48739 1.55626 11.0905 1.60783 12.3515C1.63126 12.8624 1.75783 14.0061 1.79533 14.0483C1.83283 14.0811 2.53126 13.8983 2.53126 13.8515C2.53126 13.8233 2.49845 13.5655 2.46095 13.2843C2.37189 12.6796 2.36251 11.4468 2.43751 10.8515C2.50783 10.2936 2.69064 9.48271 2.85939 8.97177C2.93908 8.74677 2.99533 8.55458 2.98595 8.54521C2.97658 8.54052 2.82189 8.47021 2.63908 8.39521L2.30158 8.25927L2.23126 8.44208Z" fill="#151515"/>
<path d="M7.94534 16.5982C7.27502 16.6451 6.10784 16.7201 5.34846 16.7717C4.00784 16.8607 3.97034 16.8654 3.85784 16.9779C3.74534 17.0904 3.74065 17.1279 3.65159 18.4732C3.60471 19.2326 3.52971 20.2639 3.4969 20.7654C3.4594 21.267 3.41252 21.9701 3.39846 22.3217L3.36096 22.9639L3.51096 23.1139C3.64221 23.2404 3.6844 23.2592 3.8344 23.2357C3.97502 23.2123 4.11096 23.0998 4.61721 22.5935C4.95471 22.2607 5.24065 21.9842 5.25471 21.9842C5.26877 21.9842 5.51252 22.1248 5.79377 22.2935C7.29377 23.1982 8.95315 23.7607 10.6969 23.9482C11.2688 24.0139 12.7313 24.0139 13.2891 23.9529C14.7094 23.7935 16.0313 23.4045 17.3438 22.7529C17.9906 22.4342 19.0313 21.792 19.0313 21.717C19.0313 21.6607 18.886 21.4639 18.7031 21.2717L18.5391 21.0982L18.0797 21.3982C16.3641 22.5232 14.4 23.1326 12.3047 23.1889C9.9469 23.2545 7.72502 22.617 5.79846 21.3232C5.57346 21.1732 5.3344 21.0326 5.27346 21.0185C5.11877 20.981 4.99221 21.0607 4.60315 21.4357L4.26565 21.7685V21.5623C4.26565 21.2857 4.44846 18.0279 4.48127 17.7889L4.50471 17.5967L6.38909 17.4935C7.42502 17.4326 8.36721 17.3717 8.4844 17.3576L8.69534 17.3295L8.35784 17.6904C7.82346 18.2529 7.87034 18.4123 8.70471 18.806C9.28596 19.0779 9.86721 19.2748 10.5141 19.4154C10.9219 19.5045 11.1422 19.5185 12 19.5185C12.8719 19.5185 13.0735 19.5045 13.486 19.4154C14.3485 19.2279 15.2485 18.881 15.8906 18.492L16.1672 18.3232L16.0172 18.0514C15.7406 17.5592 15.7922 17.5873 15.5297 17.756C15.2203 17.9529 14.5828 18.2482 14.1422 18.3982C12.9328 18.8014 11.5735 18.8529 10.336 18.5389C9.88127 18.4264 9.14065 18.1545 9.14065 18.1029C9.14065 18.0842 9.35159 17.8592 9.6094 17.6014C10.1625 17.0482 10.2235 16.9029 10.0078 16.6498C9.88596 16.5045 9.8719 16.4998 9.52502 16.5045C9.32346 16.5092 8.61565 16.5514 7.94534 16.5982Z" fill="#151515"/>
<path d="M14.1281 9.89062L13.4203 10.5938L13.5328 10.6969C13.5937 10.7531 13.7062 10.9312 13.7859 11.0859C14.3906 12.3141 13.6593 13.725 12.2859 13.9781C11.7937 14.0719 11.1375 13.8937 10.7343 13.5562L10.575 13.4203L9.89997 14.1141C9.52497 14.4984 9.19685 14.7984 9.16872 14.7797C9.1406 14.7656 9.18747 14.8266 9.27654 14.9203L9.4406 15.0937L9.68435 14.8594C9.98435 14.5781 10.064 14.5687 10.4953 14.7844C10.6687 14.8734 10.9547 14.9906 11.1187 15.0469C11.5312 15.1781 11.5922 15.2578 11.6156 15.6609L11.6343 15.9844H12.0047H12.375V15.6797C12.375 15.4125 12.389 15.3609 12.5062 15.2437C12.5812 15.1594 12.7406 15.075 12.914 15.0281C13.0687 14.9812 13.3312 14.8734 13.5 14.7844C13.9125 14.5687 14.0156 14.5734 14.3015 14.8453L14.5359 15.0656L14.7984 14.7984L15.0656 14.5359L14.8453 14.3016C14.5781 14.0156 14.5734 13.9312 14.7843 13.5094C14.8687 13.3359 14.9812 13.0687 15.0234 12.9141C15.075 12.7453 15.1593 12.5812 15.2437 12.5016C15.3609 12.3891 15.4125 12.375 15.6797 12.375H15.9843V12.0047V11.6391L15.6562 11.6156C15.2437 11.5828 15.1687 11.5219 15.0468 11.1C14.9906 10.9266 14.8781 10.6453 14.789 10.4766C14.5687 10.0641 14.5781 9.98438 14.8593 9.68437L15.0937 9.43594L14.9625 9.31406L14.8312 9.1875L14.1281 9.89062Z" fill="#EC9615"/>
<path d="M11.6156 8.33906C11.5922 8.74687 11.5313 8.82187 11.0953 8.95312C10.9125 9.00937 10.6219 9.13125 10.4484 9.22031C10.0594 9.42188 9.94219 9.40781 9.65625 9.11719L9.45 8.90625L9.17813 9.17344L8.91094 9.44062L9.14062 9.68437C9.42656 9.98438 9.43125 10.0781 9.21563 10.4672C9.12656 10.6266 9.00938 10.9078 8.95313 11.0953C8.82188 11.5312 8.74688 11.5922 8.33906 11.6156L8.01562 11.6344V12.0047V12.375H8.31563C8.67656 12.375 8.83125 12.4734 8.91094 12.7641C8.93906 12.8719 9.06094 13.1625 9.17813 13.4156C9.42188 13.9406 9.41719 14.0109 9.13125 14.325L8.93438 14.5359L9.06094 14.6625L9.1875 14.7891L9.87188 14.1L10.5609 13.4156L10.4156 13.2375C9.73125 12.3797 9.89063 11.0531 10.7578 10.3969C11.0859 10.1484 11.4375 10.0219 11.8875 9.99375C12.4359 9.96562 12.8719 10.1016 13.2844 10.4437L13.4203 10.5516L14.1141 9.8625L14.8125 9.16875L14.6859 9.0375L14.5641 8.90625L14.3391 9.11719C14.0203 9.41719 13.9359 9.42656 13.4813 9.19687C13.275 9.09375 12.9797 8.97187 12.8344 8.92969C12.4688 8.82656 12.375 8.7 12.375 8.31562V8.01562H12.0047H11.6344L11.6156 8.33906Z" fill="#ECC140"/>
<path d="M20.4375 4.13441C20.4422 4.51878 20.2781 6.80628 20.2406 6.90472C20.1562 7.12503 20.0203 7.15784 18.9375 7.21409C17.6812 7.27972 17.4609 7.30784 17.5265 7.37347C17.5593 7.40628 18.0047 7.39691 18.9937 7.33597C19.7765 7.29378 20.4234 7.24691 20.4328 7.24222C20.4422 7.23284 20.489 6.56722 20.5359 5.76566C20.6156 4.42503 20.6156 4.29847 20.55 4.19066C20.4656 4.06409 20.4375 4.05003 20.4375 4.13441Z" fill="#406BC1"/>
<path d="M4.99216 16.6451C4.29841 16.6873 3.68435 16.7295 3.63279 16.7295C3.53904 16.7342 3.52966 16.7857 3.44998 18.2154L3.3656 19.7014L3.46404 19.7998L3.56248 19.8936V19.7014C3.56248 19.2045 3.70779 17.1654 3.75466 17.0576C3.78279 16.9873 3.85779 16.9076 3.91873 16.8795C4.01716 16.8373 5.90623 16.6873 6.39373 16.6873C6.50623 16.6873 6.52029 16.6779 6.46873 16.617C6.43591 16.5795 6.37498 16.5514 6.33279 16.5514C6.2906 16.5561 5.6906 16.5982 4.99216 16.6451Z" fill="#406BC1"/>
<path d="M11.7797 0.829883C11.9016 0.839258 12.0937 0.839258 12.2016 0.829883C12.3094 0.820508 12.2109 0.81582 11.9766 0.81582C11.7469 0.81582 11.6578 0.820508 11.7797 0.829883Z" fill="#4096C1"/>
<path d="M4.16716 3.43623L4.04529 3.54404L5.45623 3.62842C6.94216 3.71279 7.03591 3.73154 7.12029 3.95186C7.14373 4.00811 7.18591 4.55186 7.21873 5.15654C7.24685 5.76123 7.28904 6.31436 7.30779 6.38467L7.33591 6.51123L7.51404 6.36123L7.69685 6.21123L7.61716 4.87529C7.57029 4.13936 7.53279 3.53467 7.5281 3.53467C7.5281 3.52998 6.8906 3.49248 6.11716 3.45029C5.34373 3.40811 4.61716 3.36592 4.49998 3.35186C4.32654 3.33311 4.2656 3.35186 4.16716 3.43623Z" fill="#4096C1"/>
<path d="M20.5219 4.14863C20.5687 4.22363 20.625 4.32207 20.639 4.35957C20.6625 4.42051 20.6672 4.42051 20.6672 4.35957C20.6719 4.32207 20.6156 4.22363 20.55 4.14863L20.4281 4.00801L20.5219 4.14863Z" fill="#4096C1"/>
<path d="M2.55466 4.59375C2.73279 4.77187 2.89216 4.92188 2.90154 4.92188C2.9156 4.92188 2.77966 4.77187 2.60154 4.59375C2.42341 4.41094 2.26404 4.26562 2.25466 4.26562C2.2406 4.26562 2.37654 4.41094 2.55466 4.59375Z" fill="#4096C1"/>
<path d="M20.5922 4.92217C20.5922 5.09092 20.6015 5.15655 20.6109 5.07217C20.6203 4.99249 20.6203 4.85186 20.6109 4.76749C20.6015 4.6878 20.5922 4.75342 20.5922 4.92217Z" fill="#4096C1"/>
<path d="M20.5453 5.71905C20.5453 5.8878 20.5547 5.95342 20.564 5.86905C20.5734 5.78936 20.5734 5.64874 20.564 5.56436C20.5547 5.48467 20.5453 5.5503 20.5453 5.71905Z" fill="#4096C1"/>
<path d="M20.4984 6.51592C20.4984 6.68467 20.5078 6.7503 20.5172 6.66592C20.5265 6.58624 20.5265 6.44561 20.5172 6.36124C20.5078 6.28155 20.4984 6.34717 20.4984 6.51592Z" fill="#4096C1"/>
<path d="M19.9593 7.29863C20.039 7.30801 20.1796 7.30801 20.264 7.29863C20.3437 7.28926 20.2781 7.27988 20.1093 7.27988C19.9406 7.27988 19.8749 7.28926 19.9593 7.29863Z" fill="#4096C1"/>
<path d="M17.4797 7.36881C17.5265 7.42974 17.6015 7.45318 17.7609 7.44381L17.9765 7.43912L17.7656 7.42037C17.6531 7.40631 17.5265 7.37349 17.4844 7.34537C17.4234 7.29381 17.4234 7.29849 17.4797 7.36881Z" fill="#4096C1"/>
<path d="M19.1624 7.34551C19.2421 7.35488 19.3828 7.35488 19.4671 7.34551C19.5468 7.33613 19.4812 7.32676 19.3124 7.32676C19.1437 7.32676 19.0781 7.33613 19.1624 7.34551Z" fill="#4096C1"/>
<path d="M18.3656 7.39238C18.4453 7.40176 18.5859 7.40176 18.6703 7.39238C18.7499 7.38301 18.6843 7.37363 18.5156 7.37363C18.3468 7.37363 18.2812 7.38301 18.3656 7.39238Z" fill="#4096C1"/>
<path d="M6.3 8.32967C6.45469 8.48904 6.59063 8.61092 6.60469 8.60154C6.61406 8.58748 6.61406 8.57342 6.60469 8.56404C6.59531 8.55936 6.45938 8.43748 6.30469 8.29686L6.02344 8.03904L6.3 8.32967Z" fill="#4096C1"/>
<path d="M5.80307 16.5799C5.88276 16.5893 6.02338 16.5893 6.10776 16.5799C6.18745 16.5705 6.12182 16.5611 5.95307 16.5611C5.78432 16.5611 5.7187 16.5705 5.80307 16.5799Z" fill="#4096C1"/>
<path d="M5.00155 16.6268C5.08593 16.6361 5.23593 16.6361 5.32968 16.6268C5.42812 16.6174 5.36249 16.608 5.17968 16.608C5.00155 16.608 4.92187 16.6174 5.00155 16.6268Z" fill="#4096C1"/>
<path d="M4.20468 16.6736C4.28905 16.683 4.43905 16.683 4.5328 16.6736C4.63124 16.6643 4.56562 16.6549 4.3828 16.6549C4.20468 16.6549 4.12499 16.6643 4.20468 16.6736Z" fill="#4096C1"/>
<path d="M3.59997 16.7205C3.65622 16.7299 3.74059 16.7299 3.78747 16.7205C3.82965 16.7064 3.78278 16.6971 3.67965 16.7018C3.57653 16.7018 3.53903 16.7111 3.59997 16.7205Z" fill="#4096C1"/>
<path d="M3.48279 17.2503C3.48279 17.419 3.49216 17.4847 3.50154 17.4003C3.51091 17.3206 3.51091 17.18 3.50154 17.0956C3.49216 17.0159 3.48279 17.0815 3.48279 17.2503Z" fill="#4096C1"/>
<path d="M8.32031 17.6812L8.03906 17.9766L8.33438 17.6953C8.60625 17.4375 8.64844 17.3906 8.61094 17.3906C8.60625 17.3906 8.475 17.5219 8.32031 17.6812Z" fill="#4096C1"/>
<path d="M16.5797 17.5176C16.5516 17.5645 16.7203 20.3957 16.7531 20.4238C16.7672 20.4379 17.4375 20.4895 18.2437 20.5363C19.6734 20.6207 19.7109 20.6207 19.7953 20.5363C19.8797 20.452 19.8797 20.4473 19.6312 20.4238C19.4953 20.4051 18.9094 20.3723 18.3281 20.3441C17.7469 20.3113 17.2031 20.2691 17.1187 20.241C16.8797 20.1707 16.8422 20.0441 16.7859 19.0316C16.7156 17.7988 16.6875 17.4848 16.6406 17.4848C16.6172 17.4848 16.5891 17.4988 16.5797 17.5176Z" fill="#4096C1"/>
<path d="M3.43591 18.0472C3.43591 18.2159 3.44529 18.2815 3.45466 18.1972C3.46404 18.1175 3.46404 17.9769 3.45466 17.8925C3.44529 17.8128 3.43591 17.8784 3.43591 18.0472Z" fill="#4096C1"/>
<path d="M3.38904 18.844C3.38904 19.0128 3.39841 19.0784 3.40779 18.994C3.41716 18.9144 3.41716 18.7737 3.40779 18.6894C3.39841 18.6097 3.38904 18.6753 3.38904 18.844Z" fill="#4096C1"/>
<path d="M3.33744 19.5517C3.32807 19.7064 3.35151 19.7861 3.41244 19.8423C3.54369 19.9595 3.59526 19.9361 3.47807 19.8142C3.42651 19.7579 3.37494 19.6267 3.36088 19.5236L3.34213 19.3361L3.33744 19.5517Z" fill="#4096C1"/>
<path d="M4.57031 21.4313L4.24219 21.7734L4.58438 21.4453C4.76719 21.2672 4.92188 21.1125 4.92188 21.1078C4.92188 21.0703 4.87031 21.1172 4.57031 21.4313Z" fill="#4096C1"/>
<path d="M11.8734 23.1893C11.9437 23.1986 12.0562 23.1986 12.1312 23.1893C12.2015 23.1799 12.1406 23.1705 12 23.1705C11.8593 23.1705 11.7984 23.1799 11.8734 23.1893Z" fill="#4096C1"/>
<path d="M2.63907 4.63607C3.11719 5.13764 3.11719 5.18451 2.66719 5.85951C2.28751 6.43139 1.76719 7.45795 1.52344 8.12826C0.801569 10.1017 0.646881 12.3892 1.10626 14.4236C1.42032 15.8298 2.07657 17.3111 2.87344 18.4314L3.15001 18.8158L2.97657 18.9564L2.80313 19.1017L2.93907 19.2704C3.10782 19.4814 3.32813 19.7158 3.32813 19.6876C3.33751 19.3829 3.51094 16.7204 3.52501 16.7111C3.53438 16.7017 4.18594 16.6595 4.97813 16.6126C6.42188 16.5283 6.42188 16.5283 6.35157 16.4345C6.30938 16.3783 6.23438 16.2658 6.18282 16.1814C6.07032 16.0079 6.01876 15.9986 5.85938 16.1251C5.79376 16.1767 5.71876 16.2189 5.69532 16.2189C5.57344 16.2189 5.05782 15.2158 4.80938 14.4892C4.49063 13.5798 4.43438 13.1861 4.43438 12.0001C4.42969 11.0767 4.44376 10.8845 4.53751 10.4673C4.68282 9.81107 4.88907 9.21107 5.16563 8.6392C5.55469 7.83295 5.76563 7.7767 6.31876 8.31107L6.56251 8.55013L6.55782 8.27357C6.55313 7.81888 6.35157 4.55639 6.32813 4.53295C6.31407 4.52357 5.49376 4.46732 4.50001 4.41107C3.50626 4.35482 2.60157 4.29857 2.48438 4.28451L2.27813 4.25638L2.63907 4.63607ZM3.45938 6.75951C3.63282 6.86732 3.78282 6.96107 3.79688 6.97045C3.82501 6.99389 3.40782 7.78139 3.36094 7.78139C3.32813 7.78139 2.67188 7.46264 2.63438 7.42982C2.60626 7.4017 3.07969 6.56263 3.12188 6.56263C3.13126 6.56263 3.28594 6.6517 3.45938 6.75951ZM2.69532 8.3767C2.87344 8.44701 3.02813 8.50795 3.03751 8.51264C3.04688 8.51732 2.97188 8.78451 2.86876 9.10326C2.49376 10.2517 2.33907 11.4892 2.43282 12.6329C2.46094 13.0079 2.50782 13.4158 2.53594 13.547C2.61563 13.9173 2.60626 13.9314 2.17032 14.0204C1.71563 14.1095 1.76719 14.1658 1.66876 13.4533C1.46719 12.0095 1.54688 10.7298 1.92188 9.30013C2.09063 8.67201 2.24532 8.25014 2.31563 8.25014C2.34376 8.25014 2.51251 8.30639 2.69532 8.3767Z" fill="#4096EC"/>
<path d="M20.6531 4.41562C20.639 4.47656 20.5969 5.13281 20.5547 5.88281C20.5125 6.62812 20.4609 7.25156 20.4328 7.26562C20.4094 7.28437 19.8984 7.32187 19.2984 7.35C18.7031 7.38281 18.0656 7.42031 17.8922 7.43906C17.5781 7.46719 17.5781 7.46719 17.6484 7.56562C17.6859 7.61719 17.8265 7.82344 17.9578 8.02031L18.1969 8.38125L18.3984 8.26875L18.6 8.15156L18.8109 8.5875C19.0875 9.15469 19.3265 9.84844 19.4625 10.4812C19.5562 10.9266 19.5703 11.1187 19.5703 12C19.5656 12.8625 19.5515 13.0781 19.4625 13.4859C19.3125 14.1656 19.1109 14.7516 18.8109 15.3656C18.5859 15.8297 18.5297 15.9094 18.389 15.9656C18.3 16.0031 18.1828 16.0219 18.1265 16.0031C18.0703 15.9891 17.8781 15.8344 17.7047 15.6609L17.3812 15.3516L17.4094 15.6094C17.4234 15.75 17.4797 16.6687 17.5359 17.6484C17.5922 18.6281 17.6437 19.4344 17.6484 19.4437C17.6625 19.4625 21.2859 19.6828 21.5625 19.6875H21.7265L21.3609 19.3219C20.8828 18.8391 20.8828 18.7969 21.3328 18.1078C21.7594 17.4562 22.3031 16.3453 22.5422 15.6328C22.9265 14.4937 23.0953 13.5609 23.1422 12.375C23.2312 9.96562 22.5609 7.67344 21.1734 5.63437C20.864 5.175 20.85 5.14687 20.9344 5.08594C21.2203 4.87969 21.2203 4.92187 20.9531 4.60312C20.8219 4.44375 20.7 4.3125 20.6906 4.3125C20.6812 4.3125 20.6625 4.35937 20.6531 4.41562Z" fill="#4096EC"/>
<path d="M10.5234 0.914475C8.60156 1.18635 6.71719 1.95979 5.25469 3.0801L5.04375 3.23948L4.89844 3.06604L4.75313 2.8926L4.41563 3.18323C4.22813 3.3426 4.07812 3.48791 4.07812 3.50198C4.07812 3.52073 4.125 3.48791 4.18594 3.43635L4.28906 3.33791L5.90625 3.43166C6.79688 3.48323 7.52813 3.5301 7.52813 3.53479C7.55625 3.55823 7.6875 6.19729 7.66406 6.23948C7.64531 6.2676 7.70625 6.23948 7.8 6.17854C7.99688 6.05198 8.00156 6.03323 7.87031 5.8551C7.81875 5.7801 7.78125 5.69104 7.79531 5.65823C7.83281 5.56916 8.55938 5.17541 9.075 4.96448C10.1156 4.53791 11.0391 4.38323 12.2672 4.42073C13.4813 4.45823 14.4281 4.69729 15.4313 5.21291C15.8203 5.40979 15.9141 5.4801 15.9656 5.60666C16.0547 5.82229 15.9938 5.96291 15.6656 6.29104L15.4031 6.56291H15.5625C15.9563 6.5676 19.3641 6.35198 19.4156 6.32385C19.4672 6.29104 19.6781 3.32385 19.6828 2.53635L19.6875 2.28323L19.3172 2.63948C18.8438 3.10354 18.8109 3.10354 18.1828 2.69104C16.8844 1.83791 15.4969 1.28479 13.875 0.9801C13.1766 0.84885 11.2594 0.81135 10.5234 0.914475Z" fill="#40C1EC"/>
<path d="M6.60935 17.5127C5.66716 17.5689 4.81404 17.6205 4.70623 17.6205L4.51873 17.6252L4.4156 19.5096C4.35466 20.5502 4.29841 21.4736 4.28435 21.5627L4.25623 21.7221L4.63591 21.3611C5.14685 20.8736 5.16091 20.8736 5.88279 21.3424C7.34529 22.2986 9.0656 22.9127 10.8234 23.1143C11.5594 23.1939 13.139 23.1471 13.875 23.0158C15.4031 22.7486 16.8844 22.1533 18.1828 21.2955C18.5015 21.0799 18.5812 21.0471 18.614 21.1033C18.6328 21.1408 18.6937 21.2205 18.7406 21.2814L18.8344 21.3939L19.289 21.0236C19.5422 20.8174 19.7859 20.6205 19.8328 20.583C19.8844 20.5502 19.9219 20.4986 19.9219 20.4705C19.9219 20.4424 19.875 20.4658 19.814 20.5221L19.7062 20.6252L18.2437 20.5361C17.4375 20.4893 16.7672 20.4377 16.7531 20.4236C16.7156 20.3908 16.5515 17.5643 16.5844 17.508C16.5984 17.4799 16.5469 17.5174 16.4719 17.583C16.3969 17.6486 16.2609 17.7518 16.1719 17.8127C16.0828 17.8736 15.9984 17.9299 15.9937 17.9346C15.9844 17.9393 16.0312 18.0236 16.0969 18.1221C16.1625 18.2158 16.2047 18.3143 16.1906 18.333C16.1812 18.3518 15.9844 18.4736 15.7594 18.6049C15.0328 19.0174 14.1984 19.3174 13.2984 19.4861C12.6937 19.5986 11.2969 19.5986 10.7015 19.4861C9.5156 19.2611 8.14685 18.6939 8.01091 18.3658C7.93123 18.1643 7.99685 18.0143 8.30623 17.6908C8.58748 17.3955 8.59216 17.3908 8.45623 17.3955C8.38123 17.4002 7.55154 17.4518 6.60935 17.5127Z" fill="#40C1EC"/>
</g>
<defs>
<clipPath id="clip0_1178_1649">
<rect width="24" height="24" fill="white"/>
</clipPath>
</defs>
</svg>
