<svg width="20" height="20" viewBox="0 0 20 20" fill="none" xmlns="http://www.w3.org/2000/svg">
<path d="M4.58594 11.667C5.06621 11.6669 5.53177 11.8327 5.90381 12.1364C6.27586 12.4402 6.53155 12.8631 6.6276 13.3337H12.5026V5.00033H3.33594C2.89391 5.00033 2.46999 5.17592 2.15743 5.48848C1.84487 5.80104 1.66927 6.22496 1.66927 6.66699V13.3337H2.54427C2.64033 12.8631 2.89601 12.4402 3.26806 12.1364C3.64011 11.8327 4.10567 11.6669 4.58594 11.667ZM4.58594 15.8337C4.10567 15.8338 3.64011 15.6679 3.26806 15.3642C2.89601 15.0605 2.64033 14.6376 2.54427 14.167H0.835938V6.66699C0.835938 6.00395 1.09933 5.36807 1.56817 4.89923C2.03701 4.43038 2.6729 4.16699 3.33594 4.16699H12.5026C12.7236 4.16699 12.9356 4.25479 13.0919 4.41107C13.2481 4.56735 13.3359 4.77931 13.3359 5.00033V6.66699H15.8359L18.3359 10.0003V14.167H16.6276C16.532 14.6379 16.2765 15.0614 15.9044 15.3655C15.5323 15.6696 15.0665 15.8357 14.5859 15.8357C14.1054 15.8357 13.6396 15.6696 13.2675 15.3655C12.8954 15.0614 12.6399 14.6379 12.5443 14.167H6.6276C6.53155 14.6376 6.27586 15.0605 5.90381 15.3642C5.53177 15.6679 5.06621 15.8338 4.58594 15.8337ZM4.58594 12.5003C4.25442 12.5003 3.93647 12.632 3.70205 12.8664C3.46763 13.1009 3.33594 13.4188 3.33594 13.7503C3.33594 14.0818 3.46763 14.3998 3.70205 14.6342C3.93647 14.8686 4.25442 15.0003 4.58594 15.0003C4.91746 15.0003 5.2354 14.8686 5.46982 14.6342C5.70424 14.3998 5.83594 14.0818 5.83594 13.7503C5.83594 13.4188 5.70424 13.1009 5.46982 12.8664C5.2354 12.632 4.91746 12.5003 4.58594 12.5003ZM14.5859 11.667C15.0662 11.6669 15.5318 11.8327 15.9038 12.1364C16.2759 12.4402 16.5316 12.8631 16.6276 13.3337H17.5026V10.267L17.3026 10.0003H13.3359V12.0837C13.6859 11.8253 14.1193 11.667 14.5859 11.667ZM14.5859 12.5003C14.2544 12.5003 13.9365 12.632 13.7021 12.8664C13.4676 13.1009 13.3359 13.4188 13.3359 13.7503C13.3359 14.0818 13.4676 14.3998 13.7021 14.6342C13.9365 14.8686 14.2544 15.0003 14.5859 15.0003C14.9175 15.0003 15.2354 14.8686 15.4698 14.6342C15.7042 14.3998 15.8359 14.0818 15.8359 13.7503C15.8359 13.4188 15.7042 13.1009 15.4698 12.8664C15.2354 12.632 14.9175 12.5003 14.5859 12.5003ZM13.3359 7.50033V9.16699H16.6693L15.4193 7.50033H13.3359Z" fill="#333333"/>
<path d="M4.58594 12.5003C4.25442 12.5003 3.93647 12.632 3.70205 12.8664C3.46763 13.1009 3.33594 13.4188 3.33594 13.7503C3.33594 14.0818 3.46763 14.3998 3.70205 14.6342C3.93647 14.8686 4.25442 15.0003 4.58594 15.0003C4.91746 15.0003 5.2354 14.8686 5.46982 14.6342C5.70424 14.3998 5.83594 14.0818 5.83594 13.7503C5.83594 13.4188 5.70424 13.1009 5.46982 12.8664C5.2354 12.632 4.91746 12.5003 4.58594 12.5003Z" fill="#333333"/>
<path d="M14.5859 12.5003C14.2544 12.5003 13.9365 12.632 13.7021 12.8664C13.4676 13.1009 13.3359 13.4188 13.3359 13.7503C13.3359 14.0818 13.4676 14.3998 13.7021 14.6342C13.9365 14.8686 14.2544 15.0003 14.5859 15.0003C14.9175 15.0003 15.2354 14.8686 15.4698 14.6342C15.7042 14.3998 15.8359 14.0818 15.8359 13.7503C15.8359 13.4188 15.7042 13.1009 15.4698 12.8664C15.2354 12.632 14.9175 12.5003 14.5859 12.5003Z" fill="#333333"/>
</svg>
