<svg width="24" height="24" viewBox="0 0 24 24" fill="none" xmlns="http://www.w3.org/2000/svg">
<path d="M0.375 4.16702C0.285938 4.21389 0.164063 4.32171 0.103125 4.40608C0.009375 4.54671 0 4.61233 0 5.24983C0 5.85921 0.009375 5.94827 0.084375 6.01389C0.257813 6.16858 0.576563 6.07483 0.65625 5.84514C0.679688 5.77014 0.703125 5.49827 0.703125 5.24514V4.78108H3.46875H6.22969L6.24375 6.68889C6.25781 8.41389 6.26719 8.61546 6.34219 8.75139C6.50156 9.04671 6.50625 9.04671 8.53125 9.04671C10.5563 9.04671 10.5609 9.04671 10.7203 8.75139C10.7953 8.61546 10.8047 8.41389 10.8188 6.68889L10.8328 4.78108H13.6922H16.5469V10.4295V16.078H11.4563H6.36563L6.09375 15.8295C5.75156 15.5108 5.46094 15.342 5.07188 15.2295C4.26094 14.9998 3.39375 15.2248 2.77031 15.8295L2.5125 16.078H1.60781H0.703125V11.7467C0.703125 8.99046 0.684375 7.36858 0.65625 7.28889C0.628125 7.21389 0.54375 7.13889 0.440625 7.09671C0.276563 7.02639 0.257813 7.03108 0.145313 7.11546L0.0234375 7.20452L0.009375 12.3326C0 18.0842 -0.028125 17.6295 0.342188 17.9248L0.525 18.0701L1.3125 18.0842L2.09531 18.0983L2.15156 18.2858C2.30625 18.8014 2.85 19.4248 3.34688 19.6592C4.125 20.0295 5.03906 19.9826 5.72344 19.5467C6.15469 19.2655 6.57656 18.7311 6.70781 18.2905L6.76406 18.0936H12.2719H17.775L17.7984 18.1873C17.8781 18.4873 18.1594 18.9561 18.4125 19.2092C19.4813 20.278 21.2766 20.0998 22.1203 18.8436C22.2188 18.6889 22.3406 18.4592 22.3828 18.328L22.4625 18.0936H22.8328C23.3859 18.0936 23.7 17.9248 23.9109 17.5217C23.9953 17.353 24 17.2076 24 14.2639C24 11.3108 23.9953 11.1701 23.9063 10.978C23.7797 10.6967 21.5344 8.43264 21.2391 8.28733C21.0281 8.17952 20.9906 8.17952 19.1391 8.16546L17.25 8.15139V6.38889C17.25 4.66858 17.25 4.62639 17.1469 4.44827C17.0813 4.33108 16.9734 4.23264 16.8516 4.17171C16.6594 4.07796 16.5609 4.07796 8.59688 4.07796C0.84375 4.07796 0.529688 4.08264 0.375 4.16702ZM10.125 6.58577V8.39046H8.53125H6.9375V6.58577V4.78108H8.53125H10.125V6.58577ZM22.1016 10.0826L23.2969 11.2826V14.2405C23.2969 17.6811 23.3438 17.3905 22.8047 17.3905C22.6359 17.3905 22.5 17.3764 22.5 17.353C22.5 17.3342 22.4672 17.1795 22.4297 17.0014C22.1156 15.5108 20.4094 14.6998 19.0406 15.3936C18.375 15.7311 17.8781 16.4201 17.775 17.1373L17.7422 17.367L17.4703 17.3811L17.2031 17.3951V13.1576C17.2031 10.828 17.2172 8.90608 17.2359 8.88733C17.2547 8.86858 18.0891 8.85921 19.0875 8.86858L20.9109 8.88264L22.1016 10.0826ZM5.13281 15.9748C5.79375 16.2842 6.20156 16.9826 6.12188 17.6717C5.95313 19.1014 4.2 19.7061 3.225 18.6655C2.83125 18.2483 2.66719 17.742 2.76094 17.2405C2.96719 16.1248 4.12969 15.5061 5.13281 15.9748ZM20.7469 15.942C21.1922 16.1108 21.6141 16.5842 21.75 17.0764C21.8344 17.3858 21.7875 17.9201 21.6516 18.2155C21.4922 18.5576 21.0797 18.9467 20.7422 19.078C19.9078 19.3967 18.9891 19.0405 18.6 18.2436C18.4594 17.9623 18.4453 17.892 18.4453 17.5076C18.4453 17.1467 18.4641 17.0483 18.5719 16.8186C18.9609 15.9889 19.875 15.6186 20.7469 15.942ZM2.14219 16.8842C2.12344 16.9451 2.1 17.0811 2.08125 17.1889L2.04844 17.3905H1.43438C1.01719 17.3905 0.796875 17.3717 0.759375 17.3342C0.726563 17.3014 0.703125 17.1655 0.703125 17.0295V16.7811H1.43438H2.16563L2.14219 16.8842ZM16.5469 17.0858V17.3905H11.6766H6.81094L6.77813 17.1561C6.75938 17.0248 6.73594 16.8889 6.72188 16.8514C6.69844 16.7905 7.27969 16.7811 11.6203 16.7811H16.5469V17.0858Z" fill="#151515"/>
<path d="M18.1547 9.70312C17.8641 9.87656 17.8594 9.90469 17.8594 11.6812C17.8594 13.1953 17.8641 13.2984 17.9531 13.4391C18.1313 13.7344 18.1219 13.7344 20.2828 13.7344C22.1672 13.7344 22.2469 13.7297 22.3969 13.6406C22.6453 13.4859 22.6875 13.3219 22.6875 12.4828C22.6828 11.9906 22.6641 11.7094 22.6266 11.6437C22.5188 11.4562 20.8359 9.75 20.6859 9.67969C20.5688 9.62344 20.3203 9.60937 19.4203 9.60937C18.3984 9.60937 18.2906 9.61875 18.1547 9.70312ZM21.2016 11.1L22.0313 11.9297V12.5062V13.0781H20.2734H18.5156V11.6719V10.2656H19.4438H20.3672L21.2016 11.1Z" fill="#151515"/>
<path d="M4.20471 16.4109C3.14065 16.6593 2.99065 18.0843 3.9844 18.5297C4.49065 18.7547 5.09065 18.5718 5.3719 18.1031C5.61565 17.7 5.61096 17.2968 5.35784 16.8843C5.14221 16.5328 4.61253 16.3172 4.20471 16.4109ZM4.73909 17.1984C5.13284 17.5968 4.56565 18.2203 4.15784 17.8406C3.83909 17.5453 4.03128 17.0718 4.46721 17.0625C4.55628 17.0625 4.65003 17.1093 4.73909 17.1984Z" fill="#151515"/>
<path d="M19.875 16.4106C19.5937 16.4668 19.3219 16.6637 19.1484 16.9449C19.0266 17.1418 19.0078 17.2168 19.0078 17.5028C19.0125 18.0043 19.2422 18.3653 19.6875 18.5528C19.9031 18.6418 20.3297 18.6371 20.5547 18.5387C21.1266 18.3043 21.3891 17.6059 21.1219 17.0387C20.8969 16.5512 20.4187 16.3121 19.875 16.4106ZM20.3156 17.1137C20.4609 17.1793 20.5922 17.4418 20.5547 17.5871C20.4656 17.934 20.1 18.0559 19.8328 17.8309C19.7109 17.7324 19.6875 17.6762 19.6875 17.5074C19.6875 17.3387 19.7109 17.2824 19.8328 17.184C19.9875 17.0528 20.1328 17.034 20.3156 17.1137Z" fill="#151515"/>
<path d="M11.1328 12.2812C11.011 12.4172 11.0203 12.6516 11.1516 12.7594C11.236 12.825 11.3391 12.8438 11.6438 12.8438C11.986 12.8438 12.0422 12.8297 12.1313 12.7359C12.2625 12.5953 12.2625 12.4031 12.1313 12.2812C12.0469 12.2016 11.9672 12.1875 11.625 12.1875C11.2781 12.1875 11.2031 12.2016 11.1328 12.2812Z" fill="#151515"/>
<path d="M13.3125 12.2812C13.2609 12.3328 13.2188 12.4359 13.2188 12.5156C13.2188 12.5953 13.2609 12.6984 13.3125 12.75C13.4016 12.8391 13.4672 12.8438 14.2922 12.8438H15.1828L15.2766 12.7219C15.3328 12.6516 15.375 12.5625 15.375 12.5156C15.375 12.4687 15.3328 12.3797 15.2766 12.3094L15.1828 12.1875H14.2922C13.4672 12.1875 13.4016 12.1922 13.3125 12.2812Z" fill="#151515"/>
<path d="M11.1656 14.2828C11.0156 14.4094 10.9922 14.5828 11.1094 14.7328L11.2078 14.8594H13.186C14.2735 14.8594 15.1875 14.8406 15.2156 14.8219C15.286 14.775 15.375 14.6016 15.375 14.5078C15.375 14.4656 15.3235 14.3812 15.2578 14.3203L15.1453 14.2031H13.2047C11.4188 14.2031 11.2547 14.2078 11.1656 14.2828Z" fill="#151515"/>
<path d="M6.9375 6.58594V8.34375H8.53125H10.125V6.58594V4.82812H8.53125H6.9375V6.58594Z" fill="#EC4040"/>
<path d="M14.2969 8.48437V12.1406H14.6953C14.9109 12.1406 15.1406 12.1641 15.2063 12.1922C15.3563 12.2625 15.4313 12.4687 15.3703 12.6516C15.3047 12.8344 15.1547 12.8906 14.6953 12.8906H14.2969V13.5234V14.1562H14.6859C15.1172 14.1562 15.2766 14.2172 15.3656 14.4047C15.4359 14.5547 15.4078 14.6859 15.2672 14.8125C15.1828 14.8922 15.1031 14.9062 14.7328 14.9062H14.2969V15.4922V16.0781H15.3984H16.5V10.4531V4.82812H15.3984H14.2969V8.48437Z" fill="#EC966B"/>
<path d="M0.703125 5.34844C0.703125 5.63437 0.684375 5.90625 0.65625 5.95312C0.632813 6 0.548438 6.06094 0.46875 6.08437L0.328125 6.13594V6.58125C0.328125 7.02187 0.328125 7.03125 0.445313 7.05937C0.717188 7.125 0.703125 6.9 0.703125 11.6812V16.0781H1.58906H2.475L2.76094 15.7969C3.08438 15.4781 3.44063 15.2812 3.89531 15.1687C4.67344 14.9766 5.475 15.2016 6.10781 15.7969L6.4125 16.0781H10.3547H14.2969V15.4922V14.9062H12.7781C11.3156 14.9062 11.2594 14.9016 11.1375 14.8078C10.9875 14.6906 10.9734 14.4562 11.1047 14.2922L11.1938 14.1797L12.7453 14.1656L14.2969 14.1516V13.5234V12.8906H13.8938C13.3734 12.8906 13.1766 12.7875 13.1766 12.5156C13.1766 12.2437 13.3734 12.1406 13.8938 12.1406H14.2969V8.48437V4.82812H12.5625H10.8281V6.73125C10.8281 8.55937 10.8234 8.64375 10.7344 8.78906C10.5469 9.08906 10.5188 9.09375 8.53125 9.09375C6.54844 9.09375 6.50156 9.08906 6.32344 8.79375C6.23906 8.65781 6.23438 8.52656 6.23438 6.73594V4.82812H3.46875H0.703125V5.34844ZM12.0656 12.1922C12.2297 12.2672 12.3094 12.4781 12.2344 12.6516C12.1594 12.8437 11.9719 12.9047 11.5594 12.8812C11.1375 12.8625 11.0156 12.7781 11.0156 12.5109C11.0156 12.2391 11.1703 12.1406 11.6063 12.1406C11.7938 12.1406 12 12.1641 12.0656 12.1922Z" fill="#ECC16B"/>
<path d="M3.90938 15.9281C3.47813 16.0828 3.08906 16.4391 2.89219 16.8562C2.80781 17.0437 2.78906 17.1656 2.78906 17.5078C2.79375 17.8687 2.8125 17.9672 2.92031 18.1922C3.08438 18.5297 3.40313 18.8531 3.74063 19.0172C3.975 19.1297 4.06406 19.1484 4.42969 19.1484C4.79063 19.1484 4.88906 19.1297 5.11875 19.0219C5.46094 18.8625 5.76094 18.5625 5.93438 18.2062C6.05156 17.9625 6.07031 17.8781 6.07031 17.5078C6.07031 17.1469 6.05156 17.0484 5.94375 16.8187C5.78438 16.4766 5.45625 16.1484 5.11875 15.9937C4.77188 15.8344 4.25625 15.8062 3.90938 15.9281ZM4.95469 16.4672C5.33906 16.6687 5.57813 17.0625 5.57813 17.5078C5.57813 17.9531 5.33906 18.3469 4.95938 18.5437C4.75313 18.6516 4.35469 18.6797 4.09219 18.6047C3.80156 18.525 3.42188 18.1547 3.3375 17.8781C3.16406 17.2828 3.47344 16.6359 4.03594 16.4203C4.24219 16.3453 4.7625 16.3687 4.95469 16.4672Z" fill="#406B96"/>
<path d="M19.6359 15.9141C19.1484 16.0687 18.689 16.5187 18.5343 16.9875C18.4781 17.1516 18.464 17.3203 18.4781 17.5969C18.5156 18.2531 18.8437 18.7453 19.4437 19.0219C19.6687 19.1297 19.7765 19.1484 20.1093 19.1484C20.4656 19.1484 20.5406 19.1344 20.8218 18.9937C21.839 18.4922 22.0875 17.1891 21.3187 16.3781C20.8968 15.9328 20.1843 15.7359 19.6359 15.9141ZM20.6015 16.4719C20.7328 16.5281 20.9062 16.6547 20.9859 16.7484C21.1312 16.9125 21.2812 17.3016 21.2812 17.5078C21.2812 17.5641 21.2484 17.7187 21.2109 17.85C20.9437 18.7453 19.7343 18.9422 19.1859 18.1781C18.4968 17.2219 19.5328 15.9703 20.6015 16.4719Z" fill="#406B96"/>
<path d="M21.4453 9.46875C21.5719 9.59531 21.6844 9.70312 21.6984 9.70312C21.7125 9.70312 21.6188 9.59531 21.4922 9.46875C21.3656 9.3375 21.2531 9.23437 21.2391 9.23437C21.225 9.23437 21.3188 9.3375 21.4453 9.46875Z" fill="#406BC1"/>
<path d="M16.5094 17.0717L16.5 17.3436L11.6625 17.3577L6.82031 17.367L11.6625 17.3811C15.7359 17.3905 16.5047 17.3811 16.5281 17.3249C16.5422 17.292 16.5422 17.1608 16.5328 17.0342L16.5188 16.8045L16.5094 17.0717Z" fill="#406BC1"/>
<path d="M1.16248 17.3763C1.32186 17.3856 1.58436 17.3856 1.74842 17.3763C1.9078 17.3669 1.77655 17.3622 1.45311 17.3622C1.12967 17.3622 0.998421 17.3669 1.16248 17.3763Z" fill="#406BC1"/>
<path d="M22.6078 17.3763C22.6781 17.3856 22.7906 17.3856 22.8656 17.3763C22.9359 17.3669 22.875 17.3575 22.7343 17.3575C22.5937 17.3575 22.5328 17.3669 22.6078 17.3763Z" fill="#406BC1"/>
<path d="M19.1484 9.23437L19.4719 9.5625H20.0156C20.4937 9.5625 20.5734 9.57656 20.7281 9.67031C20.9578 9.81094 22.6266 11.5312 22.6875 11.6906C22.7109 11.7609 22.7344 12.1359 22.7344 12.525C22.7344 13.3125 22.6922 13.4719 22.4344 13.6547C22.3031 13.7484 22.2234 13.7578 21.6703 13.7719L21.0469 13.7906V14.5312V15.2719L21.2953 15.4125C21.6422 15.6094 21.9 15.8484 22.1016 16.1531C22.3031 16.4531 22.4953 16.9641 22.5 17.1891V17.3438H22.7953C23.1141 17.3438 23.1609 17.325 23.2453 17.1703C23.3297 17.0062 23.3203 11.5312 23.2312 11.3297C23.1937 11.2453 22.6594 10.6734 22.0359 10.0547L20.9062 8.92969L19.8609 8.91562L18.8203 8.90156L19.1484 9.23437Z" fill="#4096EC"/>
<path d="M0.703113 16.9875C0.703113 17.3531 0.684363 17.3437 1.3828 17.3437H2.00624L2.0578 17.1094C2.08593 16.9781 2.10936 16.8515 2.10936 16.8281C2.10936 16.8 1.81874 16.7812 1.40624 16.7812H0.703113V16.9875Z" fill="#4096EC"/>
<path d="M6.76403 16.9078C6.77809 16.9547 6.80153 17.0719 6.82028 17.1656L6.8484 17.3438H11.6718H16.5V17.0859V16.8281H11.6203C6.9984 16.8281 6.74528 16.8328 6.76403 16.9078Z" fill="#4096EC"/>
<path d="M17.25 13.125V17.3438H17.475H17.6953L17.7563 17.0297C17.925 16.1344 18.6656 15.375 19.575 15.1594C19.95 15.0703 20.5313 15.0937 20.85 15.2062L21.0469 15.2766V14.5312V13.7812H19.7016C18.1922 13.7812 18.1266 13.7672 17.9203 13.4578C17.8125 13.2984 17.8125 13.2844 17.8125 11.6766C17.8125 10.1531 17.8172 10.0453 17.9063 9.90469C18.0703 9.63281 18.1922 9.59062 18.8438 9.5625L19.4297 9.53906L19.1297 9.22031L18.8297 8.90625H18.0375H17.25V13.125Z" fill="#6BC1EC"/>
<path d="M18.5625 11.6719V13.0312H20.2734H21.9844V12.4781V11.9297L21.1734 11.1187L20.3672 10.3125H19.4625H18.5625V11.6719Z" fill="#40ECEC"/>
</svg>
