<svg width="44" height="44" viewBox="0 0 44 44" fill="none" xmlns="http://www.w3.org/2000/svg">
<g clip-path="url(#clip0_2498_14479)">
<path d="M1.3916 5.93828C0.798633 6.23047 0.497851 6.54844 0.205664 7.17578L-0.000585939 7.60547V19.4219V31.2383L0.205664 31.668C0.497851 32.2953 0.798633 32.6133 1.3916 32.9055L1.91582 33.1719H3.54004H5.15566V33.5844C5.15566 34.3664 5.5166 35.3719 6.11816 36.2398L6.36738 36.6094H3.41113H0.454883L0.222852 36.8328C-0.0951172 37.1594 -0.0951172 37.7781 0.222852 38.1047L0.454883 38.3281H21.9994H43.5439L43.776 38.1047C44.0939 37.7781 44.0939 37.1594 43.776 36.8328C43.5525 36.6094 43.5353 36.6094 42.3064 36.6094H41.0689L41.3182 36.2398C41.9197 35.3719 42.2807 34.3492 42.2807 33.5328V33.1031L42.7447 32.8367C43.2518 32.5531 43.5525 32.218 43.8189 31.625C43.9822 31.2641 43.9994 31.0664 43.9994 28.1789V25.1109L41.5846 20.2812C38.9893 15.082 38.8518 14.85 38.0268 14.4719L37.5971 14.2656H33.6697H29.7338V10.9312V7.58828L29.4674 7.06406C29.1752 6.47109 28.8572 6.17031 28.2299 5.87812L27.8002 5.67188H14.858H1.91582L1.3916 5.93828ZM27.233 7.44219C27.3791 7.47656 27.5939 7.59687 27.7143 7.71719L27.9291 7.93203V19.6883V31.4531H21.5955H15.2533L14.9182 30.7828C14.2822 29.5453 12.9846 28.4969 11.6354 28.1445C10.9908 27.9812 9.63301 27.9812 8.98848 28.1445C7.63066 28.4969 6.24707 29.6227 5.67129 30.8258L5.3791 31.4531H4.03848C2.03613 31.4531 1.82129 31.3414 1.73535 30.293L1.69238 29.7344H3.19629H4.70019L4.93223 29.5109L5.15566 29.2789V27.1562V25.0336L4.93223 24.8016L4.70019 24.5781H3.20488H1.71816L1.73535 16.3023C1.76113 8.57656 1.76973 8.00937 1.91582 7.79453C1.99316 7.67422 2.19082 7.52812 2.34551 7.48516C2.65488 7.39922 26.7861 7.35625 27.233 7.44219ZM37.3822 16.1992C37.4853 16.2937 37.726 16.6719 37.9064 17.0328L38.2416 17.7031H35.0705H31.908L31.6932 17.918C31.5728 18.0383 31.4525 18.2789 31.4182 18.4594C31.3494 18.8719 31.3494 25.1281 31.4182 25.5406C31.4525 25.7211 31.5728 25.9617 31.6932 26.082L31.908 26.2969H37.0471H42.1947V28.5914C42.1861 30.4648 42.1689 30.9289 42.0658 31.0578C41.9455 31.2211 41.9369 31.2211 41.8853 31.0578C41.7307 30.6453 41.1119 29.7859 40.6564 29.3734C40.0807 28.8406 39.1783 28.3336 38.4478 28.1445C37.8033 27.9812 36.4455 27.9812 35.801 28.1445C34.4518 28.4969 33.0596 29.6227 32.4838 30.8258L32.183 31.4531H30.9627H29.7338V23.7188V15.9758L33.4635 16.0016C37.0557 16.0273 37.2018 16.0359 37.3822 16.1992ZM40.39 22L41.6791 24.5781H37.4252H33.1713V22V19.4219H36.1361H39.101L40.39 22ZM3.35098 27.1562V28.0156H2.53457H1.71816V27.1562V26.2969H2.53457H3.35098V27.1562ZM11.6869 30.0867C12.383 30.4133 13.0018 31.0148 13.3369 31.6937C13.6033 32.2266 13.6205 32.3211 13.6205 33.1719C13.6205 33.9711 13.5947 34.1258 13.3885 34.5727C13.0877 35.2086 12.3486 35.9477 11.7127 36.2484C11.2658 36.4547 11.1111 36.4805 10.3119 36.4805C9.51269 36.4805 9.35801 36.4547 8.91113 36.2484C8.27519 35.9477 7.53613 35.2086 7.23535 34.5727C7.0291 34.1258 7.00332 33.9711 7.00332 33.1719C7.00332 32.3727 7.0291 32.2094 7.22676 31.7883C7.62207 30.9461 8.34394 30.2844 9.22051 29.975C9.88223 29.743 11.051 29.7945 11.6869 30.0867ZM38.4994 30.0867C39.1955 30.4133 39.8143 31.0148 40.1494 31.6937C40.4158 32.2266 40.433 32.3211 40.433 33.1719C40.433 33.9711 40.4072 34.1258 40.201 34.5727C39.9002 35.2 39.2041 35.9047 38.5424 36.2313C38.0697 36.4547 37.9494 36.4805 37.1244 36.4805C36.3252 36.4805 36.1705 36.4547 35.7236 36.2484C35.0877 35.9477 34.3486 35.2086 34.0478 34.5727C33.8416 34.1258 33.8158 33.9711 33.8158 33.1719C33.8158 32.3727 33.8416 32.2094 34.0393 31.7883C34.4346 30.9461 35.1564 30.2844 36.033 29.975C36.6947 29.743 37.8635 29.7945 38.4994 30.0867ZM31.9853 33.7906C32.0713 34.6672 32.3549 35.4062 32.9307 36.2398L33.1799 36.6094H23.7182H14.2564L14.5057 36.2398C15.0986 35.3805 15.4682 34.3492 15.4682 33.5672V33.1719L23.701 33.1891L31.9252 33.2148L31.9853 33.7906Z" fill="#333333"/>
<path d="M8.81719 11.0516C8.63672 11.232 8.59375 11.3609 8.59375 11.6875C8.59375 12.2547 8.88594 12.5469 9.45312 12.5469C10.0203 12.5469 10.3125 12.2547 10.3125 11.6875C10.3125 11.3609 10.2695 11.232 10.0891 11.0516C9.90859 10.8711 9.77969 10.8281 9.45312 10.8281C9.12656 10.8281 8.99766 10.8711 8.81719 11.0516Z" fill="#333333"/>
<path d="M12.2547 11.0516C12.0742 11.232 12.0312 11.3609 12.0312 11.6875C12.0312 12.0141 12.0742 12.143 12.2547 12.3234L12.4867 12.5469H18.3047H24.1227L24.3547 12.3234C24.5352 12.143 24.5781 12.0141 24.5781 11.6875C24.5781 11.3609 24.5352 11.232 24.3547 11.0516L24.1227 10.8281H18.3047H12.4867L12.2547 11.0516Z" fill="#333333"/>
<path d="M15.6922 14.4891C15.5117 14.6695 15.4688 14.7984 15.4688 15.125C15.4688 15.4516 15.5117 15.5805 15.6922 15.7609L15.9242 15.9844H20.0234H24.1227L24.3547 15.7609C24.6727 15.4344 24.6727 14.8156 24.3547 14.4891L24.1227 14.2656H20.0234H15.9242L15.6922 14.4891Z" fill="#333333"/>
<path d="M9.39297 31.6766C8.86016 31.9945 8.59375 32.493 8.59375 33.1719C8.59375 34.2289 9.25547 34.8906 10.3125 34.8906C11.3695 34.8906 12.0312 34.2289 12.0312 33.1719C12.0312 32.1148 11.3695 31.4531 10.3039 31.4531C9.86563 31.4531 9.67656 31.4961 9.39297 31.6766Z" fill="#333333"/>
<path d="M36.2067 31.6766C35.1067 32.3297 35.1067 34.0312 36.2153 34.6758C36.4989 34.8477 36.6966 34.8906 37.1263 34.8906C38.1833 34.8906 38.845 34.2289 38.845 33.1719C38.845 32.1148 38.1833 31.4531 37.1177 31.4531C36.6794 31.4531 36.4903 31.4961 36.2067 31.6766Z" fill="#333333"/>
</g>
<defs>
<clipPath id="clip0_2498_14479">
<rect width="44" height="44" fill="white"/>
</clipPath>
</defs>
</svg>
