<svg width="20" height="20" viewBox="0 0 20 20" fill="none" xmlns="http://www.w3.org/2000/svg">
<path d="M2.1998 4.42576C1.9757 4.53619 1.86203 4.65636 1.7516 4.89345L1.67365 5.05584V9.52157V13.9873L1.7516 14.1497C1.86203 14.3868 1.9757 14.507 2.1998 14.6174L2.39791 14.7181H3.01175H3.62234V14.874C3.62234 15.1695 3.75874 15.5495 3.98609 15.8775L4.08028 16.0172H2.96303H1.84579L1.7581 16.1016C1.63793 16.225 1.63793 16.4589 1.7581 16.5823L1.84579 16.6667H9.98804H18.1303L18.218 16.5823C18.3382 16.4589 18.3382 16.225 18.218 16.1016C18.1335 16.0172 18.127 16.0172 17.6626 16.0172H17.1949L17.2891 15.8775C17.5165 15.5495 17.6529 15.163 17.6529 14.8545V14.6921L17.8282 14.5914C18.0199 14.4842 18.1335 14.3576 18.2342 14.1335C18.2959 13.9971 18.3024 13.9224 18.3024 12.8311V11.6716L17.3898 9.84635C16.409 7.88143 16.357 7.79374 16.0452 7.65084L15.8828 7.57289H14.3986H12.9111V6.31274V5.04934L12.8104 4.85123C12.7 4.62713 12.5798 4.51346 12.3427 4.40303L12.1803 4.32508H7.28911H2.39791L2.1998 4.42576ZM11.966 4.99413C12.0212 5.00712 12.1024 5.05259 12.1478 5.09806L12.229 5.17926V9.62226V14.0685H9.83539H7.43851L7.31185 13.8152C7.07151 13.3475 6.58109 12.9513 6.07118 12.8181C5.8276 12.7564 5.31444 12.7564 5.07086 12.8181C4.55771 12.9513 4.03481 13.3767 3.81721 13.8314L3.70678 14.0685H3.20012C2.44338 14.0685 2.36219 14.0263 2.32971 13.63L2.31347 13.4189H2.88184H3.4502L3.53789 13.3345L3.62234 13.2468V12.4446V11.6424L3.53789 11.5547L3.4502 11.4703H2.88508H2.32321L2.32971 8.34262C2.33945 5.42284 2.3427 5.20849 2.39791 5.12729C2.42714 5.08182 2.50184 5.02661 2.5603 5.01037C2.67722 4.97789 11.7971 4.96165 11.966 4.99413ZM15.8016 8.30365C15.8406 8.33937 15.9315 8.48228 15.9997 8.61868L16.1264 8.87201H14.928H13.7328L13.6516 8.95321C13.6061 8.99868 13.5606 9.08961 13.5476 9.15782C13.5217 9.31371 13.5217 11.6781 13.5476 11.834C13.5606 11.9022 13.6061 11.9932 13.6516 12.0386L13.7328 12.1198H15.6749H17.6204V12.987C17.6171 13.695 17.6106 13.8704 17.5717 13.9191C17.5262 13.9808 17.523 13.9808 17.5035 13.9191C17.445 13.7632 17.2112 13.4384 17.039 13.2825C16.8214 13.0812 16.4804 12.8895 16.2043 12.8181C15.9608 12.7564 15.4476 12.7564 15.204 12.8181C14.6941 12.9513 14.168 13.3767 13.9504 13.8314L13.8367 14.0685H13.3755H12.9111V11.1455V8.2192L14.3206 8.22895C15.6782 8.23869 15.7334 8.24194 15.8016 8.30365ZM16.9383 10.4959L17.4255 11.4703H15.8179H14.2102V10.4959V9.52157H15.3307H16.4512L16.9383 10.4959ZM2.9403 12.4446V12.7694H2.63176H2.32321V12.4446V12.1198H2.63176H2.9403V12.4446ZM6.09067 13.5521C6.35374 13.6755 6.58758 13.9029 6.71425 14.1594C6.81493 14.3608 6.82143 14.3965 6.82143 14.7181C6.82143 15.0201 6.81168 15.0786 6.73374 15.2475C6.62006 15.4878 6.34075 15.7671 6.10041 15.8808C5.93153 15.9587 5.87307 15.9685 5.57102 15.9685C5.26898 15.9685 5.21051 15.9587 5.04163 15.8808C4.80129 15.7671 4.52198 15.4878 4.40831 15.2475C4.33036 15.0786 4.32062 15.0201 4.32062 14.7181C4.32062 14.416 4.33036 14.3543 4.40506 14.1952C4.55446 13.8769 4.82727 13.6268 5.15855 13.5099C5.40863 13.4222 5.85033 13.4417 6.09067 13.5521ZM16.2238 13.5521C16.4869 13.6755 16.7207 13.9029 16.8474 14.1594C16.9481 14.3608 16.9546 14.3965 16.9546 14.7181C16.9546 15.0201 16.9448 15.0786 16.8669 15.2475C16.7532 15.4845 16.4901 15.7509 16.2401 15.8743C16.0614 15.9587 16.016 15.9685 15.7042 15.9685C15.4021 15.9685 15.3437 15.9587 15.1748 15.8808C14.9344 15.7671 14.6551 15.4878 14.5415 15.2475C14.4635 15.0786 14.4538 15.0201 14.4538 14.7181C14.4538 14.416 14.4635 14.3543 14.5382 14.1952C14.6876 13.8769 14.9604 13.6268 15.2917 13.5099C15.5418 13.4222 15.9835 13.4417 16.2238 13.5521ZM13.762 14.9519C13.7945 15.2832 13.9016 15.5625 14.1193 15.8775L14.2134 16.0172H10.6376H7.06176L7.15595 15.8775C7.38005 15.5528 7.51971 15.163 7.51971 14.8675V14.7181L10.6311 14.7246L13.7393 14.7343L13.762 14.9519Z" fill="#4D4D4D"/>
<path d="M5.00632 6.35798C4.93811 6.42618 4.92188 6.4749 4.92188 6.59832C4.92188 6.81267 5.0323 6.9231 5.24666 6.9231C5.46101 6.9231 5.57144 6.81267 5.57144 6.59832C5.57144 6.4749 5.5552 6.42618 5.48699 6.35798C5.41879 6.28977 5.37007 6.27353 5.24666 6.27353C5.12324 6.27353 5.07452 6.28977 5.00632 6.35798Z" fill="#4D4D4D"/>
<path d="M6.31101 6.35798C6.2428 6.42618 6.22656 6.4749 6.22656 6.59832C6.22656 6.72173 6.2428 6.77045 6.31101 6.83865L6.3987 6.9231H8.59746H10.7962L10.8839 6.83865C10.9521 6.77045 10.9684 6.72173 10.9684 6.59832C10.9684 6.4749 10.9521 6.42618 10.8839 6.35798L10.7962 6.27353H8.59746H6.3987L6.31101 6.35798Z" fill="#4D4D4D"/>
<path d="M7.60397 7.65754C7.53577 7.72574 7.51953 7.77446 7.51953 7.89788C7.51953 8.02129 7.53577 8.07001 7.60397 8.13821L7.69167 8.22266H9.24087H10.7901L10.8778 8.13821C10.9979 8.0148 10.9979 7.78095 10.8778 7.65754L10.7901 7.57309H9.24087H7.69167L7.60397 7.65754Z" fill="#4D4D4D"/>
<path d="M5.22392 14.1532C5.02256 14.2734 4.92188 14.4618 4.92188 14.7184C4.92188 15.1178 5.17196 15.3679 5.57144 15.3679C5.97092 15.3679 6.221 15.1178 6.221 14.7184C6.221 14.3189 5.97092 14.0688 5.56819 14.0688C5.40255 14.0688 5.3311 14.085 5.22392 14.1532Z" fill="#4D4D4D"/>
<path d="M15.3583 14.1532C14.9425 14.4001 14.9425 15.0431 15.3615 15.2867C15.4687 15.3517 15.5434 15.3679 15.7058 15.3679C16.1053 15.3679 16.3553 15.1178 16.3553 14.7184C16.3553 14.3189 16.1053 14.0688 15.7025 14.0688C15.5369 14.0688 15.4654 14.085 15.3583 14.1532Z" fill="#4D4D4D"/>
</svg>
