<svg width="16" height="16" viewBox="0 0 16 16" fill="none" xmlns="http://www.w3.org/2000/svg">
<path d="M6.99319 1.48667L3.66653 2.74C2.89986 3.02667 2.27319 3.93333 2.27319 4.74666V9.7C2.27319 10.4867 2.79319 11.52 3.42653 11.9933L6.29319 14.1333C7.23319 14.84 8.77986 14.84 9.71986 14.1333L12.5865 11.9933C13.2199 11.52 13.7399 10.4867 13.7399 9.7V4.74666C13.7399 3.92666 13.1132 3.02 12.3465 2.73333L9.01986 1.48667C8.45319 1.28 7.54653 1.28 6.99319 1.48667Z" stroke="#FA610E" stroke-width="1.5" stroke-linecap="round" stroke-linejoin="round"/>
<path d="M8.00008 8.33335C8.73646 8.33335 9.33342 7.7364 9.33342 7.00002C9.33342 6.26364 8.73646 5.66669 8.00008 5.66669C7.2637 5.66669 6.66675 6.26364 6.66675 7.00002C6.66675 7.7364 7.2637 8.33335 8.00008 8.33335Z" stroke="#FA610E" stroke-width="1.5" stroke-miterlimit="10" stroke-linecap="round" stroke-linejoin="round"/>
<path d="M8 8.33334V10.3333" stroke="#FA610E" stroke-width="1.5" stroke-miterlimit="10" stroke-linecap="round" stroke-linejoin="round"/>
</svg>
