<svg width="32" height="32" viewBox="0 0 32 32" fill="none" xmlns="http://www.w3.org/2000/svg">
<path d="M9.69661 13.2621V12.0214C9.69661 8.59551 12.6814 5.81824 16.3633 5.81824C20.0452 5.81824 23.0299 8.59551 23.0299 12.0214V13.2621C25.9755 13.2621 28.3633 15.4839 28.3633 18.2247C28.3633 20.0615 27.2908 21.7088 25.6966 22.5669M9.69661 13.2621C6.7511 13.2621 4.36328 15.4839 4.36328 18.2247C4.36328 20.0615 5.43581 21.7088 7.02995 22.5669M9.69661 13.2621C10.2738 13.2621 10.8295 13.3474 11.35 13.5052M16.3633 15.7434V26.9091M16.3633 15.7434L20.3633 19.4653M16.3633 15.7434L12.3633 19.4653" stroke="#287D54" stroke-width="2" stroke-linecap="round" stroke-linejoin="round"/>
</svg>
