<svg width="16" height="16" viewBox="0 0 16 16" fill="none" xmlns="http://www.w3.org/2000/svg">
<g clip-path="url(#clip0_770_5807)">
<circle cx="10" cy="10" r="10" fill="white"/>
<path d="M6.98442 0.0372725C5.26102 0.260447 3.58378 1.07619 2.36047 2.2921C1.11407 3.5311 0.298534 5.15489 0.0600275 6.87872C-0.00921648 7.37509 -0.0207571 8.47557 0.0369462 8.96039C0.221597 10.4418 0.833251 11.8963 1.76035 13.0468C3.0529 14.6436 4.96865 15.7056 7.03828 15.9596C7.45759 16.0135 8.54241 16.0135 8.96172 15.9596C10.4466 15.7787 11.8969 15.1631 13.0471 14.2358C14.6474 12.9467 15.7053 11.0305 15.9631 8.96039C16.0208 8.47557 16.0092 7.41356 15.94 6.91719C15.6899 5.11641 14.8744 3.50802 13.5741 2.24208C12.3431 1.04925 10.7967 0.295077 9.08098 0.0565119C8.61166 -0.0089016 7.43835 -0.0204449 6.98442 0.0372725ZM11.5891 5.62817C11.7546 5.69743 11.9161 5.88982 11.9469 6.05913C12.0085 6.38235 12.0546 6.32848 9.55414 8.71798C8.27313 9.94159 7.18831 10.9613 7.14214 10.9882C7.0152 11.0575 6.68821 11.0498 6.57665 10.9728C6.5228 10.9382 5.93807 10.3879 5.28025 9.75689C3.9877 8.51789 3.95692 8.48326 4.01847 8.16774C4.05309 7.9715 4.28006 7.74448 4.47625 7.70985C4.76477 7.65213 4.84171 7.70985 5.87652 8.69489C6.41124 9.20281 6.86132 9.61452 6.88056 9.60683C6.89979 9.59913 7.84612 8.71028 8.97711 7.63289C10.1081 6.55165 11.0852 5.65126 11.1429 5.62432C11.2852 5.56276 11.4391 5.56276 11.5891 5.62817Z" fill="#00BF62"/>
</g>
<defs>
<clipPath id="clip0_770_5807">
<rect width="16" height="16" fill="white"/>
</clipPath>
</defs>
</svg>
