<svg width="24" height="24" viewBox="0 0 24 24" fill="none" xmlns="http://www.w3.org/2000/svg">
<path d="M3.38435 5.55005C2.74685 5.70474 2.09529 6.21099 1.79529 6.77349C1.48591 7.3688 1.49998 7.1063 1.49998 12C1.49998 16.8938 1.48591 16.6313 1.79529 17.2266C2.10466 17.8079 2.8031 18.3282 3.45935 18.4641C3.80623 18.5344 14.1937 18.5344 14.5406 18.4641C15.1969 18.3282 15.8953 17.8079 16.2047 17.2266C16.4531 16.7532 16.5 16.5141 16.5 15.7407C16.5 15.361 16.5094 15.0469 16.5234 15.0469C16.5375 15.0469 17.414 15.6657 18.4734 16.425C20.2031 17.6719 20.4187 17.8125 20.6578 17.8594C21.3797 18.0094 22.0359 17.7 22.3594 17.0532L22.5 16.7672V12.0047V7.24224L22.3687 6.96099C22.214 6.64224 21.9328 6.36567 21.614 6.22036C21.3422 6.0938 20.6906 6.08442 20.4375 6.19692C20.3484 6.23442 19.4344 6.87192 18.4125 7.61255C17.3859 8.34849 16.5375 8.95317 16.5234 8.95317C16.5094 8.95317 16.5 8.63911 16.5 8.25942C16.5 7.76255 16.4765 7.49067 16.425 7.30786C16.1625 6.42192 15.4172 5.7188 14.5406 5.53599C14.1562 5.4563 3.71716 5.47036 3.38435 5.55005ZM14.6531 6.70317C15.0234 6.89536 15.2859 7.20005 15.3984 7.56567C15.5015 7.91255 15.5015 16.0875 15.3984 16.4344C15.2859 16.8 15.0234 17.1047 14.6531 17.2969L14.3297 17.461H8.99998H3.67029L3.34685 17.2969C2.97654 17.1047 2.71404 16.8 2.60154 16.4344C2.5031 16.1016 2.49841 7.91255 2.59685 7.58442C2.73279 7.12036 3.07966 6.77349 3.57654 6.60005C3.80623 6.52505 4.12029 6.52036 9.07498 6.52974L14.3297 6.53911L14.6531 6.70317ZM21.1875 7.19536C21.4875 7.35005 21.4687 7.02661 21.4687 11.9766C21.4687 15.5016 21.4547 16.5 21.4078 16.5938C21.375 16.6594 21.2719 16.7532 21.1781 16.8047C21.0234 16.8891 20.9953 16.8891 20.8687 16.8282C20.7937 16.7907 19.7812 16.0735 18.6187 15.2344L16.5 13.711V12V10.2891L18.45 8.88286C21.1875 6.90942 20.9344 7.06411 21.1875 7.19536Z" fill="black" fill-opacity="0.7"/>
</svg>
