<svg width="24" height="24" viewBox="0 0 24 24" fill="none" xmlns="http://www.w3.org/2000/svg">
<path d="M3.38447 5.54968C2.74697 5.70437 2.09541 6.21062 1.79541 6.77312C1.48604 7.36843 1.5001 7.10593 1.5001 11.9997C1.5001 16.8934 1.48604 16.6309 1.79541 17.2262C2.10479 17.8075 2.80322 18.3278 3.45947 18.4637C3.80635 18.5341 14.1938 18.5341 14.5407 18.4637C15.197 18.3278 15.8954 17.8075 16.2048 17.2262C16.4532 16.7528 16.5001 16.5137 16.5001 15.7403C16.5001 15.3606 16.5095 15.0466 16.5235 15.0466C16.5376 15.0466 17.4142 15.6653 18.4735 16.4247C20.2032 17.6716 20.4188 17.8122 20.6579 17.8591C21.3798 18.0091 22.036 17.6997 22.3595 17.0528L22.5001 16.7669V12.0044V7.24187L22.3688 6.96062C22.2142 6.64187 21.9329 6.36531 21.6142 6.21999C21.3423 6.09343 20.6907 6.08406 20.4376 6.19656C20.3485 6.23406 19.4345 6.87156 18.4126 7.61218C17.386 8.34812 16.5376 8.95281 16.5235 8.95281C16.5095 8.95281 16.5001 8.63874 16.5001 8.25906C16.5001 7.76218 16.4767 7.49031 16.4251 7.3075C16.1626 6.42156 15.4173 5.71843 14.5407 5.53562C14.1563 5.45593 3.71729 5.46999 3.38447 5.54968ZM14.6532 6.70281C15.0235 6.89499 15.286 7.19968 15.3985 7.56531C15.5017 7.91218 15.5017 16.0872 15.3985 16.4341C15.286 16.7997 15.0235 17.1044 14.6532 17.2966L14.3298 17.4606H9.0001H3.67041L3.34697 17.2966C2.97666 17.1044 2.71416 16.7997 2.60166 16.4341C2.50322 16.1012 2.49854 7.91218 2.59697 7.58406C2.73291 7.11999 3.07979 6.77312 3.57666 6.59968C3.80635 6.52468 4.12041 6.51999 9.0751 6.52937L14.3298 6.53874L14.6532 6.70281ZM21.1876 7.19499C21.4876 7.34968 21.4688 7.02624 21.4688 11.9762C21.4688 15.5012 21.4548 16.4997 21.4079 16.5934C21.3751 16.6591 21.272 16.7528 21.1782 16.8044C21.0235 16.8887 20.9954 16.8887 20.8688 16.8278C20.7938 16.7903 19.7813 16.0731 18.6188 15.2341L16.5001 13.7106V11.9997V10.2887L18.4501 8.88249C21.1876 6.90906 20.9345 7.06374 21.1876 7.19499Z" fill="#016635"/>
<path d="M14.6532 6.70281C15.0235 6.89499 15.286 7.19968 15.3985 7.56531C15.5017 7.91218 15.5017 16.0872 15.3985 16.4341C15.286 16.7997 15.0235 17.1044 14.6532 17.2966L14.3298 17.4606H9.0001H3.67041L3.34697 17.2966C2.97666 17.1044 2.71416 16.7997 2.60166 16.4341C2.50322 16.1012 2.49854 7.91218 2.59697 7.58406C2.73291 7.11999 3.07979 6.77312 3.57666 6.59968C3.80635 6.52468 4.12041 6.51999 9.0751 6.52937L14.3298 6.53874L14.6532 6.70281Z" fill="#016635"/>
<path d="M21.1876 7.19499C21.4876 7.34968 21.4688 7.02624 21.4688 11.9762C21.4688 15.5012 21.4548 16.4997 21.4079 16.5934C21.3751 16.6591 21.272 16.7528 21.1782 16.8044C21.0235 16.8887 20.9954 16.8887 20.8688 16.8278C20.7938 16.7903 19.7813 16.0731 18.6188 15.2341L16.5001 13.7106V11.9997V10.2887L18.4501 8.88249C21.1876 6.90906 20.9345 7.06374 21.1876 7.19499Z" fill="#016635"/>
<circle cx="9" cy="12" r="3" fill="#F44336"/>
</svg>
