<svg width="55" height="54" viewBox="0 0 55 54" fill="none" xmlns="http://www.w3.org/2000/svg">
<path d="M36.7812 12.3609C38.0996 13.7109 38.2578 13.8691 38.2578 13.7848C38.2578 13.7742 37.6039 13.1203 36.8129 12.3398L35.3574 10.916L36.7812 12.3609Z" fill="#EC6B6B"/>
<path d="M39.7344 12.4137L38.3105 13.8691L39.766 12.4453C41.1055 11.127 41.2637 10.9688 41.1793 10.9688C41.1687 10.9688 40.5148 11.6227 39.7344 12.4137Z" fill="#EC6B6B"/>
<path d="M42.0547 14.734L40.6309 16.1895L42.0863 14.7656C42.8773 13.9852 43.5312 13.3313 43.5312 13.3207C43.5312 13.2363 43.373 13.3945 42.0547 14.734Z" fill="#EC6B6B"/>
<path d="M34.5137 17.6344L33.0371 19.1426L34.5453 17.666C35.9375 16.2949 36.0957 16.1367 36.0113 16.1367C36.0008 16.1367 35.3258 16.8117 34.5137 17.6344Z" fill="#EC6B6B"/>
<path d="M42.0547 17.6344C43.373 18.9844 43.5312 19.1426 43.5312 19.0582C43.5312 19.0477 42.8773 18.3938 42.0863 17.6133L40.6309 16.1895L42.0547 17.6344Z" fill="#EC6B6B"/>
<path d="M36.834 19.9547L35.3574 21.4629L36.8656 19.9863C37.6883 19.1742 38.3633 18.4992 38.3633 18.4887C38.3633 18.4043 38.2051 18.5625 36.834 19.9547Z" fill="#EC6B6B"/>
<path d="M20.8459 16.098C18.8068 16.3704 17.1196 16.8951 15.2997 17.8184C14.569 18.1903 12.8885 19.2265 12.7756 19.3727C12.7557 19.3992 12.5631 19.5586 12.3439 19.7247C10.8959 20.834 9.10245 22.9329 8.19247 24.5868C6.99686 26.7655 6.33264 28.8179 6.06031 31.2158C5.93411 32.3516 6.01381 34.7229 6.22636 35.9185C6.58504 37.951 7.45518 40.2891 8.43159 41.8101C8.55779 42.0028 8.65742 42.1887 8.65742 42.2219C8.65742 42.2884 8.47808 42.6803 7.92013 43.8759C7.74079 44.2545 7.59466 44.5733 7.59466 44.5866C7.59466 44.5999 7.33562 45.1711 7.02343 45.8619C6.06031 47.9608 6.00053 48.1136 6.00053 48.5121C6.00053 49.4022 6.59833 49.9934 7.50167 50C7.74744 50 8.30538 49.9004 8.97625 49.7343C9.97923 49.4885 10.4243 49.3623 12.4634 48.7645C12.9085 48.6317 13.659 48.4125 14.1306 48.273L14.9875 48.0273L15.5919 48.3262C16.9801 49.0037 18.7536 49.5616 20.4474 49.8472C21.4969 50.0199 24.5058 50.0199 25.5619 49.8472C26.7575 49.648 29.0624 49.0169 29.348 48.811C29.3878 48.7845 29.6203 48.6782 29.8794 48.5719C31.1347 48.0472 32.689 47.0774 33.9444 46.0213C36.1231 44.2013 37.7438 41.9629 38.8132 39.306C39.6102 37.3333 39.9357 35.7391 39.9888 33.4874C40.0287 31.8534 39.9623 30.9766 39.7032 29.6748C39.2981 27.6688 38.501 25.6363 37.4781 24.0289C35.3526 20.6878 32.3171 18.2302 28.7502 16.9682C27.3819 16.4899 26.4453 16.2641 25.0637 16.0914C24.0475 15.9652 21.7825 15.9718 20.8459 16.098ZM24.4925 19.0804C31.3074 19.8775 36.4286 25.1846 36.96 32.0062C37.1128 33.9656 36.7806 36.2506 36.0766 38.0108C35.6382 39.1067 34.8345 40.5547 34.2035 41.3983C33.9311 41.757 33.1141 42.7002 32.9414 42.8463C32.8617 42.9194 32.6359 43.1253 32.4366 43.3179C31.1414 44.5401 29.2683 45.6493 27.4815 46.2471C23.7552 47.4959 19.9094 47.1771 16.3624 45.3172C15.4856 44.8523 15.2 44.7991 14.6288 44.9785C14.4694 45.0316 13.8716 45.1977 13.307 45.3504C12.7424 45.5032 12.0118 45.7025 11.6796 45.7955C11.3542 45.8818 10.8826 46.0147 10.6434 46.0744L10.2051 46.194L10.7697 44.9585C11.0752 44.281 11.4472 43.4508 11.5999 43.1253C11.8922 42.4677 11.9719 41.9895 11.8523 41.6109C11.8058 41.478 11.6132 41.1393 11.4272 40.8536C10.2383 39.0802 9.56741 37.3864 9.17552 35.1945C9.05596 34.517 9.02939 34.1051 9.02939 33.0291C9.02939 30.5117 9.55412 28.4127 10.7099 26.3204C11.673 24.5802 13.0147 23.0192 14.5358 21.8768C15.1735 21.3919 15.9904 20.8406 16.0569 20.8406C16.0702 20.8406 16.2893 20.721 16.555 20.5815C18.8001 19.3461 21.8423 18.7682 24.4925 19.0804Z" fill="#40C140"/>
<path d="M16.7737 25.3905C16.3021 25.6097 15.8837 25.9684 15.4984 26.4865C14.8873 27.3168 14.6748 27.9743 14.6881 29.0437C14.6947 30.7043 15.5582 32.6372 17.1922 34.6564C17.6306 35.2077 18.866 36.4764 19.3908 36.9281C19.9952 37.4395 20.3606 37.7451 20.4735 37.8048C20.5332 37.8381 20.593 37.8846 20.613 37.9111C20.6329 37.9311 20.8853 38.117 21.1775 38.3229C22.785 39.4322 24.3525 40.1894 25.8935 40.6079C26.478 40.7673 26.684 40.7872 27.6205 40.7939C28.6102 40.8005 28.7165 40.7872 29.1549 40.6278C30.1977 40.2359 30.9283 39.5318 31.3468 38.4824C31.7321 37.5126 31.3999 36.669 30.3106 35.872C29.2744 35.1214 27.5807 34.683 26.9496 35.0085C26.684 35.148 26.3983 35.4734 25.9666 36.1509C25.4817 36.8949 25.3622 37.0011 25.0433 36.9613C24.7378 36.9214 23.4625 36.3037 22.7916 35.872C21.4698 35.0218 20.1812 33.6867 19.3244 32.2785C18.9723 31.694 18.9989 31.5744 19.6365 30.8106C19.8026 30.6113 20.0218 30.2991 20.1281 30.1131C20.4801 29.4755 20.3606 28.426 19.8026 27.2238C19.0454 25.5964 17.8631 24.8791 16.7737 25.3905Z" fill="#40C140"/>
<path d="M33.5853 10.8738C33.3111 11.0215 33.1107 11.2324 32.9736 11.5278C32.5412 12.4875 32.7732 12.941 34.6084 14.7656L36.0427 16.1789L34.524 17.7188C33.3111 18.9422 32.9736 19.343 32.8681 19.691C32.5201 20.8828 33.617 21.9797 34.8088 21.6317C35.1568 21.5262 35.5576 21.1887 36.781 19.9758L38.3103 18.4676L39.8396 19.9758C41.5588 21.6844 41.8857 21.8742 42.6978 21.6317C43.2463 21.4629 43.5838 21.136 43.7525 20.5875C44.0056 19.7438 43.8791 19.5223 42.1494 17.7715L40.5884 16.1789L42.0123 14.7656C42.7927 13.9852 43.531 13.1625 43.647 12.9516C44.2799 11.7281 43.2674 10.4414 41.8752 10.7051C41.5482 10.7578 41.2002 11.0531 39.8924 12.3504L38.2998 13.9113L36.8338 12.4453C36.0216 11.6332 35.2095 10.8949 35.0302 10.8106C34.5767 10.5996 34.0705 10.6207 33.5853 10.8738Z" fill="white"/>
<path d="M36.4963 5.73754C33.1318 6.3809 30.358 8.43754 28.8815 11.3801C25.5381 18.0352 29.8307 25.9348 37.2135 26.7047C40.7678 27.0844 44.3643 25.5973 46.5475 22.8551C47.4018 21.7899 48.2982 19.9969 48.5936 18.7735C49.9857 13.0465 46.5369 7.31957 40.8416 5.89574C39.7342 5.62153 37.5404 5.53715 36.4963 5.73754ZM35.199 10.8106C35.3467 10.895 36.1061 11.6016 36.8865 12.3821L38.2998 13.8059L39.8397 12.2977C41.0947 11.0637 41.4639 10.7579 41.8225 10.6629C43.0565 10.3254 44.1744 11.4434 43.8369 12.6774C43.742 13.036 43.4361 13.4051 42.2022 14.6602L40.694 16.2L42.1178 17.6133C42.8982 18.3938 43.626 19.1743 43.7104 19.3536C44.1111 20.0918 43.8158 21.136 43.1092 21.5579C42.719 21.7793 41.8963 21.811 41.5166 21.6211C41.3795 21.5473 40.599 20.8301 39.7869 20.0286L38.2998 18.5625L36.9393 19.9442C35.315 21.5684 35.0514 21.7477 34.3553 21.7477C33.4061 21.7477 32.7522 21.1043 32.7522 20.1551C32.7522 19.8809 32.8049 19.5329 32.8787 19.3957C32.9525 19.2586 33.6697 18.4782 34.4713 17.6661L35.9373 16.1789L34.5557 14.8184C32.9314 13.1942 32.7522 12.9305 32.7522 12.2344C32.7522 10.9477 34.0389 10.1989 35.199 10.8106Z" fill="#F44336"/>
</svg>
