<svg width="18" height="17" viewBox="0 0 18 17" fill="none" xmlns="http://www.w3.org/2000/svg">
<path d="M8.17615 0.174788C7.77322 0.218718 7.06626 0.35783 6.68164 0.467655C3.60106 1.35358 1.33 3.89054 0.754904 7.09011C0.677981 7.50745 0.666992 7.67951 0.666992 8.49954C0.670655 9.31224 0.681644 9.49528 0.754904 9.90896C1.39227 13.4783 4.11022 16.1617 7.69996 16.762C8.32999 16.8646 9.76589 16.8572 10.4106 16.7401C13.9454 16.1104 16.612 13.4453 17.2457 9.90896C17.3227 9.49162 17.3337 9.3159 17.3337 8.49954C17.3337 7.68317 17.3227 7.50745 17.2457 7.09011C16.9307 5.31827 16.1322 3.7917 14.8685 2.54335C13.6707 1.35724 12.1212 0.562838 10.4289 0.262648C10.0663 0.196753 9.79886 0.178448 9.14684 0.171127C8.69263 0.163805 8.25673 0.167465 8.17615 0.174788ZM9.28604 1.15589C9.72926 1.27304 10.1908 1.66475 10.5644 2.23218C10.8648 2.68612 11.1945 3.36704 11.3776 3.90518L11.5278 4.34448L11.352 4.37743C11.1285 4.4177 7.12853 4.42868 6.76223 4.38841L6.48018 4.35913L6.53146 4.18707C6.7256 3.54642 7.09556 2.73005 7.38494 2.29807C7.6267 1.94297 8.03329 1.51099 8.27139 1.35724C8.47285 1.22911 8.81351 1.1083 8.98201 1.1083C9.04428 1.10464 9.17981 1.13027 9.28604 1.15589ZM6.4875 1.89538C6.08457 2.55799 5.73293 3.36338 5.53512 4.0809L5.47652 4.29689L5.21644 4.27127C4.75124 4.22734 3.71461 4.10653 3.42523 4.06626L3.13952 4.02599L3.20912 3.92715C3.34465 3.73678 3.78787 3.26454 4.05527 3.02292C4.75857 2.3896 5.58274 1.89172 6.43622 1.57689C6.58641 1.52198 6.71461 1.48171 6.72194 1.48903C6.7256 1.49269 6.62304 1.67573 6.4875 1.89538ZM11.7293 1.64278C12.8172 2.06378 13.9124 2.85818 14.6523 3.75875L14.8648 4.01501L14.7439 4.04063C14.612 4.06626 13.2128 4.23466 12.7879 4.27127L12.5278 4.29689L12.3923 3.86125C12.1175 3.00828 11.7476 2.20289 11.3959 1.6977C11.2091 1.43046 11.1945 1.43412 11.7293 1.64278ZM3.79886 5.09129C4.27139 5.14987 4.7952 5.20844 4.9637 5.22308C5.22011 5.24505 5.26406 5.25969 5.24941 5.31094C5.1615 5.60381 5.01498 6.81555 4.98201 7.50013L4.96003 8.02363H3.29703H1.63769V7.90282C1.63769 7.70513 1.74025 7.09743 1.83915 6.71305C1.95271 6.25544 2.11388 5.79418 2.30069 5.39148C2.5278 4.90459 2.51315 4.91557 2.74392 4.95218C2.85014 4.97049 3.32633 5.03272 3.79886 5.09129ZM15.667 5.32925C15.8794 5.77953 16.0406 6.22615 16.1615 6.71305C16.2604 7.09743 16.363 7.70513 16.363 7.90282V8.02363H14.6963H13.0296V7.73808C13.0296 7.33173 12.9307 6.33598 12.8318 5.75391C12.7842 5.483 12.7476 5.25603 12.7512 5.25603C12.7549 5.25237 13.037 5.22308 13.3776 5.19014C13.7219 5.15353 14.3227 5.08031 14.7146 5.0254C15.1066 4.97049 15.4435 4.93388 15.4619 4.9412C15.4802 4.95218 15.5718 5.12424 15.667 5.32925ZM7.6963 5.39148C8.75124 5.42809 9.31168 5.42809 10.3263 5.39148C11.037 5.36586 11.6523 5.34389 11.6926 5.34023C11.7586 5.33291 11.7732 5.3805 11.8465 5.79051C11.9234 6.24446 12.015 7.03886 12.0589 7.68317L12.0846 8.02363H9.00032H5.91974L5.94172 7.66486C5.993 6.88511 6.15783 5.57452 6.23476 5.35487C6.24575 5.32925 6.27871 5.31461 6.30802 5.32559C6.33732 5.34023 6.96003 5.36952 7.6963 5.39148ZM4.97102 9.26099C4.97102 9.77717 5.15417 11.3916 5.24941 11.6881C5.26406 11.7394 5.22011 11.754 4.9637 11.776C4.63036 11.8016 3.05161 11.9956 2.74392 12.0469C2.51315 12.0835 2.5278 12.0945 2.30069 11.6076C2.11388 11.2049 1.95271 10.7436 1.83915 10.286C1.74025 9.90164 1.63769 9.29394 1.63769 9.09259V8.97544H3.30435H4.97102V9.26099ZM12.0589 9.33055C11.9967 10.2275 11.8172 11.5929 11.7512 11.6515C11.7403 11.6625 11.5168 11.6552 11.2531 11.6369C10.634 11.5929 7.36296 11.5929 6.74758 11.6369C6.4875 11.6552 6.2604 11.6625 6.24941 11.6515C6.18348 11.5929 6.00399 10.2275 5.94172 9.33055L5.91974 8.97544H9.00032H12.0809L12.0589 9.33055ZM16.3483 9.25733C16.297 9.84672 16.1029 10.6228 15.8465 11.2635C15.6487 11.7577 15.4765 12.0725 15.4106 12.0615C14.9271 11.992 13.8282 11.8565 13.3593 11.8089C13.026 11.776 12.7512 11.7467 12.7476 11.743C12.7476 11.743 12.7659 11.6149 12.7952 11.4648C12.8868 10.9889 12.993 10.0371 13.0186 9.49528L13.0406 8.97544H14.7073H16.374L16.3483 9.25733ZM11.3666 12.6216L11.5168 12.6436L11.4655 12.812C11.275 13.4527 10.9087 14.2654 10.612 14.7083C10.3703 15.0671 9.85014 15.5906 9.60472 15.7187C9.50582 15.77 9.31901 15.8359 9.19813 15.8615C9.00032 15.9018 8.94172 15.8981 8.72926 15.8432C8.08091 15.6675 7.53146 15.0781 6.993 13.9798C6.78787 13.5661 6.45454 12.6766 6.49117 12.6436C6.5571 12.5777 10.9051 12.5557 11.3666 12.6216ZM5.61205 13.1378C5.87945 13.9798 6.19446 14.6717 6.56443 15.2355C6.78421 15.5686 6.80252 15.5613 6.27139 15.3563C5.40326 15.0195 4.5278 14.4484 3.82816 13.7638C3.56076 13.5002 3.12853 12.9987 3.15051 12.9767C3.17615 12.9548 5.0919 12.7241 5.3593 12.7132L5.47285 12.7095L5.61205 13.1378ZM13.8355 12.8413C14.2677 12.8925 14.678 12.9438 14.7439 12.9584L14.8648 12.9841L14.667 13.222C14.026 13.9981 13.1615 14.6754 12.2457 15.122C11.8428 15.3197 11.2714 15.5467 11.2714 15.5137C11.2714 15.5064 11.3813 15.3197 11.5131 15.1C11.9124 14.4411 12.2677 13.6284 12.4655 12.9182L12.5241 12.7022L12.7842 12.7278C12.9307 12.7388 13.4033 12.7937 13.8355 12.8413Z" fill="black" fill-opacity="0.7"/>
</svg>
